<?xml version="1.0" encoding="UTF-8"?>
<svg width="358px" height="59px" viewBox="0 0 358 59" version="1.1" xmlns="http://www.w3.org/2000/svg" xmlns:xlink="http://www.w3.org/1999/xlink">
    <!-- Generator: Sketch 46.2 (44496) - http://www.bohemiancoding.com/sketch -->
    <title>ep-logo-white (1)</title>
    <desc>Created with Sketch.</desc>
    <defs></defs>
    <g id="Page-1" stroke="none" stroke-width="1" fill="none" fill-rule="evenodd">
        <g id="ep-logo-white-(1)" transform="translate(0.000000, -1.000000)" fill-rule="nonzero">
            <path d="M136.956,34.336 C136.956,36.811 136.979,37.847 137.008,36.638 C137.036,35.429 137.036,33.404 137.008,32.138 C136.98,30.872 136.956,31.861 136.956,34.336 M106.353,33.044 C108.123,33.071 110.973,33.071 112.686,33.044 C114.399,33.017 112.95,32.995 109.467,32.995 C105.983,32.995 104.582,33.017 106.353,33.044 M263.175,33.044 C264.94,33.071 267.827,33.071 269.592,33.044 C271.356,33.017 269.912,32.995 266.383,32.995 C262.854,32.995 261.41,33.017 263.175,33.044" id="path6" fill="#F4F4F4"></path>
            <path d="M306.795,11.368 C305.986,11.648 305.762,11.844 305.371,12.61 C304.852,13.627 304.873,38.948 305.393,40.023 C306.285,41.865 309.226,41.892 310.3,40.069 C310.752,39.302 310.83,13.551 310.383,12.684 C309.745,11.447 308.203,10.881 306.795,11.368 M147.967,13.988 C146.389,14.689 146.383,14.731 146.385,25.168 C146.386,36.202 146.449,36.681 148.209,39.012 C151.183,42.951 159.307,42.449 161.507,38.19 C163.328,34.664 159.77,32.283 156.984,35.164 C155.85,36.337 155.144,36.592 153.936,36.267 C152.288,35.823 152.052,35.014 152.051,29.794 L152.05,25.753 L155.557,25.753 C160.214,25.753 161.048,25.351 161.049,23.106 C161.051,20.877 160.324,20.518 155.675,20.449 L152.05,20.396 L152.046,18.116 C152.04,14.356 150.545,12.842 147.967,13.988 M106.3,20.081 C100.626,20.863 97.136,24.959 97.136,30.836 C97.136,37.404 101.534,41.628 108.383,41.636 C114.134,41.644 118.941,37.896 117.068,34.865 C116.093,33.287 114.043,33.348 112.301,35.006 C110.076,37.126 106.086,36.963 104.073,34.671 C103.563,34.089 103.217,33.442 103.217,33.07 C103.217,32.97 105.707,32.916 109.872,32.925 C117.009,32.941 116.935,32.949 117.86,32.077 C118.445,31.524 118.717,30.721 118.714,29.55 C118.7,23.57 112.929,19.168 106.3,20.081 M131.95,20.084 C130.886,20.234 129.206,20.929 128.224,21.627 L127.648,22.036 L127.374,21.519 C126.41,19.704 123.421,19.802 122.467,21.68 C122.146,22.311 122.133,22.666 122.133,30.836 C122.133,40.572 122.095,40.299 123.553,41.044 C124.994,41.781 126.789,41.302 127.457,40.003 C127.776,39.383 127.806,38.959 127.89,34.003 C127.992,27.97 128.036,27.746 129.368,26.453 C131.063,24.809 134.504,24.879 135.942,26.587 C136.836,27.65 136.936,28.359 137.002,34.147 C137.058,39.079 137.087,39.504 137.399,40.117 C138.276,41.836 141.328,41.828 142.207,40.105 C142.667,39.203 142.738,28.049 142.294,26.329 C141.081,21.631 137.277,19.334 131.95,20.084 M189.55,20.022 C178.773,21.286 177.41,38.162 187.832,41.276 C190.636,42.114 194.224,41.617 196.511,40.074 C196.921,39.797 197.276,39.593 197.299,39.62 C197.322,39.647 197.468,39.919 197.623,40.224 C198.432,41.814 201.393,41.766 202.399,40.147 L202.8,39.503 L202.8,30.836 C202.8,22.394 202.791,22.154 202.458,21.587 C201.379,19.75 198.383,19.768 197.555,21.616 L197.27,22.254 L196.951,21.902 C195.834,20.664 192.12,19.72 189.55,20.022 M217.243,20.089 C216.136,20.243 214.342,20.99 213.455,21.667 L212.935,22.064 L212.661,21.49 C211.698,19.47 208.175,19.939 207.567,22.169 C207.342,22.995 207.32,38.363 207.543,39.323 C207.95,41.079 209.818,41.906 211.598,41.119 C212.97,40.512 213.006,40.345 213.086,34.25 C213.161,28.458 213.196,28.251 214.371,26.768 C215.725,25.059 219.164,24.748 220.866,26.181 C222.024,27.155 222.124,27.729 222.217,33.919 C222.294,39.118 222.323,39.542 222.633,40.069 C223.708,41.892 226.648,41.865 227.54,40.023 C227.983,39.108 228.065,28.892 227.647,26.726 C226.701,21.823 222.777,19.319 217.243,20.089 M240.967,20.022 C229.576,21.172 227.643,37.456 238.469,41.063 C242.671,42.462 247.52,41.472 250.3,38.648 C253.47,35.427 249.836,31.702 246.484,34.737 C243.073,37.826 238.149,36.462 237.277,32.186 C236.104,26.436 241.857,23.094 246.476,26.841 C248.529,28.506 251.05,27.487 251.05,24.993 C251.05,22.091 245.853,19.529 240.967,20.022 M263.3,20.082 C252.916,21.504 250.426,35.855 259.765,40.456 C265.481,43.273 274.375,40.684 274.409,36.194 C274.428,33.732 271.181,32.845 269.5,34.853 C267.34,37.433 262.158,36.866 260.545,33.873 L260.026,32.91 L266.776,32.925 C273.849,32.94 273.854,32.94 274.719,32.214 C275.979,31.157 276.031,28.205 274.834,25.684 C272.954,21.726 268.191,19.412 263.3,20.082 M289.3,20.083 C287.996,20.268 286.589,20.803 285.52,21.523 C284.669,22.095 284.394,22.081 284.386,21.462 C284.384,21.348 284.065,21.023 283.675,20.739 C282.301,19.738 280.217,20.205 279.467,21.68 C278.993,22.612 278.94,46.652 279.409,47.503 C280.545,49.561 283.625,49.544 284.489,47.474 C284.658,47.07 284.717,45.981 284.717,43.25 L284.717,39.569 L285.258,39.975 C289.954,43.496 297.758,41.459 300.163,36.086 C303.978,27.564 298.06,18.846 289.3,20.083 M346.55,20.036 C341.037,20.466 337.804,24.667 339.385,29.345 C340.316,32.103 342.532,33.134 348.123,33.413 C351.848,33.599 352.759,34 352.188,35.202 C351.358,36.952 346.317,36.964 343.551,35.223 C341.175,33.727 339.174,34.412 338.786,36.855 C338.101,41.163 350.18,43.491 355.257,40.029 C357.689,38.37 358.575,35.475 357.627,32.284 C356.788,29.457 354.519,28.331 349.176,28.089 C344.926,27.897 343.734,27.276 345.219,26.026 C346.889,24.621 350.191,24.799 352.734,26.431 C354.835,27.779 357.088,26.646 357.088,24.243 C357.088,21.453 352.396,19.58 346.55,20.036 M173.633,20.4 C172.411,20.756 171.73,21.105 170.986,21.758 L170.418,22.257 L170.095,21.63 C169.134,19.768 166.329,19.71 165.199,21.527 L164.8,22.169 L164.8,30.863 L164.8,39.557 L165.3,40.266 C166.455,41.903 169.201,41.749 170.12,39.996 C170.442,39.382 170.469,39.034 170.497,35.003 C170.531,30.226 170.578,29.698 171.066,28.593 C171.848,26.823 173.449,25.869 175.8,25.773 C177.807,25.691 178.871,24.709 178.88,22.93 C178.892,20.533 176.743,19.497 173.633,20.4 M316.218,20.562 C315.875,20.746 315.484,21.168 315.253,21.604 L314.864,22.336 L314.92,28.586 C314.983,35.564 315.082,36.225 316.377,38.243 C318.696,41.857 325.019,42.887 328.767,40.262 L329.683,39.62 L330.075,40.213 C331.092,41.752 333.433,41.822 334.625,40.35 L335.133,39.722 L335.179,31.022 L335.225,22.321 L334.842,21.596 C333.856,19.733 330.929,19.776 329.827,21.669 C329.696,21.896 329.607,23.743 329.55,27.419 C329.457,33.455 329.433,33.592 328.199,34.997 C326.337,37.119 322.455,36.791 321.131,34.401 L320.633,33.503 L320.55,27.723 C320.457,21.276 320.499,21.499 319.218,20.628 C318.508,20.144 317.057,20.112 316.218,20.562 M110.382,25.601 C111.244,25.972 112.883,27.555 112.883,28.016 C112.883,28.215 112.113,28.253 108.047,28.253 L103.21,28.253 L103.537,27.612 C104.63,25.469 107.865,24.519 110.382,25.601 M267.346,25.588 C268.429,26.066 269.883,27.541 269.883,28.161 C269.883,28.211 267.708,28.253 265.05,28.253 C262.392,28.253 260.217,28.211 260.217,28.161 C260.217,27.682 261.311,26.449 262.257,25.863 C263.571,25.05 265.847,24.927 267.346,25.588 M194.254,25.818 C198.667,27.92 197.926,34.956 193.16,36.206 C189.53,37.158 186.633,34.738 186.633,30.753 C186.633,26.458 190.432,23.998 194.254,25.818 M292.505,25.745 C294.862,26.77 296.088,30.066 295.153,32.866 C293.446,37.976 286.063,37.397 284.951,32.066 C283.994,27.475 288.264,23.901 292.505,25.745" id="path19" fill="#404040"></path>
            <path d="M41.883,1.255 C40.971,1.563 36.751,2.913 29.133,5.332 C26.933,6.03 24.833,6.706 24.467,6.833 C24.1,6.961 19.412,8.463 14.05,10.172 C8.687,11.881 3.344,13.585 2.175,13.959 C1.006,14.332 0.052,14.683 0.054,14.737 C0.057,14.839 0.424,15.07 4.55,17.571 C7.779,19.528 12.367,22.311 17.633,25.506 C20.017,26.952 23.167,28.863 24.633,29.752 C26.1,30.641 30.847,33.521 35.182,36.151 L43.064,40.934 L49.265,37.152 C52.676,35.072 57.004,32.432 58.883,31.286 C60.762,30.14 63.312,28.586 64.55,27.833 C65.787,27.079 68,25.728 69.467,24.83 C70.933,23.932 73.521,22.357 75.217,21.331 C76.912,20.304 79.313,18.843 80.55,18.082 C81.787,17.322 83.565,16.243 84.499,15.685 C85.434,15.126 86.146,14.621 86.082,14.561 C86.019,14.502 85.067,14.173 83.967,13.831 C82.867,13.489 81.329,13.003 80.55,12.75 C79.771,12.498 78.121,11.976 76.883,11.59 C75.646,11.203 73.508,10.525 72.133,10.083 C69.468,9.225 64.603,7.683 62.133,6.915 C61.308,6.658 58.233,5.686 55.3,4.754 C52.367,3.823 49.367,2.873 48.633,2.644 C47.9,2.415 46.384,1.933 45.265,1.573 C42.951,0.829 43.102,0.844 41.883,1.255 M50.728,6.645 C54.709,7.869 62.342,10.212 67.689,11.852 C76.217,14.468 77.374,14.861 77.106,15.057 C76.938,15.179 74.438,16.671 71.55,18.372 C68.662,20.074 63.45,23.155 59.967,25.22 C56.483,27.284 53.371,29.124 53.05,29.309 C52.729,29.493 51.117,30.444 49.467,31.423 C47.817,32.401 45.734,33.631 44.838,34.155 L43.21,35.109 L28.422,26.406 C20.288,21.619 13.363,17.545 13.033,17.353 C9.549,15.321 9.066,15.008 9.256,14.907 C9.372,14.846 11.229,14.257 13.383,13.599 C15.537,12.941 17.488,12.337 17.717,12.257 C17.946,12.177 19.033,11.836 20.133,11.5 C21.233,11.163 23.408,10.489 24.967,10.002 C26.525,9.514 28.812,8.803 30.05,8.421 C31.287,8.039 33.463,7.365 34.883,6.922 C36.304,6.48 38.367,5.843 39.467,5.508 C40.567,5.172 41.767,4.796 42.133,4.672 C43.178,4.317 43.099,4.299 50.728,6.645 M86.002,16.919 C85.939,17.24 85.811,18.44 85.717,19.586 C85.624,20.732 85.509,21.932 85.463,22.253 C85.417,22.573 85.079,25.836 84.711,29.503 C84.343,33.169 83.933,37.257 83.8,38.586 C83.295,43.613 83.196,42.73 84.563,45.359 C85.225,46.629 85.811,47.721 85.866,47.784 C86.07,48.017 88.55,43.08 88.55,42.441 C88.55,41.929 88.35,39.708 87.466,30.419 C87.119,26.768 86.829,23.661 86.542,20.503 C86.148,16.169 86.148,16.171 86.002,16.919 M15.306,26.961 C15.246,27.146 14.953,28.957 14.8,30.086 C14.769,30.315 14.589,31.478 14.4,32.669 C12.651,43.715 12.698,43.122 13.49,44.187 C18.24,50.569 30.903,57.609 40.133,59 C46.502,59.959 55.469,57.871 60.568,54.24 C60.815,54.064 61.061,53.919 61.114,53.919 C61.215,53.919 64.379,51.837 65.776,50.852 C67.701,49.494 70.736,46.798 72.509,44.872 C73.644,43.638 73.749,43.262 73.389,41.701 C73.3,41.317 72.959,39.465 72.631,37.586 C72.303,35.707 71.928,33.569 71.796,32.836 C71.665,32.103 71.372,30.462 71.145,29.191 C70.918,27.92 70.695,26.842 70.65,26.797 C70.539,26.686 70.338,26.804 61.05,32.415 C45.337,41.906 42.989,43.308 42.812,43.304 C42.714,43.302 41.846,42.813 40.883,42.217 C39.921,41.622 38.083,40.497 36.8,39.719 C34.249,38.172 30.809,36.074 21.593,30.443 C15.145,26.503 15.407,26.648 15.306,26.961 M21.038,33.99 C28.805,39.075 36.087,43.3 41.986,46.145 L43.318,46.788 L45.309,45.774 C48.63,44.083 55.578,40.138 58.133,38.492 C58.592,38.197 60.167,37.224 61.633,36.329 C63.1,35.435 65.074,34.219 66.02,33.628 C66.965,33.037 67.76,32.579 67.787,32.611 C68.012,32.887 69.769,42.257 69.685,42.739 C69.474,43.962 60.297,51.017 55.8,53.413 C45.06,59.135 27.463,54.964 17.354,44.301 L16.408,43.303 L16.573,42.569 C16.721,41.91 18.05,32.765 18.05,32.402 C18.05,32.085 18.47,32.308 21.038,33.99" id="path24" fill="#4DB96C"></path>
        </g>
    </g>
</svg>