<?xml version="1.0" encoding="UTF-8"?>
<svg width="214px" height="152px" viewBox="0 0 214 152" version="1.1" xmlns="http://www.w3.org/2000/svg" xmlns:xlink="http://www.w3.org/1999/xlink">
    <!-- Generator: Sketch 46.2 (44496) - http://www.bohemiancoding.com/sketch -->
    <title>ranklist</title>
    <desc>Created with Sketch.</desc>
    <defs></defs>
    <g id="Page-1" stroke="none" stroke-width="1" fill="none" fill-rule="evenodd">
        <g id="iPhone-7" transform="translate(-13.000000, -240.000000)" stroke="#FFFFFF" stroke-width="4">
            <g id="ranklist" transform="translate(15.000000, 242.000000)">
                <path d="M209.487259,132.023671 C209.487259,140.846646 204.103866,148 197.463604,148 L12.0236548,148 C5.38339331,148 0,140.847659 0,132.023671 L0,15.9763293 C0,7.15335358 5.38339331,0 12.0236548,0 L197.463604,0 C204.103866,0 209.487259,7.15234108 209.487259,15.9763293 L209.487259,132.023671 L209.487259,132.023671 Z M0.637274461,24.2262266 L210,24.2262266 L0.637274461,24.2262266 Z" id="Shape"></path>
                <path d="M38.3381719,130.104937 C38.3381719,131.779257 37.3029541,133.136561 36.0259483,133.136561 L24.3122236,133.136561 C23.0352178,133.136561 22,131.779257 22,130.104937 L22,64.9179334 C22,63.2436133 23.0352178,61.8863088 24.3122236,61.8863088 L36.0259483,61.8863088 C37.3029541,61.8863088 38.3381719,63.2436133 38.3381719,64.9179334 L38.3381719,130.104937 L38.3381719,130.104937 Z M67.8182519,130.957834 C67.8182519,132.632154 66.7830341,133.989458 65.5060283,133.989458 L53.0816802,133.989458 C51.8046744,133.989458 50.7694566,132.632154 50.7694566,130.957834 L50.7694566,51.8000936 C50.7694566,50.1257736 51.8046744,48.768469 53.0816802,48.768469 L65.5060283,48.768469 C66.7830341,48.768469 67.8182519,50.1257736 67.8182519,51.8000936 L67.8182519,130.957834 L67.8182519,130.957834 Z M96.9430202,130.104937 C96.9430202,131.779257 95.9078024,133.136561 94.6307966,133.136561 L82.9170719,133.136561 C81.6400661,133.136561 80.6048483,131.779257 80.6048483,130.104937 L80.6048483,82.6145369 C80.6048483,80.9402169 81.6400661,79.5829123 82.9170719,79.5829123 L94.6307966,79.5829123 C95.9078024,79.5829123 96.9430202,80.9402169 96.9430202,82.6145369 L96.9430202,130.104937 L96.9430202,130.104937 Z M128.969629,131.968375 C128.969629,133.642695 127.934411,135 126.657406,135 L114.588369,135 C113.311363,135 112.276146,133.642695 112.276146,131.968375 L112.276146,43.0316246 C112.276146,41.3573046 113.311363,40 114.588369,40 L126.657406,40 C127.934411,40 128.969629,41.3573046 128.969629,43.0316246 L128.969629,131.968375 L128.969629,131.968375 Z M159.099444,131.968375 C159.099444,133.642695 158.064226,135 156.78722,135 L146.13866,135 C144.861654,135 143.826436,133.642695 143.826436,131.968375 L143.826436,109.391867 C143.826436,107.717547 144.861654,106.360242 146.13866,106.360242 L156.78722,106.360242 C158.064226,106.360242 159.099444,107.717547 159.099444,109.391867 L159.099444,131.968375 L159.099444,131.968375 Z M190,131.968375 C190,133.642695 188.964782,135 187.687776,135 L175.61874,135 C174.341734,135 173.306516,133.642695 173.306516,131.968375 L173.306516,77.3405206 C173.306516,75.6662005 174.341734,74.308896 175.61874,74.308896 L187.687776,74.308896 C188.964782,74.308896 190,75.6662005 190,77.3405206 L190,131.968375 Z" id="Shape" fill-rule="nonzero"></path>
            </g>
        </g>
    </g>
</svg>