<?xml version="1.0" encoding="UTF-8"?>
<svg width="150px" height="150px" viewBox="0 0 150 150" version="1.1" xmlns="http://www.w3.org/2000/svg" xmlns:xlink="http://www.w3.org/1999/xlink">
    <!-- Generator: Sketch 46.2 (44496) - http://www.bohemiancoding.com/sketch -->
    <title>edit-document</title>
    <desc>Created with Sketch.</desc>
    <defs></defs>
    <g id="Page-1" stroke="none" stroke-width="1" fill="none" fill-rule="evenodd">
        <g id="iPhone-7" transform="translate(-136.000000, -485.000000)" fill-rule="nonzero" fill="#FFFFFF">
            <g id="edit-document" transform="translate(136.000000, 485.000000)">
                <path d="M9.37501831,131.25 L9.37501831,18.75 C9.37501831,13.5773437 13.5867453,9.375 18.7500366,9.375 L112.50022,9.375 C117.672886,9.375 121.875238,13.5773437 121.875238,18.75 L121.875238,73.8644531 L131.250256,64.4894531 L131.250256,18.75 C131.250256,8.3953125 122.854927,0 112.50022,0 L18.7500366,0 C8.3953289,0 0,8.3953125 0,18.75 L0,131.25 C0,141.604687 8.3953289,150 18.7500366,150 L70.3126373,150 L70.3126373,140.625 L18.7500366,140.625 C13.5867453,140.625 9.37501831,136.422656 9.37501831,131.25 Z M103.125201,28.125 L28.1250549,28.125 L28.1250549,37.5 L103.125201,37.5 L103.125201,28.125 Z M103.125201,46.875 L28.1250549,46.875 L28.1250549,56.25 L103.125201,56.25 L103.125201,46.875 Z M103.125201,65.625 L28.1250549,65.625 L28.1250549,75 L103.125201,75 L103.125201,65.625 Z M28.1250549,93.75 L65.6251282,93.75 L65.6251282,84.375 L28.1250549,84.375 L28.1250549,93.75 Z M147.253413,84.375 L140.625275,77.746875 C138.79363,75.9152344 136.39597,75 133.997137,75 C131.598304,75 129.199471,75.9152344 127.368999,77.746875 L87.1220452,117.99375 C85.290401,119.824219 79.6876556,126.905859 79.6876556,129.304687 L75.0001465,150 L95.6908119,145.3125 C95.6908119,145.3125 105.175987,139.709766 107.006459,137.878125 L147.253413,97.63125 C150.915529,93.9703125 150.915529,88.0324219 147.253413,84.375 Z M103.701765,134.554687 C103.170905,135.058594 101.334573,136.298437 99.0915998,137.726953 L86.9474354,125.582812 C88.193141,123.875391 89.5794718,122.158594 90.4361141,121.307812 L120.739689,91.0042969 L133.997137,104.261719 L103.701765,134.554687 Z" id="Shape"></path>
            </g>
        </g>
    </g>
</svg>