<?xml version="1.0" encoding="UTF-8"?>
<svg width="143px" height="154px" viewBox="0 0 143 154" version="1.1" xmlns="http://www.w3.org/2000/svg" xmlns:xlink="http://www.w3.org/1999/xlink">
    <!-- Generator: Sketch 46.2 (44496) - http://www.bohemiancoding.com/sketch -->
    <title>list</title>
    <desc>Created with Sketch.</desc>
    <defs></defs>
    <g id="Page-1" stroke="none" stroke-width="1" fill="none" fill-rule="evenodd">
        <g id="iPhone-7" transform="translate(-89.000000, -478.000000)" stroke="#FFFFFF" stroke-width="3">
            <g id="list" transform="translate(91.000000, 480.000000)">
                <path d="M72.0603466,61.9740937 L90.8566161,61.9740937 L90.8566161,149.999112 L72.0603466,149.999112 L72.0603466,61.9740937 Z M48.5565861,90.22476 L67.3528556,90.22476 L67.3528556,150 L48.5565861,150 L48.5565861,90.22476 Z M24.4480961,82.0359937 L43.2443656,82.0359937 L43.2443656,150 L24.4480961,150 L24.4480961,82.0359937 Z M0,97.5943832 L18.7962695,97.5943832 L18.7962695,150 L0,150 L0,97.5943832 Z M96.8427287,74.2567989 L115.638998,74.2567989 L115.638998,149.999112 L96.8427287,149.999112 L96.8427287,74.2567989 Z M120.203731,37 L139,37 L139,150 L120.203731,150 L120.203731,37 Z" id="Shape" fill-rule="nonzero"></path>
                <circle id="Oval" fill-rule="nonzero" cx="5" cy="68" r="5"></circle>
                <circle id="Oval" fill-rule="nonzero" cx="30" cy="42" r="5"></circle>
                <circle id="Oval" fill-rule="nonzero" cx="54" cy="46" r="5"></circle>
                <circle id="Oval" fill-rule="nonzero" cx="83" cy="22" r="5"></circle>
                <circle id="Oval" fill-rule="nonzero" cx="104" cy="31" r="5"></circle>
                <circle id="Oval" fill-rule="nonzero" cx="130" cy="5" r="5"></circle>
                <path d="M8,63 L27,45 M35,42 L49,46 M59,45 L78,24 M87,24 L99,29 M109,28 L127,9" id="Shape"></path>
            </g>
        </g>
    </g>
</svg>