<?xml version="1.0" encoding="UTF-8"?>
<svg width="201px" height="154px" viewBox="0 0 201 154" version="1.1" xmlns="http://www.w3.org/2000/svg" xmlns:xlink="http://www.w3.org/1999/xlink">
    <!-- Generator: Sketch 46.2 (44496) - http://www.bohemiancoding.com/sketch -->
    <title>one-one</title>
    <desc>Created with Sketch.</desc>
    <defs></defs>
    <g id="Page-1" stroke="none" stroke-width="1" fill="none" fill-rule="evenodd">
        <g id="iPhone-7" transform="translate(-69.000000, -479.000000)" stroke="#FFFFFF" fill-rule="nonzero" stroke-width="3">
            <g id="one-one" transform="translate(71.000000, 481.000000)">
                <path d="M185.916235,107.597739 L196.890421,51.4765335 C197.292054,49.4226632 196.573143,47.3094212 195.004495,45.9328453 C193.435846,44.5562695 191.255775,44.1254944 189.285494,44.8027888 C187.315212,45.4800832 185.854052,47.1625501 185.452418,49.2164204 L175.402498,100.609243 L160.580571,100.609243 C162.720008,100.116985 164.680266,99.0341518 166.240648,97.4826541 C168.470212,95.2641276 169.728313,92.2439022 169.736529,89.090366 L169.845959,48.8864151 C169.863636,42.2947712 164.523432,36.9537626 157.969393,37.0003018 L147.122314,37.0781492 C140.571642,37.1255346 135.31309,42.536775 135.415786,49.118265 L135.558046,58.1934102 L145.911846,46.6178403 L135.259216,65.8114551 L111.041426,65.8114551 C107.151596,65.8114551 104,68.980352 104,72.8904915 C104,76.8006309 107.152437,79.9695278 111.041426,79.9695278 L139.394002,79.9695278 C141.946777,79.9694317 144.299568,78.5804966 145.543149,76.3394697 L156.495449,56.6060001 C154.89019,64.1978139 152.587942,71.5467777 149.929625,78.4667345 C148.775555,81.4714749 146.155118,83.7832042 142.547281,84.3569057 L116.541566,84.2807506 C113.737384,84.2664948 111.110342,85.6571523 109.535495,87.9895023 C107.956113,90.3171329 107.628154,93.2806903 108.660052,95.9003211 L127.841518,144.628562 C129.559576,148.99394 134.471317,151.127128 138.808129,149.401793 C143.147465,147.675611 145.273782,142.739917 143.556567,138.377924 L141.113743,132.172978 L148.727574,112.328661 L170.863662,112.328661 L184.342962,147.463223 C184.842485,148.765257 185.995083,149.700503 187.366582,149.916661 C188.738081,150.13282 190.120119,149.597053 190.992096,148.511177 C191.864072,147.425302 192.093513,145.954289 191.593989,144.652255 L179.192999,112.327815 L180.196392,112.327815 C182.982401,112.327441 185.378824,110.345698 185.916235,107.597739 Z M136.89478,121.455422 L128.962759,101.304792 L136.595109,101.326793 C134.259589,102.612346 133.087523,105.325358 133.747378,107.918511 C134.407232,110.511664 136.731264,112.325743 139.394002,112.326122 L140.397395,112.326122 L136.89478,121.455422 L136.89478,121.455422 Z" id="Shape"></path>
                <circle id="Oval" cx="143.5" cy="15.5" r="15.5"></circle>
                <path d="M58.2330301,79.9684345 L86.8843745,79.9684345 C90.8151941,79.9684345 94,76.7994943 94,72.8893013 C94,68.9791083 90.8143434,65.8110142 86.8843745,65.8110142 L62.4113866,65.8110142 L51.6456537,46.6179828 L62.1077072,58.1937111 L62.2514658,49.1184417 C62.3560948,42.5334769 57.0387278,37.1247009 50.4215789,37.0781611 L39.4601982,37.0003126 C32.8336923,36.9529266 27.4397675,42.2982392 27.4584816,48.8865886 L27.5690651,89.09109 C27.5776862,92.2447726 28.8493437,95.2650222 31.1026346,97.483493 C32.6795957,99.0348305 34.660455,100.117648 36.8223555,100.610124 L21.845091,100.610124 L11.6892689,49.2165984 C11.3140422,47.1327145 9.83803468,45.4121966 7.8282115,44.7159313 C5.81838831,44.019666 3.5873006,44.4559307 1.99195538,45.8571471 C0.396610169,47.2583636 -0.314897573,49.406626 0.130737028,51.4767425 L11.2214154,107.598716 C11.7645402,110.346558 14.1863081,112.328049 17.001532,112.328011 L18.015498,112.328011 L5.48383099,144.652047 C4.97904423,145.95425 5.21098375,147.425423 6.09228017,148.511389 C6.9735766,149.597355 8.37034004,150.133129 9.75642323,149.916892 C11.1425064,149.700655 12.3073303,148.765257 12.8121171,147.463054 L26.4334573,112.328011 L48.8011048,112.328011 L56.4951672,132.1726 L54.0266023,138.37763 C52.2912914,142.739683 54.439164,147.675445 58.8250773,149.40165 C63.2084387,151.127855 68.1710877,148.992099 69.9072493,144.628354 L89.2916931,95.899446 C90.334006,93.2797182 90.0026155,90.3163412 88.4070248,87.9885188 C86.8145986,85.6703258 84.175176,84.2826633 81.3526456,84.2797164 L81.3271264,84.2797164 C53.3928736,84.3609496 55.1562557,84.3719499 54.8755437,84.3279486 C51.4559604,83.7872402 48.7585726,81.4594019 47.5872378,78.4656207 L40.9522254,56.604587 L52.0207871,76.3383268 C53.276505,78.579508 55.6537176,79.968626 58.2330301,79.9684345 Z M58.2330301,112.328011 C60.9238276,112.327632 63.2723484,110.513527 63.9391563,107.920339 C64.6059641,105.32715 63.4215473,102.614101 61.0614167,101.32853 L68.7741933,101.305683 L60.7577373,121.456589 L57.2182134,112.328011 L58.2330301,112.328011 L58.2330301,112.328011 Z" id="Shape"></path>
                <circle id="Oval" cx="53.5" cy="15.5" r="15.5"></circle>
            </g>
        </g>
    </g>
</svg>