<?xml version="1.0" encoding="UTF-8"?>
<svg width="281px" height="152px" viewBox="0 0 281 152" version="1.1" xmlns="http://www.w3.org/2000/svg" xmlns:xlink="http://www.w3.org/1999/xlink">
    <!-- Generator: Sketch 46.2 (44496) - http://www.bohemiancoding.com/sketch -->
    <title>ranklist</title>
    <desc>Created with Sketch.</desc>
    <defs></defs>
    <g id="Page-1" stroke="none" stroke-width="1" fill="none" fill-rule="evenodd">
        <g id="iPhone-7" transform="translate(-63.000000, -453.000000)" stroke="#FFFFFF" stroke-width="4">
            <g id="ranklist" transform="translate(65.000000, 455.000000)">
                <path d="M276.323671,132.023671 C276.323671,140.846646 269.222718,148 260.463897,148 L15.8597733,148 C7.10095212,148 0,140.847659 0,132.023671 L0,15.9763293 C0,7.15335358 7.10095212,0 15.8597733,0 L260.463897,0 C269.222718,0 276.323671,7.15234108 276.323671,15.9763293 L276.323671,132.023671 L276.323671,132.023671 Z M0.840595361,24.2262266 L277,24.2262266 L0.840595361,24.2262266 Z" id="Shape"></path>
                <path d="M50.4924761,130.104937 C50.4924761,131.779257 49.1306718,133.136561 47.450801,133.136561 L32.0416751,133.136561 C30.3618043,133.136561 29,131.779257 29,130.104937 L29,64.9179334 C29,63.2436133 30.3618043,61.8863088 32.0416751,61.8863088 L47.450801,61.8863088 C49.1306718,61.8863088 50.4924761,63.2436133 50.4924761,64.9179334 L50.4924761,130.104937 L50.4924761,130.104937 Z M89.2728194,130.957834 C89.2728194,132.632154 87.9110151,133.989458 86.2311444,133.989458 L69.8872103,133.989458 C68.2073395,133.989458 66.8455352,132.632154 66.8455352,130.957834 L66.8455352,51.8000936 C66.8455352,50.1257736 68.2073395,48.768469 69.8872103,48.768469 L86.2311444,48.768469 C87.9110151,48.768469 89.2728194,50.1257736 89.2728194,51.8000936 L89.2728194,130.957834 L89.2728194,130.957834 Z M127.585759,130.104937 C127.585759,131.779257 126.223954,133.136561 124.544084,133.136561 L109.134958,133.136561 C107.455087,133.136561 106.093283,131.779257 106.093283,130.104937 L106.093283,82.6145369 C106.093283,80.9402169 107.455087,79.5829123 109.134958,79.5829123 L124.544084,79.5829123 C126.223954,79.5829123 127.585759,80.9402169 127.585759,82.6145369 L127.585759,130.104937 L127.585759,130.104937 Z M169.716,131.968375 C169.716,133.642695 168.354196,135 166.674325,135 L150.797795,135 C149.117924,135 147.75612,133.642695 147.75612,131.968375 L147.75612,43.0316246 C147.75612,41.3573046 149.117924,40 150.797795,40 L166.674325,40 C168.354196,40 169.716,41.3573046 169.716,43.0316246 L169.716,131.968375 L169.716,131.968375 Z M209.351054,131.968375 C209.351054,133.642695 207.98925,135 206.309379,135 L192.301452,135 C190.621581,135 189.259776,133.642695 189.259776,131.968375 L189.259776,109.391867 C189.259776,107.717547 190.621581,106.360242 192.301452,106.360242 L206.309379,106.360242 C207.98925,106.360242 209.351054,107.717547 209.351054,109.391867 L209.351054,131.968375 L209.351054,131.968375 Z M250,131.968375 C250,133.642695 248.638196,135 246.958325,135 L231.081795,135 C229.401924,135 228.04012,133.642695 228.04012,131.968375 L228.04012,77.3405206 C228.04012,75.6662005 229.401924,74.308896 231.081795,74.308896 L246.958325,74.308896 C248.638196,74.308896 250,75.6662005 250,77.3405206 L250,131.968375 Z" id="Shape" fill-rule="nonzero"></path>
            </g>
        </g>
    </g>
</svg>