<?xml version="1.0" encoding="UTF-8"?>
<svg width="60px" height="60px" viewBox="0 0 60 60" version="1.1" xmlns="http://www.w3.org/2000/svg" xmlns:xlink="http://www.w3.org/1999/xlink">
    <!-- Generator: Sketch 52.2 (67145) - http://www.bohemiancoding.com/sketch -->
    <title>Group 5</title>
    <desc>Created with Sketch.</desc>
    <defs>
        <circle id="path-1" cx="30" cy="30" r="30"></circle>
    </defs>
    <g id="Page-1" stroke="none" stroke-width="1" fill="none" fill-rule="evenodd">
        <g id="Artboard-Copy-40" transform="translate(-810.000000, -2192.000000)">
            <g id="Group-7" transform="translate(334.000000, 2020.000000)">
                <g id="Group-6" transform="translate(476.000000, 170.000000)">
                    <g id="Group-5" transform="translate(0.000000, 2.000000)">
                        <mask id="mask-2" fill="white">
                            <use xlink:href="#path-1"></use>
                        </mask>
                        <use id="Oval" fill="#D8EADA" fill-rule="nonzero" xlink:href="#path-1"></use>
                        <g id="Group" mask="url(#mask-2)">
                            <g transform="translate(-4.000000, 7.000000)">
                                <path d="M4.1755102,42.5142857 C4.04897959,42.2612245 3.79591837,42.0081633 3.54285714,41.8816327 C3.41632653,41.8816327 3.28979592,41.8816327 3.16326531,41.8816327 C3.03673469,41.755102 2.91020408,41.6285714 2.91020408,41.5020408 C2.65714286,40.9959184 2.40408163,40.6163265 1.89795918,40.4897959 C1.39183673,40.3632653 0.885714286,40.4897959 0.506122449,40.8693878 C0.253061224,41.2489796 0.253061224,41.6285714 0.253061224,42.0081633 C0.379591837,44.1591837 1.77142857,46.1836735 3.79591837,47.0693878 C4.04897959,47.1959184 4.30204082,47.322449 4.68163265,47.1959184 C5.1877551,47.0693878 6.07346939,45.9306122 5.94693878,45.4244898 C5.82040816,44.6653061 4.55510204,43.1469388 4.1755102,42.5142857 Z" id="Path" fill="#D1AC9D"></path>
                                <path d="M10.3755102,47.322449 C11.7673469,48.0816327 13.2857143,48.9673469 14.8040816,48.4612245 C16.1959184,47.955102 16.8285714,46.4367347 17.4612245,45.044898 C19.3591837,40.6163265 22.1428571,36.6938776 25.5591837,33.277551 C25.8122449,33.0244898 26.1918367,32.644898 26.5714286,32.644898 C27.077551,32.644898 27.4571429,33.1510204 27.7102041,33.5306122 C28.2163265,34.4163265 28.8489796,35.3020408 28.8489796,36.3142857 C28.8489796,37.0734694 28.4693878,37.8326531 28.2163265,38.4653061 C27.4571429,40.1102041 26.6979592,41.755102 25.9387755,43.4 C25.1795918,45.1714286 24.2938776,46.9428571 23.2816327,48.5877551 C22.2693878,50.2326531 21.1306122,51.877551 19.9918367,53.3959184 C19.7387755,53.7755102 19.4857143,54.155102 19.1061224,54.4081633 C18.7265306,54.6612245 18.3469388,54.6612245 17.9673469,54.7877551 C15.4367347,55.1673469 13.0326531,53.9020408 11.0081633,52.3836735 C8.98367347,50.8653061 7.2122449,49.0938776 5.06122449,47.8285714 C4.80816327,47.7020408 4.55510204,47.5755102 4.42857143,47.322449 C4.30204082,47.0693878 4.30204082,46.8163265 4.42857143,46.5632653 C4.68163265,45.4244898 5.31428571,44.2857143 6.45306122,44.9183673 C7.84489796,45.677551 9.11020408,46.5632653 10.3755102,47.322449 Z" id="Path" fill="#D1AC9D"></path>
                                <g id="Group" stroke-width="1" fill="none" transform="translate(10.122449, 0.000000)">
                                    <path d="M13.0326531,59.4693878 C12.9061224,59.9755102 11.8938776,61.8734694 12.1469388,62.3795918 C12.4,63.0122449 13.9183673,62 14.5510204,62.3795918 C15.6897959,63.0122449 16.8285714,63.5183673 17.9673469,64.0244898 C20.244898,64.9102041 22.7755102,65.1632653 25.3061224,65.2897959 C27.2040816,65.4163265 29.1020408,65.2897959 30.7469388,64.4040816 C31.1265306,64.1510204 31.5061224,63.8979592 31.7591837,63.5183673 C32.0122449,63.1387755 33.7836735,68.2 33.7836735,67.6938776 C34.0367347,65.2897959 30.8734694,56.4326531 31.1265306,54.155102 C31.1265306,53.7755102 31.2530612,53.3959184 31.1265306,53.0163265 C30.8734694,52.2571429 30.1142857,51.7510204 29.4816327,51.4979592 C26.444898,49.9795918 24.6734694,50.4857143 21.2571429,50.4857143 C18.9795918,50.4857143 17.8408163,48.3346939 15.9428571,49.7265306 C14.677551,50.6122449 14.9306122,51.244898 14.8040816,52.7632653 C14.8040816,54.0285714 13.2857143,57.9510204 13.0326531,59.4693878 Z" id="Path" fill="#333333"></path>
                                    <g transform="translate(7.326531, 8.857143)" fill="#D1AC9D" id="Path">
                                        <path d="M8.99591837,5.56734694 C9.50204082,2.0244898 13.044898,-0.379591837 16.9673469,0.253061224 C20.7632653,0.885714286 23.4204082,4.1755102 22.9142857,7.71836735 C22.7877551,8.35102041 22.6612245,8.85714286 22.4081633,9.36326531 C22.4081633,9.48979592 22.4081633,9.61632653 22.2816327,9.74285714 C22.155102,11.0081633 21.9020408,12.2734694 21.3959184,13.5387755 C20.5102041,15.9428571 18.8653061,17.9673469 16.3346939,19.1061224 C15.4489796,19.4857143 14.4367347,19.6122449 13.5510204,19.4857143 C12.2857143,19.2326531 11.1469388,18.4734694 10.3877551,17.4612245 C7.85714286,14.2979592 8.23673469,10.122449 8.99591837,6.32653061 C8.99591837,6.07346939 8.99591837,5.82040816 8.99591837,5.56734694 Z"></path>
                                    </g>
                                    <path d="M37.9591837,6.95918367 C37.8326531,6.70612245 37.3265306,6.32653061 36.8204082,6.07346939 C37.0734694,5.94693878 37.2,5.44081633 36.8204082,5.31428571 C36.8204082,5.31428571 36.8204082,5.31428571 36.8204082,5.31428571 C37.2,5.31428571 37.4530612,5.06122449 37.4530612,4.55510204 C37.4530612,3.92244898 36.6938776,3.66938776 35.9346939,3.54285714 C35.9346939,3.54285714 35.9346939,3.54285714 35.8081633,3.41632653 C35.8081633,3.41632653 35.8081633,3.41632653 35.6816327,3.41632653 C35.3020408,2.40408163 34.4163265,1.39183673 33.4040816,0.885714286 C31.6326531,-0.126530612 30.1142857,0.759183673 28.8489796,2.0244898 C28.8489796,1.64489796 28.9755102,1.39183673 29.1020408,1.0122449 C29.1020408,0.885714286 28.9755102,0.759183673 28.8489796,0.885714286 C28.4693878,1.51836735 28.2163265,2.15102041 28.2163265,2.78367347 C28.2163265,2.78367347 28.0897959,2.91020408 28.0897959,2.91020408 C28.0897959,3.03673469 28.0897959,3.03673469 28.0897959,3.16326531 C27.9632653,3.16326531 27.8367347,3.16326531 27.7102041,3.16326531 C27.5836735,3.03673469 27.3306122,2.91020408 27.2040816,2.78367347 C27.077551,2.65714286 26.8244898,2.78367347 26.8244898,3.03673469 C26.8244898,3.03673469 26.8244898,3.03673469 26.6979592,3.03673469 C26.1918367,2.91020408 25.9387755,3.66938776 26.3183673,3.79591837 C25.9387755,3.92244898 25.6857143,4.04897959 25.3061224,4.1755102 C24.8,4.42857143 25.1795918,5.1877551 25.6857143,4.93469388 C25.6857143,5.06122449 25.6857143,5.06122449 25.6857143,5.1877551 C25.5591837,5.31428571 25.4326531,5.31428571 25.3061224,5.44081633 C25.3061224,5.44081633 25.3061224,5.44081633 25.1795918,5.56734694 C25.0530612,5.44081633 25.0530612,5.31428571 25.0530612,5.06122449 C25.0530612,4.93469388 24.9265306,4.80816327 24.8,4.93469388 C24.8,5.06122449 24.6734694,5.06122449 24.6734694,5.1877551 C24.5469388,5.06122449 24.4204082,5.1877551 24.5469388,5.31428571 C24.5469388,5.44081633 24.6734694,5.56734694 24.6734694,5.56734694 C24.6734694,5.69387755 24.8,5.94693878 25.0530612,6.07346939 C25.0530612,6.07346939 25.0530612,6.07346939 25.0530612,6.07346939 C25.0530612,5.94693878 24.8,5.94693878 24.8,5.94693878 L24.6734694,5.82040816 C24.6734694,5.69387755 24.5469388,5.69387755 24.4204082,5.69387755 C24.4204082,5.69387755 24.2938776,5.69387755 24.2938776,5.69387755 C24.2938776,5.56734694 24.1673469,5.56734694 24.1673469,5.44081633 C24.0408163,5.31428571 23.7877551,5.06122449 23.6612245,4.93469388 C23.4081633,4.55510204 23.4081633,4.30204082 23.4081633,3.79591837 C23.4081633,3.54285714 23.155102,3.54285714 23.0285714,3.79591837 C23.0285714,4.1755102 23.0285714,4.42857143 23.0285714,4.80816327 C23.155102,5.06122449 23.2816327,5.31428571 23.4081633,5.44081633 C22.6489796,5.06122449 22.0163265,5.06122449 21.5102041,4.1755102 C21.3836735,3.92244898 21.2571429,3.66938776 21.0040816,3.54285714 C20.7510204,3.41632653 19.7387755,2.78367347 19.7387755,2.53061224 C19.7387755,2.40408163 19.6122449,2.40408163 19.4857143,2.53061224 C19.3591837,3.03673469 19.3591837,3.16326531 19.7387755,3.41632653 C19.9918367,3.54285714 20.244898,3.79591837 20.4979592,3.92244898 C20.7510204,4.1755102 20.877551,4.55510204 21.1306122,4.80816327 C21.3836735,5.1877551 21.7632653,5.44081633 22.1428571,5.69387755 C21.7632653,5.69387755 21.5102041,5.56734694 21.1306122,5.69387755 C20.3714286,5.82040816 19.6122449,6.07346939 18.8530612,6.2 C18.9795918,6.2 17.0816327,6.70612245 17.2081633,6.70612245 C17.0816327,6.57959184 16.8285714,6.70612245 16.955102,6.95918367 L17.0816327,7.2122449 C17.0816327,7.2122449 17.2081633,7.33877551 17.2081633,7.2122449 C17.8408163,7.08571429 18.3469388,6.70612245 18.9795918,6.57959184 C19.9918367,6.45306122 21.0040816,6.07346939 21.8897959,6.2 C22.2693878,6.2 22.6489796,6.32653061 23.0285714,6.57959184 C22.3959184,6.45306122 21.7632653,6.32653061 21.1306122,6.45306122 C20.4979592,6.57959184 19.9918367,6.95918367 19.6122449,7.33877551 C18.9795918,7.71836735 18.6,8.35102041 18.0938776,8.85714286 C17.5877551,9.23673469 17.3346939,9.36326531 16.955102,9.74285714 C16.7020408,10.122449 16.322449,10.5020408 16.0693878,11.0081633 C15.6897959,11.5142857 15.1836735,12.1469388 14.9306122,12.7795918 C14.2979592,14.4244898 14.5510204,16.0693878 15.0571429,17.7142857 C15.0571429,17.8408163 15.1836735,17.8408163 15.1836735,17.7142857 C15.1836735,17.8408163 15.3102041,17.8408163 15.3102041,17.9673469 C15.4367347,18.2204082 15.8163265,17.9673469 15.8163265,17.7142857 C15.8163265,17.7142857 15.8163265,17.7142857 15.8163265,17.7142857 C15.8163265,17.7142857 15.8163265,17.7142857 15.8163265,17.7142857 C15.8163265,17.7142857 15.8163265,17.7142857 15.8163265,17.7142857 C15.5632653,17.3346939 15.8163265,16.955102 15.6897959,16.5755102 C15.6897959,16.4489796 15.6897959,16.4489796 15.5632653,16.322449 C15.6897959,16.322449 15.8163265,16.1959184 15.8163265,16.0693878 C15.8163265,15.5632653 15.9428571,14.9306122 15.9428571,14.4244898 C16.0693878,14.5510204 16.4489796,14.4244898 16.4489796,14.1714286 C16.4489796,14.044898 16.4489796,13.9183673 16.4489796,13.9183673 C16.4489796,13.7918367 16.322449,13.6653061 16.1959184,13.5387755 C16.1959184,13.4122449 16.1959184,13.4122449 16.0693878,13.2857143 C16.0693878,13.4122449 16.1959184,13.5387755 16.1959184,13.5387755 C16.1959184,13.6653061 16.322449,13.6653061 16.4489796,13.5387755 C16.7020408,13.6653061 16.955102,13.5387755 17.0816327,13.2857143 C17.0816327,13.1591837 17.0816327,13.0326531 17.0816327,12.9061224 C17.2081633,13.0326531 17.3346939,13.2857143 17.5877551,13.2857143 C17.8408163,13.4122449 17.9673469,13.1591837 18.0938776,13.0326531 C18.2204082,12.6530612 18.2204082,12.4 18.3469388,12.1469388 C18.3469388,12.2734694 18.6,12.2734694 18.6,12.1469388 C18.7265306,11.6408163 18.7265306,11.2612245 18.9795918,11.0081633 C19.1061224,10.8816327 19.2326531,10.755102 19.3591837,10.6285714 C18.9795918,11.1346939 18.8530612,11.6408163 18.9795918,12.4 C18.9795918,12.5265306 19.2326531,12.5265306 19.2326531,12.4 C19.2326531,12.2734694 19.2326531,12.2734694 19.2326531,12.1469388 C19.3591837,12.2734694 19.6122449,12.1469388 19.7387755,12.0204082 C19.7387755,11.8938776 19.8653061,11.7673469 19.9918367,11.6408163 C19.8653061,11.8938776 19.8653061,12.1469388 19.8653061,12.4 C19.8653061,12.5265306 20.1183673,12.6530612 20.1183673,12.4 C20.1183673,12.1469388 20.244898,12.0204082 20.244898,11.7673469 C20.244898,11.7673469 20.3714286,11.7673469 20.3714286,11.7673469 C20.6244898,11.5142857 20.877551,11.2612245 21.2571429,11.0081633 C21.0040816,11.3877551 20.7510204,11.7673469 20.4979592,12.1469388 C20.3714286,12.4 20.7510204,12.4 20.7510204,12.2734694 C20.877551,12.0204082 21.0040816,11.7673469 21.2571429,11.5142857 C21.1306122,11.7673469 21.1306122,12.1469388 21.1306122,12.4 C21.1306122,12.5265306 21.3836735,12.5265306 21.3836735,12.4 C21.3836735,11.8938776 21.7632653,11.3877551 22.1428571,11.0081633 C21.8897959,11.3877551 21.6367347,11.7673469 21.6367347,12.2734694 C21.6367347,12.7795918 22.2693878,12.7795918 22.3959184,12.2734694 C22.3959184,11.7673469 22.6489796,11.3877551 22.9020408,11.1346939 C22.6489796,11.6408163 22.522449,12.2734694 22.3959184,12.7795918 C22.3959184,13.0326531 22.6489796,13.0326531 22.6489796,12.7795918 C22.6489796,12.4 22.7755102,12.1469388 23.0285714,11.8938776 C23.0285714,12.0204082 23.0285714,12.0204082 23.0285714,12.1469388 C23.0285714,12.2734694 22.9020408,12.2734694 22.9020408,12.4 C22.7755102,12.6530612 23.0285714,12.9061224 23.2816327,12.9061224 C23.2816327,13.1591837 23.7877551,13.2857143 23.9142857,12.9061224 C24.0408163,12.5265306 24.1673469,12.2734694 24.4204082,12.1469388 C24.4204082,12.1469388 24.4204082,12.2734694 24.2938776,12.2734694 C24.1673469,12.4 24.2938776,12.5265306 24.2938776,12.6530612 C24.2938776,12.6530612 24.2938776,12.6530612 24.2938776,12.6530612 C24.2938776,12.6530612 24.2938776,12.6530612 24.2938776,12.6530612 C24.2938776,12.6530612 24.2938776,12.6530612 24.2938776,12.6530612 C24.1673469,12.6530612 24.1673469,12.7795918 24.1673469,12.9061224 C24.1673469,13.0326531 24.1673469,13.0326531 24.1673469,13.1591837 C24.1673469,13.2857143 24.4204082,13.4122449 24.5469388,13.1591837 C24.5469388,13.1591837 24.5469388,13.0326531 24.5469388,13.0326531 C24.5469388,13.0326531 24.6734694,13.0326531 24.6734694,13.0326531 C24.6734694,13.0326531 24.6734694,13.0326531 24.6734694,13.0326531 C24.5469388,13.1591837 24.5469388,13.2857143 24.4204082,13.4122449 C24.4204082,13.5387755 24.5469388,13.5387755 24.5469388,13.5387755 C24.9265306,13.1591837 25.3061224,12.7795918 25.6857143,12.5265306 C25.4326531,12.9061224 25.0530612,13.4122449 24.6734694,13.5387755 C24.5469388,13.5387755 24.5469388,13.7918367 24.6734694,13.7918367 C24.8,13.7918367 24.9265306,13.7918367 25.0530612,13.6653061 C25.0530612,13.7918367 25.0530612,13.9183673 25.1795918,14.044898 C25.1795918,14.1714286 25.0530612,14.1714286 25.0530612,14.2979592 C24.8,14.677551 25.5591837,14.9306122 25.6857143,14.5510204 C25.9387755,14.1714286 26.3183673,14.044898 26.6979592,13.7918367 C26.5714286,14.044898 26.444898,14.4244898 26.444898,14.677551 C26.1918367,15.0571429 25.9387755,15.5632653 25.8122449,15.4367347 C25.6857143,15.3102041 25.5591837,15.5632653 25.6857143,15.6897959 C25.6857143,15.6897959 25.8122449,15.8163265 25.8122449,15.8163265 C25.8122449,15.8163265 25.9387755,15.8163265 25.9387755,15.8163265 C25.9387755,15.8163265 26.0653061,15.6897959 26.0653061,15.6897959 C25.9387755,15.9428571 25.9387755,16.1959184 25.6857143,16.4489796 C25.6857143,16.4489796 25.6857143,16.5755102 25.5591837,16.5755102 C25.5591837,16.5755102 25.5591837,16.5755102 25.5591837,16.5755102 C25.4326531,16.955102 25.8122449,17.0816327 26.0653061,17.0816327 C26.0653061,17.0816327 26.0653061,17.2081633 26.1918367,17.2081633 C26.0653061,17.4612245 26.444898,17.8408163 26.6979592,17.5877551 C26.5714286,18.0938776 26.5714286,18.7265306 26.444898,19.2326531 C26.3183673,19.7387755 27.077551,19.7387755 27.2040816,19.3591837 C27.2040816,19.3591837 27.3306122,19.3591837 27.3306122,19.2326531 C27.4571429,19.1061224 27.4571429,18.9795918 27.7102041,18.7265306 C27.7102041,18.8530612 27.5836735,18.9795918 27.5836735,18.9795918 C27.4571429,19.1061224 27.4571429,19.2326531 27.3306122,19.4857143 C27.3306122,19.6122449 27.3306122,19.6122449 27.3306122,19.7387755 C27.3306122,19.8653061 27.2040816,19.9918367 27.2040816,20.1183673 C27.077551,20.3714286 27.4571429,20.4979592 27.5836735,20.244898 C27.5836735,20.1183673 27.7102041,20.1183673 27.7102041,19.9918367 C27.7102041,19.9918367 27.8367347,19.9918367 27.8367347,19.8653061 C27.8367347,19.8653061 27.8367347,19.8653061 27.8367347,19.8653061 C27.7102041,19.9918367 27.7102041,20.1183673 27.5836735,20.244898 C27.4571429,20.3714286 27.5836735,20.6244898 27.5836735,20.7510204 C27.5836735,20.7510204 27.5836735,20.7510204 27.7102041,20.877551 C27.7102041,20.877551 27.8367347,20.877551 27.9632653,21.0040816 C27.9632653,21.1306122 27.8367347,21.2571429 27.8367347,21.5102041 C27.8367347,21.5102041 27.8367347,21.5102041 27.8367347,21.5102041 C27.8367347,21.5102041 27.8367347,21.6367347 27.8367347,21.6367347 C27.7102041,21.8897959 27.7102041,22.0163265 27.5836735,22.2693878 C27.4571429,22.522449 27.7102041,22.6489796 27.8367347,22.7755102 C27.8367347,22.7755102 27.7102041,22.9020408 27.7102041,22.9020408 C27.4571429,23.0285714 27.5836735,23.2816327 27.7102041,23.4081633 C27.5836735,23.5346939 27.3306122,23.6612245 27.2040816,23.9142857 C27.077551,24.0408163 27.2040816,24.1673469 27.3306122,24.1673469 C27.3306122,24.1673469 27.3306122,24.1673469 27.4571429,24.1673469 C27.3306122,24.2938776 27.077551,24.4204082 26.9510204,24.5469388 C26.6979592,24.6734694 26.5714286,25.1795918 26.5714286,25.4326531 C26.444898,25.8122449 27.2040816,25.9387755 27.2040816,25.4326531 C27.2040816,25.4326531 27.2040816,25.3061224 27.2040816,25.1795918 C27.3306122,25.3061224 27.4571429,25.3061224 27.5836735,25.1795918 C28.4693878,24.6734694 29.6081633,24.1673469 30.1142857,23.4081633 C30.2408163,23.155102 30.3673469,22.7755102 30.3673469,22.522449 C30.6204082,22.0163265 30.7469388,21.8897959 31,21.5102041 C31.3795918,21.0040816 31.5061224,20.6244898 31.6326531,19.9918367 C31.6326531,19.2326531 31.7591837,18.6 31.7591837,17.8408163 C31.7591837,17.3346939 31.6326531,16.8285714 31.6326531,16.322449 C31.6326531,15.8163265 31.7591837,15.4367347 31.7591837,14.9306122 C32.2653061,16.0693878 33.277551,16.7020408 32.7714286,18.2204082 C32.7714286,18.3469388 33.0244898,18.4734694 33.0244898,18.3469388 C33.4040816,17.2081633 33.1510204,16.4489796 32.5183673,15.4367347 C32.1387755,14.8040816 31.8857143,14.044898 31.6326531,13.4122449 C31.6326531,13.4122449 31.6326531,13.4122449 31.6326531,13.4122449 C31.7591837,13.4122449 31.8857143,13.4122449 32.0122449,13.4122449 C32.2653061,13.9183673 32.644898,14.2979592 33.0244898,14.8040816 C33.4040816,15.1836735 33.7836735,15.4367347 34.0367347,15.9428571 C34.1632653,16.322449 34.0367347,16.7020408 34.2897959,16.955102 C34.5428571,17.2081633 35.0489796,16.8285714 34.7959184,16.5755102 C34.5428571,16.322449 34.6693878,15.6897959 34.4163265,15.4367347 C34.2897959,15.1836735 34.0367347,15.0571429 33.7836735,14.8040816 C33.4040816,14.4244898 32.8979592,14.044898 32.5183673,13.6653061 C32.7714286,13.6653061 32.8979592,13.7918367 33.1510204,13.9183673 C33.7836735,14.1714286 34.5428571,14.4244898 35.1755102,14.677551 C35.4285714,14.8040816 35.555102,14.2979592 35.3020408,14.2979592 C34.2897959,14.044898 33.277551,13.2857143 32.2653061,13.0326531 C32.1387755,13.0326531 32.0122449,13.0326531 31.8857143,12.9061224 C31.8857143,12.9061224 31.8857143,12.9061224 31.8857143,12.7795918 C32.0122449,12.9061224 32.2653061,12.9061224 32.5183673,13.0326531 C32.644898,13.0326531 32.644898,13.0326531 32.7714286,12.9061224 C33.1510204,13.0326531 33.4040816,13.0326531 33.7836735,12.9061224 C34.1632653,12.7795918 33.9102041,12.2734694 33.5306122,12.4 C33.277551,12.5265306 33.0244898,12.5265306 32.7714286,12.4 C32.7714286,12.4 32.7714286,12.4 32.7714286,12.4 C32.8979592,12.4 33.0244898,12.4 33.1510204,12.2734694 C33.1510204,12.2734694 33.1510204,12.2734694 33.1510204,12.2734694 C33.5306122,12.4 33.7836735,11.8938776 33.5306122,11.6408163 C33.277551,11.3877551 33.0244898,11.2612245 32.8979592,11.0081633 C32.8979592,11.0081633 32.8979592,11.0081633 32.8979592,11.0081633 C33.1510204,11.2612245 33.4040816,11.3877551 33.9102041,11.2612245 C34.0367347,11.2612245 34.1632653,11.1346939 34.1632653,11.0081633 C34.2897959,11.0081633 34.4163265,10.8816327 34.5428571,10.6285714 C34.5428571,10.3755102 34.5428571,10.2489796 34.5428571,9.99591837 C34.922449,10.2489796 35.3020408,10.3755102 35.6816327,10.5020408 C36.1877551,10.6285714 36.4408163,10.122449 36.0612245,9.74285714 C35.8081633,9.61632653 35.555102,9.48979592 35.3020408,9.48979592 C35.1755102,9.36326531 35.0489796,9.36326531 34.922449,9.23673469 C34.922449,9.23673469 35.0489796,9.23673469 35.1755102,9.11020408 C35.3020408,9.11020408 35.4285714,8.98367347 35.555102,8.98367347 C35.6816327,8.98367347 35.6816327,8.85714286 35.6816327,8.85714286 C35.8081633,8.85714286 35.8081633,8.73061224 35.8081633,8.60408163 C36.0612245,8.60408163 36.3142857,8.47755102 36.3142857,8.09795918 C36.3142857,7.84489796 36.1877551,7.71836735 36.1877551,7.59183673 C36.3142857,7.59183673 36.5673469,7.71836735 36.8204082,7.71836735 C37.8326531,7.59183673 38.2122449,7.33877551 37.9591837,6.95918367 Z M22.1428571,7.08571429 C21.8897959,7.08571429 21.5102041,7.08571429 21.2571429,7.08571429 C21.7632653,6.95918367 22.2693878,6.95918367 22.6489796,7.08571429 C22.522449,7.08571429 22.2693878,7.08571429 22.1428571,7.08571429 Z M25.5591837,5.56734694 C25.5591837,5.56734694 25.5591837,5.56734694 25.5591837,5.56734694 C25.6857143,5.44081633 25.8122449,5.44081633 25.9387755,5.44081633 C25.9387755,5.56734694 25.9387755,5.56734694 26.0653061,5.69387755 C26.0653061,5.69387755 26.1918367,5.82040816 26.1918367,5.82040816 C25.9387755,5.69387755 25.8122449,5.56734694 25.5591837,5.56734694 Z" id="Shape" fill="#282828" fill-rule="nonzero"></path>
                                    <path d="M25.5591837,28.0897959 C26.444898,27.5836735 27.3306122,27.077551 28.3428571,26.8244898 C28.3428571,27.7102041 27.7102041,28.4693878 27.4571429,29.2285714 C27.3306122,29.9877551 27.4571429,30.8734694 27.7102041,31.6326531 C28.3428571,33.7836735 29.2285714,35.8081633 30.3673469,37.7061224 C31.3795918,39.477551 32.644898,40.9959184 33.4040816,42.8938776 C35.0489796,46.3102041 33.6571429,51.3714286 33.9102041,55.1673469 C32.3918367,55.8 30.4938776,55.0408163 28.8489796,55.1673469 C27.3306122,55.2938776 27.4571429,55.1673469 25.9387755,55.0408163 C22.7755102,54.7877551 22.522449,55.1673469 19.3591837,55.0408163 C17.7142857,54.9142857 15.9428571,54.7877551 14.4244898,54.4081633 C14.2979592,54.4081633 14.044898,54.2816327 13.9183673,54.155102 C13.7918367,54.0285714 13.7918367,53.7755102 13.7918367,53.522449 C14.4244898,48.7142857 12.2734694,43.4 13.0326531,38.5918367 C13.1591837,37.9591837 13.2857143,37.2 13.6653061,36.5673469 C14.044898,35.9346939 14.677551,35.555102 15.1836735,35.1755102 C16.0693878,34.5428571 16.8285714,33.6571429 17.4612245,32.644898 C17.7142857,32.1387755 17.9673469,31.6326531 18.2204082,31.1265306 C18.3469388,30.7469388 18.3469388,29.7346939 18.6,29.355102 C19.1061224,28.722449 20.877551,29.355102 21.7632653,29.355102 C23.0285714,28.9755102 24.2938776,28.5959184 25.5591837,28.0897959 Z" id="Path" fill="#333333"></path>
                                    <path d="M24.2938776,46.0571429 C24.2938776,49.6 24.6734694,53.0163265 24.8,56.5591837 C25.3061224,66.9346939 24.6734694,77.4367347 21.1306122,87.0530612 C26.0653061,88.3183673 31.2530612,89.5836735 36.1877551,88.3183673 C36.5673469,88.1918367 36.8204082,88.0653061 37.0734694,87.8122449 C37.3265306,87.5591837 37.3265306,87.1795918 37.3265306,86.9265306 C37.3265306,85.155102 37.2,83.5102041 37.0734694,81.7387755 C36.5673469,75.2857143 37.2,68.7061224 37.0734694,62.2530612 C37.0734694,54.2816327 36.1877551,46.1836735 34.4163265,38.3387755 C33.5306122,34.2897959 32.2653061,29.9877551 28.9755102,27.2040816 C28.5959184,26.8244898 28.0897959,26.5714286 27.5836735,26.444898 C24.5469388,26.1918367 24.2938776,43.5265306 24.2938776,46.0571429 Z" id="Path" fill="#A78E41"></path>
                                    <path d="M15.3102041,48.9673469 C14.9306122,51.877551 14.8040816,54.6612245 14.8040816,57.5714286 C14.4244898,65.1632653 13.0326531,72.5020408 11.8938776,79.9673469 C11.7673469,80.9795918 11.3877551,82.244898 10.3755102,82.4979592 C9.86938776,82.6244898 9.23673469,82.3714286 8.73061224,82.4979592 C8.2244898,82.4979592 7.59183673,82.7510204 7.2122449,82.4979592 C6.95918367,82.3714286 6.95918367,81.9918367 6.83265306,81.7387755 C6.70612245,80.4734694 6.70612245,79.0816327 6.83265306,77.8163265 C7.2122449,71.7428571 7.71836735,65.6693878 8.73061224,59.722449 C9.23673469,57.1918367 9.74285714,54.6612245 10.2489796,52.1306122 C11.3877551,46.6897959 12.0204082,40.4897959 13.2857143,35.0489796 C13.5387755,33.7836735 14.4244898,33.0244898 15.1836735,31.8857143 C15.6897959,31 17.9673469,28.8489796 18.3469388,30.8734694 C18.7265306,32.5183673 17.4612245,35.4285714 17.0816327,37.0734694 C16.1959184,40.7428571 15.8163265,44.9183673 15.3102041,48.9673469 Z" id="Path" fill="#A78E41"></path>
                                    <path d="M40.2367347,63.2653061 C40.3632653,63.2653061 40.8693878,63.1387755 40.9959184,63.1387755 C41.122449,63.1387755 41.6285714,63.0122449 41.6285714,62.8857143 C41.3755102,60.4816327 40.4897959,58.2040816 40.1102041,55.8 C39.3510204,50.7387755 38.5918367,45.677551 36.9469388,40.9959184 C35.9346939,38.2122449 34.6693878,35.555102 33.277551,32.8979592 C32.7714286,31.8857143 32.1387755,30.8734694 31.3795918,30.2408163 C30.6204082,29.6081633 29.4816327,29.4816327 28.722449,30.1142857 C27.9632653,30.7469388 27.7102041,32.0122449 27.9632653,33.1510204 C28.0897959,34.2897959 28.722449,35.3020408 29.1020408,36.1877551 C31.5061224,40.9959184 33.6571429,46.0571429 35.8081633,50.9918367 C36.8204082,53.3959184 37.8326531,55.8 38.5918367,58.2040816 C38.9714286,59.722449 39.477551,62 40.2367347,63.2653061 Z" id="Path" fill="#D1AC9D"></path>
                                </g>
                            </g>
                        </g>
                    </g>
                </g>
            </g>
        </g>
    </g>
</svg>