<?xml version="1.0" encoding="UTF-8"?>
<svg width="85px" height="85px" viewBox="0 0 85 85" version="1.1" xmlns="http://www.w3.org/2000/svg" xmlns:xlink="http://www.w3.org/1999/xlink">
    <!-- Generator: Sketch 52.2 (67145) - http://www.bohemiancoding.com/sketch -->
    <title>O1ezcJW6SR</title>
    <desc>Created with Sketch.</desc>
    <g id="Page-1" stroke="none" stroke-width="1" fill="none" fill-rule="evenodd">
        <g id="Artboard-Copy-40" transform="translate(-963.000000, -1115.000000)">
            <g id="Group-26" transform="translate(392.000000, 1111.000000)">
                <g id="Group-22" transform="translate(568.000000, 4.000000)">
                    <g id="O1ezcJW6SR" transform="translate(3.000000, 0.000000)">
                        <g id="Group" transform="translate(42.364650, 42.500000) scale(-1, 1) rotate(-180.000000) translate(-42.364650, -42.500000) ">
                            <path d="M39.91849,84.6808067 C39.7648664,84.4798331 39.6821461,84.2906815 39.197641,83.0493741 C39.0912862,82.7892907 38.9849315,82.2100139 38.9376627,81.7489569 C38.9022111,81.2997218 38.8076735,80.5549374 38.7367703,80.0938804 C38.6304156,79.3727399 38.5595124,79.2190542 38.1931793,78.8998609 C37.7441258,78.4860918 37.1059972,78.3324061 36.4205998,78.4506259 C35.6879336,78.5806676 35.4870413,78.852573 34.9434502,80.5076495 C34.6480203,81.4297636 34.1635153,82.2809458 33.4426663,83.1557719 C32.887258,83.8414465 32.7218173,83.9005563 32.1782262,83.6877608 C32.0009683,83.605007 31.6346352,83.5104312 31.3746569,83.4631433 C31.1146786,83.4158554 30.7483455,83.3094576 30.5474531,83.2385257 C30.358378,83.1675939 30.0511309,83.0848401 29.8856901,83.0493741 C29.2475615,82.9311544 29.0821207,82.659249 28.8812284,81.4061196 C28.7039705,80.3184979 28.7039705,80.1766342 28.8930456,79.3963839 C29.0112176,78.9353268 29.1057551,78.1550765 29.1175723,77.6585535 C29.1293895,76.6418637 29.034852,76.4645341 28.2194654,75.9443672 C27.9122183,75.7433936 27.6049712,75.6606398 27.2031865,75.6606398 C26.7186814,75.6606398 26.5886923,75.7197497 26.269628,76.050765 C26.0805528,76.2517385 25.7142197,76.7482615 25.4542414,77.1383866 C24.9697363,77.906815 23.7289307,79.1835883 23.0080817,79.6564673 L22.5590282,79.9520167 L21.7081901,79.5146036 C21.2355022,79.2781641 20.7037284,78.9707928 20.502836,78.852573 C20.3137609,78.7225313 20.0655998,78.5806676 19.9710622,78.5333797 C19.3683852,78.2614743 19.1438584,77.9777469 19.1438584,77.5048679 C19.1438584,76.6655076 19.5101915,75.2823366 20.0301482,74.1828929 C20.6682768,72.8470097 20.7155456,72.6815021 20.621008,72.1140473 C20.5264704,71.5347705 19.8292558,70.8018081 19.1674928,70.5890125 C18.576633,70.3880389 18.2457515,70.5535466 17.0167631,71.6057024 C16.532258,72.0312935 16.0241185,72.4214186 15.8941294,72.4805285 C15.7641402,72.5396384 15.5750651,72.6342142 15.4805275,72.6933241 C15.3859899,72.7524339 15.09056,72.8942976 14.8305817,73.0006954 C14.5706034,73.1189152 14.2633563,73.2607789 14.1570015,73.3080668 C13.648862,73.5563282 13.3770665,73.4144645 12.2898844,72.3859527 C11.6990246,71.8303199 11.1317992,71.2037552 11.0254444,71.0146036 C10.8363692,70.6363004 10.883638,70.0452017 11.1672508,69.5132128 C11.663573,68.5319889 11.8171966,68.2837274 12.3489704,67.6216968 C13.8024856,65.8129346 13.9088404,65.5292072 13.5306901,64.6307371 C13.3770665,64.2642559 12.3607876,63.2475661 12.1480781,63.2475661 C12.0889921,63.2475661 11.7108418,63.4130737 11.2854227,63.6022253 C10.8600036,63.8031989 10.1746062,64.1223922 9.74918717,64.3115438 C9.32376809,64.5125174 8.87471462,64.6662031 8.75654265,64.6662031 C8.62655349,64.6662031 8.16568283,64.7489569 7.72844655,64.8553547 C7.29121028,64.9499305 6.81852242,65.0090403 6.68853326,64.9735744 C6.45218932,64.9144645 5.58953397,63.744089 5.31773845,63.1175243 C5.24683527,62.9638387 5.06957733,62.6210014 4.90413657,62.3609179 C4.75051302,62.1008345 4.62052386,61.7698192 4.60870666,61.6161335 C4.59688946,61.0132128 6.1803938,59.3581363 7.70481216,58.3650904 C9.09924135,57.4547983 9.24104771,56.3080668 8.11841404,55.1258693 C7.69299496,54.6766342 7.18485551,54.6175243 6.21584539,54.9130737 C5.41227603,55.1613352 2.3988909,55.1613352 2.0798266,54.9130737 C1.86711706,54.7475661 1.60713873,54.2037552 1.46533237,53.6126565 C1.39442919,53.3171071 1.07536489,52.2058414 0.921741332,51.6974965 C0.862655349,51.484701 0.850838153,51.2364395 0.909924135,51.1418637 C1.0399133,50.9172462 2.24526735,49.8887344 2.54069726,49.7586926 C2.67068642,49.6995828 2.85976157,49.605007 2.95429914,49.5458971 C3.04883671,49.4867872 3.35608382,49.3567455 3.63969654,49.2503477 C5.73134033,48.4582754 5.88496389,48.3755216 6.15675941,47.8553547 C6.59399568,47.0041725 6.32220016,45.798331 5.58953397,45.3845619 C5.38864163,45.2663421 4.83323339,45.1599444 4.1360188,45.1244784 C2.67068642,45.0299026 1.89075145,44.8289291 0.496322256,44.1905424 L0,43.9541029 L0.0236343931,41.9916551 L0.0590859828,40.0410292 L0.531773845,39.7927677 C1.54805275,39.2607789 2.82430998,38.9534075 4.4787175,38.8233658 C5.60135117,38.740612 5.81406071,38.6342142 6.2040282,37.9485396 C6.35765175,37.6648122 6.44037213,37.310153 6.44037213,36.825452 C6.44037213,35.867872 6.22766259,35.6550765 4.64415825,35.0639777 C3.53334177,34.6502086 3.11973989,34.472879 2.94248194,34.3191933 C2.84794437,34.2364395 2.71795521,34.1655076 2.67068642,34.1655076 C2.54069726,34.1655076 1.65440752,33.4798331 1.34716041,33.1369958 C1.09899928,32.8650904 1.09899928,32.8296245 1.26444003,32.120306 C1.44169798,31.3518776 1.66622472,30.5243394 1.89075145,29.755911 C2.10346099,29.0820584 2.38707371,28.9520167 3.92330926,28.8810848 C4.93958816,28.8337969 5.43591042,28.8692629 5.97950146,29.0111266 C6.92487719,29.259388 7.9057045,29.259388 8.2484032,29.0111266 C8.40202676,28.9047288 8.68563947,28.6091794 8.87471462,28.337274 C9.14651014,27.9707928 9.21741332,27.7343533 9.21741332,27.2732962 C9.21741332,26.7531293 9.17014453,26.6467316 8.78017705,26.2802503 C8.53201592,26.0556328 7.97660768,25.6300417 7.53937141,25.3344924 C6.74761924,24.8143255 5.77860912,23.8449235 5.22320088,23.0173853 L4.92777097,22.5681502 L5.24683527,21.9534075 C5.8613295,20.7475661 6.40492054,19.849096 6.78307083,19.4235049 C6.99578037,19.1752434 7.07850074,19.1634214 7.84661852,19.2225313 C8.91016621,19.3171071 9.84372474,19.6008345 11.0727132,20.2037552 C11.6517558,20.4874826 12.2071641,20.6884562 12.4553252,20.6884562 C13.3061633,20.6884562 14.1688187,19.8727399 14.2751734,18.9742698 C14.3342594,18.406815 14.1570015,17.9930459 13.5661417,17.3783032 C12.9989162,16.7872045 12.2780672,15.7941586 12.1008093,15.3685675 C12.0535405,15.2739917 11.8999169,14.9193324 11.7462934,14.5764951 C11.2972399,13.6070932 11.3326915,13.4888734 12.502594,12.283032 C13.0698194,11.7037552 13.6961308,11.1126565 13.9088404,10.9826147 L14.2869906,10.7461752 L15.208732,11.1244784 C15.7168714,11.337274 16.2131937,11.5737135 16.3195485,11.6564673 C16.414086,11.7510431 16.5558924,11.821975 16.6149784,11.821975 C16.6858815,11.821975 17.075849,12.1411683 17.5012681,12.5194715 C18.5057298,13.4534075 19.1320412,13.7607789 19.7583527,13.6662031 C20.4437501,13.5598053 20.8100831,13.2997218 21.2591366,12.6495132 L21.6372869,12.0938804 L21.282771,11.337274 C20.4792016,9.59944367 20.2074061,8.972879 20.2074061,8.79554937 C20.2074061,8.70097357 20.1246857,8.1689847 20.018331,7.62517385 C19.8528902,6.80945758 19.841073,6.59666203 19.9710622,6.44297636 C20.1128686,6.26564673 22.0508888,5.08344924 22.1926951,5.08344924 C22.2281467,5.08344924 22.3463187,5.01251739 22.4408563,4.91794159 C22.547211,4.82336579 22.8190066,4.71696801 23.0553505,4.66968011 C23.4216836,4.59874826 23.5516728,4.65785814 24.1779842,5.13073713 C25.0288223,5.75730181 25.6905853,6.49026426 26.5177891,7.68428373 C27.2859069,8.79554937 27.6758744,8.98470097 28.6685189,8.74826147 C29.1884755,8.61821975 29.4130022,8.48817803 29.7320666,8.10987483 C30.1574856,7.61335188 30.2165716,7.30598053 30.0038621,6.62030598 C29.7793353,5.87552156 29.6729806,4.57510431 29.7438838,3.38108484 C29.8147869,2.32892907 29.8502385,2.16342142 30.0983996,1.93880389 C30.2638404,1.78511822 30.6065391,1.61961057 30.8783346,1.5605007 C31.1501301,1.48956885 31.5400976,1.38317107 31.7291728,1.3240612 C31.9300651,1.25312935 32.3200326,1.14673157 32.6154625,1.07579972 C32.9108924,1.01668985 33.2417739,0.922114047 33.3599459,0.874826147 C33.8680854,0.685674548 35.4515897,2.83727399 35.8179228,4.19680111 C36.1606215,5.49721836 36.5033202,5.98191933 37.2832552,6.21835883 C37.8268462,6.39568846 37.992287,6.39568846 38.4531576,6.26564673 C39.0322003,6.11196106 39.5521569,5.62726008 39.6348773,5.16620306 C39.6703289,5.02433936 39.7175977,4.40959666 39.7530492,3.81849791 C39.7766836,3.21557719 39.8712212,2.51808067 39.9539416,2.28164117 C40.1902855,1.5132128 40.4384466,0.898470097 40.6629734,0.472878999 L40.8756829,0.0591098748 L42.3882841,0.0236439499 C44.2199495,-0.0236439499 44.8935297,0.0591098748 44.9762501,0.331015299 C45.0117017,0.437413074 45.1180565,0.673852573 45.2125941,0.851182197 C45.3071316,1.01668985 45.3780348,1.26495132 45.3780348,1.38317107 C45.3780348,1.50139082 45.4371208,1.66689847 45.4962068,1.72600834 C45.6261959,1.85605007 45.8861743,3.38108484 46.0279806,4.74061196 C46.110701,5.56815021 46.2761417,5.81641168 47.0560767,6.30111266 C47.5169474,6.58484006 48.3914199,6.56119611 48.816839,6.25382476 C49.2304409,5.95827538 49.419516,5.62726008 49.7976663,4.46870654 C50.0576446,3.70027816 50.1876338,3.39290682 50.6485045,2.58901252 C50.7194077,2.45897079 51.038472,2.06884562 51.3457191,1.71418637 C51.8184069,1.17037552 51.9483961,1.07579972 52.2201916,1.1349096 C52.7755999,1.24130737 53.9336851,1.54867872 54.3000182,1.67872045 C54.5009106,1.73783032 54.8436093,1.83240612 55.068136,1.87969402 C55.5999098,1.97426982 55.7771678,2.35257302 55.9307913,3.68845619 C56.0371461,4.52781641 56.0135117,4.89429764 55.8598882,5.63908206 C55.5408239,7.14047288 55.5171895,7.66063978 55.7417162,8.1216968 C56.1080493,8.91376912 57.3606721,9.43393602 58.1051555,9.1147427 C58.2942306,9.03198887 58.6251122,8.71279555 58.8496389,8.38178025 C59.8895522,6.8922114 60.1967993,6.51390821 61.0003687,5.82823366 C62.0166476,4.95340751 62.3475291,4.89429764 63.2101844,5.41446453 C63.5056143,5.60361613 63.8364958,5.78094576 63.9310334,5.82823366 C64.025571,5.87552156 64.2737321,6.01738526 64.4628073,6.14742698 C64.6636996,6.27746871 64.9000435,6.41933241 64.9945811,6.46662031 C65.467269,6.69123783 65.5854409,6.91585535 65.5854409,7.56606398 C65.5854409,8.19262865 65.2545594,9.6821975 65.0182155,10.1196106 C64.4037213,11.2781641 64.1673773,11.9283727 64.1673773,12.5076495 C64.1673773,13.0987483 64.2028289,13.1696801 64.7582372,13.713491 C65.290011,14.2573018 65.3845486,14.3045897 65.9045052,14.3045897 C66.4008275,14.2927677 66.554451,14.2218359 67.1216765,13.7607789 C68.6460948,12.5312935 69.1069655,12.2121001 69.7214597,11.9520167 C70.0759756,11.798331 70.4186743,11.6328234 70.4777603,11.5737135 C70.5486635,11.5146036 70.7850074,11.4673157 71.0213513,11.4673157 C71.3995016,11.4673157 71.5649424,11.5855355 72.5694041,12.6140473 C73.1957155,13.2524339 73.762941,13.8671766 73.8220269,13.9853964 C74.0347365,14.3991655 73.2784359,16.3261474 72.6048557,17.0827538 C72.4394149,17.2837274 72.0967162,17.6738526 71.8603723,17.9694019 C71.6240284,18.2649513 71.4113188,18.5250348 71.36405,18.5605007 C71.2576953,18.6550765 70.9031794,19.4707928 70.9031794,19.6244784 C70.9031794,19.9082058 71.3758672,20.77121 71.7185659,21.0904033 C72.2739742,21.6223922 72.92392,21.5751043 74.2119944,20.9367177 C75.4409829,20.321975 76.6345197,19.9909597 77.5917126,19.9791377 C78.3125616,19.9791377 78.5370884,20.0855355 78.7497979,20.5702364 C78.7852495,20.6648122 78.9270559,20.9130737 79.057045,21.1022253 C79.1870342,21.3031989 79.3288405,21.5396384 79.3761093,21.6342142 C79.4233781,21.72879 79.6006361,22.0598053 79.7897112,22.3553547 C80.2742163,23.147427 80.2269475,23.4075104 79.4470125,24.4242003 C78.9625074,25.0625869 78.454368,25.5354659 77.6980674,26.0792768 C76.2800038,27.0841446 76.2800038,27.0723227 76.0672943,27.5097357 C75.807316,28.0062587 75.8191332,28.4318498 76.1381975,29.0820584 C76.5045306,29.8150209 77.0835732,30.1933241 77.6980674,30.0869263 C77.9580457,30.0396384 78.4661852,29.9568846 78.8207011,29.8977747 C80.1087755,29.6849791 81.0186996,29.6613352 81.8931722,29.8150209 C82.7794619,29.9805285 82.7794619,29.9805285 83.0394403,30.5006954 C83.1812466,30.7962448 83.2994186,31.150904 83.2994186,31.3045897 C83.3112358,31.4582754 83.3585046,31.6710709 83.4294077,31.7892907 C83.4884937,31.9075104 83.6184829,32.3685675 83.7130205,32.8178025 C83.866644,33.5744089 83.8548268,33.6571627 83.6539345,33.9408901 C83.4530421,34.2246175 82.6967416,34.8748261 82.5549352,34.8748261 C82.5194836,34.8748261 82.2713225,35.0285118 81.9877098,35.2058414 C81.4795703,35.5368567 80.9596137,35.7614743 80.2978507,35.9388039 C79.3052061,36.1988873 78.8916043,36.4944367 78.5370884,37.2037552 C78.27711,37.7239221 78.3007444,38.2795549 78.6198087,38.8351878 C78.997959,39.5090403 79.5179157,39.7336579 80.9123449,39.8045897 C82.0822473,39.8636996 82.8267307,40.0528512 84.0675364,40.596662 L84.7292994,40.8922114 L84.705665,42.8783032 L84.6702134,44.864395 L84.2211599,45.0771905 C83.2285154,45.5737135 82.4722148,45.7746871 81.0659684,45.9283727 C80.2505819,46.0111266 79.4470125,46.1411683 79.2697546,46.2121001 C78.7379807,46.4130737 78.3243788,47.205146 78.3125616,48.0208623 C78.3125616,49.0493741 78.5961743,49.3094576 80.4751086,49.9242003 C81.4204843,50.2315716 82.3776772,50.7872045 83.1339778,51.472879 L83.7130205,51.9812239 L83.5239453,52.6787204 C83.4175905,53.0688456 83.2757842,53.6126565 83.204881,53.9082058 C83.1221606,54.2037552 83.0158059,54.6175243 82.9685371,54.8303199 C82.8030963,55.4332406 82.5313008,55.7642559 82.1058817,55.8470097 C81.1723232,56.0361613 79.8724316,56.0598053 79.1515826,55.9061196 C78.7379807,55.8233658 78.0053145,55.7524339 77.4971751,55.7524339 C76.6936057,55.740612 76.5636165,55.7760779 76.2800038,56.0361613 C75.8309504,56.4499305 75.511886,57.135605 75.511886,57.6675939 C75.511886,58.1995828 75.8664019,58.6251739 76.9063152,59.2990264 C78.0880349,60.0674548 79.777894,61.8880389 79.7660768,62.3845619 C79.7542596,62.5027816 79.6242704,62.810153 79.4706469,63.0702364 C79.3170233,63.3303199 79.0688622,63.755911 78.938873,64.0159944 C78.7970667,64.2760779 78.4898196,64.7726008 78.2652928,65.1154381 C77.8871426,65.6710709 77.8044222,65.7301808 77.4262719,65.7301808 C76.9063152,65.7301808 75.3582625,65.4109875 74.8619402,65.1981919 C74.6728651,65.1154381 74.1647256,64.8789986 73.7393066,64.6543811 C72.7702964,64.1696801 71.8485551,64.1105702 71.3285985,64.5125174 C70.702287,65.0090403 70.5013947,65.3755216 70.4895775,66.0139082 C70.4895775,66.3449235 70.5604807,66.6995828 70.6313839,66.7941586 C72.143985,68.6147427 72.6757589,69.3122392 72.6757589,69.4659249 C72.6757589,69.5132128 72.8175652,69.8442281 72.9948232,70.2107093 C73.5029626,71.298331 73.4793282,71.3810848 72.0494475,72.7878999 L70.7850074,74.0410292 L70.2886852,73.9582754 C69.4732986,73.8282337 68.2088586,73.1307371 66.9680529,72.1258693 C66.3299243,71.6175243 65.6563441,71.1682893 65.4909034,71.1328234 C64.8173232,71.0027816 63.6356035,71.7475661 63.3283564,72.4805285 C63.1747328,72.8706537 63.1983672,72.9770515 63.9901194,74.6557719 C64.4982588,75.7433936 64.9354951,77.445758 64.8527747,78.0723227 C64.8291403,78.3324061 64.6755168,78.5215577 64.2855493,78.7816412 C63.5056143,79.31363 63.3756252,79.3845619 62.4302494,79.8692629 L61.5675941,80.3184979 L61.0121859,80.0347705 C60.2795197,79.6682893 59.1805204,78.5452017 58.3887682,77.3630042 C58.0342523,76.8310153 57.6088332,76.3108484 57.4197581,76.2044506 C56.6752747,75.7670376 55.4226519,76.1335188 54.8672436,76.972879 L54.5718137,77.422114 L54.7845233,78.2851182 C54.949964,78.9116829 54.9972328,79.5737135 54.9972328,80.744089 C54.9972328,82.8838665 54.9854156,82.9075104 54.1582119,83.2030598 C52.5156215,83.7823366 51.2984503,84.0069541 50.9321172,83.8178025 C50.6366873,83.6641168 49.5022364,82.150904 49.3249785,81.689847 C49.2895269,81.5952712 49.1831721,81.3351878 49.0886345,81.1223922 C48.994097,80.9095967 48.9231938,80.6613352 48.9231938,80.5785814 C48.9231938,80.4958275 48.7932046,80.1175243 48.6277639,79.7628651 C48.09599,78.5452017 46.9024532,78.1314325 45.8625399,78.7816412 C45.2598628,79.1717663 45.0235189,79.7746871 45.0235189,80.9687065 C45.0235189,81.8908206 44.8698954,82.6001391 44.4090247,83.7586926 C43.9363368,84.9527121 44.0899604,84.8817803 41.962865,84.8817803 C40.3320919,84.8817803 40.0721135,84.8581363 39.91849,84.6808067 Z M45.7089163,76.7837274 C46.772464,76.6891516 47.6823881,76.5827538 47.7414741,76.5472879 C47.8005601,76.511822 48.2023448,76.4290682 48.6513983,76.3699583 C49.0886345,76.3108484 49.6913116,76.2044506 49.9867415,76.1216968 C51.5702458,75.7315716 52.8701374,75.3650904 53.567352,75.1168289 C55.4108347,74.4311544 56.0725977,74.159249 57.6088332,73.3908206 C59.0978,72.6578581 59.1923376,72.6105702 60.0077242,72.0904033 C60.2913369,71.9012517 60.539498,71.759388 60.5631324,71.759388 C60.6458528,71.759388 62.1939055,70.6717663 63.1038297,69.9860918 C65.2781938,68.3310153 66.8971497,66.7941586 68.776084,64.5952712 C69.4851158,63.7795549 71.6122112,60.8477051 71.6122112,60.7058414 C71.6122112,60.6821975 71.7540175,60.433936 71.9430927,60.1502086 C72.4630493,59.3344924 72.5103181,59.2399166 73.2429843,57.7503477 C73.9047473,56.4262865 74.2001772,55.740612 74.6492307,54.5584145 C74.7437683,54.298331 74.8973918,53.9082058 74.9919294,53.6954103 C75.086467,53.4826147 75.1573701,53.2343533 75.1573701,53.1397775 C75.1573701,53.0452017 75.2282733,52.7969402 75.3228109,52.5841446 C75.5000688,52.1585535 75.7009612,51.4137691 75.8545847,50.6571627 C75.9136707,50.3970793 76.0082083,49.9478442 76.0791115,49.6522949 C76.5045306,47.9262865 76.8472293,44.6870654 76.8472293,42.5 C76.8590465,39.5917942 76.3745414,35.9269819 75.6655096,33.3970793 C75.1691873,31.623783 75.1101014,31.4464534 74.6374135,30.1815021 C74.0938225,28.7155772 72.864834,26.1029207 72.3094258,25.2399166 C72.1912538,25.050765 72.0376303,24.7788595 71.9667271,24.6488178 C70.6786526,22.213491 66.672623,17.6029207 64.0492054,15.5340751 C63.5647003,15.1557719 63.0920125,14.7656467 62.9974749,14.6828929 C62.8556685,14.5410292 61.8157552,13.8317107 60.9176483,13.240612 C60.6458528,13.0632823 59.4759503,12.3539638 59.0268968,12.1057024 C58.6723809,11.9047288 56.3680276,10.7698192 55.8953397,10.5570236 C55.670813,10.4624478 55.3281143,10.3087622 55.1508564,10.2141864 C54.9617812,10.1196106 54.7372545,10.0486787 54.6308997,10.0486787 C54.5363621,10.0486787 54.3118354,9.97774687 54.1463947,9.88317107 C53.9691367,9.80041725 53.508266,9.6349096 53.1182986,9.51668985 C52.7283311,9.41029207 52.2792776,9.2566064 52.1138368,9.18567455 C51.9483961,9.12656467 51.6056974,9.03198887 51.3457191,8.98470097 C50.802128,8.8783032 49.9394727,8.67732962 49.0886345,8.44089013 C48.757753,8.34631433 48.2968824,8.27538248 48.0605384,8.27538248 C47.8241945,8.27538248 47.2451519,8.19262865 46.772464,8.08623088 C45.4725724,7.80250348 39.5521569,7.80250348 37.755943,8.08623088 C35.2034286,8.48817803 32.6036453,9.10292072 31.5755492,9.52851182 C31.3628397,9.62308762 31.1146786,9.69401947 31.020141,9.69401947 C30.9256034,9.69401947 30.6538079,9.7767733 30.4056468,9.88317107 C30.1574856,9.98956885 29.7793353,10.1550765 29.578443,10.2378303 C28.4203577,10.7225313 26.872305,11.4200278 26.5886923,11.5973574 C26.4941547,11.6564673 26.151456,11.8337969 25.8205745,11.9993046 C25.5015102,12.1766342 25.0760911,12.4130737 24.8751988,12.5312935 C24.6861236,12.6613352 24.4379625,12.8031989 24.3434249,12.8504868 C23.7171135,13.1460362 20.6564596,15.4276773 19.6756323,16.3261474 C17.8203324,18.0285118 15.6577854,20.321975 15.0196568,21.267733 C14.8542161,21.5041725 14.6533237,21.7642559 14.5706034,21.8470097 C14.4406142,21.9770515 13.0225506,24.069541 12.7034863,24.6133519 C11.7699278,26.1738526 10.1746062,29.5076495 9.92644511,30.4415855 C9.82009034,30.8198887 9.51284323,31.7183588 9.34740248,32.096662 C9.22923052,32.3803894 8.99288659,33.2315716 8.87471462,33.8699583 C8.81562864,34.1300417 8.72109106,34.5792768 8.65018788,34.8748261 C7.92933889,37.8657858 7.574823,42.8428373 7.92933889,45.2190542 C7.98842488,45.6801113 8.09477965,46.4958275 8.15386563,47.0514604 C8.30748918,48.635605 8.69745667,50.3734353 9.41830566,52.8442281 C9.65464959,53.6599444 10.0918859,54.8894298 10.458219,55.740612 C10.7536489,56.4262865 12.1953469,59.2872045 12.4198736,59.6418637 C12.5380456,59.8428373 12.6916691,60.1029207 12.7625723,60.2329624 C12.9398302,60.5757997 13.1407226,60.894993 13.5070557,61.367872 C13.6843136,61.6043115 13.82612,61.840751 13.82612,61.8880389 C13.82612,61.9707928 15.1732804,63.755911 15.4687103,64.0751043 C15.5750651,64.1815021 15.929581,64.5952712 16.2486453,64.9972184 C17.3712789,66.3922114 19.900159,68.7566064 21.7318245,70.1279555 C21.9681684,70.3052851 22.2163295,70.4944367 22.2754155,70.5535466 C22.5235767,70.7545202 24.4379625,71.9721836 25.1706287,72.3859527 C25.5960478,72.6342142 26.0214668,72.8824757 26.1160044,72.9415855 C26.3050796,73.0598053 27.1204661,73.4499305 27.415896,73.5799722 C27.5104336,73.6154381 27.6758744,73.6981919 27.7704119,73.7454798 C28.0067559,73.8873435 28.6567017,74.1710709 29.2475615,74.3956885 C29.5075398,74.4902643 29.9447761,74.6557719 30.2283888,74.7621697 C31.2210333,75.1404729 31.622818,75.2823366 32.3200326,75.4833102 C32.7100001,75.6015299 33.2654083,75.7670376 33.549021,75.8497914 C33.844451,75.9443672 34.1753325,76.015299 34.3053216,76.015299 C34.4353108,76.015299 34.8134611,76.0862309 35.1443426,76.1808067 C37.5314163,76.8664812 41.9983166,77.1147427 45.7089163,76.7837274 Z" id="Shape" fill="#D3D3D3" fill-rule="nonzero"></path>
                            <path d="M43.1918534,74.3720445 C42.3291981,73.9700974 41.962865,73.178025 42.1755745,72.2204451 C42.3173809,71.5702364 42.6955312,71.2037552 43.4400146,70.9673157 C44.0308744,70.7899861 44.0899604,70.7899861 44.6335514,71.0146036 C45.4016692,71.321975 45.7325507,71.8303199 45.7325507,72.6815021 C45.7325507,73.4972184 45.4253036,74.0173853 44.7399062,74.3484006 C44.125412,74.6557719 43.8063477,74.6557719 43.1918534,74.3720445 Z M44.728089,73.68637 C45.389852,73.201669 45.3425832,72.0667594 44.6335514,71.6411683 C44.0899604,71.310153 43.6172725,71.3456189 43.1327675,71.7475661 C42.7664344,72.0431154 42.7191656,72.1613352 42.7191656,72.6223922 C42.7191656,73.7809458 43.8063477,74.3602225 44.728089,73.68637 Z" id="Shape" fill="#D3D3D3" fill-rule="nonzero"></path>
                            <path d="M38.7013187,74.3365786 C37.6495883,74.159249 37.6614054,74.1710709 37.7323086,73.7336579 C37.7795774,73.5326843 37.8622978,72.7997218 37.9450182,72.1140473 C38.0159213,71.4283727 38.1340933,70.837274 38.2049965,70.7899861 C38.2877169,70.7426982 38.5122436,70.7190542 38.7013187,70.7545202 C39.8948556,70.9200278 39.9421244,70.9436718 39.9421244,71.1682893 C39.9421244,71.3692629 39.859404,71.4047288 39.3039958,71.4047288 C38.7131359,71.4047288 38.6658672,71.4283727 38.594964,71.7121001 C38.4531576,72.244089 38.6067812,72.4687065 39.0912862,72.4687065 C39.6348773,72.4687065 39.8830384,72.6223922 39.7885008,72.8706537 C39.7294148,73.0243394 39.5639741,73.0598053 39.1031034,73.0479833 C38.7013187,73.0243394 38.4649748,73.0716273 38.4058888,73.178025 C38.2286309,73.4617524 38.5004264,73.7454798 39.0203831,73.8282337 C39.3039958,73.8755216 39.5639741,73.9346314 39.6112429,73.9582754 C39.7057805,74.0173853 39.5876085,74.4902643 39.4812537,74.4666203 C39.4458021,74.4547983 39.0912862,74.3956885 38.7013187,74.3365786 Z" id="Path" fill="#D3D3D3"></path>
                            <path d="M46.9969907,74.0410292 C46.9615391,73.9819193 46.9024532,73.6036161 46.8551844,73.178025 C46.8079156,72.7524339 46.7015608,72.0785814 46.6070232,71.6648122 C46.4179481,70.8609179 46.4533997,70.6954103 46.7960984,70.6954103 C47.0442595,70.6954103 47.1151627,70.8963839 47.1742487,71.6411683 C47.2097003,72.0549374 47.2097003,72.0549374 47.8360117,72.0904033 C48.3441511,72.1258693 48.4505059,72.1613352 48.4505059,72.3504868 C48.4505059,72.5041725 48.3323339,72.5987483 48.0723556,72.6460362 C47.5287646,72.7642559 47.3869582,72.9061196 47.493313,73.213491 C47.5760334,73.4262865 47.6823881,73.4735744 48.1078072,73.4735744 C48.8522906,73.4735744 48.8050218,73.7691238 48.036904,73.9700974 C47.3633238,74.147427 47.0678939,74.159249 46.9969907,74.0410292 Z" id="Path" fill="#D3D3D3"></path>
                            <path d="M34.328956,73.5445063 C33.5844726,73.0834492 33.3835803,72.7524339 33.3835803,71.9485396 C33.3835803,71.1328234 33.6435586,70.6835883 34.3053216,70.3171071 C34.990719,69.9506259 36.1606215,70.1515994 36.6451265,70.7072323 C36.9169221,71.0264256 37.1769004,71.9721836 37.0232768,72.1258693 C36.8696533,72.2795549 35.5579445,72.0549374 35.4397725,71.8539638 C35.2979661,71.6175243 35.5343101,71.4401947 35.9124604,71.4993046 C36.3969654,71.5702364 36.5033202,71.310153 36.1133527,70.9673157 C35.8770088,70.7663421 35.652482,70.6954103 35.2506974,70.6954103 C34.8016439,70.6954103 34.6598375,70.7545202 34.3171388,71.0973574 C33.7735478,71.6411683 33.7617306,72.1731572 34.2935044,72.7642559 C34.6362031,73.1662031 34.7071063,73.189847 35.3216005,73.178025 C36.2906106,73.1543811 36.3969654,73.1662031 36.3969654,73.3080668 C36.3969654,73.7809458 34.9670846,73.9464534 34.328956,73.5445063 Z" id="Path" fill="#D3D3D3"></path>
                            <path d="M51.2393643,73.0834492 C51.0266548,72.740612 50.3294402,70.3998609 50.3648918,70.1397775 C50.4003433,69.867872 50.4948809,69.7969402 51.1448267,69.5959666 C51.6766006,69.418637 51.9247617,69.394993 52.0192993,69.4895688 C52.2083744,69.6787204 52.0429337,69.9860918 51.7593209,69.9860918 C51.3220847,69.9860918 51.0502892,70.2107093 51.0502892,70.5653686 C51.0502892,71.0737135 51.3102675,71.2392211 51.8893101,71.0618915 C52.7401483,70.8018081 52.8819546,71.2746871 52.0547509,71.5938804 C51.4166222,71.8303199 51.3575363,71.9130737 51.522977,72.232267 C51.6647834,72.4923505 52.1020197,72.5514604 52.3147292,72.3386648 C52.4919871,72.1613352 52.9883094,72.255911 53.0355782,72.4805285 C53.0592126,72.6223922 52.8701374,72.740612 52.3147292,72.9297636 C51.4875254,73.201669 51.3339019,73.2253129 51.2393643,73.0834492 Z" id="Path" fill="#D3D3D3"></path>
                            <path d="M30.961055,72.5278164 C30.6065391,72.3741307 30.299292,72.1968011 30.2756576,72.1258693 C30.240206,72.0076495 30.9137862,70.0452017 31.079227,69.8087622 C31.1264957,69.7496523 31.1973989,69.5486787 31.2446677,69.3713491 C31.3037537,69.1230876 31.3864741,69.0403338 31.6110008,69.0403338 C31.7764416,69.0403338 32.0009683,69.0876217 32.1191403,69.1467316 C32.225495,69.2058414 32.4972906,69.3240612 32.7100001,69.394993 C32.946344,69.4895688 33.0881504,69.6196106 33.0881504,69.7614743 C33.0881504,70.0215577 32.8518064,70.0452017 32.2963982,69.8442281 C31.8355275,69.6787204 31.5873664,69.8442281 31.5282804,70.340751 C31.4928288,70.5771905 31.5873664,70.6717663 32.0246027,70.8845619 C32.6745485,71.1919332 32.7336345,71.4756606 32.1427747,71.4283727 C31.1264957,71.3337969 31.1383129,71.321975 31.1028614,71.6648122 C31.0674098,71.9485396 31.1264957,71.9958275 31.5519148,72.1258693 C31.9418823,72.244089 32.0246027,72.3268428 32.0009683,72.5159944 C31.9536995,72.8470097 31.7291728,72.8470097 30.961055,72.5278164 Z" id="Path" fill="#D3D3D3"></path>
                            <path d="M53.9336851,71.9721836 C53.8627819,71.7239221 53.6973412,71.3692629 52.9292234,69.6432545 C52.6810623,69.0994437 52.7519655,68.8275382 53.1064814,68.95758 C53.2955565,69.0285118 53.8864163,70.2225313 53.8864163,70.5299026 C53.8864163,70.6244784 53.9573195,70.6954103 54.0518571,70.6954103 C54.2645666,70.6954103 54.4536418,70.1397775 54.6072653,69.1112656 C54.7963405,67.7162726 55.1390392,67.6098748 55.670813,68.7802503 C55.8717054,69.2176634 56.1080493,69.7614743 56.2025869,69.9860918 C56.2971244,70.2107093 56.4271136,70.4944367 56.4861996,70.6008345 C56.6989091,70.9791377 56.6280059,71.310153 56.3562104,71.2628651 C56.1789525,71.2392211 56.0253289,71.0264256 55.8126194,70.5180807 C55.3399315,69.3831711 54.949964,69.1940195 54.949964,70.0806676 C54.949964,70.6126565 54.6427169,71.8539638 54.4536418,72.0785814 C54.2645666,72.3150209 54.0282227,72.267733 53.9336851,71.9721836 Z" id="Path" fill="#D3D3D3"></path>
                            <path d="M28.0540246,71.2392211 C28.0185731,71.1446453 28.0658418,70.9082058 28.1603794,70.7308762 C28.5503469,69.9624478 29.1884755,68.484701 29.1884755,68.3546592 C29.1884755,68.0945758 29.6138946,68.1063978 30.2047544,68.3783032 C30.8547002,68.6856745 30.9492378,68.8038943 30.6892595,69.0166898 C30.5947219,69.0994437 30.4647327,69.0994437 30.2638404,68.9930459 C29.7675181,68.7211405 29.6020774,68.8748261 29.0703035,70.1752434 C28.6803361,71.1091794 28.5030781,71.4047288 28.3376374,71.4047288 C28.2194654,71.4047288 28.0894762,71.321975 28.0540246,71.2392211 Z" id="Path" fill="#D3D3D3"></path>
                            <path d="M25.8796605,69.9506259 C25.8796605,69.8087622 26.1160044,69.2649513 26.4114343,68.7566064 C26.7068642,68.2364395 26.9432082,67.7990264 26.9432082,67.7635605 C26.9432082,67.7280946 27.0495629,67.527121 27.1795521,67.3143255 L27.4277132,66.9242003 L28.0422074,67.2670376 C28.6803361,67.6216968 28.7866908,67.7517385 28.6685189,68.0472879 C28.6094329,68.2127955 28.5385297,68.2009736 28.1840138,67.9763561 L27.7822291,67.7280946 L27.5813368,67.9645341 C27.4631648,68.0945758 27.1913693,68.5319889 26.9668426,68.945758 C26.3641655,70.0570236 26.2459936,70.2225313 26.0569184,70.2225313 C25.9505637,70.2225313 25.8796605,70.1161335 25.8796605,69.9506259 Z" id="Path" fill="#D3D3D3"></path>
                            <path d="M57.8451772,69.8087622 C57.5851989,69.7141864 57.3606721,69.6314325 57.3488549,69.6314325 C57.3370377,69.6314325 57.1834142,69.430459 57.0179734,69.1940195 C56.7934467,68.8393602 56.7225435,68.6029207 56.7225435,68.0709318 C56.7225435,67.4798331 56.7698123,67.3379694 57.0888766,66.9714882 C57.3015861,66.7350487 57.6206504,66.4631433 57.7979084,66.3685675 C58.4596714,66.0257302 59.4404987,66.2267038 59.877735,66.7941586 C60.0549929,67.0187761 59.877735,67.2197497 59.156886,67.6216968 C58.7196497,67.8581363 58.5896606,67.8817803 58.4714886,67.7517385 C58.3414994,67.6335188 58.376951,67.550765 58.6487465,67.3379694 C58.8260045,67.1961057 58.9678109,67.0187761 58.9678109,66.9478442 C58.9678109,66.581363 58.1051555,66.6995828 57.6442848,67.1133519 C57.3488549,67.3734353 57.1952314,68.0236439 57.3134033,68.461057 C57.4670269,69.0048679 57.8688116,69.2649513 58.5305746,69.2767733 C59.038714,69.2767733 59.1332516,69.2294854 59.5941223,68.7447844 C59.877735,68.449235 60.1731649,68.2127955 60.2440681,68.2127955 C60.5158636,68.2127955 60.5040464,68.461057 60.2086165,68.922114 C59.995907,69.2649513 59.7122942,69.5013908 59.2868752,69.7023644 C58.5778434,70.0333797 58.4833058,70.0333797 57.8451772,69.8087622 Z" id="Path" fill="#D3D3D3"></path>
                            <path d="M41.9510478,63.5904033 C41.9510478,63.3066759 42.2228433,63.3421419 42.2819293,63.6376912 C42.3055637,63.755911 42.2464777,63.8386648 42.1401229,63.8386648 C42.021951,63.8386648 41.9510478,63.732267 41.9510478,63.5904033 Z" id="Path" fill="#D3D3D3"></path>
                            <path d="M64.9591295,43.7058414 C64.9236779,43.6112656 64.9473123,43.4694019 65.0063983,43.3748261 C65.0773015,43.2566064 65.1127531,43.2920723 65.1127531,43.5403338 C65.1127531,43.8831711 65.0536671,43.9541029 64.9591295,43.7058414 Z" id="Path" fill="#D3D3D3"></path>
                            <path d="M23.5162212,68.5910987 C22.7008346,68.2246175 22.2635983,67.4798331 22.3581359,66.6404729 C22.5353938,65.1154381 24.3906937,64.4652295 25.4424242,65.5528512 C26.6595954,66.8059805 25.8678433,68.7093185 24.1425326,68.6738526 C23.8943715,68.6738526 23.6107587,68.6383866 23.5162212,68.5910987 Z M24.7924784,67.9763561 C25.2651663,67.6808067 25.5842306,67.054242 25.4778758,66.6168289 C25.430607,66.4394993 25.2297147,66.132128 25.0406395,65.9311544 C24.7215752,65.6119611 24.6270376,65.5883171 24.107081,65.635605 C23.2444256,65.7183588 22.8071894,66.3212796 22.9726301,67.2079277 C23.0317161,67.515299 23.1735225,67.7044506 23.4925868,67.9172462 C24.0361778,68.2600834 24.2961561,68.2837274 24.7924784,67.9763561 Z" id="Shape" fill="#D3D3D3" fill-rule="nonzero"></path>
                            <path d="M60.7049387,66.5104312 C59.7359286,65.2218359 59.700477,65.150904 59.9131866,64.9617524 C60.1140789,64.7844228 60.1731649,64.8317107 61.1067234,66.0493741 C62.0757336,67.3143255 62.2766259,67.7517385 61.9102928,67.8344924 C61.7921208,67.8581363 61.378519,67.4089013 60.7049387,66.5104312 Z" id="Path" fill="#D3D3D3"></path>
                            <path d="M62.7965825,66.3685675 C61.319433,64.8435327 60.9767343,64.4297636 60.9767343,64.205146 C60.9767343,64.0632823 61.0476374,63.9568846 61.142175,63.9568846 C61.3312502,63.9568846 61.3903361,64.0159944 62.0757336,64.7726008 C62.6665934,65.4228095 62.8911201,65.3636996 62.7965825,64.5834492 C62.761131,64.2760779 62.6784106,63.8268428 62.6193246,63.6022253 C62.4538838,62.9638387 62.4893354,62.6091794 62.7374966,62.4554937 C62.9265717,62.337274 63.0683781,62.4436718 63.8837646,63.3303199 C64.4037213,63.8977747 64.9118607,64.4415855 65.0418499,64.5598053 C65.290011,64.8080668 65.2191078,65.1390821 64.9118607,65.1390821 C64.7936888,65.1390821 64.4864416,64.8671766 64.2264633,64.5479833 C63.7892271,64.0041725 63.3992596,63.732267 63.2574532,63.8741307 C63.2338188,63.9095967 63.2574532,64.216968 63.3165392,64.5716273 C63.5647003,65.8365786 63.5883347,66.3803894 63.4110768,66.6168289 C63.2574532,66.8414465 63.2220016,66.8296245 62.7965825,66.3685675 Z" id="Path" fill="#D3D3D3"></path>
                            <path d="M20.2310405,65.8365786 C19.5101915,65.4700974 19.1438584,64.8908206 19.1438584,64.0869263 C19.1438584,61.864395 22.1572436,61.5924896 22.8071894,63.755911 C22.8780925,63.9923505 22.9017269,64.2524339 22.8662754,64.3115438 C22.7481034,64.5006954 22.4526735,64.4415855 22.3817703,64.22879 C22.062706,63.2239221 21.6609213,62.8574409 20.8928035,62.8692629 C19.415654,62.8929068 19.297482,65.174548 20.7509972,65.4464534 C21.1291475,65.5173853 21.341857,65.7656467 21.2000506,65.9784423 C21.0936959,66.1557719 20.7746316,66.096662 20.2310405,65.8365786 Z" id="Path" fill="#D3D3D3"></path>
                            <path d="M65.6445269,63.5076495 C65.4436346,63.3303199 64.9000435,62.8456189 64.4273557,62.4318498 C63.9546678,62.0062587 63.5883347,61.6279555 63.6001519,61.5688456 C63.6237863,61.5097357 63.8719474,61.1787204 64.1673773,60.8240612 C64.5927964,60.3038943 64.7227856,60.2093185 64.9000435,60.3038943 C65.1836562,60.45758 65.171839,60.6230876 64.8409575,60.930459 C64.4037213,61.3442281 64.3800869,61.5570236 64.7227856,61.8880389 C65.0773015,62.2072323 65.0536671,62.2072323 65.7272473,61.5688456 C66.2117523,61.0959666 66.4599135,61.5333797 66.01086,62.0771905 C65.6445269,62.5146036 65.6208925,62.8456189 65.951774,62.9520167 C66.1408492,63.0111266 66.2826555,62.9283727 66.5780854,62.5855355 C66.9207841,62.1835883 67.0035045,62.1481224 67.1689453,62.2899861 C67.2753,62.3727399 67.3225688,62.5146036 67.2634828,62.5973574 C67.0980421,62.8810848 66.1999352,63.8386648 66.0935804,63.8386648 C66.0463116,63.8386648 65.8336021,63.6849791 65.6445269,63.5076495 Z" id="Path" fill="#D3D3D3"></path>
                            <path d="M67.4761924,61.2378303 C67.0153217,60.8713491 66.9916873,60.8477051 66.1526664,60.2566064 C65.7154301,59.949235 65.3254626,59.6418637 65.290011,59.5827538 C65.2072906,59.4527121 66.2472039,58.0458971 66.4126447,58.0458971 C66.6608058,58.0458971 66.6608058,58.54242 66.4244619,58.8025035 C66.069946,59.1808067 66.1053976,59.5354659 66.5308167,59.7600834 C66.8735154,59.9374131 66.8735154,59.9374131 67.2516656,59.4763561 C67.4643752,59.1926287 67.6889019,59.038943 67.7834395,59.0744089 C68.0316006,59.1689847 67.9843318,59.4408901 67.6298159,59.9019471 L67.3107516,60.3157163 L67.5943643,60.5521558 L67.8779771,60.7885953 L68.1025038,60.5048679 C68.232493,60.3630042 68.3979337,60.1383866 68.4924713,60.0083449 C68.6815464,59.7364395 69.0124279,59.8310153 69.0124279,60.1620306 C69.0124279,60.2920723 68.9769763,60.4102921 68.9297076,60.433936 C68.8706216,60.45758 68.6815464,60.6940195 68.4924713,60.9777469 C68.114321,61.5333797 67.9134287,61.5806676 67.4761924,61.2378303 Z" id="Path" fill="#D3D3D3"></path>
                            <path d="M15.7050542,60.3984701 C15.5159791,60.3275382 15.3150867,60.1029207 15.1850976,59.8073713 C14.972388,59.3463143 14.972388,59.3344924 15.208732,59.015299 C15.5041619,58.6133519 16.0004841,58.554242 16.8395051,58.8261474 C17.194021,58.9325452 17.5603541,58.9916551 17.6667089,58.9443672 C18.1157623,58.7788595 17.9621388,58.2468707 17.4067305,58.0340751 C17.2412898,57.9749652 17.134935,57.8331015 17.134935,57.6794159 C17.134935,57.4547983 17.1822038,57.4311544 17.5130853,57.5020862 C18.1512139,57.632128 18.4466438,58.0104312 18.4111922,58.6251739 C18.3875579,59.027121 18.3048375,59.1926287 18.0566763,59.3817803 C17.737612,59.6182197 17.7257948,59.6182197 16.8513223,59.4054242 C16.355,59.2990264 15.870495,59.2280946 15.7759574,59.2753825 C15.5159791,59.3699583 15.5632479,59.6773296 15.870495,59.8310153 C16.2013765,60.0083449 16.3077313,60.1620306 16.2250109,60.3748261 C16.1541077,60.5521558 16.1304733,60.5521558 15.7050542,60.3984701 Z" id="Path" fill="#D3D3D3"></path>
                            <path d="M19.0375037,60.0674548 C18.8129769,59.9255911 18.9666005,59.5591099 19.2265788,59.6063978 C19.3447508,59.6300417 19.4392883,59.7482615 19.4392883,59.8664812 C19.4392883,60.1265647 19.2738476,60.2093185 19.0375037,60.0674548 Z" id="Path" fill="#D3D3D3"></path>
                            <path d="M68.4806541,58.2705146 C67.9016115,57.9513213 67.2753,57.620306 67.0980421,57.5611961 C66.731709,57.4193324 66.672623,57.2065369 66.9444185,56.9819193 C67.0862249,56.8636996 67.1925797,56.8873435 67.511644,57.0883171 C68.2797617,57.5611961 68.3979337,57.3129346 67.8188911,56.4499305 C67.452558,55.9061196 67.4289236,55.5632823 67.7598051,55.5632823 C67.8543427,55.5632823 68.0788694,55.7997218 68.2443102,56.0834492 C68.5870089,56.662726 68.8115356,56.8045897 69.1305999,56.6272601 C69.4732986,56.4381085 69.6741909,56.4853964 70.0641584,56.8164117 C70.3359539,57.0410292 70.4304915,57.2183588 70.4186743,57.4902643 C70.4068571,57.9513213 69.9696209,58.8025035 69.7214597,58.8379694 C69.6269222,58.8497914 69.0715139,58.5897079 68.4806541,58.2705146 Z M69.8159973,57.608484 C69.8396317,57.3247566 69.8041801,57.2183588 69.615105,57.159249 C69.319675,57.0646732 69.1424171,57.159249 69.0124279,57.5020862 C68.894256,57.8331015 69.0951483,58.069541 69.4732986,58.0222531 C69.7214597,57.9986092 69.7923629,57.9158554 69.8159973,57.608484 Z" id="Shape" fill="#D3D3D3" fill-rule="nonzero"></path>
                            <path d="M16.7095159,56.5681502 C16.6149784,56.3317107 16.7567847,56.1543811 17.0285802,56.1543811 C17.194021,56.1543811 17.253107,56.2371349 17.253107,56.4499305 C17.253107,56.662726 17.194021,56.7454798 17.0167631,56.7454798 C16.8867739,56.7454798 16.7449675,56.662726 16.7095159,56.5681502 Z" id="Path" fill="#D3D3D3"></path>
                            <path d="M13.1525398,56.0834492 C13.046185,55.7997218 13.2116258,55.5869263 14.0860983,54.8539638 C14.5115174,54.4993046 14.8423989,54.1682893 14.8069473,54.1210014 C14.7833129,54.0618915 14.2633563,54.0264256 13.648862,54.0264256 C13.046185,54.0264256 12.4671424,53.9909597 12.3607876,53.9554937 C11.8999169,53.7781641 12.1953469,53.4589708 13.5070557,52.6550765 C14.2279047,52.2176634 14.8660333,51.8038943 14.9014849,51.7447844 C15.0196568,51.5792768 15.2441836,51.7566064 15.2441836,52.0166898 C15.2441836,52.1585535 14.9960224,52.394993 14.5351518,52.6787204 C13.5070557,53.3171071 13.5779589,53.4707928 14.8660333,53.4235049 C15.8350434,53.376217 15.8941294,53.3880389 15.929581,53.6244784 C15.9532154,53.7899861 15.752323,54.0618915 15.2441836,54.5347705 C14.8542161,54.9012517 14.5351518,55.267733 14.5351518,55.3386648 C14.5351518,55.4805285 14.9014849,55.4450626 15.870495,55.2086231 C16.4849892,55.0549374 16.7213331,55.1495132 16.6031612,55.4687065 C16.5558924,55.5869263 16.3077313,55.6933241 15.9768498,55.740612 C15.6696026,55.7760779 15.1614632,55.8824757 14.8305817,55.9770515 C13.7433996,56.2726008 13.2352602,56.2962448 13.1525398,56.0834492 Z" id="Path" fill="#D3D3D3"></path>
                            <path d="M69.6623737,55.5632823 C69.0124279,55.244089 68.4215681,54.9840056 68.3506649,54.9721836 C68.1852242,54.9721836 68.0434178,54.6411683 68.1379554,54.4874826 C68.2561274,54.298331 68.5042885,54.3692629 69.7805457,54.9721836 C70.4777603,55.3031989 71.0804373,55.5632823 71.1395233,55.5632823 C71.2695125,55.5632823 71.3876844,55.9179416 71.3049641,56.0479833 C71.1867921,56.2489569 70.8559106,56.1425591 69.6623737,55.5632823 Z" id="Path" fill="#D3D3D3"></path>
                            <path d="M71.5767596,54.5465925 C71.5058564,54.4756606 69.9578037,53.9082058 69.1660515,53.6599444 C68.7051808,53.5180807 68.6224604,53.4116829 68.8115356,53.1515994 C68.9415248,52.9742698 69.0124279,52.9860918 69.7214597,53.2343533 C70.1468788,53.376217 70.5486635,53.5417246 70.6313839,53.5890125 C71.1395233,53.9082058 70.5486635,52.7260083 69.7332769,51.7920723 C69.4732986,51.484701 69.4023954,51.011822 69.6032878,50.8936022 C69.7332769,50.8108484 71.9667271,51.5438108 72.6048557,51.8630042 C72.9002856,52.0166898 72.92392,52.0639777 72.7702964,52.2058414 C72.6284901,52.3595271 72.4985009,52.3595271 72.0376303,52.2413074 C71.7422003,52.1703755 71.4585876,52.0639777 71.423136,52.0048679 C71.3404157,51.8748261 70.702287,51.8630042 70.6195667,51.9930459 C70.5841151,52.0521558 70.6786526,52.2176634 70.820459,52.3831711 C71.3049641,52.9151599 71.8367379,53.6244784 71.9785443,53.9436718 C72.084899,54.1919332 72.084899,54.298331 71.9667271,54.4401947 C71.8131035,54.6293463 71.6949316,54.6648122 71.5767596,54.5465925 Z" id="Path" fill="#D3D3D3"></path>
                            <path d="M14.4997002,51.1063978 C14.3578938,50.9645341 14.4169798,50.6216968 14.5824206,50.5625869 C14.8423989,50.4561892 15.0669256,50.7872045 14.8896677,51.011822 C14.7242269,51.2009736 14.6178721,51.2364395 14.4997002,51.1063978 Z" id="Path" fill="#D3D3D3"></path>
                            <path d="M71.0568029,50.1961057 C70.5486635,49.9123783 70.3123196,49.6168289 70.1350616,49.0375522 C69.9105349,48.2573018 70.1468788,47.4297636 70.7141042,46.9923505 C71.423136,46.4603616 72.3921462,46.4840056 72.0967162,47.0278164 C72.0258131,47.1578581 71.9667271,47.4534075 71.9667271,47.6662031 C71.9667271,48.174548 71.8131035,48.4109875 71.5531252,48.3045897 C71.3876844,48.2454798 71.36405,48.1390821 71.4113188,47.8198887 C71.5176736,47.1696801 71.1158889,47.1223922 70.7495558,47.7489569 C70.0050724,49.0257302 71.600394,50.4207232 72.6521245,49.4394993 C73.1011779,49.0139082 73.2193499,48.5883171 73.0657264,47.9144645 C72.9593716,47.4888734 72.9711888,47.3706537 73.1129951,47.3233658 C73.5620486,47.1460362 73.8811129,48.1981919 73.6329518,48.9784423 C73.3375219,49.8650904 72.6639417,50.3734353 71.8012863,50.3497914 C71.5294908,50.3379694 71.1986093,50.2670376 71.0568029,50.1961057 Z" id="Path" fill="#D3D3D3"></path>
                            <path d="M11.2499711,49.7114047 C10.9899928,49.3803894 10.8127349,48.4819193 10.9663584,48.3282337 C11.0254444,48.2691238 11.4981323,48.150904 12.0062717,48.0563282 C12.5144112,47.9617524 13.1761742,47.8435327 13.4597869,47.7726008 C13.7433996,47.713491 14.0388295,47.689847 14.1215499,47.713491 C14.2988078,47.7844228 14.4169798,48.3045897 14.4169798,49.0139082 C14.4169798,49.8650904 13.6843136,50.2433936 12.8807443,49.8059805 C12.5262284,49.605007 12.502594,49.605007 12.3607876,49.8059805 C12.1244437,50.1133519 11.5217666,50.066064 11.2499711,49.7114047 Z M12.2898844,49.1794159 C12.4671424,48.8602225 12.3489704,48.7065369 11.9353685,48.7065369 C11.7462934,48.7065369 11.5572182,48.7538248 11.5217666,48.8247566 C11.4035947,49.0139082 11.6872074,49.4158554 11.9353685,49.4158554 C12.0653577,49.4158554 12.2189812,49.3094576 12.2898844,49.1794159 Z M13.8024856,48.9075104 C13.8497544,48.4109875 13.6724964,48.2809458 13.1761742,48.3991655 C12.6325831,48.5410292 12.8807443,49.4631433 13.4479697,49.3922114 C13.7197652,49.3567455 13.767034,49.2976356 13.8024856,48.9075104 Z" id="Shape" fill="#D3D3D3" fill-rule="nonzero"></path>
                            <path d="M11.2381539,42.5236439 C11.0727132,42.4527121 10.8245521,42.1571627 10.6827457,41.8970793 C10.4227674,41.4242003 10.4109502,41.3887344 10.6000253,40.9158554 C10.8954552,40.159249 11.7108418,39.7691238 12.325336,40.0883171 C12.9634646,40.4193324 13.1170882,40.6794159 13.1170882,41.3887344 C13.1170882,42.0034771 13.0816366,42.0980529 12.7507551,42.3699583 C12.3489704,42.7127955 11.722659,42.7719054 11.2381539,42.5236439 Z" id="Path" fill="#D3D3D3"></path>
                            <path d="M72.5339525,42.5827538 C72.2739742,42.4763561 71.7303831,41.6606398 71.7303831,41.3769124 C71.7303831,40.9040334 72.1085334,40.3365786 72.5812213,40.123783 C72.9711888,39.9464534 73.0893607,39.9464534 73.4911454,40.0764951 C74.4719727,40.3956885 74.7910371,41.6015299 74.0938225,42.3226704 C73.8102097,42.6063978 73.6565862,42.6773296 73.2429843,42.6655076 C72.9593716,42.6655076 72.6403073,42.6300417 72.5339525,42.5827538 Z" id="Path" fill="#D3D3D3"></path>
                            <path d="M20.2310405,21.6223922 C18.8720629,20.3337969 18.8602457,20.298331 19.6638151,19.6835883 C20.3492125,19.1634214 21.1764162,19.3880389 21.3182226,20.1446453 C21.3773086,20.4165508 21.5191149,20.6175243 21.8381793,20.8184979 C22.4054047,21.1849791 22.4644907,21.6105702 22.0390716,22.2253129 C21.8618136,22.4735744 21.6609213,22.7100139 21.5900181,22.7336579 C21.5072977,22.7573018 20.9046207,22.2607789 20.2310405,21.6223922 Z M21.7200073,21.4687065 C21.6963729,21.2913769 21.6018353,21.2204451 21.3891258,21.2204451 C21.0227927,21.2204451 20.9282551,21.5869263 21.2355022,21.8115438 C21.5072977,22.0125174 21.7672761,21.8233658 21.7200073,21.4687065 Z M20.9164379,20.4283727 C20.9164379,20.321975 20.798266,20.1446453 20.6564596,20.0500695 C20.4319329,19.8963839 20.3610297,19.8845619 20.1483201,20.0264256 C19.8056214,20.2510431 19.7938042,20.5465925 20.1010514,20.794854 C20.3610297,20.9958275 20.3964813,21.0076495 20.6446424,20.8184979 C20.7864488,20.7121001 20.9164379,20.5347705 20.9164379,20.4283727 Z" id="Shape" fill="#D3D3D3" fill-rule="nonzero"></path>
                            <path d="M63.7419583,22.6390821 C63.6001519,22.5445063 63.422894,22.3198887 63.3519908,22.1189152 C63.2338188,21.8351878 63.2338188,21.716968 63.3874424,21.4095967 C63.6828723,20.8539638 64.0728398,20.6529903 64.6755168,20.7357441 L65.1836562,20.8184979 L65.4436346,20.2746871 C65.5854409,19.9791377 65.7508817,19.7426982 65.8217849,19.7426982 C66.1053976,19.7426982 66.0463116,20.1446453 65.6208925,21.2204451 C65.0300327,22.68637 64.4391729,23.135605 63.7419583,22.6390821 Z M64.7227856,21.9179416 C64.9118607,21.6223922 64.9118607,21.5987483 64.6991512,21.4450626 C64.4273557,21.244089 64.3446353,21.244089 64.0373882,21.3977747 C63.7892271,21.5396384 63.7301411,22.0598053 63.966485,22.1425591 C64.2973665,22.2844228 64.5218932,22.213491 64.7227856,21.9179416 Z" id="Shape" fill="#D3D3D3" fill-rule="nonzero"></path>
                            <path d="M61.5912285,20.5702364 C61.2957986,20.286509 61.2367126,19.7426982 61.5085081,19.7426982 C61.6030457,19.7426982 61.6857661,19.8018081 61.6857661,19.8609179 C61.6857661,20.1682893 62.0520992,19.8845619 62.8083997,18.9742698 C63.3756252,18.2885953 63.7183239,17.9812239 63.907399,17.9812239 C64.0492054,17.9694019 64.1673773,18.0403338 64.1673773,18.1230876 C64.1673773,18.2531293 63.4701627,19.0924896 62.3357119,20.310153 L61.863024,20.8184979 L61.5912285,20.5702364 Z" id="Path" fill="#D3D3D3"></path>
                            <path d="M22.8544582,19.5890125 C22.3345015,19.2461752 21.8027277,18.903338 21.6727385,18.8205841 C21.5545665,18.7378303 21.3536742,18.6432545 21.2473194,18.6077886 C21.1291475,18.5605007 21.0346099,18.4659249 21.0346099,18.3831711 C21.0346099,18.1703755 21.3654914,18.0639777 21.6254697,18.2058414 C21.9563512,18.3831711 22.2635983,18.3477051 22.4763079,18.0994437 C22.5826626,17.9812239 22.7599206,17.8275382 22.8780925,17.7566064 C23.0317161,17.6738526 23.0789849,17.5083449 23.0671677,17.0945758 C23.0317161,16.4089013 23.2916944,16.3497914 23.5398556,17 C24.047995,18.3004172 24.4970485,19.837274 24.4261453,20.0146036 C24.2961561,20.3574409 23.8471027,20.2273992 22.8544582,19.5890125 Z M23.7525651,19.1515994 C23.7525651,18.9860918 23.3625976,18.2058414 23.2916944,18.2058414 C23.1617053,18.2176634 22.6890174,18.6550765 22.6890174,18.7614743 C22.6890174,18.903338 23.3035116,19.2579972 23.5516728,19.2698192 C23.6580275,19.2698192 23.7525651,19.2225313 23.7525651,19.1515994 Z" id="Shape" fill="#D3D3D3" fill-rule="nonzero"></path>
                            <path d="M59.6768426,19.1161335 C58.7905529,18.6550765 59.0032624,17.461057 60.2086165,16.2670376 C60.7049387,15.7705146 61.1776266,15.7114047 61.6975833,16.0897079 C62.2175399,16.4561892 62.1820883,17.1063978 61.5675941,18.0403338 C60.8940139,19.0688456 60.2795197,19.4235049 59.6768426,19.1161335 Z M60.7758419,18.1821975 C61.3667018,17.5674548 61.6148629,16.988178 61.4494221,16.6689847 C61.1776266,16.1488178 60.5158636,16.515299 59.9250038,17.4965229 C59.6413911,17.95758 59.6059395,18.3240612 59.818649,18.5368567 C60.0668101,18.7851182 60.2913369,18.6905424 60.7758419,18.1821975 Z" id="Shape" fill="#D3D3D3" fill-rule="nonzero"></path>
                            <path d="M25.4660586,17.945758 C25.1588115,17.472879 24.7570268,16.8581363 24.5679517,16.5744089 C24.166167,15.9951321 24.1307154,15.7232267 24.4497797,15.7232267 C24.591586,15.7232267 24.8397472,15.9951321 25.1588115,16.4916551 C25.430607,16.9172462 25.7024025,17.2600834 25.7733057,17.2600834 C25.8323917,17.2600834 25.8796605,16.7162726 25.8796605,16.04242 C25.8796605,14.8365786 25.9623809,14.5410292 26.3050796,14.5410292 C26.3877999,14.5410292 26.5296063,14.6710709 26.6123267,14.8247566 C26.695047,14.9902643 27.0731973,15.605007 27.4513476,16.1961057 C27.8176807,16.7990264 28.1249278,17.3310153 28.1249278,17.3783032 C28.1249278,17.4255911 28.0540246,17.5319889 27.9594871,17.6029207 C27.8176807,17.7211405 27.6995087,17.6029207 27.2859069,16.9054242 C27.0141113,16.4443672 26.7304986,16.0897079 26.6595954,16.1133519 C26.5768751,16.1369958 26.5177891,16.5980529 26.4941547,17.3191933 C26.4587031,18.394993 26.3641655,18.7969402 26.1160044,18.7969402 C26.0569184,18.7969402 25.7614885,18.406815 25.4660586,17.945758 Z" id="Path" fill="#D3D3D3"></path>
                            <path d="M57.1479626,17.484701 C56.7343607,17.1655076 56.7343607,16.538943 57.1479626,15.6641168 C57.715188,14.4582754 58.6487465,13.9735744 59.3341439,14.5292072 C59.9250038,15.0020862 59.5468535,16.4325452 58.5896606,17.3664812 C58.1406071,17.8038943 57.6088332,17.8511822 57.1479626,17.484701 Z M58.4596714,16.7044506 C59.0978,15.8769124 59.2514236,15.2148818 58.8850905,14.9547983 C58.4833058,14.659249 57.8569944,15.2503477 57.4552097,16.3143255 C57.2897689,16.7399166 57.4788441,17.1418637 57.83336,17.1418637 C58.0224351,17.1418637 58.2351447,17 58.4596714,16.7044506 Z" id="Shape" fill="#D3D3D3" fill-rule="nonzero"></path>
                            <path d="M29.0466692,16.4916551 C28.5148953,16.2906815 28.1840138,15.9714882 27.9476699,15.4158554 C27.7231431,14.8720445 27.7231431,14.5646732 27.9476699,14.0326843 C28.3021858,13.1696801 29.3893679,12.6731572 30.1102168,13.0514604 C30.4883671,13.2524339 30.961055,13.7726008 30.961055,14.0090403 C30.961055,14.0799722 30.6656251,14.2691238 30.299292,14.4228095 C29.7793353,14.635605 29.6138946,14.659249 29.5429914,14.5410292 C29.4011851,14.3164117 29.519357,14.1154381 29.8738729,13.9499305 C30.18112,13.8198887 30.18112,13.8080668 29.9565933,13.6425591 C29.5902602,13.3706537 29.2002927,13.4415855 28.7630564,13.8789986 C28.4558093,14.18637 28.3612718,14.3755216 28.3612718,14.7183588 C28.3612718,15.5222531 29.1412067,16.2079277 29.8620557,16.0305981 C30.0274965,15.9833102 30.3465608,15.7586926 30.5592703,15.5222531 C30.961055,15.0848401 31.1973989,15.0848401 31.1973989,15.5340751 C31.1973989,15.8650904 30.8074314,16.2433936 30.2283888,16.4916551 C29.7084322,16.7044506 29.6257118,16.7044506 29.0466692,16.4916551 Z" id="Path" fill="#D3D3D3"></path>
                            <path d="M55.1508564,16.3497914 C55.1035876,16.3143255 55.068136,15.6877608 55.068136,14.9666203 C55.068136,13.7607789 55.0917704,13.6189152 55.3517487,13.3115438 C55.9071569,12.6022253 57.0770594,13.0396384 57.0770594,13.9499305 C57.0770594,14.4582754 56.5571028,15.0139082 56.0725977,15.0139082 C55.6353614,15.0139082 55.5053723,15.2148818 55.5408239,15.8178025 C55.552641,15.9951321 55.5644582,16.2079277 55.552641,16.2906815 C55.5408239,16.4443672 55.2808455,16.4916551 55.1508564,16.3497914 Z M56.4625652,13.9972184 C56.4861996,13.7371349 56.4389308,13.6070932 56.2971244,13.5479833 C56.0016945,13.4297636 55.6944474,13.5716273 55.6235442,13.8435327 C55.5171895,14.2573018 55.6589958,14.4346314 56.0607805,14.3991655 C56.3798448,14.3636996 56.4271136,14.3164117 56.4625652,13.9972184 Z" id="Shape" fill="#D3D3D3" fill-rule="nonzero"></path>
                            <path d="M53.1301158,15.5104312 C53.0946642,15.4513213 52.8819546,15.3567455 52.6574279,15.3212796 C52.1492884,15.2267038 52.1020197,15.0848401 52.243826,14.162726 C52.3974496,13.216968 52.4801699,13.1342142 53.0001266,13.4061196 C53.4019113,13.6189152 53.4255457,13.6307371 53.6500724,13.4179416 C54.1582119,12.9568846 53.8273303,12.3303199 53.1537501,12.4603616 C52.9410406,12.4958275 52.6810623,12.4721836 52.5865247,12.4130737 C52.4329012,12.3066759 52.4447184,12.259388 52.6928795,12.0584145 C53.0001266,11.798331 53.5319004,11.7510431 53.9100507,11.9520167 C54.288201,12.1529903 54.5127277,12.8268428 54.3591042,13.3115438 C54.1936634,13.8080668 53.626438,14.2336579 53.2482877,14.1390821 C52.9292234,14.0563282 52.6456107,14.3282337 52.7519655,14.6001391 C52.7874171,14.7065369 53.0119438,14.8720445 53.2482877,14.9666203 C53.5319004,15.0848401 53.6500724,15.2030598 53.626438,15.3449235 C53.5791692,15.569541 53.2364705,15.6759388 53.1301158,15.5104312 Z" id="Path" fill="#D3D3D3"></path>
                            <path d="M32.4145702,13.8671766 C31.9064307,13.22879 31.4219257,12.6376912 31.3510225,12.5549374 C31.1383129,12.3421419 31.1619473,12.1884562 31.3982913,12.0938804 C31.5164632,12.0465925 31.6700868,12.1175243 31.800076,12.27121 C32.0482371,12.5785814 32.2609466,12.5904033 32.9345268,12.3421419 C33.2890427,12.2002782 33.4426663,12.0702364 33.4426663,11.9165508 C33.4426663,11.5737135 33.6553758,11.2308762 33.8680854,11.2308762 C34.0335261,11.2308762 34.0571605,11.4554937 34.0217089,12.9805285 C33.9980745,13.9381085 33.9626229,14.7892907 33.9389885,14.8720445 C33.9153541,14.9429764 33.7735478,15.0139082 33.6199242,15.0139082 C33.4190319,15.0139082 33.1117848,14.7183588 32.4145702,13.8671766 Z M33.4190319,13.3706537 C33.4544835,12.8741307 33.4544835,12.8741307 33.0763332,12.9095967 C32.5918281,12.9568846 32.5563765,13.0751043 32.8518064,13.5716273 C33.1590536,14.0799722 33.3717631,14.0090403 33.4190319,13.3706537 Z" id="Shape" fill="#D3D3D3" fill-rule="nonzero"></path>
                            <path d="M35.6997508,14.0445063 C35.4988585,13.5716273 35.0734394,11.4791377 35.1207082,11.2072323 C35.1443426,11.0062587 35.2861489,10.9116829 35.7470196,10.8052851 C36.1960731,10.6870654 36.3496966,10.6870654 36.4205998,10.7934631 C36.5742234,11.0417246 36.5269546,11.1244784 36.0897183,11.3018081 C35.6761164,11.4791377 35.6761164,11.4909597 35.7470196,11.9756606 C35.7942884,12.2475661 35.9006432,12.732267 35.9951807,13.0514604 C36.2197075,13.8317107 36.2078903,14.3045897 35.9833635,14.3045897 C35.8770088,14.3045897 35.7588368,14.18637 35.6997508,14.0445063 Z" id="Path" fill="#D3D3D3"></path>
                            <path d="M38.1931793,13.5952712 C37.7677602,13.3351878 37.3541583,12.5549374 37.3423411,12.0229485 C37.3305239,10.7343533 38.65405,9.80041725 39.7057805,10.3442281 C40.2257371,10.6161335 40.6747906,11.2781641 40.7338766,11.8692629 C40.8165969,12.5076495 40.4384466,13.3470097 39.9421244,13.6307371 C39.4812537,13.9026426 38.6776844,13.8908206 38.1931793,13.5952712 Z M39.8712212,12.8741307 C40.8520485,11.7155772 39.3394474,10.0368567 38.2758997,11.1008345 C37.8032118,11.5737135 37.7913946,12.3421419 38.2404481,12.8741307 C38.4886092,13.1815021 38.6304156,13.240612 39.0558346,13.240612 C39.4812537,13.240612 39.6230601,13.1815021 39.8712212,12.8741307 Z" id="Shape" fill="#D3D3D3" fill-rule="nonzero"></path>
                            <path d="M44.8226266,13.6307371 C44.4562935,13.5834492 44.4326591,13.5479833 44.4444763,13.1460362 C44.4444763,12.9095967 44.5153795,12.1293463 44.5862826,11.4082058 L44.728089,10.1077886 L45.4962068,10.1550765 C46.228873,10.1905424 46.4888513,10.3087622 46.4061309,10.5806676 C46.3824965,10.6515994 46.0988838,10.7225313 45.7798195,10.7579972 L45.2007769,10.8171071 L45.2007769,11.2899861 C45.2007769,11.7037552 45.2362284,11.7628651 45.4962068,11.798331 C46.1579698,11.8692629 46.3352277,11.9520167 46.2997761,12.1529903 C46.2761417,12.294854 46.110701,12.3657858 45.6734647,12.4130737 C45.1416909,12.4721836 45.0826049,12.4958275 45.0826049,12.767733 C45.0826049,12.9687065 45.1535081,13.0751043 45.3189488,13.0987483 C45.9688946,13.1933241 46.0870666,13.2524339 46.0870666,13.4770515 C46.0870666,13.7253129 45.8270883,13.7489569 44.8226266,13.6307371 Z" id="Path" fill="#D3D3D3"></path>
                            <path d="M41.8801446,13.4652295 C41.8092414,13.3706537 41.7383383,12.7204451 41.7147039,11.9993046 C41.7028867,11.2899861 41.6792523,10.5688456 41.6674351,10.403338 C41.6556179,10.1787204 41.7147039,10.1077886 41.8919618,10.1077886 C42.0928542,10.1077886 42.1401229,10.2023644 42.1873917,10.6752434 C42.2228433,10.9826147 42.2937465,11.2545202 42.3528325,11.2663421 C42.4119185,11.2781641 42.6009936,11.0062587 42.7664344,10.6752434 C43.0027783,10.2023644 43.1327675,10.0486787 43.345477,10.0486787 C43.6645413,10.0486787 43.6763585,10.1668985 43.3691114,10.7225313 C43.2391222,10.9707928 43.1327675,11.3018081 43.1327675,11.4673157 C43.1327675,11.6328234 43.2391222,11.8337969 43.3691114,11.9165508 C43.6763585,12.1057024 43.6881757,12.8741307 43.3927458,13.240612 C43.1327675,13.5716273 42.081037,13.713491 41.8801446,13.4652295 Z M42.9673267,12.8386648 C43.2627566,12.6140473 43.0736815,12.2475661 42.624628,12.2002782 C42.2701121,12.1529903 42.081037,12.5549374 42.3055637,12.8268428 C42.4946388,13.0514604 42.6718968,13.0514604 42.9673267,12.8386648 Z" id="Shape" fill="#D3D3D3" fill-rule="nonzero"></path>
                            <path d="M49.1949893,12.259388 C48.8050218,12.1411683 48.6750326,11.8574409 48.9586454,11.7628651 C49.2422581,11.6564673 49.8094835,11.8929068 49.8094835,12.1175243 C49.8094835,12.3894298 49.6794944,12.4248957 49.1949893,12.259388 Z" id="Path" fill="#D3D3D3"></path>
                            <g id="Group-21" transform="translate(16.544075, 17.433476)" fill-rule="nonzero">
                                <path d="M21.7971884,50.3045424 C-0.89822288,46.6621988 -7.93708957,17.9336245 10.6303882,4.72602751 C27.3394736,-7.16901326 50.5776013,4.75884142 50.5776013,25.2511254 C50.5776013,40.4439637 36.5327598,52.6671436 21.7971884,50.3045424 Z M39.4108011,40.0501969 C38.9174226,39.1150006 39.2627875,39.1806284 40.2166527,40.1978594 L40.9896123,41.051021 L42.0421531,40.1158247 C42.6177614,39.6072091 43.1933696,39.2298492 43.3084913,39.2626631 C43.4400589,39.295477 43.5551806,39.0329658 43.5880725,38.6884198 C43.6045184,38.3438738 43.9827753,37.7204096 44.4268159,37.3102357 C44.8544106,36.9000619 45.5780324,35.83361 46.038519,34.9312276 C47.3048572,32.371743 47.7324519,31.6990579 48.357398,31.2232563 C51.4985745,28.8606551 44.065005,30.8458963 40.2166527,33.405381 L39.2298956,34.0616591 L36.7794491,32.4537777 C35.4473271,31.5678023 33.4738131,30.5013503 32.4212723,30.0911765 C31.1384881,29.5989679 30.5628799,29.2052011 30.6780015,28.9098759 C30.7602313,28.6801786 30.842461,27.4496571 30.842461,26.2027287 C30.842461,23.0197799 31.4509612,23.3643259 31.5660828,26.6129025 C31.7140964,30.6818268 32.4870561,30.5505712 32.4870561,26.46524 L32.4870561,23.3643259 L31.17138,23.3643259 L29.855704,23.3643259 L29.7899202,25.7105201 L29.7241364,28.0403074 L29.6090148,25.6612993 C29.4774472,22.7736756 28.2604469,21.9533279 28.1617712,24.6768821 L28.0959873,26.0714731 L27.9644197,24.6768821 C27.865744,23.4791745 27.7341764,23.2822911 27.0763384,23.2822911 C26.6651897,23.2822911 26.1389193,23.0690007 25.908676,22.7900825 C25.5468651,22.3470948 26.2869328,22.2978739 32.2897047,22.2978739 L39.0654361,22.2978739 L39.0654361,19.3610294 L39.0654361,16.4077779 L30.0201635,16.3257431 C25.0370406,16.2765223 20.9748909,16.2929292 20.9748909,16.358557 C20.9748909,16.71951 37.1905978,39.0493727 37.3386114,38.8853032 C37.4372871,38.8032685 37.3221654,38.4587224 37.0919221,38.1305834 C36.8452329,37.8188513 37.2728276,38.2290251 38.0128953,39.0329658 C38.7529631,39.8533134 39.3779092,40.6408472 39.3779092,40.8049167 C39.3943551,40.9689862 39.4765849,41.0182071 39.5917065,40.9197654 C39.6903823,40.8213236 39.6081525,40.4275568 39.4108011,40.0501969 Z M10.1205638,28.3684465 C10.1205638,23.4955815 10.0876719,23.2822911 9.46272576,23.2822911 C8.03192809,23.2822911 8.60753634,33.2577184 10.038334,33.4381949 C10.0876719,33.4546018 10.1205638,31.1740354 10.1205638,28.3684465 Z M11.370456,33.060835 C12.1434156,32.2897082 11.8967264,23.2822911 11.1073208,23.2822911 C10.4823747,23.2822911 10.4494828,23.4955815 10.4494828,28.3684465 C10.4494828,33.3233462 10.5481585,33.8811826 11.370456,33.060835 Z M39.0654361,28.204377 C39.0654361,23.4955815 39.0325442,23.2822911 38.4075981,23.2822911 C37.6181925,23.2822911 37.3715033,31.9615691 38.1444629,32.7326959 C38.9503145,33.5366366 39.0654361,33.0116141 39.0654361,28.204377 Z M40.3153284,32.7326959 C41.088288,31.9615691 40.8415988,23.2822911 40.0521932,23.2822911 C39.427247,23.2822911 39.3943551,23.4955815 39.3943551,28.204377 C39.3943551,33.0116141 39.5094768,33.5366366 40.3153284,32.7326959 Z M13.4097538,27.5316919 C13.4097538,23.4955815 13.3768619,23.2822911 12.7519158,23.2822911 C12.1269697,23.2822911 12.0940778,23.4955815 12.0940778,27.8926448 C12.0940778,32.3881499 12.1105237,32.4865916 12.7519158,32.1420456 C13.360416,31.8139066 13.4097538,31.4529536 13.4097538,27.5316919 Z M8.47596874,27.7121684 C8.47596874,23.4955815 8.44307684,23.2822911 7.81813073,23.2822911 C6.38733307,23.2822911 6.94649537,31.9615691 8.39373899,32.1256387 C8.44307684,32.1420456 8.47596874,30.1568043 8.47596874,27.7121684 Z M37.4208411,27.7121684 C37.4208411,23.4955815 37.3879492,23.2822911 36.7630031,23.2822911 C35.3322054,23.2822911 35.8913678,31.9615691 37.3386114,32.1256387 C37.3879492,32.1420456 37.4208411,30.1568043 37.4208411,27.7121684 Z M41.9599234,31.7482788 C42.732883,30.977152 42.4861938,23.2822911 41.6967882,23.2822911 C41.0718421,23.2822911 41.0389502,23.4955815 41.0389502,27.7121684 C41.0389502,32.0436039 41.1540718,32.5522194 41.9599234,31.7482788 Z M15.0543488,27.0394833 C15.0543488,23.4955815 15.0214569,23.2822911 14.3965108,23.2822911 C13.7715647,23.2822911 13.7386728,23.4955815 13.7386728,27.4004363 C13.7386728,31.4037327 13.7551188,31.5021745 14.3965108,31.1576285 C14.988565,30.8458963 15.0543488,30.4685364 15.0543488,27.0394833 Z M43.6703022,28.4176673 C43.6703022,26.9410416 43.7689779,25.1854976 43.8840996,24.5128126 C44.065005,23.4135467 44.0156672,23.2822911 43.390721,23.2822911 C42.6999911,23.2822911 42.6835452,23.4135467 42.6835452,27.3676224 C42.6835452,30.8787103 42.749329,31.4365467 43.1769237,31.2724771 C43.5551806,31.1248145 43.6703022,30.4849434 43.6703022,28.4176673 Z M6.83137372,27.2199598 C6.83137372,23.6268371 6.78203587,23.2822911 6.23931951,23.2822911 C5.64726531,23.2822911 5.46635985,29.9435139 6.02552216,30.8623033 C6.60113042,31.7974996 6.83137372,30.7638616 6.83137372,27.2199598 Z M35.7762461,27.2199598 C35.7762461,23.4955815 35.7433542,23.2822911 35.1184081,23.2822911 C33.7040564,23.2822911 34.2632187,30.977152 35.6940163,31.1412215 C35.7433542,31.1576285 35.7762461,29.3856776 35.7762461,27.2199598 Z M5.1867787,26.8754138 C5.1867787,23.676058 5.1209949,23.2494772 4.64406234,23.3479189 C4.11779194,23.4463606 3.92044053,29.4513054 4.39737309,30.2388391 C4.9565354,31.1248145 5.1867787,30.0911765 5.1867787,26.8754138 Z M16.1562275,30.255246 C16.6660519,29.4020845 16.5015924,23.4463606 15.9588761,23.3479189 C15.4326057,23.2494772 15.3832678,23.5776163 15.3832678,26.8754138 C15.3832678,30.0583626 15.6299571,31.1248145 16.1562275,30.255246 Z M45.3148972,27.2199598 C45.3148972,25.415195 45.3477891,23.8237206 45.397127,23.6924649 C45.4464648,23.5612093 45.2162215,23.4135467 44.9037485,23.3479189 C44.3774781,23.2494772 44.3281402,23.5776163 44.3281402,26.8754138 C44.3281402,29.8778861 44.41037,30.5013503 44.8215187,30.5013503 C45.2326675,30.5013503 45.3148972,29.9107 45.3148972,27.2199598 Z M34.1316511,26.7277512 C34.1316511,23.5776163 34.0823132,23.2822911 33.5231509,23.2822911 C32.9310967,23.2822911 32.7830832,28.0731213 33.3257995,29.7630375 C33.7698402,31.1740354 34.1316511,29.7958514 34.1316511,26.7277512 Z M46.9594922,26.5308678 C46.9594922,23.8565345 46.8772625,23.2822911 46.4661137,23.2822911 C46.054965,23.2822911 45.9727352,23.8893484 45.9727352,26.7113442 C45.9727352,29.6317818 46.054965,30.1239904 46.4661137,29.9599209 C46.8608165,29.8122583 46.9594922,29.1067594 46.9594922,26.5308678 Z M3.54218368,26.5636817 C3.54218368,23.8729414 3.45995393,23.2822911 3.04880517,23.2822911 C2.63765642,23.2822911 2.55542667,23.8729414 2.55542667,26.5636817 C2.55542667,29.2544219 2.63765642,29.8450722 3.04880517,29.8450722 C3.45995393,29.8450722 3.54218368,29.2544219 3.54218368,26.5636817 Z M17.9488361,26.448833 C18.0310658,23.7744997 17.965282,23.2822911 17.5376873,23.2822911 C17.1100926,23.2822911 17.0278629,23.8401275 17.0278629,26.5964956 C17.0278629,31.1740354 17.8008225,31.0591867 17.9488361,26.448833 Z M1.89758866,26.3667982 C1.89758866,24.004197 1.79891296,23.2658842 1.4864399,23.3643259 C1.0588452,23.5119885 1.0588452,23.7252788 1.4206561,27.3019945 C1.7495751,30.3700947 1.89758866,30.0747696 1.89758866,26.3667982 Z M48.6040873,26.3832052 C48.6040873,23.5612093 48.5383035,23.2494772 48.028479,23.3479189 C47.716006,23.4135467 47.4693167,23.6432441 47.4857627,23.8565345 C47.5022086,24.0862318 47.5351005,25.4480089 47.5679924,26.8918207 C47.6008843,28.9919107 47.716006,29.5169332 48.1107088,29.5169332 C48.5218575,29.5169332 48.6040873,28.9426898 48.6040873,26.3832052 Z M19.6592149,26.2191357 C19.6592149,23.6924649 19.5769851,23.2494772 19.1493904,23.3479189 C18.8698093,23.3971398 18.639566,23.5612093 18.6560119,23.6924649 C18.6724579,23.8237206 18.6724579,25.1198698 18.6724579,26.5636817 C18.6724579,28.6801786 18.7711336,29.1887941 19.1658364,29.1887941 C19.5605392,29.1887941 19.6592149,28.6473647 19.6592149,26.2191357 Z M21.3202559,26.6949373 L21.5011613,24.7589169 L17.8172685,19.7219824 L14.1169297,14.6850479 L9.56140146,14.7178618 C4.74273804,14.7670826 2.88434567,14.9639661 2.88434567,15.4397677 C2.88434567,15.6038372 5.46635985,15.7350928 8.62398229,15.7350928 C12.0940778,15.7350928 14.4458487,15.8663485 14.5609703,16.0632319 C14.6925379,16.2765223 13.9689161,16.3913709 12.6039022,16.3913709 L10.4494828,16.3913709 L10.4494828,19.3446224 L10.4494828,22.2978739 L14.8569974,22.2978739 C20.0703636,22.2978739 19.8565663,22.1502114 20.1690393,26.0058453 C20.4486205,29.3528636 21.0406747,29.7138166 21.3202559,26.6949373 Z M22.9484049,28.2371909 C22.9484049,28.0731213 23.0141887,27.7285753 23.0964185,27.498878 C23.1786482,27.2527737 22.8990671,26.6129025 22.4385805,26.0714731 L21.6327289,25.0870559 L21.6327289,26.809786 C21.6327289,28.3192256 21.7149587,28.532516 22.2905669,28.532516 C22.6523778,28.532516 22.9484049,28.4012604 22.9484049,28.2371909 Z M49.8868714,23.8893484 C49.9033173,23.7744997 49.7059659,23.5940232 49.4263848,23.4955815 C49.031682,23.331512 48.9330063,23.6104302 48.9658982,24.8573586 L48.9823441,26.3996121 L49.4263848,25.2511254 C49.673074,24.6276612 49.8868714,24.004197 49.8868714,23.8893484 Z M10.1205638,19.3282155 L10.1205638,16.374964 L6.58468447,16.4569988 L3.04880517,16.5554405 L2.98302137,17.769555 C2.90079162,19.0985182 2.24295361,20.6243648 1.4206561,21.2970498 C0.401007187,22.1502114 0.993061395,22.2978739 5.5156977,22.2978739 L10.1205638,22.2978739 L10.1205638,19.3282155 Z M49.5908443,21.9861418 C49.5908443,21.8220723 49.4592767,21.592375 49.2948172,21.4939333 C48.702763,21.1329803 47.387087,18.0812871 47.6337762,17.6711133 C48.2916142,16.6046613 47.6173303,16.3913709 43.4729508,16.3913709 L39.3943551,16.3913709 L39.3943551,19.3446224 L39.3943551,22.2978739 L44.4925997,22.2978739 C47.4528708,22.2978739 49.5908443,22.1666183 49.5908443,21.9861418 Z M19.6921068,16.5390335 C19.1329445,14.99678 18.7546876,13.585782 18.8533633,13.4053055 C18.968485,13.241236 24.7410135,13.1099804 32.7008534,13.1099804 C43.4729508,13.1099804 46.3345461,13.0279456 46.2194245,12.6998066 C46.1207488,12.3880745 42.4861938,12.2732258 29.855704,12.207598 L13.6235512,12.1255632 L14.3800649,12.9295039 C14.9721191,13.5529681 15.2845921,13.6678168 15.7286328,13.4217125 C16.5180384,13.0115387 18.3435389,13.0115387 18.3435389,13.4381194 C18.3435389,13.6185959 17.6857009,13.7662585 16.8634034,13.7662585 C14.9721191,13.7662585 14.9392272,13.6678168 17.8994982,16.9163934 C20.9091071,20.2141909 21.0077828,20.197784 19.6921068,16.5390335 Z M47.5679924,15.5546164 C47.6666681,15.4725816 47.6173303,15.2921051 47.4857627,15.1608495 C47.1403977,14.8163035 19.9881339,14.6522339 19.9881339,14.99678 C19.9881339,15.1444425 20.1361474,15.4233607 20.3006069,15.5874303 C20.61308,15.8991624 47.2719653,15.8663485 47.5679924,15.5546164 Z M46.9594922,14.0943976 C46.9594922,13.8975141 41.6145584,13.7498515 33.0133265,13.6842237 C20.6953098,13.6185959 19.1000526,13.6678168 19.3302959,14.0943976 C19.6427689,14.6850479 46.9594922,14.6850479 46.9594922,14.0943976 Z M13.7386728,14.2420601 C13.7386728,14.1272115 13.3768619,13.585782 12.9492672,13.0115387 L12.1434156,11.9614937 L8.27861734,12.1255632 C2.88434567,12.3552606 2.58831857,13.0935734 7.86746858,13.1427943 C9.92321236,13.1592012 11.9789561,13.2904569 12.4229968,13.4381194 C12.9328213,13.602189 11.4197938,13.7170376 8.57464444,13.7334446 C5.86106266,13.7498515 3.82176483,13.8975141 3.70664318,14.0943976 C3.57507558,14.3076879 5.2854544,14.4225366 8.62398229,14.4225366 C11.4362398,14.4225366 13.7386728,14.3405018 13.7386728,14.2420601 Z M45.4464648,11.3380295 C45.1339918,10.5504958 44.1965726,10.5012749 28.0466495,10.4192401 L12.2585373,10.3372054 L28.2933388,10.1567289 L44.3445862,9.99265936 L43.8183158,9.25434648 L43.3084913,8.51603361 L26.8460951,8.51603361 L10.4001449,8.51603361 L11.8802804,10.2387636 L13.34397,11.9614937 L29.4774472,11.8794589 C43.061802,11.7974242 45.5944784,11.7153894 45.4464648,11.3380295 Z M11.7651588,11.5349129 C11.7651588,10.5340888 8.01548214,10.0582872 6.02552216,10.813007 C4.31514334,11.4528782 5.17033275,11.7974242 8.47596874,11.7974242 C10.2850233,11.7974242 11.7651588,11.6825755 11.7651588,11.5349129 Z M10.1534557,9.22153258 C9.33115815,8.07304588 7.40698198,8.1714876 6.58468447,9.41841601 L6.09130596,10.1567289 L8.45952279,10.1567289 L10.8277396,10.1567289 L10.1534557,9.22153258 Z M41.7132341,7.18707043 L40.5784636,6.21906022 L25.2672839,6.21906022 C16.8469574,6.21906022 9.62718526,6.31750193 9.2489284,6.41594365 L8.52530659,6.61282708 L9.29826625,7.48239558 L10.0876719,8.35196408 L26.4678383,8.25352236 L42.8480047,8.15508065 L41.7132341,7.18707043 Z M39.7232742,5.43152648 C39.7232742,5.34949172 38.9174226,4.84087618 37.9142196,4.28303979 L36.1216111,3.26580871 L25.1192704,3.26580871 L14.1169297,3.26580871 L12.4394427,4.29944674 C11.5349155,4.87369009 10.7784018,5.38230562 10.7784018,5.44793344 C10.7784018,5.51356125 17.2909981,5.5627821 25.250838,5.5627821 C33.2106779,5.5627821 39.7232742,5.49715429 39.7232742,5.43152648 Z M34.7565972,2.47827498 C33.5395969,1.26416047 25.0699325,0.443812835 20.9748909,1.14931181 C14.0675918,2.34701936 14.7254298,2.56030974 25.2179461,2.59312365 C30.5464339,2.59312365 34.8388269,2.54390279 34.7565972,2.47827498 Z" id="Shape" fill="#D3D3D3"></path>
                                <path d="M25.3504018,49.0611694 C27.7462915,49.0700832 37.0120773,46.8457998 37.7189618,46.0737409 C38.2285761,45.4988034 36.8742621,44.6281838 36.2988911,44.0039659 C35.624885,43.2647605 35.3454191,42.2462998 35.9043509,42.5912623 C36.1344994,42.7391034 36.1838169,42.6076891 36.0194251,42.1805927 C35.8879118,41.8356302 36.7920663,42.6569695 38.0414434,44.0039659 C39.3236989,45.3838159 40.3922452,46.3037159 40.5237586,46.1065945 C40.7374678,45.7452052 37.1701673,40.2586587 36.8907013,40.5379141 C36.8085055,40.6364748 37.4989507,41.7534962 38.4359836,43.0512123 C41.510109,47.2728963 40.0141442,45.761632 33.1754482,37.7782141 C29.4766343,33.4579694 26.3531914,29.9097837 26.2381172,29.9097837 C26.123043,29.8933569 26.3038739,30.961098 26.6326573,32.2588141 C27.4217376,35.2977694 27.3724201,35.3141962 25.3504018,32.4066551 L23.6736062,29.9754908 L21.4378786,30.4025873 C17.4431596,31.1582194 15.4540196,31.9795587 11.7223273,34.3778694 C9.71674823,35.6755855 9.43728229,35.7741462 8.97698545,35.3141962 C6.82345377,33.1622873 1.29989162,30.7804033 1.29989162,32.0124123 C1.29989162,32.2752409 1.48072253,32.6037766 1.71087095,32.7516176 C2.22048531,33.0801534 2.84517389,34.0329069 3.30547074,35.2320623 C3.50274081,35.7248659 3.8150851,36.1355355 3.97947683,36.1355355 C4.16030774,36.1355355 4.22606443,36.2669498 4.12742939,36.4147909 C4.02879435,36.5790587 4.19318608,37.0225819 4.50553037,37.400398 C4.81787466,37.7782141 5.59051579,38.7966748 6.23164354,39.6672945 C7.8426825,41.8684837 10.7852945,44.5953302 12.2319417,45.2359748 C12.9059478,45.5480838 13.4648797,45.909473 13.4648797,46.0737409 C13.4648797,46.2380088 13.5963931,46.2708623 13.7607848,46.1723016 C13.9416157,46.0737409 14.2868383,46.2051552 14.5498651,46.4679838 C14.8128919,46.7308123 15.108797,46.8622266 15.2238712,46.7636659 C15.3225063,46.6486784 15.6512897,46.8129463 15.9307557,47.1086284 C16.6212009,47.7985534 21.465801,49.0467169 25.3504018,49.0611694 Z" id="Path" fill="#FFFFFF"></path>
                            </g>
                        </g>
                    </g>
                </g>
            </g>
        </g>
    </g>
</svg>