<?xml version="1.0" encoding="UTF-8"?>
<svg width="93px" height="224px" viewBox="0 0 93 224" version="1.1" xmlns="http://www.w3.org/2000/svg" xmlns:xlink="http://www.w3.org/1999/xlink">
    <!-- Generator: Sketch 52.2 (67145) - http://www.bohemiancoding.com/sketch -->
    <title>Group</title>
    <desc>Created with Sketch.</desc>
    <g id="Page-1" stroke="none" stroke-width="1" fill="none" fill-rule="evenodd">
        <g id="Artboard-Copy-40" transform="translate(-1000.000000, -1534.000000)">
            <g id="Group-28" transform="translate(0.000000, 1334.000000)">
                <g id="Group-27" transform="translate(348.000000, 32.000000)">
                    <g id="Group-16" transform="translate(652.000000, 168.000000)">
                        <g id="Group">
                            <g id="Path">
                                <path d="M45.8938131,221.64058 C50.3764646,221.64058 54.8591162,221.64058 59.3417677,221.211594 C61.0494444,221.211594 62.5436616,220.997101 64.0378788,220.353623 C64.6782576,220.13913 65.3186364,219.495652 65.532096,218.852174 C65.532096,218.208696 65.1051768,217.565217 64.464798,217.136232 C63.8244192,216.921739 63.1840404,216.707246 62.5436616,216.707246 C45.2534343,216.063768 27.9632071,216.492754 10.4595202,217.350725 C8.11146465,217.565217 5.54994949,217.565217 3.20189394,218.208696 C2.34805556,218.423188 1.70767677,218.852174 1.06729798,219.495652 C-1.28075758,222.498551 4.26919192,222.069565 5.3364899,222.069565 C8.53838384,222.069565 11.7402778,222.069565 14.9421717,222.069565 C21.5594192,222.069565 27.9632071,221.855072 34.5804545,221.855072 C38.4227273,221.64058 42.0515404,221.64058 45.8938131,221.64058 Z" fill="#AEAEAE" opacity="0.22"></path>
                                <g transform="translate(2.134596, 0.000000)">
                                    <path d="M53.1514394,39.1072464 C53.364899,38.2492754 53.7918182,37.6057971 54.432197,37.1768116 C54.6456566,36.9623188 55.0725758,36.5333333 55.2860354,36.3188406 C56.9937121,35.0318841 59.1283081,34.3884058 61.262904,34.6028986 C61.9032828,34.6028986 62.5436616,34.8173913 62.9705808,35.2463768 C63.3975,35.6753623 63.6109596,36.1043478 63.6109596,36.5333333 C63.6109596,36.7478261 63.6109596,36.7478261 63.6109596,36.9623188 C63.6109596,37.3913043 62.9705808,37.6057971 62.5436616,37.6057971 C62.1167424,37.6057971 61.6898232,37.8202899 61.262904,38.0347826 C60.8359848,38.2492754 60.6225253,38.8927536 60.8359848,39.1072464 C60.8359848,39.3217391 61.0494444,39.3217391 61.0494444,39.5362319 C61.0494444,39.9652174 60.8359848,40.1797101 60.4090657,40.1797101 C59.3417677,40.6086957 57.8475505,39.9652174 56.7802525,40.1797101 C56.3533333,40.1797101 56.1398737,40.3942029 55.7129545,40.6086957 C55.2860354,40.6086957 54.8591162,40.8231884 54.6456566,40.6086957 C54.2187374,40.6086957 54.0052778,40.6086957 53.5783586,40.3942029 C53.1514394,40.3942029 52.9379798,40.1797101 52.7245202,39.9652174 C53.1514394,39.5362319 53.1514394,39.3217391 53.1514394,39.1072464 Z" fill="#EADDD0"></path>
                                    <path d="M38.6361869,55.6231884 C40.7707828,52.8347826 42.265,49.8318841 44.399596,47.0434783 C47.3880303,43.3971014 50.5899242,40.8231884 52.5110606,36.7478261 C53.364899,38.2492754 56.5667929,39.5362319 57.4206313,41.0376812 C53.7918182,45.9710145 50.3764646,50.0463768 48.8822475,56.6956522 C48.2418687,59.6985507 44.8265152,64.4173913 43.332298,67.2057971 C42.4784596,68.7072464 41.4111616,69.9942029 40.130404,71.0666667 C37.5688889,73.6405797 34.3669949,75.7855072 30.7381818,76.4289855 C25.1882323,77.5014493 20.065202,73.8550725 20.065202,67.8492754 C20.065202,62.7014493 27.3228283,63.1304348 30.7381818,61.4144928 C33.7266162,60.342029 36.5015909,58.4115942 38.6361869,55.6231884 Z" fill="#4BB950"></path>
                                    <path d="M82.4879894,32 C78.1753489,32 77.3668556,36.2181126 73.0005636,36.2181126 C68.6349478,36.2181126 67.8263418,32 63.5132505,32 C58.2316128,32 56,37.3810985 56,42.6442471 C56,47.9073957 60.4782165,67 65.7591779,67 C67.9924814,67 68.5055528,54.7867947 73,54.7867947 C77.4944472,54.7867947 78.0074059,67 80.2408221,67 C85.5223471,67 90,47.9080697 90,42.6442471 C90,37.3804245 87.7689508,32 82.4879894,32 Z" fill="#272826"></path>
                                    <g>
                                        <path d="M8.75184343,215.205797 C6.40378788,215.42029 4.05573232,214.776812 2.34805556,213.489855 C5.54994949,205.982609 8.96530303,198.475362 12.167197,191.182609 C13.2344949,188.823188 14.3017929,186.463768 14.9421717,183.889855 C15.7960101,180.886957 15.7960101,177.669565 16.0094697,174.452174 C16.4363889,162.226087 16.8633081,149.785507 17.2902273,137.55942 C17.2902273,136.486957 17.2902273,135.414493 17.7171465,134.556522 C18.997904,131.982609 22.6267172,131.553623 25.6151515,131.768116 C26.2555303,131.768116 26.8959091,131.768116 27.5362879,132.197101 C28.1766667,132.626087 28.1766667,133.484058 28.1766667,134.342029 C28.3901263,143.994203 30.097803,135.2 30.097803,145.066667 C30.097803,148.498551 28.8170455,170.376812 27.9632071,173.808696 C26.6824495,179.814493 24.9747727,185.82029 21.7728788,190.968116 C16.6498485,198.689855 13.4479545,205.982609 8.75184343,215.205797 Z" fill="#272826"></path>
                                        <path d="M35.8612121,136.057971 C39.9169444,135.628986 43.9726768,134.985507 48.0284091,134.556522 C48.2418687,133.913043 47.1745707,134.556522 47.3880303,135.2 C49.5226263,153.86087 49.7360859,172.521739 48.0284091,191.182609 C47.1745707,199.118841 46.1072727,207.269565 46.9611111,215.205797 C45.2534343,215.42029 43.5457576,215.634783 41.8380808,215.634783 C38.8496465,190.53913 35.8612121,165.657971 32.6593182,140.562319 C32.4458586,139.275362 32.4458586,137.773913 33.299697,136.915942 C33.9400758,136.272464 34.7939141,136.057971 35.8612121,136.057971 Z" fill="#272826"></path>
                                        <path d="M42.4784596,52.6202899 C41.197702,48.7594203 39.7034848,44.684058 38.4227273,40.8231884 C34.7939141,43.1826087 29.6708838,42.9681159 26.0420707,40.3942029 C29.2439646,75.7855072 28.3901263,111.605797 27.3228283,147.211594 C34.3669949,144.423188 42.0515404,143.136232 49.5226263,143.565217 C49.7360859,129.623188 49.9495455,115.466667 50.1630051,101.524638 C50.3764646,92.3014493 50.3764646,83.0782609 48.6687879,74.0695652 C47.3880303,66.5623188 44.8265152,59.484058 42.4784596,52.6202899 Z" fill="#44A848"></path>
                                        <g transform="translate(5.485101, 34.318841)" fill="#EFEFEF">
                                            <path d="M12.8724242,1.57101449 C12.0185859,1.14202899 11.1647475,0.713043478 10.3109091,0.713043478 C9.03015152,0.927536232 8.17631313,2.42898551 7.96285354,3.71594203 C-3.13704545,39.9652174 0.705227273,79.0028986 4.5475,116.753623 C12.8724242,115.252174 21.6242677,115.252174 29.9491919,116.53913 C31.4434091,111.82029 31.8703283,106.886957 32.0837879,101.953623 C33.7914646,68.9217391 31.0164899,35.4608696 23.7588636,3.28695652 C20.1300505,3.93043478 16.0743182,3.28695652 12.8724242,1.57101449 Z"></path>
                                            <path d="M38.2741162,10.7942029 C36.5664394,7.79130435 34.8587626,5.00289855 33.5780051,1.78550725 C32.5107071,3.07246377 30.5895707,3.93043478 28.8818939,3.93043478 C38.9144949,28.5971014 39.1279545,56.0521739 39.3414141,82.6492754 C39.3414141,93.5884058 39.5548737,104.527536 39.5548737,115.252174 C44.8913636,113.965217 50.4413131,113.750725 55.777803,114.394203 C52.3624495,105.385507 49.8009343,95.7333333 49.8009343,86.0811594 C49.8009343,80.0753623 50.6547727,74.284058 50.8682323,68.2782609 C52.3624495,48.3304348 47.879798,28.1681159 38.2741162,10.7942029 Z"></path>
                                        </g>
                                        <path d="M26.8959091,33.5304348 C25.4016919,32.457971 24.1209343,30.742029 23.267096,28.5971014 C21.5594192,24.5217391 20.2786616,20.2318841 20.4921212,15.942029 C20.9190404,11.0086957 24.1209343,5.2173913 29.4574242,4.57391304 C35.6477525,3.93043478 37.9958081,11.8666667 39.4900253,17.2289855 C40.5573232,21.5188406 40.7707828,26.0231884 38.6361869,29.884058 C35.8612121,35.2463768 30.7381818,36.3188406 26.8959091,33.5304348 Z" fill="#E8DBD1"></path>
                                        <path d="M11.7402778,36.1043478 C11.5268182,34.173913 12.8075758,32.2434783 13.0210354,30.3130435 C13.6614141,26.2376812 12.3806566,22.8057971 10.8864394,19.1594203 C9.17876263,14.8695652 10.032601,11.6521739 12.3806566,8.22028986 C16.2229293,2.42898551 23.267096,-1.00289855 30.097803,0.498550725 C30.3112626,0.498550725 30.5247222,0.498550725 30.7381818,0.713043478 C33.299697,2.21449275 35.6477525,4.14492754 36.9285101,7.14782609 C37.7823485,8.86376812 38.4227273,11.0086957 38.2092677,13.1536232 C38.2092677,13.3681159 38.2092677,13.7971014 37.9958081,14.0115942 C37.5688889,11.8666667 36.7150505,9.72173913 35.6477525,9.50724638 C34.5804545,9.07826087 30.097803,11.6521739 28.8170455,11.6521739 C26.4689899,11.8666667 21.7728788,11.0086957 21.1325,14.226087 C20.7055808,15.7275362 21.7728788,17.4434783 22.6267172,18.7304348 C24.3343939,21.3043478 24.9747727,21.5188406 25.1882323,24.7362319 C25.8286111,30.9565217 30.3112626,35.4608696 26.6824495,41.2521739 C24.1209343,45.3275362 19.4248232,46.6144928 15.1556313,42.7536232 C14.0883333,40.8231884 11.9537374,38.0347826 11.7402778,36.1043478 Z" fill="#272826"></path>
                                        <path d="M45.8938131,219.066667 C46.7476515,219.495652 45.6803535,220.13913 45.2534343,220.13913 C44.399596,220.353623 43.5457576,220.353623 42.6919192,220.13913 C42.4784596,220.13913 42.265,220.13913 42.0515404,219.924638 C41.8380808,219.924638 41.8380808,219.710145 41.6246212,219.495652 C41.4111616,219.066667 40.5573232,218.637681 40.5573232,217.994203 C40.3438636,217.565217 40.5573232,217.136232 40.7707828,216.921739 C40.9842424,216.063768 41.6246212,215.42029 41.6246212,214.347826 C43.5457576,214.347826 45.0399747,213.489855 46.5341919,213.918841 C46.7476515,214.562319 47.1745707,214.991304 47.1745707,215.42029 C47.3880303,214.991304 51.6572222,215.849275 52.297601,215.849275 C53.1514394,215.849275 54.0052778,216.063768 54.8591162,216.063768 C55.4994949,216.063768 56.7802525,215.634783 57.2071717,216.278261 C57.4206313,216.492754 57.4206313,216.707246 57.4206313,217.136232 C57.4206313,217.350725 57.4206313,217.565217 57.4206313,217.77971 C57.4206313,218.208696 56.9937121,218.423188 56.7802525,218.637681 C53.364899,220.353623 49.5226263,218.637681 45.8938131,219.066667 Z" fill="#826F5F"></path>
                                        <path d="M5.1230303,218.852174 C5.54994949,219.710145 4.48265152,219.924638 4.05573232,219.710145 C3.20189394,219.495652 2.34805556,219.066667 1.49421717,218.637681 C1.28075758,218.423188 1.06729798,218.423188 0.853838384,218.208696 C0.853838384,217.994203 0.640378788,217.77971 0.640378788,217.77971 C0.426919192,217.350725 3.502032e-12,216.492754 0.213459596,215.849275 C0.213459596,215.42029 0.640378788,215.205797 0.853838384,214.776812 C1.49421717,214.133333 2.56151515,213.06087 2.77497475,211.988406 C4.48265152,212.846377 7.25762626,213.704348 8.53838384,214.776812 C7.89800505,215.42029 7.89800505,215.849275 7.47108586,216.278261 C7.68454545,216.063768 11.7402778,218.637681 12.3806566,218.852174 C13.2344949,219.281159 14.0883333,219.710145 14.7287121,220.13913 C15.3690909,220.353623 16.8633081,220.568116 16.8633081,221.426087 C16.8633081,221.64058 16.8633081,222.069565 16.8633081,222.284058 C16.8633081,222.498551 16.6498485,222.713043 16.6498485,222.927536 C16.4363889,223.142029 16.0094697,223.356522 15.5825505,223.356522 C11.7402778,223.356522 8.75184343,220.13913 5.1230303,218.852174 Z" fill="#826F5F"></path>
                                        <path d="M30.9516414,105.385507 C25.6151515,107.315942 19.8517424,107.530435 14.5152525,106.243478 C14.7287121,110.318841 14.7287121,114.17971 14.7287121,118.469565 C14.9421717,121.472464 14.9421717,124.904348 16.6498485,127.478261 C18.1440657,129.623188 20.4921212,131.124638 23.0536364,131.33913 C25.6151515,131.553623 28.1766667,130.695652 30.097803,128.765217 C32.6593182,126.191304 33.299697,122.115942 33.299697,118.469565 C33.5131566,113.965217 32.8727778,109.46087 31.8054798,105.171014 C31.5920202,105.171014 31.3785606,105.171014 30.9516414,105.385507 Z" fill="#E6E6E6"></path>
                                        <path d="M55.9264141,104.956522 C53.364899,106.886957 50.5899242,107.101449 48.0284091,105.814493 C48.0284091,109.889855 48.0284091,113.750725 48.2418687,118.04058 C48.2418687,121.043478 48.4553283,124.475362 49.3091667,127.049275 C49.9495455,129.194203 51.230303,130.695652 52.5110606,130.910145 C53.7918182,131.124638 55.0725758,130.266667 55.9264141,128.336232 C57.2071717,125.762319 57.4206313,121.686957 57.4206313,118.04058 C57.4206313,113.536232 57.2071717,109.031884 56.7802525,104.742029 C56.3533333,104.742029 56.1398737,104.956522 55.9264141,104.956522 Z" fill="#E6E6E6"></path>
                                    </g>
                                    <path d="M59.7686869,67.6347826 C59.9821465,66.7768116 60.1956061,65.9188406 60.6225253,65.0608696 C61.262904,63.9884058 62.1167424,63.1304348 63.1840404,62.4869565 C63.8244192,62.057971 64.6782576,61.8434783 65.3186364,62.057971 C65.9590152,62.2724638 66.3859343,62.915942 66.5993939,63.5594203 C66.8128535,64.2028986 66.8128535,64.8463768 66.5993939,65.4898551 C66.1724747,68.2782609 63.3975,72.7826087 59.9821465,71.9246377 C59.3417677,71.7101449 58.7013889,71.4956522 58.7013889,70.8521739 C58.7013889,70.6376812 58.7013889,70.4231884 58.7013889,70.2086957 C59.1283081,69.3507246 59.3417677,68.4927536 59.7686869,67.6347826 Z" fill="#EADDD0"></path>
                                    <path d="M27.1093687,79.6463768 C28.8170455,83.5072464 30.9516414,87.7971014 35.0073737,88.6550725 C37.5688889,89.2985507 40.3438636,88.4405797 42.9053788,87.1536232 C47.8149495,85.0086957 52.5110606,82.2202899 56.9937121,78.7884058 C59.7686869,76.6434783 62.5436616,73.6405797 61.6898232,70.2086957 C61.4763636,69.7797101 61.262904,69.1362319 60.8359848,68.9217391 C59.7686869,68.2782609 58.4879293,69.1362319 57.6340909,69.9942029 C53.1514394,74.0695652 47.6014899,77.0724638 41.6246212,78.1449275 C40.7707828,78.3594203 40.130404,78.3594203 39.2765657,78.1449275 C37.3554293,77.715942 36.2881313,75.5710145 35.6477525,73.6405797 C33.0862374,66.1333333 30.9516414,58.4115942 29.2439646,50.6898551 C28.8170455,49.1884058 28.6035859,47.6869565 27.7497475,46.4 C26.4689899,44.4695652 23.6940152,43.3971014 21.5594192,44.0405797 C14.0883333,45.9710145 18.5709848,54.9797101 20.065202,59.484058 C21.9863384,66.7768116 24.3343939,73.2115942 27.1093687,79.6463768 Z" fill="#4BB950"></path>
                                </g>
                            </g>
                        </g>
                    </g>
                </g>
            </g>
        </g>
    </g>
</svg>