<?xml version="1.0" encoding="UTF-8"?>
<svg width="87px" height="222px" viewBox="0 0 87 222" version="1.1" xmlns="http://www.w3.org/2000/svg" xmlns:xlink="http://www.w3.org/1999/xlink">
    <!-- Generator: Sketch 52.2 (67145) - http://www.bohemiancoding.com/sketch -->
    <title>Group</title>
    <desc>Created with Sketch.</desc>
    <g id="Page-1" stroke="none" stroke-width="1" fill="none" fill-rule="evenodd">
        <g id="Artboard-Copy-40" transform="translate(-360.000000, -1525.000000)">
            <g id="Group-28" transform="translate(0.000000, 1334.000000)">
                <g id="Group-27" transform="translate(348.000000, 32.000000)">
                    <g id="Group-13" transform="translate(10.000000, 159.000000)">
                        <g id="Group" transform="translate(2.000000, 0.000000)">
                            <path d="M54.6538608,221.86273 C50.1973724,222.045757 45.740884,222.045757 41.478156,221.86273 C29.0774926,221.679703 16.8705896,221.679703 4.46992624,221.496676 C2.53232259,221.496676 0.013437845,221.130622 0.013437845,219.849435 C-0.18032252,218.751273 1.75728113,218.019166 3.50112442,217.653112 C9.31393537,216.371924 15.514267,216.188898 21.7145987,216.005871 C30.8213359,215.639817 39.7343127,215.45679 48.8410498,215.090736 C54.4601004,214.90771 60.2729114,214.90771 65.5044412,216.005871 C68.4108467,216.737978 72.4798144,219.483381 68.023326,220.947596 C66.6670034,221.313649 64.1481187,221.130622 62.7917961,221.313649 C60.079151,221.496676 57.3665059,221.679703 54.6538608,221.86273 Z" id="Path" fill="#B3B2B2" opacity="0.22"></path>
                            <g transform="translate(4.000000, 0.000000)">
                                <path d="M47.8697674,13.6758621 C48.4488372,24.2965517 50.9581395,34.7241379 55.0116279,44.3793103 C47.0976744,45.9241379 38.9906977,47.2758621 31.2697674,45.3448276 C30.4976744,45.1517241 29.9186047,44.9586207 29.3395349,44.3793103 C28.7604651,43.8 28.5674419,42.8344828 28.3744186,41.8689655 C27.4093023,34.9172414 27.2162791,27.7724138 27.7953488,20.8206897 C27.9883721,19.0827586 28.1813953,17.537931 28.7604651,15.9931034 C29.3395349,14.6413793 30.3046512,13.4827586 31.4627907,12.3241379 C36.2883721,7.30344828 47.0976744,3.05517241 47.8697674,13.6758621 Z" id="Path" fill="#272826"></path>
                                <g transform="translate(0.000000, 4.793103)">
                                    <path d="M39.955814,28 C38.6046512,28.7724138 37.2534884,29.3517241 36.2883721,29.3517241 C35.1302326,29.5448276 33.972093,28.9655172 33.0069767,28.5793103 C30.8837209,27.6137931 28.3744186,26.6482759 27.2162791,24.7172414 C26.444186,23.5586207 26.0581395,22.2068966 25.8651163,20.8551724 C25.0930233,17.3793103 24.7069767,13.9034483 24.3209302,10.4275862 C24.127907,8.68965517 23.9348837,6.75862069 24.9,5.02068966 C26.2511628,2.31724138 29.7255814,1.54482759 32.6209302,0.965517241 C35.5162791,0.386206897 38.7976744,2.22044605e-16 41.5,1.15862069 C44.3953488,2.31724138 44.0093023,4.63448276 44.5883721,7.33793103 C45.1674419,10.6206897 45.7465116,14.0965517 46.1325581,17.5724138 C46.3255814,19.5034483 46.5186047,21.6275862 45.7465116,23.3655172 C44.7813953,24.7172414 42.272093,26.6482759 39.955814,28 Z" id="Path" fill="#F2E7D6"></path>
                                    <path d="M18.144186,157.572414 C18.9162791,142.317241 17.372093,126.868966 17.5651163,111.613793 C17.1790698,106.4 17.7581395,100.993103 19.6883721,95.9724138 C19.8813953,95.5862069 19.8813953,95.3931034 20.0744186,95.2 C20.8465116,94.4275862 22.0046512,94.8137931 22.9697674,95.2 C32.0418605,98.8689655 42.6581395,98.0965517 50.9581395,92.6896552 C52.5023256,95.2 53.0813953,98.2896552 53.4674419,101.186207 C54.0465116,106.013793 54.8186047,110.648276 55.0116279,115.475862 C55.0116279,115.475862 55.0116279,115.475862 55.0116279,115.475862 C55.0116279,116.441379 55.0116279,117.6 55.0116279,118.565517 C54.8186047,124.551724 53.6604651,130.344828 52.8883721,136.331034 C52.3093023,140.193103 51.7302326,144.055172 51.7302326,147.917241 C51.7302326,151.006897 52.1162791,154.096552 51.344186,157.186207 C49.6069767,164.910345 49.6069767,173.213793 48.8348837,181.131034 C48.0627907,189.434483 47.8697674,189.241379 47.2906977,197.737931 C47.2906977,198.124138 47.2906977,198.317241 47.2906977,198.703448 C46.9046512,198.896552 40.3418605,200.248276 40.3418605,198.703448 C39.7627907,182.482759 38.6046512,174.758621 38.2186047,158.344828 C38.0255814,151.393103 38.4116279,128.22069 36.6744186,121.655172 C35.9023256,121.655172 35.3232558,121.848276 34.5511628,121.848276 C30.6906977,143.475862 26.6372093,172.634483 22.7767442,194.262069 C22.3906977,196.193103 22.0046512,198.124138 20.8465116,199.475862 C19.6883721,200.634483 17.1790698,200.441379 16.9860465,198.510345 C17.9511628,181.903448 17.372093,173.986207 18.144186,157.572414 Z" id="Path" fill="#272826"></path>
                                    <path d="M1.15813953,99.6413793 C1.7372093,98.4827586 2.50930233,97.5172414 3.08837209,96.5517241 C5.01860465,85.5448276 6.94883721,74.7310345 9.26511628,63.7241379 C10.4232558,58.5103448 11.5813953,53.1034483 13.7046512,48.2758621 C15.827907,43.6413793 18.7232558,39.3931034 21.6186047,35.1448276 C21.6186047,34.9517241 22.7767442,34.7586207 23.1627907,34.7586207 C26.8302326,34.3724138 27.7953488,38.0413793 27.2162791,41.3241379 C26.2511628,47.1172414 21.4255814,52.137931 18.7232558,57.3517241 C15.4418605,63.337931 13.7046512,70.2896552 11.5813953,76.8551724 C9.45813953,83.6137931 7.52790698,90.3724138 5.98372093,97.1310345 C6.36976744,98.0965517 6.5627907,99.2551724 6.75581395,99.8344828 C6.94883721,100.413793 7.14186047,101.37931 6.36976744,101.765517 C5.98372093,101.958621 5.79069767,101.958621 5.40465116,101.958621 C4.63255814,102.151724 3.66744186,102.731034 3.28139535,103.310345 C3.08837209,103.503448 3.08837209,103.696552 3.08837209,103.889655 C2.31627907,105.048276 0.772093023,104.275862 0.772093023,103.117241 C0.386046512,102.151724 0.579069767,100.8 1.15813953,99.6413793 Z" id="Path" fill="#F2E7D6"></path>
                                    <path d="M45.3604651,35.1448276 C43.6232558,35.1448276 42.6581395,36.1103448 42.4651163,37.2689655 C42.6581395,37.8482759 42.8511628,38.4275862 42.8511628,38.6206897 C45.5534884,45.7655172 47.6767442,51.9448276 51.1511628,58.8965517 C51.7302326,60.2482759 52.6953488,63.337931 55.2046512,63.1448276 C57.7139535,62.9517241 57.7139535,60.2482759 57.5209302,58.7034483 C56.9418605,55.0344828 55.7837209,51.5586207 54.4325581,48.0827586 C53.2744186,44.9931034 52.3093023,41.7103448 50.3790698,38.8137931 C49.6069767,37.0758621 47.8697674,35.1448276 45.3604651,35.1448276 Z" id="Path" fill="#F2E7D6"></path>
                                    <path d="M16.2139535,94.2344828 C19.6883721,88.0551724 21.4255814,80.7172414 20.6534884,73.5724138 C19.8813953,68.1655172 17.7581395,62.7586207 19.3023256,57.5448276 C20.0744186,54.8413793 21.8116279,52.5241379 23.1627907,50.0137931 C26.444186,44.6068966 28.7604651,38.4275862 29.9186047,32.0551724 C29.9186047,31.6689655 30.1116279,31.4758621 30.3046512,31.0896552 C30.6906977,30.5103448 31.655814,30.8965517 32.2348837,31.0896552 C34.5511628,31.862069 36.8674419,32.0551724 39.1837209,31.4758621 C40.5348837,31.0896552 40.727907,30.7034483 41.6930233,31.6689655 C42.4651163,32.6344828 42.6581395,34.1793103 43.044186,35.337931 C44.9744186,40.1655172 46.5186047,45.1862069 46.9046512,50.4 C47.0976744,53.1034483 46.9046512,55.6137931 47.6767442,58.1241379 C48.255814,60.2482759 49.4139535,61.9862069 50.3790698,63.9172414 C53.8534884,70.8689655 54.2395349,78.9793103 56.9418605,86.5103448 C57.327907,87.6689655 57.9069767,88.8275862 57.9069767,90.1793103 C57.9069767,91.5310345 57.7139535,92.8827586 56.7488372,93.6551724 C56.1697674,94.2344828 55.2046512,94.6206897 54.4325581,94.8137931 C53.0813953,95.2 51.9232558,95.7793103 50.572093,96.1655172 C48.8348837,96.7448276 47.0976744,97.3241379 45.3604651,97.7103448 C43.2372093,98.0965517 40.9209302,98.0965517 38.6046512,98.0965517 C34.3581395,98.0965517 30.3046512,98.0965517 26.0581395,98.2896552 C23.7418605,98.2896552 21.2325581,98.2896552 18.9162791,98.0965517 C17.372093,97.9034483 15.4418605,97.3241379 15.2488372,95.7793103 C15.4418605,95.5862069 15.827907,94.8137931 16.2139535,94.2344828 Z" id="Path" fill="#4BB950"></path>
                                    <path d="M42.272093,197.931034 C41.8860465,197.931034 41.3069767,197.931034 40.9209302,198.124138 C40.5348837,198.317241 40.1488372,198.896552 40.1488372,199.475862 C39.3767442,202.758621 40.5348837,206.041379 40.9209302,209.324138 C41.1139535,211.255172 41.1139535,213.37931 41.3069767,215.310345 C41.8860465,215.310345 42.6581395,215.117241 43.2372093,215.117241 C43.044186,213.958621 43.044186,212.8 43.2372093,211.641379 C43.2372093,211.255172 43.4302326,210.868966 43.6232558,210.482759 C43.8162791,210.096552 44.2023256,209.903448 44.5883721,210.096552 C44.9744186,210.289655 44.9744186,210.482759 45.1674419,210.868966 C45.3604651,211.641379 45.7465116,212.413793 45.7465116,213.186207 C45.7465116,213.572414 45.9395349,213.958621 46.1325581,214.344828 C46.5186047,214.924138 47.2906977,214.924138 48.0627907,214.924138 C50.572093,214.924138 53.0813953,214.924138 55.3976744,214.731034 C56.3627907,214.731034 57.7139535,214.537931 58.2930233,213.765517 C59.0651163,212.8 58.6790698,211.255172 57.7139535,210.289655 C56.7488372,209.324138 55.5906977,208.937931 54.4325581,208.165517 C53.2744186,207.393103 52.3093023,206.427586 51.5372093,205.075862 C50.3790698,202.951724 50.3790698,199.862069 48.6418605,197.931034 C48.0627907,197.158621 47.2906977,197.351724 46.3255814,197.544828 C44.9744186,197.931034 43.6232558,197.931034 42.272093,197.931034 Z" id="Path" fill="#3D322B"></path>
                                    <path d="M16.4069767,195.227586 C16.2139535,195.227586 16.0209302,195.227586 15.827907,195.42069 C15.6348837,195.42069 15.6348837,195.613793 15.6348837,195.806897 C14.6697674,197.544828 14.8627907,199.668966 14.4767442,201.793103 C13.8976744,204.689655 12.5465116,207.2 11.5813953,209.903448 C11.1953488,210.675862 11.0023256,211.448276 11.0023256,212.22069 C11.0023256,213.765517 12.3534884,215.310345 13.8976744,215.889655 C15.4418605,216.468966 17.1790698,216.468966 18.7232558,216.082759 C19.1093023,216.082759 19.3023256,215.889655 19.6883721,215.889655 C20.0744186,215.696552 20.2674419,215.503448 20.4604651,215.310345 C22.3906977,213.186207 22.5837209,210.096552 22.5837209,207.2 C22.5837209,205.462069 22.7767442,203.917241 22.9697674,202.17931 C23.1627907,200.827586 23.5488372,199.089655 23.355814,197.544828 C23.1627907,196.386207 22.1976744,196.386207 21.2325581,196.193103 C19.4953488,195.806897 17.9511628,195.42069 16.4069767,195.227586 Z" id="Path" fill="#3D322B"></path>
                                    <path d="M55.9767442,83.8068966 C52.1162791,83.2275862 48.255814,82.8413793 44.2023256,82.8413793 C43.4302326,82.8413793 42.4651163,82.8413793 41.6930233,82.4551724 C40.3418605,82.0689655 39.3767442,81.1034483 38.4116279,80.137931 C35.9023256,77.6275862 33.3930233,75.1172414 31.0767442,72.4137931 C42.272093,72.6068966 53.2744186,72.9931034 64.2767442,73.5724138 C64.6627907,73.5724138 64.855814,73.5724138 65.2418605,73.7655172 C65.627907,73.9586207 65.8209302,74.3448276 66.2069767,74.537931 C67.5581395,76.2758621 68.9093023,78.0137931 70.4534884,79.5586207 C71.9976744,81.1034483 73.927907,82.4551724 75.2790698,84 C77.2093023,86.3172414 72.9627907,85.737931 71.6116279,85.737931 C69.1023256,85.5448276 66.5930233,85.3517241 64.2767442,84.9655172 C61.3813953,84.5793103 58.6790698,84.1931034 55.9767442,83.8068966 Z" id="Path" fill="#E2E2E2"></path>
                                    <path d="M61.1883721,82.8413793 C61.9604651,82.4551724 62.7325581,82.262069 63.5046512,81.8758621 C64.4697674,81.4896552 65.2418605,80.7172414 66.0139535,79.9448276 C66.2069767,79.5586207 66.5930233,79.1724138 66.9790698,78.9793103 C67.7511628,78.4 68.9093023,78.5931034 69.6813953,79.3655172 C70.2604651,80.137931 70.4534884,81.1034483 70.4534884,82.0689655 C70.2604651,83.0344828 69.8744186,84 69.4883721,84.7724138 C69.2953488,85.1586207 69.1023256,85.5448276 68.7162791,85.9310345 C67.172093,87.4758621 63.3116279,86.7034483 61.3813953,85.9310345 C60.9953488,85.737931 60.6093023,85.737931 60.4162791,85.3517241 C60.2232558,85.1586207 60.2232558,84.9655172 60.2232558,84.5793103 C59.8372093,84 60.6093023,83.2275862 61.1883721,82.8413793 Z" id="Path" fill="#F2E7D6"></path>
                                    <g transform="translate(39.604651, 48.275862)">
                                        <path d="M3.24651163,0.386206897 C1.70232558,10.0413793 0.737209302,19.8896552 0.737209302,29.5448276 C0.737209302,30.5103448 0.737209302,31.4758621 1.31627907,32.2482759 C2.08837209,33.2137931 3.43953488,33.4068966 4.79069767,33.4068966 C12.3186047,34.1793103 20.0395349,34.7586207 27.5674419,35.5310345 C30.2697674,35.7241379 32.972093,36.1103448 35.8674419,35.7241379 C36.4465116,35.7241379 36.8325581,35.5310345 37.2186047,35.337931 C37.6046512,34.9517241 37.7976744,34.5655172 37.9906977,33.9862069 C39.5348837,28.5793103 40.8860465,22.9793103 41.8511628,17.5724138 C42.4302326,14.4827586 42.8162791,11.3931034 43.2023256,8.30344828 C43.5883721,4.82758621 42.6232558,3.28275862 38.7627907,3.08965517 C34.9023256,2.89655172 30.8488372,2.31724138 26.9883721,1.93103448 C24.8651163,1.54482759 3.24651163,-0.193103448 3.24651163,0.386206897 Z" id="Path" fill="#E2E2E2"></path>
                                        <path d="M16.9511628,22.2068966 C19.6534884,22.2068966 22.355814,22.5931034 24.8651163,23.3655172 C24.8651163,23.3655172 24.8651163,23.3655172 24.8651163,23.3655172 C25.2511628,23.5586207 25.8302326,23.3655172 25.6372093,22.7862069 C25.0581395,19.3103448 23.5139535,16.2206897 23.127907,12.7448276 C23.127907,12.3586207 22.355814,11.9724138 22.1627907,12.5517241 C20.4255814,15.6413793 18.4953488,18.7310345 16.372093,21.6275862 C16.1790698,21.8206897 16.5651163,22.2068966 16.9511628,22.2068966 Z M24.4790698,22.2068966 C22.355814,21.6275862 20.0395349,21.4344828 17.9162791,21.2413793 C19.4604651,18.9241379 21.0046512,16.6068966 22.355814,14.2896552 C22.5488372,15.4482759 22.7418605,16.6068966 23.127907,17.7655172 C23.5139535,19.1172414 24.0930233,20.662069 24.4790698,22.2068966 Z" id="Shape" fill="#FFFFFF" fill-rule="nonzero"></path>
                                    </g>
                                </g>
                                <path d="M10.8093023,153.289655 C10.8093023,154.834483 10.8093023,156.37931 11.5813953,157.537931 C11.9674419,158.310345 12.7395349,158.696552 13.5116279,159.275862 C17.5651163,161.97931 22.7767442,162.365517 27.6023256,162.751724 C35.3232558,163.137931 42.8511628,162.944828 50.572093,162.172414 C52.5023256,161.97931 54.4325581,161.786207 56.1697674,161.013793 C58.1,160.241379 59.644186,158.889655 60.8023256,157.344828 C64.4697674,153.096552 65.8209302,147.110345 65.8209302,141.510345 C65.8209302,135.910345 64.2767442,130.503448 63.1186047,124.903448 C60.9953488,115.827586 59.2581395,106.558621 57.9069767,97.2896552 C57.7139535,96.3241379 57.5209302,95.3586207 56.7488372,94.7793103 C56.1697674,94.3931034 55.5906977,94.3931034 54.8186047,94.3931034 C43.2372093,94.2 31.0767442,94.2 20.0744186,98.4482759 C17.1790698,99.6068966 16.0209302,99.8 15.6348837,102.696552 C15.055814,105.97931 14.4767442,109.068966 14.0906977,112.351724 C13.1255814,118.724138 12.3534884,125.096552 11.9674419,131.275862 C11.1953488,138.613793 10.8093023,145.951724 10.8093023,153.289655 Z" id="Path" fill="#4BB950"></path>
                                <path d="M44.7813953,4.9862069 C41.6930233,1.31724138 36.2883721,-0.0344827586 31.655814,1.31724138 C27.0232558,2.66896552 23.355814,6.33793103 21.0395349,10.5862069 C18.7232558,14.8344828 17.7581395,19.662069 17.372093,24.4896552 C16.4069767,33.7586207 17.372093,43.0275862 18.3372093,52.2965517 C23.9348837,52.8758621 29.5325581,52.4896552 34.9372093,51.3310345 C31.8488372,41.4827586 28.7604651,31.2482759 28.3744186,20.8206897 C28.3744186,18.6965517 28.3744186,16.1862069 29.9186047,14.6413793 C31.2697674,13.2896552 33.3930233,12.9034483 35.1302326,12.1310345 C36.0953488,11.7448276 37.0604651,10.9724138 37.6395349,10.0068966 L37.4465116,11.5517241 C39.5697674,9.8137931 43.2372093,12.1310345 45.3604651,10.3931034 C46.7116279,9.23448276 45.9395349,6.53103448 44.7813953,4.9862069 Z" id="Path" fill="#272826"></path>
                            </g>
                        </g>
                    </g>
                </g>
            </g>
        </g>
    </g>
</svg>