<?xml version="1.0" encoding="UTF-8"?>
<svg width="215px" height="36px" viewBox="0 0 215 36" version="1.1" xmlns="http://www.w3.org/2000/svg" xmlns:xlink="http://www.w3.org/1999/xlink">
    <!-- Generator: Sketch 52.2 (67145) - http://www.bohemiancoding.com/sketch -->
    <title>ep-logo-white (2)</title>
    <desc>Created with Sketch.</desc>
    <g id="Page-1" stroke="none" stroke-width="1" fill="none" fill-rule="evenodd">
        <g id="Artboard-Copy-40" transform="translate(-229.000000, -2484.000000)" fill-rule="nonzero">
            <g id="Group-12" transform="translate(-22.000000, 2348.000000)">
                <g id="ep-logo-white-(2)" transform="translate(251.000000, 136.000000)">
                    <path d="M82.2501117,20.6016 C82.2501117,22.0866 82.2639246,22.7082 82.2813408,21.9828 C82.2981564,21.2574 82.2981564,20.0424 82.2813408,19.2828 C82.2645251,18.5232 82.2501117,19.1166 82.2501117,20.6016 M63.8712151,19.8264 C64.9342039,19.8426 66.6457961,19.8426 67.6745531,19.8264 C68.7033101,19.8102 67.8331006,19.797 65.7413547,19.797 C63.6490084,19.797 62.8076257,19.8102 63.8712151,19.8264 M158.052025,19.8264 C159.112011,19.8426 160.845824,19.8426 161.90581,19.8264 C162.965196,19.8102 162.097989,19.797 159.978617,19.797 C157.859246,19.797 156.992039,19.8102 158.052025,19.8264" id="path6" fill="#F4F4F4"></path>
                    <path d="M184.248394,6.8208 C183.762542,6.9888 183.628017,7.1064 183.393198,7.566 C183.081508,8.1762 183.09412,23.3688 183.406411,24.0138 C183.942109,25.119 185.708352,25.1352 186.353352,24.0414 C186.624804,23.5812 186.671648,8.1306 186.403198,7.6104 C186.020042,6.8682 185.09398,6.5286 184.248394,6.8208 M88.8628631,8.3928 C87.9151816,8.8134 87.9115782,8.8386 87.9127793,15.1008 C87.9133799,21.7212 87.9512151,22.0086 89.0081983,23.4072 C90.7942598,25.7706 95.6731983,25.4694 96.9944274,22.914 C98.0880447,20.7984 95.951257,19.3698 94.2781006,21.0984 C93.597067,21.8022 93.1730726,21.9552 92.4475978,21.7602 C91.4578771,21.4938 91.3161453,21.0084 91.3155447,17.8764 L91.3149441,15.4518 L93.4211034,15.4518 C96.217905,15.4518 96.7187709,15.2106 96.7193715,13.8636 C96.7205726,12.5262 96.2839665,12.3108 93.4919693,12.2694 L91.3149441,12.2376 L91.3125419,10.8696 C91.3089385,8.6136 90.4111034,7.7052 88.8628631,8.3928 M63.8393855,12.0486 C60.4318156,12.5178 58.3358659,14.9754 58.3358659,18.5016 C58.3358659,22.4424 60.9771229,24.9768 65.0903492,24.9816 C68.544162,24.9864 71.4310475,22.7376 70.3062011,20.919 C69.7206564,19.9722 68.4895112,20.0088 67.443338,21.0036 C66.107095,22.2756 63.7108659,22.1778 62.5019413,20.8026 C62.1956564,20.4534 61.9878631,20.0652 61.9878631,19.842 C61.9878631,19.782 63.4832542,19.7496 65.984581,19.755 C70.2707682,19.7646 70.2263268,19.7694 70.7818436,19.2462 C71.1331704,18.9144 71.2965223,18.4326 71.2947207,17.73 C71.2863128,14.142 67.8204888,11.5008 63.8393855,12.0486 M79.2437151,12.0504 C78.6047207,12.1404 77.5957821,12.5574 77.0060335,12.9762 L76.6601117,13.2216 L76.4955587,12.9114 C75.9166201,11.8224 74.1215503,11.8812 73.5486173,13.008 C73.355838,13.3866 73.3480307,13.5996 73.3480307,18.5016 C73.3480307,24.3432 73.3252095,24.1794 74.200824,24.6264 C75.0662291,25.0686 76.1442318,24.7812 76.545405,24.0018 C76.7369832,23.6298 76.755,23.3754 76.8054469,20.4018 C76.8667039,16.782 76.8931285,16.6476 77.6930726,15.8718 C78.7110196,14.8854 80.7775419,14.9274 81.6411453,15.9522 C82.1780447,16.59 82.2381006,17.0154 82.2777374,20.4882 C82.3113687,23.4474 82.3287849,23.7024 82.5161592,24.0702 C83.0428492,25.1016 84.8757542,25.0968 85.4036453,24.063 C85.6799022,23.5218 85.7225419,16.8294 85.4558939,15.7974 C84.7274162,12.9786 82.4428911,11.6004 79.2437151,12.0504 M113.835894,12.0132 C107.363673,12.7716 106.545112,22.8972 112.804134,24.7656 C114.488101,25.2684 116.642905,24.9702 118.016383,24.0444 C118.262612,23.8782 118.47581,23.7558 118.489623,23.772 C118.503436,23.7882 118.591117,23.9514 118.684204,24.1344 C119.170056,25.0884 120.94831,25.0596 121.552472,24.0882 L121.793296,23.7018 L121.793296,18.5016 C121.793296,13.4364 121.787891,13.2924 121.587905,12.9522 C120.939902,11.85 119.140628,11.8608 118.643366,12.9696 L118.472207,13.3524 L118.280628,13.1412 C117.609804,12.3984 115.37933,11.832 113.835894,12.0132 M130.467165,12.0534 C129.802346,12.1458 128.724944,12.594 128.192249,13.0002 L127.879958,13.2384 L127.715405,12.894 C127.137067,11.682 125.021299,11.9634 124.656159,13.3014 C124.521034,13.797 124.507821,23.0178 124.641746,23.5938 C124.886173,24.6474 126.008017,25.1436 127.077011,24.6714 C127.900978,24.3072 127.922598,24.207 127.970642,20.55 C128.015684,17.0748 128.036704,16.9506 128.74236,16.0608 C129.555517,15.0354 131.620838,14.8488 132.642989,15.7086 C133.338436,16.293 133.398492,16.6374 133.454344,20.3514 C133.500587,23.4708 133.518003,23.7252 133.704176,24.0414 C134.349777,25.1352 136.115419,25.119 136.651117,24.0138 C136.917165,23.4648 136.966411,17.3352 136.715377,16.0356 C136.147249,13.0938 133.790656,11.5914 130.467165,12.0534 M144.714818,12.0132 C137.873855,12.7032 136.712975,22.4736 143.214623,24.6378 C145.73817,25.4772 148.650279,24.8832 150.319832,23.1888 C152.223603,21.2562 150.041173,19.0212 148.028101,20.8422 C145.979595,22.6956 143.022444,21.8772 142.498757,19.3116 C141.794302,15.8616 145.249316,13.8564 148.023296,16.1046 C149.256243,17.1036 150.770251,16.4922 150.770251,14.9958 C150.770251,13.2546 147.649148,11.7174 144.714818,12.0132 M158.127095,12.0492 C151.890894,12.9024 150.395503,21.513 156.00412,24.2736 C159.436913,25.9638 164.778282,24.4104 164.798701,21.7164 C164.810112,20.2392 162.860098,19.707 161.850559,20.9118 C160.553352,22.4598 157.441257,22.1196 156.472556,20.3238 L156.160866,19.746 L160.214637,19.755 C164.462388,19.764 164.465391,19.764 164.984874,19.3284 C165.741578,18.6942 165.772807,16.923 165.053939,15.4104 C163.924888,13.0356 161.064427,11.6472 158.127095,12.0492 M173.74162,12.0498 C172.958492,12.1608 172.113506,12.4818 171.471508,12.9138 C170.960433,13.257 170.795279,13.2486 170.790475,12.8772 C170.789274,12.8088 170.597696,12.6138 170.363478,12.4434 C169.53831,11.8428 168.286746,12.123 167.836327,13.008 C167.551662,13.5672 167.519832,27.9912 167.801494,28.5018 C168.483729,29.7366 170.33345,29.7264 170.852332,28.4844 C170.953827,28.242 170.98926,27.5886 170.98926,25.95 L170.98926,23.7414 L171.314162,23.985 C174.134385,26.0976 178.821145,24.8754 180.265489,21.6516 C182.55662,16.5384 179.002514,11.3076 173.74162,12.0498 M208.123603,12.0216 C204.812723,12.2796 202.871117,14.8002 203.820601,17.607 C204.379721,19.2618 205.710559,19.8804 209.068282,20.0478 C211.305363,20.1594 211.852472,20.4 211.509553,21.1212 C211.011089,22.1712 207.983673,22.1784 206.322528,21.1338 C204.895601,20.2362 203.693883,20.6472 203.460866,22.113 C203.049483,24.6978 210.303631,26.0946 213.352668,24.0174 C214.813226,23.022 215.345321,21.285 214.775992,19.3704 C214.272123,17.6742 212.909455,16.9986 209.70067,16.8534 C207.148296,16.7382 206.43243,16.3656 207.32426,15.6156 C208.327193,14.7726 210.310237,14.8794 211.837458,15.8586 C213.099232,16.6674 214.452291,15.9876 214.452291,14.5458 C214.452291,12.8718 211.634469,11.748 208.123603,12.0216 M104.276802,12.24 C103.542919,12.4536 103.133939,12.663 102.687123,13.0548 L102.346006,13.3542 L102.152025,12.978 C101.574888,11.8608 99.8903212,11.826 99.2116899,12.9162 L98.972067,13.3014 L98.972067,18.5178 L98.972067,23.7342 L99.2723464,24.1596 C99.9659916,25.1418 101.615126,25.0494 102.167039,23.9976 C102.360419,23.6292 102.376634,23.4204 102.39345,21.0018 C102.413869,18.1356 102.442095,17.8188 102.735168,17.1558 C103.204804,16.0938 104.166299,15.5214 105.578212,15.4638 C106.783534,15.4146 107.422528,14.8254 107.427933,13.758 C107.43514,12.3198 106.144539,11.6982 104.276802,12.24 M189.907458,12.3372 C189.701466,12.4476 189.466648,12.7008 189.327919,12.9624 L189.094302,13.4016 L189.127933,17.1516 C189.165768,21.3384 189.225223,21.735 190.002947,22.9458 C191.395642,25.1142 195.192975,25.7322 197.443869,24.1572 L197.99398,23.772 L198.229399,24.1278 C198.840168,25.0512 200.246075,25.0932 200.961941,24.21 L201.267025,23.8332 L201.294651,18.6132 L201.322277,13.3926 L201.092263,12.9576 C200.500112,11.8398 198.742277,11.8656 198.080461,13.0014 C198.001788,13.1376 197.948338,14.2458 197.914106,16.4514 C197.858254,20.073 197.843841,20.1552 197.102751,20.9982 C195.984511,22.2714 193.653142,22.0746 192.858003,20.6406 L192.558925,20.1018 L192.509078,16.6338 C192.453226,12.7656 192.47845,12.8994 191.709134,12.3768 C191.282737,12.0864 190.411327,12.0672 189.907458,12.3372 M66.2908659,15.3606 C66.8085475,15.5832 67.7928631,16.533 67.7928631,16.8096 C67.7928631,16.929 67.330433,16.9518 64.8885615,16.9518 L61.9836592,16.9518 L62.1800419,16.5672 C62.8364525,15.2814 64.7792598,14.7114 66.2908659,15.3606 M160.556955,15.3528 C161.20736,15.6396 162.080573,16.5246 162.080573,16.8966 C162.080573,16.9266 160.774358,16.9518 159.178073,16.9518 C157.581788,16.9518 156.275573,16.9266 156.275573,16.8966 C156.275573,16.6092 156.932584,15.8694 157.500712,15.5178 C158.289846,15.03 159.656718,14.9562 160.556955,15.3528 M116.660922,15.4908 C119.311187,16.752 118.866173,20.9736 116.003911,21.7236 C113.823883,22.2948 112.084064,20.8428 112.084064,18.4518 C112.084064,15.8748 114.365587,14.3988 116.660922,15.4908 M175.666411,15.447 C177.081927,16.062 177.818212,18.0396 177.25669,19.7196 C176.231536,22.7856 171.797612,22.4382 171.129791,19.2396 C170.555056,16.485 173.119441,14.3406 175.666411,15.447" id="path19" fill="#FFFFFF"></path>
                    <path d="M25.1531983,0.753 C24.6054888,0.9378 22.0711313,1.7478 17.4960754,3.1992 C16.1748464,3.618 14.9136732,4.0236 14.6938687,4.0998 C14.4734637,4.1766 11.6580447,5.0778 8.43784916,6.1032 C5.21705307,7.1286 2.00826816,8.151 1.30621508,8.3754 C0.604162011,8.5992 0.0312290503,8.8098 0.0324301676,8.8422 C0.0342318436,8.9034 0.254636872,9.042 2.7325419,10.5426 C4.67174581,11.7168 7.42710894,13.3866 10.5896508,15.3036 C12.0213827,16.1712 13.9131425,17.3178 14.7935615,17.8512 C15.674581,18.3846 18.525433,20.1126 21.1288547,21.6906 L25.8624581,24.5604 L29.5865223,22.2912 C31.6350279,21.0432 34.2342458,19.4592 35.3626955,18.7716 C36.4911453,18.084 38.0225698,17.1516 38.7660615,16.6998 C39.5089525,16.2474 40.8379888,15.4368 41.7190084,14.898 C42.5994274,14.3592 44.1536732,13.4142 45.1722207,12.7986 C46.1901676,12.1824 47.6321089,11.3058 48.375,10.8492 C49.1178911,10.3932 50.1856844,9.7458 50.7466061,9.411 C51.3081285,9.0756 51.7357263,8.7726 51.6972905,8.7366 C51.6594553,8.7012 51.0877235,8.5038 50.4271089,8.2986 C49.7664944,8.0934 48.8428352,7.8018 48.375,7.65 C47.9071648,7.4988 46.916243,7.1856 46.1727514,6.954 C45.4298603,6.7218 44.1458659,6.315 43.3200978,6.0498 C41.7196089,5.535 38.7978911,4.6098 37.3145112,4.149 C36.8190503,3.9948 34.9723324,3.4116 33.2108939,2.8524 C31.4494553,2.2938 29.6477793,1.7238 29.2069693,1.5864 C28.7667598,1.449 27.8563128,1.1598 27.1842877,0.9438 C25.794595,0.4974 25.8852793,0.5064 25.1531983,0.753 M30.4651397,3.987 C32.8559637,4.7214 37.4400279,6.1272 40.6512151,7.1112 C45.7727793,8.6808 46.4676257,8.9166 46.306676,9.0342 C46.2057821,9.1074 44.7043855,10.0026 42.9699721,11.0232 C41.2355587,12.0444 38.1054469,13.893 36.0137011,15.132 C33.9213547,16.3704 32.0524162,17.4744 31.8596369,17.5854 C31.6668575,17.6958 30.698757,18.2664 29.7078352,18.8538 C28.7169134,19.4406 27.4659497,20.1786 26.9278492,20.493 L25.9501397,21.0654 L17.0690782,15.8436 C12.1841341,12.9714 8.02526536,10.527 7.82708101,10.4118 C5.73473464,9.1926 5.4446648,9.0048 5.55877095,8.9442 C5.62843575,8.9076 6.74367318,8.5542 8.03727654,8.1594 C9.33087989,7.7646 10.5025698,7.4022 10.6400978,7.3542 C10.7776257,7.3062 11.430433,7.1016 12.0910475,6.9 C12.751662,6.6978 14.0578771,6.2934 14.994148,6.0012 C15.9298184,5.7084 17.3032961,5.2818 18.0467877,5.0526 C18.7896788,4.8234 20.0964944,4.419 20.9492877,4.1532 C21.8026816,3.888 23.0416341,3.5058 23.7022486,3.3048 C24.3628631,3.1032 25.0835335,2.8776 25.303338,2.8032 C25.9309218,2.5902 25.8834777,2.5794 30.4651397,3.987 M51.6492458,10.1514 C51.6114106,10.344 51.5345391,11.064 51.4780866,11.7516 C51.4222346,12.4392 51.3531704,13.1592 51.3255447,13.3518 C51.297919,13.5438 51.0949302,15.5016 50.8739246,17.7018 C50.652919,19.9014 50.4066899,22.3542 50.3268156,23.1516 C50.0235335,26.1678 49.9640782,25.638 50.7850419,27.2154 C51.1826117,27.9774 51.5345391,28.6326 51.5675698,28.6704 C51.6900838,28.8102 53.1794693,25.848 53.1794693,25.4646 C53.1794693,25.1574 53.0593575,23.8248 52.5284637,18.2514 C52.3200698,16.0608 52.1459078,14.1966 51.9735475,12.3018 C51.7369274,9.7014 51.7369274,9.7026 51.6492458,10.1514 M9.19215084,16.1766 C9.15611732,16.2876 8.98015363,17.3742 8.88826816,18.0516 C8.86965084,18.189 8.76155028,18.8868 8.64804469,19.6014 C7.5976676,26.229 7.62589385,25.8732 8.10153631,26.5122 C10.9541899,30.3414 18.5590642,34.5654 24.1022207,35.4 C27.9271788,35.9754 33.3123883,34.7226 36.3746369,32.544 C36.5229749,32.4384 36.6707123,32.3514 36.7025419,32.3514 C36.7631983,32.3514 38.6633659,31.1022 39.5023464,30.5112 C40.6584218,29.6964 42.4811173,28.0788 43.5459078,26.9232 C44.2275419,26.1828 44.2906006,25.9572 44.0743994,25.0206 C44.0209497,24.7902 43.8161592,23.679 43.619176,22.5516 C43.4221927,21.4242 43.1969832,20.1414 43.1177095,19.7016 C43.0390363,19.2618 42.8630726,18.2772 42.7267458,17.5146 C42.590419,16.752 42.4564944,16.1052 42.4294693,16.0782 C42.3628073,16.0116 42.242095,16.0824 36.6641061,19.449 C27.2275279,25.1436 25.8174162,25.9848 25.7111173,25.9824 C25.6522626,25.9812 25.1309777,25.6878 24.5526397,25.3302 C23.9749022,24.9732 22.8710754,24.2982 22.1005587,23.8314 C20.5685335,22.9032 18.5026117,21.6444 12.9678631,18.2658 C9.09546089,15.9018 9.25280726,15.9888 9.19215084,16.1766 M12.6345531,20.394 C17.2990922,23.445 21.6723603,25.98 25.2150559,27.687 L26.015,28.0728 L27.2107123,27.4644 C29.2051676,26.4498 33.3778492,24.0828 34.9122765,23.0952 C35.187933,22.9182 36.1338128,22.3344 37.0142318,21.7974 C37.8952514,21.261 39.0807542,20.5314 39.6488827,20.1768 C40.2164106,19.8222 40.6938547,19.5474 40.7100698,19.5666 C40.8451955,19.7322 41.9003771,25.3542 41.8499302,25.6434 C41.7232123,26.3772 36.2118855,30.6102 33.5111732,32.0478 C27.0611732,35.481 16.4931425,32.9784 10.422095,26.5806 L9.85396648,25.9818 L9.95305866,25.5414 C10.0419413,25.146 10.8400838,19.659 10.8400838,19.4412 C10.8400838,19.251 11.0923184,19.3848 12.6345531,20.394" id="path24" fill="#FFFFFF"></path>
                </g>
            </g>
        </g>
    </g>
</svg>