<?xml version="1.0" encoding="UTF-8"?>
<svg width="1096px" height="296px" viewBox="0 0 1096 296" version="1.1" xmlns="http://www.w3.org/2000/svg" xmlns:xlink="http://www.w3.org/1999/xlink">
    <!-- Generator: Sketch 52.2 (67145) - http://www.bohemiancoding.com/sketch -->
    <title>Group 2</title>
    <desc>Created with Sketch.</desc>
    <defs>
        <rect id="path-1" x="0" y="0" width="1200" height="407"></rect>
    </defs>
    <g id="Page-1" stroke="none" stroke-width="1" fill="none" fill-rule="evenodd">
        <g id="Artboard-Copy-40" transform="translate(-180.000000, -111.000000)">
            <g id="Group-2" transform="translate(120.000000, 0.000000)">
                <mask id="mask-2" fill="white">
                    <use xlink:href="#path-1"></use>
                </mask>
                <use id="Rectangle" fill-opacity="0" fill="#4BB950" fill-rule="nonzero" xlink:href="#path-1"></use>
                <g mask="url(#mask-2)">
                    <g transform="translate(545.000000, 134.000000)">
                        <rect id="Rectangle-2" fill="#209086" x="47" y="100" width="189" height="153"></rect>
                        <g id="Group" stroke-width="1" fill="none">
                            <polygon id="Triangle" fill="#1D7169" points="146 0 292 100.593849 0 100.593849"></polygon>
                            <polygon id="Triangle" fill="#209086" points="146.843931 20.1187699 234.612717 80.4750796 59.0751445 80.4750796"></polygon>
                        </g>
                        <rect id="Rectangle-3" fill="#1D7169" x="47" y="100" width="20" height="152"></rect>
                        <rect id="Rectangle-3" fill="#1D7169" x="103" y="100" width="20" height="152"></rect>
                        <rect id="Rectangle-3" fill="#1D7169" x="158" y="100" width="20" height="152"></rect>
                        <rect id="Rectangle-3" fill="#1D7169" x="216" y="100" width="20" height="152"></rect>
                        <rect id="Rectangle-4" fill="#154C47" x="39" y="100" width="40" height="15"></rect>
                        <rect id="Rectangle-4" fill="#154C47" x="94" y="100" width="40" height="15"></rect>
                        <rect id="Rectangle-4" fill="#154C47" x="150" y="100" width="40" height="15"></rect>
                        <rect id="Rectangle-4" fill="#154C47" x="205" y="100" width="40" height="15"></rect>
                        <rect id="Rectangle-4" fill="#154C47" x="94" y="237" width="40" height="15"></rect>
                        <rect id="Rectangle-4" fill="#154C47" x="150" y="237" width="40" height="15"></rect>
                        <rect id="Rectangle-4" fill="#154C47" x="208" y="237" width="40" height="15"></rect>
                        <rect id="Rectangle-4" fill="#154C47" x="39" y="238" width="40" height="15"></rect>
                        <rect id="Rectangle" fill="#16403C" x="21" y="252" width="245" height="21"></rect>
                        <circle id="Oval" fill="#154C47" cx="148" cy="55" r="12"></circle>
                    </g>
                </g>
                <g id="Group" mask="url(#mask-2)">
                    <g transform="translate(794.000000, 231.000000)" id="Path">
                        <path d="M25.7127806,191.569003 C25.7127806,191.569003 17.906824,179.654728 15.4869775,162.802299 C13.6135479,149.790656 17.2042879,136.700631 25.2444232,125.726956 C31.4111288,117.339933 38.202311,103.701224 31.567248,89.8273639 C20.8730875,67.4097146 35.6263454,45.6191324 35.6263454,45.6191324 C35.6263454,45.6191324 40.7782767,37.7807935 39.2170854,29.1586207 C38.0461919,22.966333 38.6706684,16.6956619 41.3246937,10.8952911 C42.1833489,9.09247313 47.2572206,1.80281795 48.5061737,0 C48.5061737,0 58.4977981,12.5413422 55.8437728,25.0826845 C53.1897476,37.6240267 54.9851176,43.9730813 60.3712276,50.2437524 C65.7573376,56.5144235 67.1624098,82.3809419 63.7277889,96.8034855 C60.2931681,111.304412 81.2131316,130.586726 83.5549186,143.990286 C85.9747651,157.393845 79.1835829,179.419578 46.8669228,205.599629 L39.6073832,206.30508 C39.5293236,206.383463 39.8415619,211.713534 25.7127806,191.569003 Z" fill="#154C47"></path>
                        <path d="M19.7900468,190.560129 C19.7900468,190.560129 12.1398543,183.004826 7.61218931,171.278365 C4.09934581,162.22774 4.41159856,152.311404 8.31475802,143.339481 C11.2811592,136.492487 13.8572444,125.78914 6.83155742,116.659815 C-4.64373136,101.942713 2.22582927,84.3923721 2.22582927,84.3923721 C2.22582927,84.3923721 4.56772494,78.0962856 1.9916397,72.1150035 C0.118123167,67.8651452 -0.506382345,63.2217815 0.430375923,58.7358199 C0.742628679,57.3192005 3.16258754,51.4166194 3.70902986,50 C3.70902986,50 12.9204862,57.7127059 13.1546757,67.0781344 C13.3888653,76.443563 15.730761,80.7721224 20.6487419,84.5497742 C25.5667228,88.3274261 30.9530828,106.743479 30.9530828,117.604228 C30.9530828,128.464977 49.1418059,139.561829 53.1230285,148.927258 C57.1042512,158.292686 56.0113665,174.898614 37.2762011,198.036732 L32.2020939,199.532052 C32.2020939,199.453351 33.3730417,203.231003 19.7900468,190.560129 Z" fill="#007460"></path>
                        <path d="M54.3532887,185.88454 C54.3532887,185.88454 51.928001,177.821918 53.5709378,167.645793 C54.8226992,159.818004 59.282099,152.616438 66.0103163,147.293542 C71.1738319,143.223092 77.5891088,136.25636 76.2591124,127.176125 C74.06853,112.53816 86.6643787,101.892368 86.6643787,101.892368 C86.6643787,101.892368 91.1237785,98.0567515 91.7496592,92.7338552 C92.2190697,88.9765166 93.7055363,85.3757339 96.2872941,82.4011742 C97.0696449,81.4618395 101.372575,77.9393346 102.467866,77 C102.467866,77 106.06668,85.7671233 102.233161,92.7338552 C98.3996414,99.7005871 98.3214063,103.692759 100.355518,108.076321 C102.389631,112.53816 98.5561115,127.802348 93.8620064,135.786693 C89.2461364,143.771037 98.0084659,158.017613 96.9131747,166.158513 C95.8961186,174.377691 87.91614,186.27593 64.2109093,197 L59.8297446,196.373777 C59.7515095,196.530333 58.9691587,199.661448 54.3532887,185.88454 Z" fill="#007460"></path>
                    </g>
                </g>
                <g id="Group-5" mask="url(#mask-2)">
                    <g transform="translate(1083.000000, 342.500000) scale(-1, 1) translate(-1083.000000, -342.500000) translate(1010.000000, 263.000000)" id="Group-7">
                        <g>
                            <g id="Group" transform="translate(89.000000, 87.500000) rotate(20.000000) translate(-89.000000, -87.500000) translate(46.000000, 41.000000)" fill="#007460">
                                <g id="Path">
                                    <path d="M34.2,0.8 C23.9,2.2 49.1,28.1 52.7,34.4 C65.3,57 44.5,-0.7 34.2,0.8 Z"></path>
                                    <path d="M36.9,21.2 C19.1,2.2 1.5,0.9 0.9,8.1 C0.3,15.3 28.4,18 36.9,22.3 L36.9,21.2 Z"></path>
                                    <path d="M3.4,23.1 C3.1,30.4 35.1,29.9 45.2,31.2 C62.4,33.3 3.7,15.8 3.4,23.1 Z"></path>
                                    <path d="M69.6,55.5 C69.6,47.7 72.2,10.9 64.8,12.4 C56.8,14 68.5,56.1 68.5,56.1 C68.5,56.1 68.6,56.3 68.7,56.5 C60.2,52.6 50.4,52.6 50.4,52.6 C54.5,60.9 69.8,57.1 69.8,57.1 C69.6,57 69.5,56.9 69.3,56.9 C69.5,56.7 69.6,56.3 69.6,55.5 Z"></path>
                                    <path d="M61.7,45.5 C54.6,41 45.9,41 45.9,41 C49.2,49.3 61.7,45.5 61.7,45.5 Z"></path>
                                </g>
                                <g transform="translate(4.000000, 3.000000)" id="Path">
                                    <path d="M79.9,89.9 C73.9,63.5 58.3,43.5 46.2,31.3 C33.1,18.1 21.2,11 21.1,10.9 L22,9.4 C22.1,9.5 34.1,16.6 47.4,30 C59.6,42.3 75.5,62.7 81.6,89.5 L79.9,89.9 Z"></path>
                                    <path d="M26.7,15.1 C26.7,15.1 26.6,15.1 26.6,15.1 C18.3,8.9 1.1,5.3 0.9,5.2 C0.8,5.2 0.7,5.1 0.7,5 C0.7,4.9 0.8,4.8 0.9,4.8 C1.1,4.8 18.4,8.5 26.8,14.8 C26.9,14.9 26.9,15 26.8,15.1 C26.9,15 26.8,15.1 26.7,15.1 Z"></path>
                                    <path d="M48.9,30 C48.8,30 48.7,29.9 48.7,29.9 C43.4,15.5 31.4,1.3 31.2,1.2 C31.1,1.1 31.1,1 31.2,0.9 C31.3,0.8 31.4,0.8 31.5,0.9 C31.6,1 43.7,15.3 49,29.7 C49.1,29.8 49.1,30 48.9,30 C49,30 48.9,30 48.9,30 Z"></path>
                                    <path d="M32.9,26.2 C32.9,26.2 32.8,26.2 32.9,26.2 C24.7,24.1 3,21.5 2.7,21.5 C2.6,21.5 2.5,21.4 2.5,21.3 C2.5,21.2 2.6,21.1 2.7,21.1 C2.9,21.1 24.7,23.7 32.9,25.8 C33,25.8 33.1,25.9 33.1,26.1 C33.1,26.2 33,26.2 32.9,26.2 Z"></path>
                                    <path d="M64.2,48.6 C64.2,48.6 64.2,48.6 64.2,48.6 C64,48.6 64,48.4 64,48.3 C66.8,39.6 60.6,15.1 60.6,14.9 C60.6,14.8 60.6,14.7 60.8,14.6 C60.9,14.6 61,14.6 61.1,14.8 C61.4,15.8 67.4,39.7 64.5,48.5 C64.4,48.5 64.3,48.6 64.2,48.6 Z"></path>
                                </g>
                            </g>
                            <g id="Group">
                                <path d="M72.3,141.4 C41.2,94.7 3.5,79.5 1.6,27.1 C1.6,27.1 -3.4,0.3 8.2,0.2 C19.8,1.42941214e-14 29.8,17.8 38.7,39.8 C47.5,61.7 52.8,55.5 69.6,71.3 C86.4,87.1 88.9,97.1 88.9,97.1 L101.5,148.5 L89.7,158.5 L72.3,141.4 Z" id="Path" fill="#154C47"></path>
                                <path d="M97.8,138.8 C97.6,138.7 97.3,138.7 97.2,138.9 C96.3,140.4 93.9,143.9 91.9,145.4 C91.9,145.3 91.8,145.2 91.7,145.2 C91.6,145.1 91.5,145.1 91.4,145.2 C91,143.5 90.5,141.7 90,139.8 C97.3,137.8 93.8,123 93.7,122.4 C93.6,122.2 93.4,122 93.2,122.1 C93,122.2 92.8,122.4 92.9,122.6 C92.9,122.7 96.4,137.2 89.8,139 C89.8,139 89.8,139 89.8,139 C87.5,131.4 83.9,122.2 79,112.9 C85.2,112.1 87.9,99.7 88,99.2 C88,99 87.9,98.7 87.7,98.7 C87.5,98.7 87.2,98.8 87.2,99 C87.2,99.1 84.5,111.5 78.8,112.1 C78.7,112.1 78.7,112.1 78.6,112.1 C77.1,109.3 75.4,106.3 73.4,103.1 C80.1,102.1 81,88.2 81,87.5 C81,87.3 80.8,87.1 80.6,87.1 C80.4,87.1 80.2,87.3 80.2,87.5 C80.2,87.6 79.3,101.7 73,102.3 C73,102.3 72.9,102.3 72.9,102.3 C70.8,99 68.3,95.5 65.7,92.2 C71.5,90.2 72.5,77.6 72.6,77.1 C72.6,76.9 72.4,76.7 72.2,76.6 C72,76.6 71.8,76.8 71.7,77 C71.7,77.1 70.6,90.1 65.1,91.5 C62.5,88.3 59.7,85.3 56.7,82.4 C63.2,78.4 62.9,69.1 62.9,68.7 C62.9,68.5 62.7,68.3 62.5,68.3 C62.3,68.3 62.1,68.5 62.1,68.7 C62.1,68.8 62.3,78.1 56.2,81.7 C56.2,81.7 56.1,81.8 56.1,81.8 C54.4,80.2 52.6,78.8 50.8,77.4 C55.4,75 56.7,63.3 56.7,62.7 C56.7,62.5 56.6,62.3 56.3,62.2 C56.1,62.2 55.9,62.3 55.8,62.6 C55.8,62.7 54.5,75.2 49.9,76.8 C48.3,75.6 46.7,74.6 45,73.6 C44.3,73.2 43.6,72.7 42.9,72.3 C45.3,71.2 46.9,69.6 47.8,67.4 C49.8,62.2 46.8,55.7 46.7,55.4 C46.6,55.2 46.4,55.1 46.1,55.2 C45.9,55.3 45.8,55.6 45.9,55.8 C45.9,55.9 48.9,62.2 47,67.1 C46.2,69.2 44.6,70.7 42.4,71.7 C42.3,71.7 42.3,71.8 42.2,71.9 C40.2,70.6 38.4,69.1 36.6,67.6 C38.3,67.3 39.7,66.5 40.7,65.2 C44.1,60.8 42.7,52.2 42.7,51.9 C42.7,51.7 42.4,51.5 42.2,51.6 C42,51.6 41.8,51.9 41.8,52.1 C41.8,52.2 43.1,60.7 40,64.8 C39,66.1 37.7,66.8 36.1,66.9 C36,66.9 35.9,67 35.8,67 C34.3,65.7 32.9,64.2 31.6,62.8 C36.9,59 38.9,44.4 39,43.7 C39,43.5 38.9,43.3 38.6,43.2 C38.4,43.2 38.2,43.3 38.1,43.6 C38.1,43.8 36,58.8 31,62.2 C28.1,59 25.7,55.5 23.6,51.9 C32.6,48.5 33,31.9 33,31.2 C33,31 32.8,30.8 32.6,30.8 C32.4,30.8 32.2,31 32.2,31.2 C32.2,31.4 31.7,48 23.3,51.1 C23.3,51.1 23.3,51.1 23.2,51.1 C21.7,48.4 20.3,45.6 19.1,42.8 C25.7,37.7 27.3,22.2 27.4,21.5 C27.4,21.3 27.3,21.1 27,21 C26.8,21 26.6,21.1 26.5,21.4 C26.5,21.6 24.9,36.9 18.7,42 C17.4,38.9 16.3,35.8 15.3,32.7 C19,28.4 18.6,11.7 18.6,11 C18.6,10.8 18.4,10.6 18.2,10.6 C18,10.6 17.8,10.8 17.8,11 C17.8,11.2 18.2,27 15,31.7 C14.4,29.7 13.8,27.8 13.3,25.9 C13.4,25.9 13.5,25.8 13.6,25.7 C16.6,20.6 14.1,5 14,4.4 C14,4.2 13.7,4 13.5,4.1 C13.3,4.1 13.1,4.4 13.2,4.6 C13.2,4.8 15.7,19.7 13.2,25 C12.2,21.1 11.3,17.4 10.5,13.9 C9.7,10.4 8.9,7 8.1,4 C8,3.7 7.7,3.5 7.3,3.6 C7,3.7 6.8,4 6.9,4.4 C7.7,7.4 8.5,10.7 9.3,14.2 C9.7,16.1 10.2,18.1 10.7,20.1 C6.7,19.2 3.1,11.4 3,11.4 C2.9,11.2 2.6,11.1 2.4,11.2 C2.2,11.3 2.1,11.6 2.2,11.8 C2.4,12.2 6.3,20.4 10.9,21.1 C11.5,23.8 12.3,26.6 13.1,29.4 C10.4,30 5.3,26.2 3.5,24.5 C3.3,24.3 3.1,24.4 2.9,24.5 C2.7,24.7 2.8,24.9 2.9,25.1 C3.2,25.3 9.1,30.6 12.9,30.2 C13.1,30.2 13.2,30.2 13.3,30.1 C14.2,33.3 15.3,36.6 16.6,39.9 C12.9,40.5 7.5,36.2 5.5,34.5 C4.5,33.7 4.3,33.6 4.1,33.6 C3.9,33.7 3.7,33.9 3.8,34.1 C3.8,34.3 4,34.4 4.1,34.4 C4.2,34.5 4.6,34.8 5,35.1 C7.3,37 12.4,41.1 16.5,40.7 C16.7,40.7 16.9,40.7 17,40.6 C18.1,43.5 19.4,46.4 20.9,49.2 C18.2,49.8 13.5,49.4 6.6,43.5 C6.1,43.1 5.9,42.9 5.6,43.1 C5.4,43.2 5.4,43.5 5.5,43.7 C5.5,43.8 5.6,43.8 5.6,43.8 C5.7,43.8 5.8,44 6,44.1 C11.2,48.5 15.9,50.6 19.8,50.2 C20.3,50.2 20.7,50.1 21.2,50 C21.2,50 21.3,50 21.3,50 C22.2,51.7 23.2,53.4 24.3,55.1 C18.4,57.2 8.5,51.2 8.4,51.1 C8.2,51 7.9,51 7.8,51.2 C7.7,51.4 7.7,51.7 7.9,51.8 C8.3,52 16.2,56.9 22.4,56.3 C23.2,56.2 24,56.1 24.7,55.8 C26.3,58.2 28,60.5 30,62.8 C29.9,62.9 29.9,62.9 29.9,63 C23.3,66.6 13.5,61.4 13.4,61.4 C13.2,61.3 12.9,61.4 12.8,61.6 C12.7,61.8 12.8,62.1 13,62.2 C13.3,62.4 19.7,65.7 25.8,65.1 C27.5,64.9 29.1,64.5 30.7,63.6 C33,66.1 35.5,68.5 38.3,70.7 C28.3,74.5 21.8,71.6 21.7,71.6 C21.5,71.5 21.2,71.6 21.1,71.8 C21,72 21.1,72.3 21.3,72.4 C21.5,72.5 24.9,74 30.5,73.5 C32.9,73.3 35.6,72.7 38.7,71.5 C38.8,71.5 38.8,71.4 38.9,71.4 C40.6,72.7 42.4,73.9 44.4,75.1 C45.9,76 47.3,76.9 48.7,77.9 C48.7,78.1 48.9,78.3 49.1,78.2 C49.1,78.2 49.1,78.2 49.1,78.2 C49.5,78.5 49.8,78.7 50.2,79 C42.8,85.4 22.5,79.3 22.3,79.3 C22.1,79.2 21.8,79.4 21.8,79.6 C21.7,79.8 21.9,80.1 22.1,80.1 C22.7,80.3 33.6,83.5 42.4,82.7 C45.7,82.4 48.8,81.5 50.9,79.6 C50.9,79.6 50.9,79.6 50.9,79.5 C53.6,81.6 56.1,83.9 58.4,86.3 C58.4,86.3 58.4,86.3 58.4,86.3 C51.9,93.3 30.8,88.2 30.6,88.1 C30.4,88 30.1,88.2 30.1,88.4 C30,88.6 30.2,88.9 30.4,88.9 C31,89 40.9,91.5 49.3,90.7 C53.2,90.3 56.8,89.2 59,86.9 C62,90 64.8,93.4 67.2,96.7 C61.7,103.6 41.5,98.8 41.3,98.8 C41.1,98.7 40.8,98.9 40.8,99.1 C40.7,99.3 40.9,99.6 41.1,99.6 C41.7,99.7 50.7,101.9 58.5,101.1 C62.3,100.7 65.8,99.7 67.7,97.4 C70.1,100.7 72.2,104 74.1,107.1 C74.1,107.1 74,107.1 74,107.2 C67.8,113.5 49.5,109.1 49.3,109 C49.1,108.9 48.8,109.1 48.8,109.3 C48.7,109.5 48.9,109.8 49.1,109.8 C49.6,109.9 58,111.9 65.5,111.2 C69.1,110.9 72.4,109.9 74.5,107.8 C75.6,109.7 76.6,111.6 77.6,113.3 C78.3,114.7 79,116.1 79.7,117.5 C79.7,117.5 79.7,117.5 79.7,117.5 C69.7,123.1 58.7,116.9 58.6,116.9 C58.4,116.8 58.1,116.9 58,117.1 C57.9,117.3 58,117.6 58.2,117.7 C58.3,117.7 64.8,121.4 72.5,120.7 C75,120.5 77.6,119.8 80.1,118.4 C81.2,120.8 82.3,123.1 83.3,125.4 C76.2,130 63.7,125.3 63.6,125.3 C63.4,125.2 63.1,125.3 63.1,125.5 C63,125.7 63.1,126 63.3,126 C63.7,126.2 70.7,128.8 77.3,128.1 C79.5,127.9 81.8,127.3 83.7,126.1 C84.7,128.4 85.5,130.6 86.3,132.8 C84.5,135.9 75.1,134.6 71.5,133.8 C71.3,133.7 71,133.9 71,134.1 C70.9,134.3 71.1,134.6 71.3,134.6 C71.7,134.7 77.3,135.9 81.8,135.5 C83.8,135.3 85.6,134.8 86.6,133.7 C88.3,138.4 89.5,142.7 90.3,146.3 C88.2,147.4 83.6,145.3 81.8,144.3 C81.6,144.2 81.3,144.3 81.2,144.5 C81.1,144.7 81.2,145 81.4,145.1 C81.7,145.2 86.2,147.8 89.4,147.5 C89.8,147.5 90.2,147.4 90.5,147.2 C90.8,148.6 91,150 91.2,151.1 C91.2,151.4 91.6,151.7 91.9,151.6 C91.9,151.6 91.9,151.6 91.9,151.6 C92.2,151.6 92.5,151.2 92.4,150.9 C92.2,149.7 92,148.2 91.6,146.7 C94.3,145.2 97.4,140.2 97.8,139.5 C98.1,139.2 98,138.9 97.8,138.8 Z" id="Path" fill="#007460"></path>
                            </g>
                        </g>
                    </g>
                </g>
                <g id="Group" mask="url(#mask-2)">
                    <g transform="translate(1010.500000, 318.500000) scale(-1, 1) translate(-1010.500000, -318.500000) translate(945.000000, 111.000000)">
                        <path d="M73,80 C73,80 44.8268156,85.1515547 40.7039106,96.4849749 C36.5810056,107.818395 25.2430168,176.50579 37.6117318,181.657345 C49.9804469,186.8089 69.9078212,175.47548 69.9078212,175.47548 L73,80 Z" id="Path" fill="#133835"></path>
                        <g id="Group" stroke-width="1" fill="none" transform="translate(55.000000, 0.000000)">
                            <path d="M59.9697778,19.8619048 C58.9395556,15.3980952 55.5054815,10.5909158 51.0411852,11.2776557 C48.6373333,11.6210256 46.9202963,13.6812454 45.5466667,15.7414652 C43.4862222,10.9342857 41.4257778,6.12710623 37.3048889,3.03677656 C33.184,-0.0535531136 27.0026667,-0.74029304 23.5685926,3.03677656 C20.8213333,6.12710623 20.8213333,10.5909158 21.1647407,14.7113553 C14.2965926,11.6210256 5.71140741,15.7414652 2.27733333,22.6088645 C-1.15674074,29.4762637 -0.126518519,37.7171429 2.96414815,44.5845421 C5.02459259,49.3917216 8.45866667,53.8555311 13.2663704,55.9157509 C20.1345185,58.6627106 28.0328889,55.229011 34.2142222,51.4519414 C43.8296296,44.5845421 62.717037,33.5967033 59.9697778,19.8619048 Z" id="Path" fill="#2F384F"></path>
                            <path d="M57.5659259,48.3616117 C58.9395556,50.0784615 54.1318519,50.0784615 54.1318519,52.1386813 C54.1318519,54.1989011 54.1318519,59.0060806 53.445037,61.0663004 C52.7582222,63.4698901 50.6977778,64.84337 48.2939259,65.5301099 C45.8900741,66.2168498 43.4862222,65.8734799 41.0823704,65.5301099 C40.0521481,69.6505495 39.0219259,74.4577289 38.6785185,77.5480586 C38.6785185,78.9215385 41.7691852,77.5480586 40.3955556,78.5781685 C39.7087407,79.2649084 38.6785185,79.6082784 37.6482963,79.9516484 C32.4971852,80.9817582 21.8515556,89.2226374 21.8515556,84.0720879 C22.194963,76.5179487 23.2251852,52.8254212 23.2251852,52.8254212 C23.2251852,52.8254212 19.7911111,51.4519414 19.1042963,49.0483516 C18.4174815,46.6447619 18.7608889,43.5544322 20.1345185,41.4942125 C21.8515556,39.4339927 25.2856296,39.0906227 27.0026667,41.1508425 C27.6894815,42.1809524 28.0328889,43.8978022 29.4065185,44.5845421 C30.4367407,44.9279121 31.466963,44.2411722 32.1537778,43.5544322 C36.2746667,40.1207326 44.8598519,22.9522344 50.010963,25.6991941 C55.8488889,28.1027839 52.0714074,42.5243223 57.5659259,48.3616117 Z" id="Path" fill="#76D27A"></path>
                        </g>
                        <path d="M102.334594,208 C102.334594,210.06689 113.6569,303.421405 113.6569,303.421405 L96.158791,399.187291 L114,414 L85.5226857,408.832776 L84.150285,397.464883 L87.2381866,337.180602 L92.041589,281.374582 C92.041589,281.374582 81.0623835,227.979933 80.0330829,225.568562 C79.0037824,223.501672 102.334594,208 102.334594,208 Z" id="Path" fill="#469949"></path>
                        <path d="M67.3108614,184.800676 C66.6292135,186.515203 66.9700375,203.660473 74.8089888,218.405405 C82.3071161,233.150338 103.779026,289.386824 103.779026,289.386824 C103.779026,289.386824 87.7602996,300.359797 83.329588,305.160473 C73.4456929,315.10473 48.906367,349.39527 48.906367,349.39527 L38,352.138514 L54.0187266,383 L55.3820225,360.711149 L129,291.101351 L116.389513,180 L67.3108614,184.800676 Z" id="Path" fill="#76D27A"></path>
                        <path d="M71.4411765,168.891452 C55.7857143,190.170329 66.3361345,223.461477 50,244.397146 C79.6092437,260.871116 102.071429,263.616778 131,245.769977 C125.554622,221.40223 119.088235,197.377691 116.705882,174.039567 C99.3487395,165.116167 89.4789916,161.68409 71.4411765,168.891452 Z" id="Path" fill="#2F384F"></path>
                        <path d="M73.2769006,78.1511951 C76.7025341,74.717065 81.1558577,73 85.6091813,73 C88.0071248,73 89.7199416,74.373652 91.7753217,75.4038911 C94.8583919,76.7775431 98.2840254,77.8077821 99.6542788,81.2419122 C100.681969,83.6458032 102.052222,85.7062813 103.765039,87.7667593 C107.533236,92.2311284 112.329123,95.6652585 116.09732,99.7862146 C120.20808,103.907171 123.633714,109.058366 123.976277,114.896387 C124.31884,121.077821 120.893207,126.915842 117.467573,132.067037 C111.643996,141.339189 116.09732,160.226904 116.439883,171.21612 C117.12501,183.922402 121.920897,197.658922 116.09732,204.527182 C114.727066,206.244247 106.162983,205.557421 104.107602,206.244247 C86.6368714,213.45592 80.1281677,196.628683 63,188.730184 C69.5087037,171.21612 69.8512671,164.34786 67.4533236,145.803558 C65.3979435,127.259255 65.7405068,129.663146 67.7958869,96.3520845 C68.1384503,94.2916065 72.5917739,79.1814341 73.2769006,78.1511951 Z" id="Path" fill="#007460"></path>
                        <path d="M17.7349058,75.3061878 C15.008129,78.7384079 11.599658,81.140962 8.53203405,84.2299602 C2.05593912,90.7511785 -2.3750732,100.704617 1.37424492,109.285167 C3.76017463,115.119942 9.55457535,119.238606 16.0306703,120.954716 C22.1659181,122.670826 28.9828601,121.984382 35.118108,120.954716 C43.2984384,119.581828 51.8196159,117.179274 58.2957109,112.030943 C65.1126529,106.882613 69.8845123,98.6452848 68.861971,90.4079565 C67.1577355,75.3061878 49.7745333,66.0391934 52.5013101,49.9077586 C54.2055456,39.6110982 67.1577355,32.0602138 52.160463,23.1364415 C23.5293065,5.97534068 26.2560833,64.3230833 17.7349058,75.3061878 Z" id="Path" fill="#2F384F"></path>
                        <polygon id="Path" fill="#154C47" points="116 218 49.3453608 218 49 167.409091 109.783505 165"></polygon>
                        <path d="M101.333333,212.457141 C101.666667,212.808074 102,213.159007 102,213.50994 C102,213.860873 101.666667,214.562738 101,214.562738 C100.666667,214.562738 100.666667,214.562738 100.333333,214.562738 C99.3333333,214.211806 98.3333333,213.860873 97,213.50994 C97.6666667,215.264604 98,217.019269 98.6666667,218.423 C99,219.475799 100,221.932329 98.3333333,222.283262 C97.3333333,221.581396 95.6666667,217.019269 95,216.317403 C95.3333333,217.019269 97,223.336061 95.6666667,222.985128 C94.6666667,223.336061 93.6666667,217.370202 92.6666667,216.317403 C93,216.317403 93.3333333,222.634195 92.3333333,222.283262 C91.6666667,221.932329 90.3333333,217.370202 90.3333333,217.019269 C90.3333333,217.721134 91,221.932329 90,221.932329 C85.6666667,216.668336 87.6666667,208.947812 85,202.63102 C89,203.683819 90.6666667,196.665161 92,199.823557 C94.6666667,206.842215 99,210.351544 101.333333,212.457141 Z" id="Path" fill="#76D27A"></path>
                        <path d="M86.3709677,73 C86.3709677,73 117.193548,86.4482759 90.0967742,112.655172 L84,123 C84,123 105,113.689655 105,97.137931 C105,81.9655172 96.5322581,76.1034483 88.4032258,73.3448276 C87.7258065,73 87.0483871,73 86.3709677,73 Z" id="Path" fill="#133835"></path>
                        <path d="M77.2092968,95 L96,104.346083 C84.5167925,118.538282 77.9052488,136.884296 77.9052488,155.230311 C77.9052488,175.653232 84.5167925,189.153129 93.9121441,206.114538 C90.4323842,207.499143 89.0404803,211.652958 85.5607204,206.46069 C77.2092968,194.345397 66.4220413,164.922544 65.3781133,159.730276 C60.8544255,136.538145 68.1619212,109.884502 77.2092968,95 Z" id="Path" fill="#76D27A"></path>
                    </g>
                </g>
                <g id="grass" mask="url(#mask-2)">
                    <g transform="translate(317.000000, 192.000000)" id="Object">
                        <g>
                            <g id="Group">
                                <g id="Path">
                                    <g transform="translate(0.000000, 118.211765)">
                                        <path d="M70.4930663,195.141765 C69.1525424,193.987353 66.2403698,173.254118 59.7226502,162.448824 C53.2511556,151.643529 25.7935285,137.236471 20.5238829,122.182941 C15.2542373,107.129412 21.9568567,110.869706 28.844376,108.884118 C35.6856703,106.898529 34.3451464,96.1855882 30.2773498,92.7223529 C26.2095532,89.2591176 13.6825886,89.0282353 11.6949153,85.1032353 C9.70724191,81.1782353 3.79044684,64.9241176 12.2958398,65.2011765 C20.7550077,65.4782353 25.8397535,74.8520588 26.6255778,70.2805882 C27.4114022,65.7091176 11.6486903,49.5473529 5.68567026,39.4347059 C-0.277349769,29.3682353 -2.26502311,15.7461765 5.17719569,13.2064706 C12.6194145,10.6205882 21.2172573,20.9641176 23.1587057,16.5773529 C25.1001541,12.1905882 24.9614792,-4.47911765 36.1479199,1.33911765 C47.3343606,7.15735294 53.1587057,15.0535294 53.7596302,22.3955882 C54.3143297,29.7376471 55.6086287,51.3944118 58.0123267,49.0855882 C60.4160247,46.7767647 60.046225,40.2658824 68.366718,43.2211765 C76.7334361,46.1302941 83.990755,65.155 77.4268105,70.1420588 C70.9090909,75.1291176 73.4976888,80.2547059 73.8212635,83.2561765 C74.1448382,86.2576471 79.8305085,95.0773529 86.1633282,89.2129412 C92.4961479,83.3947059 96.7488444,90.7367647 99.3374422,97.2014706 C101.92604,103.666176 101.278891,112.116471 95.4545455,118.719706 C91.5716487,123.152647 77.4730354,125.092059 75.624037,131.141176 C75.1617874,132.618824 80.9861325,134.789118 82.9738059,136.082059 C84.9614792,137.375 88.5208012,142.731471 85.8397535,145.548235 C80.8936826,150.766176 68.6902928,153.86 67.6271186,160.232353 C66.5177196,166.650882 67.7657935,172.053529 68.6902928,174.500882 C69.614792,176.902059 74.1448382,198.281765 70.4930663,195.141765 Z" fill="#154C47"></path>
                                        <path d="M71.1402157,97.7094118 C68.9676425,106.390588 65.9167951,115.764412 60.2773498,121.952059 C60.2311248,121.998235 60.2311248,122.044412 60.1848998,122.090588 C58.9368259,115.579706 57.5038521,109.115 55.8859784,102.650294 C55.9784284,102.650294 56.1171032,102.650294 56.2095532,102.557941 C57.8274268,101.449706 58.1047766,98.91 58.6132512,96.8782353 C59.3066256,94.0614706 59.953775,91.1985294 60.4622496,88.3355882 C61.5254237,82.6558824 62.2650231,76.8838235 62.7272727,71.0194118 C62.7734977,70.1882353 61.7103236,70.0958824 61.6640986,70.9270588 C61.248074,76.145 60.6009245,81.3167647 59.7226502,86.4423529 C59.3066256,88.8435294 58.798151,91.1985294 58.2896764,93.5535294 C58.0123267,94.8002941 57.7349769,96.0008824 57.4114022,97.2476471 C57.0416025,98.6791176 56.8104777,100.664706 55.7010786,101.449706 C55.6548536,101.449706 55.6548536,101.495882 55.6548536,101.495882 C53.8058552,94.2923529 51.7719569,87.135 49.4607088,80.07 C49.6918336,80.1623529 49.9691834,80.0238235 50.0154083,79.6544118 C51.3559322,71.9891176 52.1879815,64.1852941 52.5115562,56.2429412 C52.5577812,55.4117647 51.4483821,55.3194118 51.4483821,56.1505882 C51.1248074,63.8158824 50.3389831,71.3888235 49.0446841,78.8232353 C46.9183359,72.4508824 44.6533128,66.1247059 42.1571649,59.8908824 C41.5562404,58.4132353 41.0015408,56.9817647 40.4006163,55.5502941 C40.5392912,55.5041176 40.6779661,55.4117647 40.770416,55.1808824 C43.7288136,45.5761765 44.422188,35.1402941 42.8505393,24.7044118 C42.7118644,23.8732353 41.6949153,24.1502941 41.7873652,24.9352941 C43.2665639,34.7708824 42.6194145,44.6064706 39.9845917,53.7032353 C39.9383667,53.6108824 39.8459168,53.5647059 39.7072419,53.5185294 C39.614792,53.4723529 39.5223421,53.4723529 39.4298921,53.4261765 C36.7950693,47.2385294 34.0215716,41.0970588 31.0169492,35.0941176 C30.6471495,34.3552941 29.7226502,34.9094118 30.0924499,35.6482353 C32.9121726,41.3279412 35.5469954,47.1 38.0431433,52.9182353 C35.5932203,52.0408824 33.1432974,50.9788235 30.7858243,49.6858824 C27.9661017,48.1620588 24.3605547,46.4073529 22.6502311,43.1288235 C22.2804314,42.39 21.3559322,42.9441176 21.7257319,43.6829412 C23.3436055,46.8229412 26.2557781,48.4391176 28.9368259,50.0091176 C32.0801233,51.81 35.3158706,53.2876471 38.6440678,54.3958824 C42.8505393,64.37 46.5947612,74.6211765 49.8305085,85.0108824 C43.6363636,84.1797059 37.6733436,81.5476471 32.3112481,77.2994118 C31.7103236,76.8376471 31.155624,77.8997059 31.7565485,78.3614706 C37.3497689,82.7944118 43.6825886,85.5188235 50.2003082,86.35 C52.8813559,95.0311765 55.192604,103.850882 57.1340524,112.762941 C51.587057,109.715294 46.4098613,105.744118 41.7411402,100.987941 C41.1864407,100.433824 40.4468413,101.265 41.0015408,101.819118 C45.9476117,106.806176 51.3559322,110.962059 57.1802773,114.148235 C57.2727273,114.194412 57.3651772,114.194412 57.4576271,114.194412 C58.2434515,117.842353 58.9830508,121.536471 59.6764253,125.230588 C59.9075501,126.569706 60.1386749,127.862647 60.3697997,129.201765 C60.3697997,129.247941 60.3697997,129.294118 60.3697997,129.294118 C60.3697997,129.340294 60.3697997,129.432647 60.4160247,129.478824 C58.8906009,129.755882 56.440678,127.631765 55.238829,126.800588 C53.8983051,125.877059 52.5577812,124.907353 51.3097072,123.845294 C48.5362096,121.536471 45.9476117,118.950588 43.5439137,116.133824 C43.0354391,115.533529 42.2958398,116.364706 42.8043143,116.965 C45.624037,120.335882 48.7673344,123.337353 52.0955316,125.923235 C53.7596302,127.216176 55.4699538,128.370588 57.2265023,129.432647 C58.3821263,130.125294 59.5377504,130.956471 60.6933744,130.725588 C61.8489985,137.836765 62.8197227,144.994118 63.5130971,152.151471 C63.605547,152.982647 64.6687211,153.075 64.5762712,152.243824 C63.8366718,144.624706 62.8197227,137.051765 61.5254237,129.478824 C61.5254237,129.340294 61.4791988,129.201765 61.4791988,129.017059 C61.4791988,128.970882 61.4329738,128.924706 61.4329738,128.832353 C61.1093991,126.800588 60.7395994,124.815 60.3697997,122.783235 C60.5546995,122.967941 60.8320493,123.060294 61.0631741,122.783235 C66.8412943,116.457059 69.9845917,106.898529 72.1571649,98.0326471 C72.3882897,97.3861765 71.3251156,96.9705882 71.1402157,97.7094118 Z" fill="#007460"></path>
                                    </g>
                                    <g transform="translate(143.297381, 76.652941)">
                                        <path d="M2.81972265,207.886471 C4.89984592,207.147647 16.5485362,184.659706 28.6594761,175.147353 C40.770416,165.635 79.7380586,161.525294 92.0338983,146.610294 C104.329738,131.695294 94.7149461,132.942059 87.1340524,127.493235 C79.5531587,122.044412 85.3775039,110.407941 91.7103236,108.237647 C98.0431433,106.113529 113.297381,111.516176 117.272727,107.914412 C121.248074,104.266471 134.745763,88.2894118 124.345146,84.7338235 C113.94453,81.1782353 104.098613,89.6747059 104.930663,84.0873529 C105.762712,78.4538235 131.232666,67.0020588 142.419106,58.1361765 C153.605547,49.2702941 161.325116,34.4938235 153.281972,28.1676471 C145.238829,21.7952941 130.770416,29.83 130.123267,23.8732353 C129.522342,17.9626471 136.178737,-1.15441176 120.323575,0.415588235 C104.468413,1.98558824 94.2989214,8.45029412 90.6933744,16.6235294 C87.1340524,24.7967647 77.1032357,49.1779412 75.0693374,45.4376471 C73.0354391,41.6973529 76.0400616,34.4014706 64.761171,33.9397059 C53.4822804,33.5241176 37.211094,52.0870588 43.220339,60.8144118 C49.229584,69.5417647 44.0061633,74.2517647 42.4807396,77.5302941 C40.9090909,80.855 30.6009245,88.4279412 25.146379,78.7770588 C19.6918336,69.1723529 11.6486903,75.7294118 6.00924499,81.9632353 C0.369799692,88.1970588 -2.17257319,98.2635294 2.31124807,108.514706 C5.31587057,115.395 21.6795069,124.03 21.587057,131.833824 C21.540832,133.727059 13.6363636,133.588529 10.7241911,134.142647 C7.76579353,134.696765 1.38674884,139.268235 3.51309707,143.701176 C7.48844376,151.966765 21.0785824,161.017353 19.9229584,168.913529 C18.7673344,176.763529 15.1155624,182.489412 13.0816641,184.844412 C11.0477658,187.291765 -2.81972265,209.825882 2.81972265,207.886471 Z" fill="#007460"></path>
                                        <path d="M40.1232666,95.4929412 C39.3374422,106.482941 39.3836672,118.673529 43.8212635,128.324412 C43.8674884,128.370588 43.8674884,128.462941 43.8674884,128.509118 C47.9352851,121.582647 52.1879815,114.794706 56.6718028,108.099118 C56.5331279,108.099118 56.394453,108.006765 56.3020031,107.868235 C54.7765794,105.836471 55.4237288,102.788824 55.6086287,100.249118 C55.8397535,96.6935294 56.2095532,93.1379412 56.6718028,89.5823529 C57.596302,82.5635294 58.9368259,75.5447059 60.6933744,68.6182353 C60.9244992,67.6485294 62.2650231,68.0179412 62.0338983,68.9876471 C60.4622496,75.1752941 59.2604006,81.4552941 58.3359014,87.7352941 C57.9198767,90.6905882 57.596302,93.5997059 57.3189522,96.555 C57.1802773,98.125 57.0416025,99.6488235 56.9491525,101.218824 C56.8567026,103.019706 56.348228,105.420882 57.4114022,106.852353 C57.4576271,106.898529 57.4576271,106.898529 57.4576271,106.944706 C62.4961479,99.5102941 67.8120185,92.2144118 73.3590139,85.1494118 C73.0354391,85.1032353 72.7580894,84.8723529 72.8505393,84.4567647 C74.2372881,75.0367647 76.2711864,65.6629412 78.9522342,56.3814706 C79.229584,55.4117647 80.5701079,55.8273529 80.2927581,56.7508824 C77.7041602,65.7091176 75.7164869,74.7597059 74.375963,83.9026471 C79.4144838,77.5302941 84.6841294,71.2964706 90.1386749,65.2011765 C91.4329738,63.7697059 92.6810478,62.3844118 93.9753467,60.9991176 C93.7904468,60.9067647 93.6979969,60.6758824 93.6979969,60.3988235 C93.8828968,48.0235294 97.1186441,35.6482353 103.081664,24.335 C103.543914,23.4576471 104.699538,24.1964706 104.237288,25.0738235 C98.6440678,35.6944118 95.5469954,47.3308824 95.1771957,58.9673529 C95.2696456,58.9211765 95.4083205,58.875 95.5469954,58.875 C95.6856703,58.875 95.7781202,58.875 95.9167951,58.875 C101.510015,52.9182353 107.334361,47.1461765 113.297381,41.605 C114.03698,40.9123529 114.915254,41.9744118 114.22188,42.6670588 C108.582435,47.9311765 103.127889,53.3338235 97.8120185,58.9211765 C101.140216,59.0135294 104.514638,58.875 107.88906,58.5055882 C111.910632,58.0438235 116.949153,57.6744118 120.323575,54.6729412 C121.063174,54.0264706 121.987673,55.0885294 121.248074,55.735 C118.058552,58.5979412 113.85208,59.1520588 110.015408,59.7061765 C105.485362,60.3526471 100.955316,60.5373529 96.4714946,60.3526471 C87.4576271,69.9573529 78.9522342,80.0238235 70.9553159,90.5058824 C78.8135593,92.3529412 87.0878274,92.0297059 95.2234206,89.6285294 C96.1479199,89.3514706 96.3790447,90.8291176 95.4545455,91.1061765 C86.9029276,93.6458824 78.1664099,93.9229412 69.9383667,91.8911765 C63.2819723,100.710882 57.0416025,109.807647 51.1710324,119.135294 C59.0755008,118.119412 66.9337442,115.949118 74.4684129,112.578235 C75.3466872,112.208824 75.9476117,113.501765 75.0693374,113.871176 C67.1186441,117.380588 58.9368259,119.689412 50.5701079,120.705294 C50.431433,120.705294 50.2927581,120.705294 50.2003082,120.659118 C47.7966102,124.537941 45.4853621,128.416765 43.220339,132.341765 C42.3882897,133.773235 41.6024653,135.158529 40.816641,136.59 C40.816641,136.636176 40.770416,136.682353 40.770416,136.728529 C40.7241911,136.774706 40.7241911,136.867059 40.6779661,136.913235 C42.3882897,137.929118 46.2249615,136.59 48.027735,136.174412 C50.0154083,135.712647 52.0030817,135.204706 53.990755,134.558235 C58.2896764,133.172941 62.449923,131.372059 66.4714946,129.201765 C67.3035439,128.74 67.9044684,130.032941 67.0724191,130.494706 C62.3112481,133.080588 57.3651772,135.158529 52.2804314,136.59 C49.7842835,137.328824 47.2419106,137.882941 44.6995378,138.298529 C42.9892142,138.575588 41.3251156,138.991176 39.9383667,138.206176 C35.7318952,145.871471 31.8027735,153.675294 28.1510015,161.571471 C27.7349769,162.448824 26.394453,162.125588 26.8104777,161.202059 C30.6933744,152.797941 34.8998459,144.532353 39.3836672,136.405294 C39.4761171,136.220588 39.568567,136.082059 39.614792,135.897353 C39.6610169,135.851176 39.7072419,135.758824 39.7534669,135.712647 C40.9553159,133.542353 42.1571649,131.372059 43.4052388,129.247941 C43.0816641,129.386471 42.7118644,129.340294 42.5269646,128.970882 C37.9969183,119.089118 37.9044684,106.667647 38.6902928,95.4005882 C38.7365177,94.5232353 40.1694915,94.4770588 40.1232666,95.4929412 Z" fill="#154C47"></path>
                                    </g>
                                    <g transform="translate(73.959938, 0.000000)">
                                        <path d="M60.4622496,293.543824 C58.5670262,291.419706 61.7103236,260.666176 54.7765794,242.980588 C47.7966102,225.295 6.05546995,195.603529 2.86594761,172.238235 C-0.277349769,148.872941 9.8459168,156.445882 22.4653313,155.799412 C35.1309707,155.152941 37.0261941,139.360588 31.3405239,133.034412 C25.6548536,126.708235 4.16024653,122.275294 2.26502311,115.995294 C0.369799692,109.669118 -3.42064715,84.4105882 11.1402157,87.5505882 C25.7010786,90.6905882 30.7395994,105.882647 33.9291217,99.5564706 C37.0724191,93.2302941 16.2249615,64.7855882 9.89214176,48.3929412 C3.55932203,31.9541176 5.45454545,11.7288235 19.3682589,10.4820588 C33.2819723,9.23529412 44.0523883,26.9208824 49.0909091,21.2411765 C54.1294299,15.5614706 60.4622496,-8.45029412 77.5654854,3.55558824 C94.6224961,15.5614706 101.602465,28.8141176 99.7072419,39.5732353 C97.8120185,50.3323529 91.4791988,81.9170588 96.5639445,79.3773529 C101.602465,76.8376471 103.543914,67.3714706 116.810478,74.3441176 C130.077042,81.3167647 135.161787,111.008235 121.848998,116.041471 C108.582435,121.074706 111.078582,129.294118 110.477658,133.727059 C109.830508,138.16 116.163328,152.705588 129.476117,146.379412 C142.742681,140.053235 147.180277,152.059118 149.075501,162.171765 C150.970724,172.284412 146.533128,184.290294 133.913713,191.863235 C125.454545,196.942647 100.308166,195.141765 94.7149461,203.222647 C93.3281972,205.208235 102.526965,210.241471 105.485362,212.688824 C108.44376,215.182353 112.465331,224.048235 106.733436,227.234412 C96.1016949,233.145 73.8212635,233.560588 69.4298921,242.380294 C64.9922958,251.246176 64.9922958,259.419412 65.6394453,263.252059 C66.1479199,266.992353 65.5007704,299.223529 60.4622496,293.543824 Z" fill="#154C47"></path>
                                        <path d="M99.9845917,153.629118 C92.8197227,165.404118 83.8520801,177.917941 71.6949153,184.936765 C71.6024653,184.982941 71.5562404,185.029118 71.5100154,185.075294 C71.9260401,175.285882 72.01849,165.496471 71.7411402,155.753235 C71.9260401,155.799412 72.1109399,155.845588 72.3420647,155.753235 C75.577812,154.645 77.1032357,151.135588 78.7211094,148.411176 C81.0323575,144.578529 83.2511556,140.699706 85.3312789,136.728529 C89.4453005,128.924706 93.0046225,120.843824 96.1016949,112.578235 C96.5177196,111.423824 94.7149461,110.962059 94.2526965,112.070294 C91.4791988,119.458529 88.3359014,126.708235 84.7765794,133.727059 C83.1124807,137.005588 81.3559322,140.284118 79.5069337,143.470294 C78.5362096,145.132647 77.5192604,146.841176 76.5023112,148.457353 C75.3466872,150.350588 74.1448382,153.167353 71.8335901,153.952353 C71.7873652,153.952353 71.7411402,153.998529 71.6949153,153.998529 C71.3713405,143.054706 70.5855162,132.110882 69.4298921,121.167059 C69.8459168,121.351765 70.3081664,121.305588 70.5392912,120.797647 C75.9013867,110.177059 80.431433,99.2332353 84.0832049,87.9661765 C84.4530046,86.8117647 82.6502311,86.3038235 82.2342065,87.4582353 C78.6748844,98.3558824 74.2835131,108.976471 69.1525424,119.273824 C68.0431433,109.392059 66.5639445,99.5564706 64.7149461,89.7670588 C64.2989214,87.5044118 63.8366718,85.1955882 63.3744222,82.9329412 C63.651772,82.9329412 63.9291217,82.7944118 64.1602465,82.5173529 C73.0354391,69.6802941 78.3513097,54.8576471 79.8305085,39.3423529 C79.9229584,38.1417647 78.027735,38.1417647 77.9352851,39.3423529 C76.5947612,53.9341176 71.6024653,67.8794118 63.5130971,80.1161765 C63.4206471,79.9776471 63.3281972,79.8391176 63.1432974,79.7467647 C63.0046225,79.6544118 62.8659476,79.6082353 62.7272727,79.5158824 C60.6471495,69.7264706 58.1972265,60.0294118 55.4237288,50.4247059 C55.1001541,49.2702941 53.2511556,49.7320588 53.5747304,50.9326471 C56.2095532,59.9832353 58.5208012,69.1723529 60.5084746,78.4076471 C56.6255778,76.3297059 52.835131,73.9747059 49.2758089,71.3888235 C45.0231125,68.295 39.4298921,64.6008824 37.8120185,59.3367647 C37.4422188,58.1823529 35.6394453,58.6902941 35.96302,59.8447059 C37.5346687,64.9241176 41.9260401,68.2026471 45.9476117,71.2964706 C50.6625578,74.9444118 55.7473035,78.0844118 61.0169492,80.8088235 C64.3451464,96.555 66.7488444,112.485882 68.2280431,128.509118 C57.8274268,125.276765 48.5824345,119.550882 41.0015408,111.700882 C40.1694915,110.823529 38.8289676,112.162647 39.6610169,113.04 C47.6117103,121.259412 57.4576271,127.262353 68.412943,130.540882 C69.614792,143.932059 70.1232666,157.369412 69.9845917,170.806765 C61.6178737,164.572941 54.2218798,157.184706 48.027735,148.826765 C47.2881356,147.857059 45.6702619,148.780588 46.4098613,149.796471 C52.9738059,158.616176 60.6933744,166.327647 69.568567,172.838529 C69.7072419,172.930882 69.8921418,173.023235 70.0308166,173.023235 C69.9383667,178.564412 69.7996918,184.105588 69.4761171,189.600588 C69.3836672,191.586176 69.2449923,193.571765 69.1063174,195.557353 C69.1063174,195.603529 69.0600924,195.649706 69.0600924,195.742059 C69.0600924,195.834412 69.0600924,195.926765 69.0138675,196.019118 C66.2865948,195.926765 62.9121726,192.047941 61.1093991,190.477941 C59.1217257,188.723235 57.2727273,186.876176 55.4237288,184.936765 C51.4946071,180.734706 48.0739599,176.163235 45.0231125,171.268529 C44.375963,170.252647 42.7580894,171.176176 43.4052388,172.238235 C47.0107858,178.010294 51.1710324,183.366765 55.9322034,188.215294 C58.2896764,190.616471 60.7858243,192.832941 63.3744222,194.910882 C65.1309707,196.296176 66.7488444,197.82 68.8751926,197.912353 C68.0893683,208.532941 66.8875193,219.107353 65.3158706,229.635588 C65.1309707,230.836176 66.9799692,231.344118 67.164869,230.143529 C68.8751926,218.968824 70.0770416,207.701765 70.8628659,196.434706 C70.8628659,196.203824 70.9090909,195.972941 70.9090909,195.788235 C70.9090909,195.695882 70.9090909,195.603529 70.9090909,195.557353 C71.0939908,192.555882 71.2788906,189.508235 71.4175655,186.506765 C71.6949153,186.876176 72.1571649,187.060882 72.6194145,186.783824 C85.0539291,179.626471 94.2989214,166.881765 101.602465,154.829706 C102.249615,153.582941 100.631741,152.613235 99.9845917,153.629118 Z" fill="#007460"></path>
                                    </g>
                                    <g transform="translate(36.055470, 72.035294)">
                                        <path d="M72.7580894,209.364118 C73.6825886,207.655588 67.9506934,185.998824 70.2619414,172.561471 C72.5731895,159.170294 95.6856703,133.357647 94.853621,116.272353 C94.0215716,99.1870588 88.4745763,105.744118 80.2927581,106.667647 C72.1109399,107.591176 68.9676425,96.5088235 71.8335901,91.3370588 C74.6995378,86.2114706 87.9198767,80.7164706 88.3821263,75.9602941 C88.844376,71.2502941 88.1972265,52.7335294 79.229584,56.5661765 C70.3081664,60.3988235 68.9214176,71.8044118 66.1016949,67.6485294 C63.3281972,63.4926471 73.220339,40.8661765 75.2542373,28.3985294 C77.2881356,15.9770588 73.6363636,1.70852941 64.5762712,2.30882353 C55.5161787,2.90911765 50.8012327,16.7620588 46.8721109,13.2064706 C42.9429892,9.69705882 35.96302,-6.78794118 26.4869029,3.64794118 C17.0107858,14.0838235 14.1910632,24.335 16.6872111,31.8155882 C19.229584,39.2961765 27.0878274,61.23 23.5747304,59.9370588 C20.0154083,58.6902941 17.6579353,52.0870588 9.98459168,58.5055882 C2.31124807,64.9241176 2.72727273,86.7194118 11.8335901,88.8897059 C20.9399076,91.06 20.3389831,97.2014706 21.2634823,100.295294 C22.1879815,103.389118 19.9229584,114.471471 10.6779661,111.377647 C1.38674884,108.283824 0.0462249615,117.380588 0.0462249615,124.815 C0.0462249615,132.249412 4.34514638,140.376471 13.3590139,144.393824 C19.4144838,147.118235 35.2696456,143.100882 39.8459168,148.272647 C40.9553159,149.519412 35.6856703,154.137059 34.1140216,156.215 C32.4961479,158.339118 31.0631741,165.127059 35.0847458,166.743235 C42.6194145,169.790882 56.9029276,167.666765 60.8320493,173.531176 C64.761171,179.395588 65.7318952,185.26 65.7781202,188.030588 C65.9167951,190.985882 70.2157165,213.981765 72.7580894,209.364118 Z" fill="#007460"></path>
                                        <path d="M30.4160247,113.594118 C36.4252696,121.259412 43.6825886,129.201765 52.3266564,132.895882 C52.3728814,132.895882 52.4191063,132.942059 52.4653313,132.988235 C50.9861325,126.061765 49.7380586,119.042941 48.7211094,112.024118 C48.6286595,112.070294 48.4899846,112.116471 48.3513097,112.070294 C46.1325116,111.654706 44.7457627,109.253529 43.3590139,107.498824 C41.4175655,105.005294 39.5223421,102.465588 37.7195686,99.8797059 C34.1602465,94.7079412 30.8782743,89.3514706 27.8736518,83.7641176 C27.4576271,82.9791176 28.5670262,82.425 28.9830508,83.21 C31.6640986,88.1970588 34.5300462,93.0455882 37.6733436,97.6632353 C39.1525424,99.8335294 40.6779661,101.957647 42.2496148,104.035588 C43.0816641,105.143824 43.9137134,106.205882 44.7919877,107.267941 C45.7627119,108.514706 46.8721109,110.407941 48.4437596,110.685 C48.4899846,110.685 48.4899846,110.685 48.5362096,110.731176 C47.4268105,102.835 46.5485362,94.9388235 45.9938367,86.9964706 C45.7627119,87.1811765 45.4391371,87.1811765 45.2080123,86.8579412 C40.4930663,79.8391176 36.2403698,72.4970588 32.5423729,64.8317647 C32.1725732,64.0467647 33.2819723,63.4926471 33.651772,64.2776471 C37.257319,71.7120588 41.3713405,78.8232353 45.9013867,85.6111765 C45.4391371,78.4076471 45.1617874,71.2041176 45.1617874,64.0005882 C45.1617874,62.3382353 45.1617874,60.6297059 45.2080123,58.9673529 C45.0231125,59.0135294 44.8382126,58.9211765 44.6533128,58.7364706 C37.3959938,50.5170588 32.1725732,40.4967647 29.3990755,29.5529412 C29.1679507,28.6755882 30.4160247,28.4908824 30.6009245,29.3682353 C33.2357473,39.6655882 38.1355932,49.0855882 44.7919877,56.9817647 C44.8382126,56.8894118 44.8844376,56.7970588 44.9768875,56.7047059 C45.0693374,56.6585294 45.1617874,56.5661765 45.2080123,56.52 C45.3466872,49.2702941 45.7164869,42.0667647 46.3636364,34.9094118 C46.4560863,34.0320588 47.6579353,34.1705882 47.6117103,35.0941176 C47.0570108,41.8820588 46.6872111,48.67 46.5023112,55.5041176 C48.7211094,53.5647059 50.8936826,51.5329412 52.835131,49.2702941 C55.192604,46.5920588 58.2896764,43.3597059 58.7057011,39.3885294 C58.798151,38.5111765 60.046225,38.6958824 59.953775,39.5732353 C59.5377504,43.3597059 57.1802773,46.1764706 54.9614792,48.8547059 C52.3728814,51.9485294 49.5069337,54.7652941 46.4560863,57.305 C46.2711864,68.9414706 46.6409861,80.5779412 47.6579353,92.2144118 C53.8983051,88.7511765 59.1679507,83.6717647 63.0508475,77.2532353 C63.4668721,76.5144118 64.5300462,77.3455882 64.0677966,78.0844118 C60,84.8261765 54.4067797,90.1826471 47.7966102,93.7382353 C48.6748844,103.435294 49.9691834,113.132353 51.6795069,122.737059 C56.2557781,117.380588 60.0924499,111.285294 63.0508475,104.635882 C63.3744222,103.850882 64.5762712,104.358824 64.2064715,105.143824 C61.0631741,112.162647 57.0878274,118.535 52.1879815,124.122353 C52.0955316,124.214706 52.0030817,124.260882 51.9106317,124.307059 C52.6502311,128.278235 53.4360555,132.203235 54.2681048,136.128235 C54.5916795,137.513529 54.9152542,138.945 55.238829,140.330294 C55.238829,140.376471 55.2850539,140.422647 55.2850539,140.422647 C55.2850539,140.468824 55.3312789,140.561176 55.3312789,140.607353 C57.0878274,140.237941 58.751926,137.097941 59.7226502,135.758824 C60.7858243,134.281176 61.7565485,132.757353 62.6810478,131.187353 C64.6687211,127.770294 66.3328197,124.122353 67.6733436,120.289706 C67.9506934,119.458529 69.1063174,119.966471 68.8289676,120.797647 C67.257319,125.322941 65.2234206,129.617353 62.7272727,133.588529 C61.5254237,135.527941 60.1848998,137.421176 58.751926,139.222059 C57.8274268,140.422647 56.9491525,141.669412 55.6086287,141.992647 C57.4114022,149.519412 59.4453005,156.953824 61.7565485,164.295882 C62.0338983,165.127059 60.9244992,165.681176 60.6471495,164.85 C58.1972265,157.046176 56.0246533,149.103824 54.1756549,141.115294 C54.1294299,140.976765 54.0832049,140.792059 54.03698,140.653529 C54.03698,140.607353 53.990755,140.515 53.990755,140.468824 C53.4822804,138.344706 53.0200308,136.174412 52.5577812,134.050294 C52.4191063,134.327353 52.1417565,134.512059 51.8181818,134.373529 C42.9892142,130.587059 35.5469954,122.506176 29.3528505,114.656176 C28.9830508,113.778824 29.9075501,112.901471 30.4160247,113.594118 Z" fill="#154C47"></path>
                                    </g>
                                </g>
                            </g>
                        </g>
                    </g>
                </g>
                <g id="Group-6" mask="url(#mask-2)">
                    <g transform="translate(59.000000, 297.000000)" id="Group-8">
                        <g>
                            <g id="Group" transform="translate(80.000000, 62.500000) rotate(30.000000) translate(-80.000000, -62.500000) translate(41.000000, 14.000000)" fill="#154C47">
                                <g id="Path">
                                    <path d="M34.7,0.8 C24.3,1.3 47.2,29.2 50.2,35.9 C60.9,59.4 45.1,0.2 34.7,0.8 Z"></path>
                                    <path d="M35.6,21.3 C19.5,0.9 2.1,-2 0.8,5.2 C-0.5,12.4 27.3,17.5 35.4,22.5 L35.6,21.3 Z"></path>
                                    <path d="M2.1,20.3 C1.1,27.6 33.1,29.9 43,32 C60,35.6 3,13.1 2.1,20.3 Z"></path>
                                    <path d="M65.3,58.4 C66,50.6 71.8,14.2 64.2,15 C56.1,15.9 64.1,58.9 64.1,58.9 C64.1,58.9 64.2,59.1 64.3,59.3 C56.2,54.7 46.4,53.8 46.4,53.8 C49.7,62.5 65.4,59.9 65.4,59.9 C65.2,59.8 65.1,59.7 64.9,59.6 C65.1,59.6 65.2,59.2 65.3,58.4 Z"></path>
                                    <path d="M58.3,47.7 C51.6,42.6 42.9,41.9 42.9,41.9 C45.5,50.4 58.3,47.7 58.3,47.7 Z"></path>
                                </g>
                                <g transform="translate(4.000000, 3.000000)" id="Path">
                                    <path d="M72.3,93.8 C68.6,67 54.8,45.7 43.8,32.5 C31.9,18.2 20.7,10.1 20.6,10 L21.6,8.6 C21.7,8.7 33.1,16.8 45.1,31.3 C56.2,44.7 70.3,66.3 74,93.5 L72.3,93.8 Z"></path>
                                    <path d="M25.8,14.7 C25.8,14.7 25.7,14.7 25.7,14.6 C17.9,7.7 1.1,2.6 1,2.5 C0.9,2.5 0.8,2.3 0.9,2.2 C0.9,2.1 1.1,2 1.2,2.1 C1.4,2.2 18.3,7.3 26.1,14.3 C26.2,14.4 26.2,14.5 26.1,14.6 C25.9,14.7 25.8,14.7 25.8,14.7 Z"></path>
                                    <path d="M46.6,31.5 C46.5,31.5 46.4,31.4 46.4,31.3 C42.3,16.5 31.6,1.3 31.5,1.2 C31.4,1.1 31.5,1 31.5,0.9 C31.6,0.8 31.7,0.9 31.8,0.9 C31.9,1.1 42.7,16.3 46.8,31.1 C46.8,31.4 46.8,31.5 46.6,31.5 C46.6,31.5 46.6,31.5 46.6,31.5 Z"></path>
                                    <path d="M30.9,26.4 C30.9,26.4 30.9,26.3 30.9,26.4 C22.9,23.6 1.5,19.2 1.3,19.1 C1.2,19.1 1.1,19 1.1,18.9 C1.1,18.8 1.2,18.7 1.3,18.7 C1.5,18.7 23,23.2 30.9,26 C31,26 31.1,26.2 31,26.3 C31.1,26.3 31,26.4 30.9,26.4 Z"></path>
                                    <path d="M60.2,51.3 C60.2,51.3 60.2,51.3 60.2,51.3 C60,51.2 60,51.1 60,51 C63.6,42.6 59.5,17.7 59.5,17.4 C59.5,17.3 59.6,17.2 59.7,17.2 C59.8,17.2 59.9,17.3 59.9,17.4 C60.1,18.4 64,42.7 60.4,51.2 C60.4,51.3 60.3,51.3 60.2,51.3 Z"></path>
                                </g>
                            </g>
                            <g id="Group-Copy" transform="translate(47.000000, 69.500000) rotate(-10.000000) translate(-47.000000, -69.500000) translate(8.000000, 21.000000)" fill="#007460">
                                <g id="Group">
                                    <path d="M34.7,0.8 C24.3,1.3 47.2,29.2 50.2,35.9 C60.9,59.4 45.1,0.2 34.7,0.8 Z" id="Path"></path>
                                    <path d="M35.6,21.3 C19.5,0.9 2.1,-2 0.8,5.2 C-0.5,12.4 27.3,17.5 35.4,22.5 L35.6,21.3 Z" id="Path"></path>
                                    <path d="M2.1,20.3 C1.1,27.6 33.1,29.9 43,32 C60,35.6 3,13.1 2.1,20.3 Z" id="Path"></path>
                                    <path d="M65.3,58.4 C66,50.6 71.8,14.2 64.2,15 C56.1,15.9 64.1,58.9 64.1,58.9 C64.1,58.9 64.2,59.1 64.3,59.3 C56.2,54.7 46.4,53.8 46.4,53.8 C49.7,62.5 65.4,59.9 65.4,59.9 C65.2,59.8 65.1,59.7 64.9,59.6 C65.1,59.6 65.2,59.2 65.3,58.4 Z" id="Path"></path>
                                    <path d="M58.3,47.7 C51.6,42.6 42.9,41.9 42.9,41.9 C45.5,50.4 58.3,47.7 58.3,47.7 Z" id="Path"></path>
                                </g>
                                <g id="Group" transform="translate(4.000000, 3.000000)">
                                    <path d="M72.3,93.8 C68.6,67 54.8,45.7 43.8,32.5 C31.9,18.2 20.7,10.1 20.6,10 L21.6,8.6 C21.7,8.7 33.1,16.8 45.1,31.3 C56.2,44.7 70.3,66.3 74,93.5 L72.3,93.8 Z" id="Path"></path>
                                    <path d="M25.8,14.7 C25.8,14.7 25.7,14.7 25.7,14.6 C17.9,7.7 1.1,2.6 1,2.5 C0.9,2.5 0.8,2.3 0.9,2.2 C0.9,2.1 1.1,2 1.2,2.1 C1.4,2.2 18.3,7.3 26.1,14.3 C26.2,14.4 26.2,14.5 26.1,14.6 C25.9,14.7 25.8,14.7 25.8,14.7 Z" id="Path"></path>
                                    <path d="M46.6,31.5 C46.5,31.5 46.4,31.4 46.4,31.3 C42.3,16.5 31.6,1.3 31.5,1.2 C31.4,1.1 31.5,1 31.5,0.9 C31.6,0.8 31.7,0.9 31.8,0.9 C31.9,1.1 42.7,16.3 46.8,31.1 C46.8,31.4 46.8,31.5 46.6,31.5 C46.6,31.5 46.6,31.5 46.6,31.5 Z" id="Path"></path>
                                    <path d="M30.9,26.4 C30.9,26.4 30.9,26.3 30.9,26.4 C22.9,23.6 1.5,19.2 1.3,19.1 C1.2,19.1 1.1,19 1.1,18.9 C1.1,18.8 1.2,18.7 1.3,18.7 C1.5,18.7 23,23.2 30.9,26 C31,26 31.1,26.2 31,26.3 C31.1,26.3 31,26.4 30.9,26.4 Z" id="Path"></path>
                                    <path d="M60.2,51.3 C60.2,51.3 60.2,51.3 60.2,51.3 C60,51.2 60,51.1 60,51 C63.6,42.6 59.5,17.7 59.5,17.4 C59.5,17.3 59.6,17.2 59.7,17.2 C59.8,17.2 59.9,17.3 59.9,17.4 C60.1,18.4 64,42.7 60.4,51.2 C60.4,51.3 60.3,51.3 60.2,51.3 Z" id="Path"></path>
                                </g>
                            </g>
                        </g>
                    </g>
                </g>
                <g id="Group" mask="url(#mask-2)">
                    <g transform="translate(190.000000, 119.000000)">
                        <g id="Group" stroke-width="1" fill="none">
                            <path d="M170.889467,28.1178686 C170.335587,26.0909422 169.59708,23.8797496 169.0432,21.8528232 C168.48932,19.6416306 167.750813,17.6147042 167.566187,15.4035116 C167.38156,13.1923191 167.750813,10.9811266 168.858573,8.95420012 C169.966333,9.69126429 170.70484,10.7968606 170.889467,12.0867229 C172.181853,8.58566803 174.02812,5.45314529 175.874387,2.13635651 C176.24364,1.58355837 176.612893,0.8464942 177.166773,0.477962113 C177.720653,0.109430026 178.643787,-0.0748360177 179.197667,0.477962113 C179.751547,1.03076024 179.751547,1.95209046 179.751547,2.68915464 C179.751547,3.24195277 179.56692,3.7947509 179.56692,4.34754903 C180.305427,3.42621881 181.967067,3.61048485 182.520947,4.71608111 C182.705573,5.26887925 182.705573,5.82167738 182.705573,6.55874155 C182.151693,14.8507135 179.936173,22.9584194 176.24364,30.3290612 C176.059013,30.6975933 175.874387,31.2503914 175.505133,31.4346574 C174.766627,32.1717216 173.658867,32.5402537 172.735733,32.1717216 C171.8126,31.9874556 171.074093,29.2234649 170.889467,28.1178686 Z" id="Path" fill="#76D27A"></path>
                            <path d="M46.4510933,51.7039222 C45.52796,49.8612618 45.3433333,49.1241976 44.4202,47.2815372 C43.4970667,47.2815372 42.75856,47.6500693 42.20468,48.3871334 C41.6508,49.1241976 41.4661733,50.0455278 41.4661733,50.782592 C41.09692,54.4679129 42.0200533,58.1532337 44.0509467,61.1014904 C44.4202,61.6542886 44.97408,62.3913527 45.7125867,62.3913527 C47.0049733,62.5756188 47.74348,60.9172244 47.74348,59.6273621 C47.9281067,57.0476375 47.5588533,54.4679129 46.63572,52.0724543" id="Path" fill="#76D27A"></path>
                            <g transform="translate(19.495600, 24.985346)" id="Path">
                                <g transform="translate(0.000000, 172.179321)" fill="#2F384F">
                                    <path d="M57.9727733,51.5196562 C57.9727733,51.5196562 48.18756,54.4679129 45.7874133,54.836445 C29.1710133,74.3686456 34.7098133,216.990563 34.7098133,216.990563 L27.5093733,216.990563 C27.5093733,216.990563 27.5093733,216.990563 12.18536,172.766713 C-15.3240133,91.6896537 14.7701333,11.3496587 14.7701333,11.3496587 L39.87936,2.68915464 L65.5424667,0.293696069 C65.5424667,0.293696069 82.52812,2.68915464 84.0051333,4.71608111 C84.0051333,4.71608111 110.406747,54.6521789 112.43764,74.9214437 C114.65316,95.1907085 91.5748267,133.518046 91.5748267,133.518046 L86.2206533,132.043917 C86.2206533,132.043917 93.2364667,90.3997914 87.6976667,75.4742418 C82.1588667,59.8116281 57.9727733,51.5196562 57.9727733,51.5196562 Z"></path>
                                </g>
                                <path d="M32.67892,75.9176099 C32.67892,75.9176099 37.66384,79.0501327 40.6178667,79.4186648 C43.5718933,79.7871969 46.52592,79.6029308 49.4799467,79.9714629 C52.4339733,77.2074723 52.9878533,72.6008212 52.9878533,68.5469682 C52.8032267,62.8347209 53.17248,60.9920604 54.83412,54.911281 C59.0805333,53.8056847 62.58844,50.4888959 64.80396,46.8035751 C65.91172,44.7766486 66.6502267,42.5654561 67.3887333,40.3542635 C69.4196267,33.904952 71.2658933,27.0871084 69.6042533,20.4535308 C67.7579867,13.2671551 61.6653067,7.73917383 54.6494933,5.52798131 C47.63368,3.31678878 39.87936,4.238119 33.0481733,7.00210966 C26.2169867,9.76610031 26.9554933,18.0580723 26.2169867,25.428714 C25.6631067,30.5881632 26.4016133,36.6689427 28.24788,41.4598598 C30.4634,46.8035751 36.9253333,53.4371526 36.9253333,53.4371526 L35.0790667,68.5469682 L32.67892,75.9176099 Z" fill="#76D27A"></path>
                                <path d="M67.3887333,32.4308237 C68.8657467,30.9566953 69.0503733,30.2196311 70.5273867,28.9297688 C71.45052,29.1140349 72.0044,29.8510991 72.3736533,30.7724293 C72.55828,31.6937595 72.55828,32.4308237 72.3736533,33.3521539 C71.8197733,36.8532087 69.78888,40.3542635 67.01948,42.5654561 C66.4656,43.1182542 65.7270933,43.4867863 64.9885867,43.3025202 C63.6962,43.1182542 63.5115733,41.2755938 63.6962,39.9857315 C64.25008,37.4060068 65.35784,35.0105483 66.8348533,32.9836218" fill="#76D27A"></path>
                                <path d="M107.268093,50.857428 C107.268093,50.857428 150.286107,4.79091713 151.578493,2.21119252 C152.87088,-0.368532087 158.40968,1.10559626 158.40968,1.10559626 C158.40968,1.10559626 134.962093,59.8864642 127.023147,63.9403171 C119.0842,67.809904 117.791813,66.7043078 117.237933,66.3357757 C116.86868,65.9672436 107.268093,50.857428 107.268093,50.857428 Z" fill="#6FCA73"></path>
                                <path d="M87.1437867,98.9508654 C90.28244,97.108205 111.145253,79.4186648 127.207773,63.7560511 C121.29972,53.8056847 112.622267,51.2259601 107.268093,50.673162 C101.544667,54.911281 95.6366133,58.7808679 89.5439333,62.2819227 C79.0202133,68.3627022 65.1732133,63.2032529 53.17248,61.5448585 C46.8951733,60.6235283 40.6178667,64.3088492 35.2636933,67.4413719 C28.80176,71.1266928 28.9863867,81.6298573 28.0632533,89.000499 C25.8477333,107.611369 25.1092267,126.406506 24.1860933,145.201642 C23.4475867,164.365311 27.14012,190.162557 27.14012,190.162557 C27.14012,190.162557 80.4972267,186.108704 85.8514,181.317787 C87.6976667,170.630356 85.6667733,128.433432 86.2206533,117.561736 C86.5899067,111.849488 86.7745333,104.847379 87.1437867,98.9508654 Z" fill="#007460"></path>
                            </g>
                            <path d="M46.63572,215.332169 L31.8655867,214.226573 C31.8655867,214.226573 27.0652933,134.25511 23.5573867,124.304743 C18.94172,123.014881 17.28008,115.091441 17.28008,115.091441 C17.28008,115.091441 20.2341067,89.4784612 36.112,89.8469932 C42.75856,88.741397 67.3139067,84.1347459 73.22196,87.2672686 C78.9453867,90.2155253 55.6824267,107.720799 58.2672,113.617313 C62.14436,121.725019 52.5437733,126.515936 50.6975067,135.360706 C48.6666133,144.94254 49.7743733,155.077173 49.40512,164.843273 C48.6666133,184.744006 46.63572,215.332169 46.63572,215.332169 Z" id="Path" fill="#007460"></path>
                            <g transform="translate(0.000000, 87.635801)" id="Path">
                                <path d="M28.5423067,25.0601819 C28.5423067,25.0601819 32.78872,2.21119252 45.52796,0.552798131 C45.52796,0.552798131 36.4812533,12.3458249 36.66588,26.3500442 L28.5423067,25.0601819 Z" fill="#2F384F"></path>
                                <path d="M73.4065867,42.9339881 C74.5143467,44.7766486 75.0682267,46.9878411 75.43748,49.1990336 C76.3606133,52.8843545 77.09912,56.5696754 78.0222533,60.2549962 C78.5761333,62.8347209 79.31464,65.4144455 80.7916533,67.4413719 C82.2686667,69.4682984 84.29956,70.9424268 86.1458267,72.4165551 C90.39224,75.9176099 94.0847733,80.1557289 96.6695467,84.9466461 C99.4389467,89.9218293 101.285213,95.8183427 100.177453,101.53059 C98.5158133,109.638296 91.1307467,115.719075 83.0071733,117.193204 C74.8836,118.667332 66.3907733,115.903341 59.5595867,111.480956 C58.2672,110.559626 56.9748133,109.638296 56.05168,108.348434 C54.94392,106.690039 54.5746667,104.847379 54.2054133,103.004718 C52.3591467,93.6071501 51.06676,84.0253159 50.51288,74.4434816 C53.4669067,75.3648118 54.7592933,78.6816006 55.8670533,81.4455913 C59.37496,91.2116916 64.5445067,101.346324 73.77584,106.137241 C76.1759867,107.427103 78.76076,108.164168 81.3455333,107.979902 C85.2226933,107.795635 88.5459733,105.400177 91.1307467,102.636186 C92.2385067,101.346324 93.3462667,99.8721956 93.9001467,98.2138012 C95.37716,93.9756822 93.5308933,89.1847651 90.5768667,85.8679763 C87.62284,82.5511875 83.74568,80.1557289 80.2377733,77.3917383 C78.20688,75.9176099 76.3606133,74.2592156 75.0682267,72.048023 C73.5912133,69.8368305 73.0373333,67.0728399 72.2988267,64.4931152 C71.56032,60.9920604 70.6371867,57.4910056 69.89868,53.9899508 C69.1601733,50.673162 68.23704,47.1721072 66.02152,44.5923825 C64.1752533,42.38119 57.8979467,39.0644012 63.0674933,36.8532087 C66.9446533,35.0105483 71.7449467,39.9857315 73.4065867,42.9339881 Z" fill="#2F384F"></path>
                                <g transform="translate(0.000000, 11.867863)">
                                    <polygon fill="#BA322B" points="63.4367467 62.2070867 67.8677867 61.1014904 68.9755467 62.5756188 67.3139067 64.4182792 65.6522667 64.6025453"></polygon>
                                    <path d="M44.0509467,16.3248419 C44.0509467,16.3248419 47.0049733,10.7968606 45.3433333,8.40140199 C43.6816933,6.00594342 34.8196133,3.42621881 31.8655867,5.26887925 C28.91156,7.11153968 28.35768,12.2709889 28.35768,12.2709889 L22.81888,11.5339247 C22.81888,11.5339247 28.35768,3.61048485 30.3885733,1.39929233 C32.4194667,-0.811900192 46.08184,0.293696069 48.1127333,4.71608111 C50.1436267,9.13846616 48.4819867,18.5360344 48.4819867,18.5360344 L44.0509467,16.3248419 Z" fill="#133835"></path>
                                    <path d="M54.0207867,27.3808045 L55.8670533,15.4035116 L14.1414267,11.9024568 C14.1414267,11.9024568 3.24845333,26.4594743 2.8792,53.9151147 C2.50994667,81.3707552 6.94098667,100.902956 6.94098667,100.902956 L51.2513867,111.590386 L54.0207867,27.3808045 Z" fill="#38963D"></path>
                                    <path d="M24.48052,59.9958942 C25.2190267,57.2319035 25.2190267,52.6252524 25.2190267,52.6252524 C25.2190267,52.6252524 38.8814,55.020711 41.6508,54.2836468 C44.2355733,53.5465827 50.51288,38.8052992 50.51288,38.8052992 L46.2664667,32.1717216 L4.72546667,36.2255746 C3.98696,39.9108954 3.43308,43.9647484 3.24845333,48.3871334 C5.46397333,49.3084637 18.7570933,51.3353901 18.7570933,51.3353901 L19.6802267,62.3913527 C19.6802267,62.3913527 22.0803733,62.9441509 23.5573867,61.8385546 C23.92664,61.6542886 24.1112667,60.9172244 24.48052,59.9958942" fill="#2F7E33"></path>
                                    <path d="M48.6666133,16.87764 C50.3282533,16.5091079 51.9898933,15.0349796 55.8670533,15.4035116 C58.4518267,15.5877777 60.48272,16.6933739 62.14436,17.9832363 C63.4367467,18.9045665 64.35988,20.9314929 64.5445067,23.1426855 C65.46764,34.9357123 70.45256,95.0064425 66.5754,100.71869 C63.0674933,105.878139 59.0057067,108.273598 54.39004,109.747726 C53.4669067,110.116258 52.7284,111.590386 51.62064,111.774652 C45.7125867,112.143185 43.86632,66.4452057 43.86632,55.2049771 C43.6816933,43.7804823 48.6666133,16.87764 48.6666133,16.87764 Z" fill="#2F7E33"></path>
                                    <path d="M59.1903333,65.8924076 C67.3139067,65.5238755 68.0524133,62.2070867 67.68316,62.2070867 C67.12928,62.2070867 67.12928,61.2857565 67.12928,61.2857565 C67.12928,61.2857565 68.9755467,60.3644263 69.89868,62.3913527 C70.8218133,64.4182792 75.0682267,86.1616724 72.66808,93.7165802 C70.2679333,101.271488 65.46764,104.772543 60.1134667,107.905066 C54.7592933,111.037588 51.4360133,111.774652 51.4360133,111.774652 C51.4360133,111.774652 46.08184,98.8760294 45.1587067,86.3459384 C44.2355733,74.0001135 44.6048267,64.4182792 44.6048267,64.4182792 C46.4510933,64.4182792 50.6975067,66.2609397 59.1903333,65.8924076 Z" fill="#133835"></path>
                                    <path d="M23.1881333,47.0972711 L17.28008,45.9916749 C17.28008,45.9916749 16.5415733,50.598326 16.3569467,54.0993808 C16.3569467,55.2049771 16.17232,56.8633714 16.3569467,58.5217658 C16.5415733,60.5486923 17.0954533,62.2070867 18.7570933,62.5756188 C21.15724,63.1284169 22.4496267,60.3644263 22.4496267,59.25883 C22.6342533,57.9689677 23.1881333,47.0972711 23.1881333,47.0972711 Z" fill="#133835"></path>
                                    <path d="M19.1263467,57.9689677 C18.2032133,57.9689677 17.4647067,58.7060319 17.4647067,59.6273621 C17.4647067,60.5486923 18.2032133,61.2857565 19.1263467,61.2857565 C20.04948,61.2857565 20.7879867,60.5486923 20.7879867,59.6273621 C20.7879867,58.7060319 20.04948,57.9689677 19.1263467,57.9689677 Z" fill="#2F7E33"></path>
                                    <path d="M55.3131733,15.4035116 C55.3131733,15.4035116 47.9281067,25.9066761 45.7125867,34.5671802 C43.4970667,43.2276842 42.20468,49.8612618 39.98916,51.1511241 C37.9582667,52.4409864 7.67949333,47.4658032 5.09472,46.360207 C2.50994667,45.2546107 0.1098,45.6231428 0.1098,43.0434182 C0.1098,40.4636936 1.21756,29.2234649 4.91009333,22.0370892 C8.60262667,14.8507135 15.4338133,8.58566803 16.17232,8.58566803 C17.0954533,8.40140199 55.3131733,15.4035116 55.3131733,15.4035116 Z" fill="#2F384F"></path>
                                    <path d="M40.3584133,85.2403422 C39.43528,77.1326362 40.7276667,74.3686456 39.43528,72.8945172 C38.1428933,71.4203889 25.7729067,71.4203889 16.3569467,69.7619945 C6.94098667,68.1036001 5.09472,66.2609397 3.98696,66.2609397 C3.06382667,66.2609397 1.03293333,67.1822699 1.03293333,70.3147926 C1.03293333,73.4473154 1.40218667,92.7952499 3.80233333,95.1907085 C6.20248,97.5861671 6.20248,97.7704331 6.20248,97.7704331 L46.08184,106.983735 C42.5739333,100.165892 41.2815467,93.163782 40.3584133,85.2403422 Z" fill="#2F384F"></path>
                                    <path d="M39.6199067,73.2630493 C39.6199067,73.0787833 39.43528,72.8945172 39.2506533,72.8945172 C37.9582667,71.4203889 25.58828,71.4203889 16.17232,69.7619945 C6.75636,68.1036001 4.91009333,66.2609397 3.80233333,66.2609397 C2.8792,66.2609397 0.848306667,67.1822699 0.848306667,70.3147926 C0.848306667,71.2361228 0.848306667,73.6315814 1.03293333,76.5798381 L35.3734933,75.6585079 L39.6199067,73.2630493 Z" fill="#2F384F"></path>
                                    <path d="M1.40218667,68.6563982 C1.21756,69.2091964 1.03293333,69.7619945 1.03293333,70.4990587 C1.03293333,73.6315814 1.40218667,92.979516 3.80233333,95.3749745 C6.20248,97.7704331 6.20248,97.9546992 6.20248,97.9546992 L41.8354267,106.246671 C41.8354267,106.246671 39.43528,100.534424 38.1428933,94.8221764 C36.8505067,89.1099291 35.3734933,75.8427739 35.3734933,75.8427739 C35.3734933,75.8427739 34.45036,76.02704 24.2958933,74.3686456 C14.51068,72.8945172 1.40218667,68.6563982 1.40218667,68.6563982 Z" fill="#2F384F"></path>
                                    <path d="M1.21756,75.8427739 C1.21756,76.211306 1.21756,76.5798381 1.21756,76.9483702 C6.75636,78.7910306 13.7721733,81.0022231 19.4956,81.9235534 C26.3267867,83.0291496 32.78872,84.3190119 36.66588,84.8718101 L36.4812533,83.7662138 C32.6040933,83.0291496 26.14216,81.9235534 19.6802267,80.8179571 C13.9568,80.0808929 6.57173333,77.6854344 1.21756,75.8427739 Z" fill="#4D566E"></path>
                                </g>
                            </g>
                        </g>
                        <path d="M43.0811831,52.2806634 C45.1250926,54.866998 48.098052,57.2685944 48.098052,60.5938817 C48.098052,62.0717872 47.7264321,63.5496927 48.283862,64.84286 C49.5845317,67.9834091 54.7872106,67.4291945 56.0878803,70.5697437 C56.8311202,72.6018637 55.3446405,75.1881983 56.6453102,76.850842 C57.0169301,77.4050565 57.76017,77.7745329 58.5034098,78.1440092 C64.2635186,80.3608675 71.3242971,78.1440092 74.6688764,72.9713401 C75.7837362,71.4934346 76.526976,69.6460528 77.8276458,68.3528855 C80.4289852,66.1360272 84.7026143,66.6902418 87.3039538,64.6581218 C90.2769131,62.4412636 90.4627231,58.0075471 93.2498725,55.6059507 C94.9221622,54.1280452 97.5235016,53.5738307 98.8241713,51.911187 C101.053891,49.3248524 99.7532211,45.2606124 97.8951215,42.4895396 C96.0370219,39.7184669 93.4356825,36.9473941 92.8782526,33.6221068 C92.3208227,29.9273431 94.1789223,25.1241503 91.2059629,23.0920302 C89.7194833,21.9836011 87.4897637,22.1683393 85.8174741,21.2446484 C83.2161346,19.9514811 82.6587047,16.6261938 80.8006051,14.4093356 C78.3850756,11.823001 74.2972565,11.6382628 70.9526772,12.3772155 C67.4222879,13.1161683 64.2635186,14.7788119 60.7331294,14.9635501 C58.3175999,15.1482883 55.7162604,14.7788119 53.6723508,16.0719792 C48.6554819,19.2125284 51.6284413,29.0036521 46.0541424,31.2205104 C44.5676628,31.7747249 42.8953731,31.5899867 41.4088934,32.3289395 C39.3649839,33.2526304 38.621744,36.0237032 39.1791739,38.0558232 C40.1082237,41.9353251 40.4798436,48.9553761 43.0811831,52.2806634 Z" id="Path" fill="#2F384F"></path>
                    </g>
                </g>
            </g>
        </g>
    </g>
</svg>