<?xml version="1.0" encoding="UTF-8"?>
<svg width="72px" height="224px" viewBox="0 0 72 224" version="1.1" xmlns="http://www.w3.org/2000/svg" xmlns:xlink="http://www.w3.org/1999/xlink">
    <!-- Generator: Sketch 52.2 (67145) - http://www.bohemiancoding.com/sketch -->
    <title>Group 17</title>
    <desc>Created with Sketch.</desc>
    <g id="Page-1" stroke="none" stroke-width="1" fill="none" fill-rule="evenodd">
        <g id="Artboard-Copy-40" transform="translate(-681.000000, -1525.000000)">
            <g id="Group-28" transform="translate(0.000000, 1334.000000)">
                <g id="Group-27" transform="translate(348.000000, 32.000000)">
                    <g id="Group-12" transform="translate(333.000000, 159.000000)">
                        <g id="Group-19">
                            <g id="Group-17">
                                <g id="Group">
                                    <path d="M37,224 C54.1208272,224 68,221.313708 68,218 C68,214.686292 54.1208272,217.742489 37,217.742489 C19.8791728,217.742489 6,214.686292 6,218 C6,221.313708 19.8791728,224 37,224 Z" id="Oval" fill="#EEEEEE" fill-rule="nonzero"></path>
                                    <g>
                                        <g>
                                            <path d="M33.3153846,102.481416 C33.9076923,101.307965 34.6974359,100.134513 35.8820513,99.3522124 C37.4615385,98.3743363 39.8307692,98.5699115 41.8051282,98.5699115 C44.7666667,98.7654867 47.925641,99.1566372 50.8871795,99.5477876 C53.2564103,99.9389381 56.0205128,100.330088 57.6,102.090265 C58.9820513,103.654867 58.9820513,105.610619 58.9820513,107.566372 C58.5871795,121.256637 55.8230769,136.70708 54.8358974,150.59292 C54.0461538,163.109735 53.4538462,178.364602 52.0717949,190.881416 C51.4794872,195.770796 51.6769231,204.180531 50.4923077,213.176991 C50.4923077,213.959292 50.4923077,213.568142 50.0974359,213.959292 C49.9,213.959292 49.7025641,213.763717 49.3076923,213.763717 C48.3205128,213.763717 45.5564103,214.350442 44.5692308,214.350442 C44.3717949,214.350442 44.174359,214.350442 43.9769231,214.350442 C43.5820513,213.372566 42.7923077,203.202655 42.5948718,201.833628 C40.4230769,176.995575 40.225641,151.961947 34.3025641,127.710619 C31.9333333,119.300885 29.5641026,110.304425 33.3153846,102.481416 Z" id="Path" fill="#272826"></path>
                                            <path d="M19.8897436,179.929204 C20.6794872,191.076991 20.4820513,203.202655 20.6794872,214.546018 C22.4564103,214.154867 27.9846154,214.154867 29.7615385,213.763717 C30.9461538,207.114159 31.1435897,199.095575 31.5384615,192.446018 C31.9333333,187.752212 31.7358974,183.058407 32.3282051,178.364602 C34.3025641,165.261062 33.5128205,144.138938 35.4871795,131.035398 C36.2769231,125.168142 37.2641026,119.49646 39.0410256,113.824779 C41.0153846,107.761947 43.1871795,99.1566372 33.1179487,97.3964602 C27.3923077,96.4185841 20.0871795,97.7876106 16.9282051,101.89469 C13.1769231,106.588496 14.5589744,113.238053 14.9538462,118.323009 C15.5461538,126.732743 17.125641,143.356637 17.7179487,151.766372 C18.5076923,161.153982 19.2974359,170.541593 19.8897436,179.929204 Z" id="Path" fill="#272826"></path>
                                            <path d="M48.9128205,36.7681416 C50.2948718,40.4840708 50.6897436,44.5911504 51.0846154,48.5026549 C53.0589744,66.4955752 58.3897436,84.2929204 58.5871795,102.481416 C58.5871795,103.459292 58.5871795,104.437168 57.9948718,105.219469 C57.6,105.806195 56.8102564,106.197345 56.0205128,106.39292 C44.3717949,111.282301 31.1435897,112.455752 18.9025641,109.717699 C16.7307692,109.326549 14.5589744,108.544248 13.374359,106.588496 C12.1897436,104.437168 12.9794872,101.89469 13.5717949,99.5477876 C17.125641,87.8132743 18.5076923,75.6876106 20.2846154,63.5619469 C21.074359,57.499115 22.0615385,51.4362832 23.4435897,45.5690265 C24.2333333,41.6575221 25.2205128,38.3327434 29.7615385,37.7460177 C36.2769231,36.9637168 42.5948718,38.1371681 48.9128205,36.7681416 Z" id="Path" fill="#4BB950"></path>
                                            <path d="M18.7051282,42.2442478 C17.3230769,43.8088496 16.7307692,45.960177 15.9410256,47.9159292 C14.1641026,52.6097345 11.5974359,57.3035398 8.83333333,61.4106195 C7.64871795,63.3663717 6.26666667,65.1265487 5.27948718,67.2778761 C4.48974359,69.4292035 4.09487179,71.7761062 5.08205128,73.9274336 C5.87179487,75.4920354 5.51804803,77.2523617 6.90009931,78.2302378 C7.8872788,79.0125387 11.0051282,79.0123894 12.1897436,79.0123894 C14.1641026,79.0123894 15.7435897,77.4477876 16.5333333,75.8831858 C17.3230769,74.1230088 17.5205128,72.1672566 17.7179487,70.4070796 C18.5076923,64.7353982 20.0871795,59.259292 21.8641026,53.7831858 C22.8512821,51.0451327 23.6410256,48.3070796 24.6282051,45.5690265 C25.2205128,44.0044248 26.9974359,40.2884956 24.825641,39.1150442 C23.0487179,38.1371681 19.8897436,40.679646 18.7051282,42.2442478 Z" id="Path" fill="#F2F2F2"></path>
                                            <path d="M38.4487179,7.62743363 C36.0794872,7.23628319 33.9076923,7.04070796 31.5384615,7.04070796 C28.9717949,9.77876106 27.3923077,13.4946903 26.6025641,17.2106195 C26.0102564,20.339823 25.6153846,23.4690265 26.4051282,26.4026549 C26.9974359,29.5318584 28.774359,32.2699115 31.1435897,34.0300885 C34.8948718,36.5725664 40.0282051,36.1814159 43.5820513,33.2477876 C47.1358974,30.5097345 49.3076923,25.8159292 49.5051282,20.9265487 C49.7025641,17.0150442 48.9128205,12.9079646 47.5307692,9.1920354 C44.7666667,8.40973451 41.2128205,8.01858407 38.4487179,7.62743363 Z" id="Path" fill="#E2D6CF"></path>
                                            <path d="M29.1692308,214.154867 C27.5897436,212.39469 24.6282051,214.154867 22.6538462,214.154867 C21.8641026,214.546018 21.8641026,214.350442 21.2717949,214.937168 C20.2846154,216.110619 20.8769231,216.50177 18.9025641,216.50177 C16.9282051,216.50177 14.5589744,217.675221 13.1769231,218.653097 C12.9794872,218.848673 12.7820513,219.044248 12.7820513,219.239823 C12.7820513,219.630973 13.1769231,219.826549 13.5717949,220.022124 C13.9666667,220.217699 14.5589744,220.217699 15.1512821,220.217699 C20.4820513,220.217699 22.8512821,220.217699 28.1820513,219.826549 C28.5769231,219.826549 29.1692308,219.826549 29.5641026,219.630973 C31.1435897,218.848673 30.1564103,214.937168 29.1692308,214.154867 Z" id="Path" fill="#676868"></path>
                                            <path d="M58.7846154,216.697345 C57.7974359,216.110619 56.4153846,215.915044 55.0333333,215.915044 C53.8487179,215.915044 52.4666667,216.110619 51.4794872,215.328319 C50.4923077,214.741593 50.4923077,213.372566 49.3076923,212.981416 C48.9128205,212.785841 48.3205128,212.981416 47.7282051,212.981416 C46.5435897,213.176991 45.5564103,213.372566 44.3717949,213.568142 C44.174359,213.568142 43.9769231,213.568142 43.7794872,213.763717 C42.9897436,214.350442 43.1871795,217.088496 43.5820513,217.870796 C43.9769231,218.848673 44.5692308,219.435398 45.7538462,219.826549 C49.5051282,220.804425 55.2307692,219.826549 59.1794872,219.630973 C59.3769231,219.630973 59.574359,219.630973 59.7717949,219.435398 C59.9692308,219.435398 59.9692308,219.239823 59.9692308,219.044248 C60.5615385,218.457522 59.7717949,217.284071 58.7846154,216.697345 Z" id="Path" fill="#676868"></path>
                                            <path d="M16.5333333,11.9300885 C17.125641,15.2548673 20.2846154,17.9929204 23.6410256,18.579646 C26.9974359,19.1663717 30.5512821,17.9929204 33.3153846,16.2327434 C36.474359,14.2769912 39.4358974,11.5389381 42.9897436,11.3433628 C43.5820513,11.3433628 44.3717949,11.3433628 44.9641026,11.7345133 C45.5564103,12.1256637 46.1487179,12.7123894 46.5435897,13.299115 C48.7153846,16.819469 48.9128205,21.1221239 49.1102564,25.2292035 C50.2948718,21.7088496 51.0846154,17.9929204 51.6769231,14.2769912 C52.4666667,10.1699115 52.6641026,5.47610619 49.7025641,2.7380531 C47.5307692,0.586725664 44.174359,0.195575221 41.0153846,0.586725664 C36.6717949,1.17345133 32.525641,2.93362832 29.1692308,5.67168142 C27.7871795,6.84513274 26.6025641,8.01858407 25.2205128,8.99646018 C23.8384615,9.97433628 22.0615385,10.5610619 20.2846154,10.3654867 C18.3102564,9.97433628 18.1128205,8.40973451 16.7307692,7.62743363 C16.5333333,8.80088496 16.3358974,10.5610619 16.5333333,11.9300885 Z" id="Path" fill="#272826"></path>
                                            <path d="M25.2205128,99.3522124 C23.6410256,114.802655 22.8512821,130.253097 21.6666667,145.70354 C21.6666667,146.681416 21.4692308,148.050442 20.4820513,148.441593 C19.8897436,148.637168 19.2974359,148.637168 18.7051282,148.637168 C11.7948718,148.246018 11.5974359,147.854867 4.68717949,146.876991 C3.30512821,146.681416 1.52820513,146.290265 0.935897436,145.116814 C0.738461538,144.530088 0.738461538,143.943363 0.738461538,143.356637 C0.738461538,139.445133 1.13333333,135.729204 1.72564103,131.817699 C2.91025641,124.972566 4.29230769,117.736283 5.67435897,110.89115 C11.0051282,84.879646 14.3615385,72.7539823 17.7179487,52.4141593 C18.5076923,48.1115044 19.1,43.8088496 21.6666667,40.2884956 C23.6410256,37.7460177 27.9846154,35.399115 31.3410256,36.9637168 C35.0923077,38.7238938 32.3282051,45.3734513 31.7358974,48.5026549 C30.1564103,59.259292 28.5769231,70.0159292 27.1948718,80.7725664 C26.6025641,87.0309735 25.8128205,93.2893805 25.2205128,99.3522124 Z" id="Path" fill="#F2F2F2"></path>
                                            <path d="M44.3717949,80.5769912 C46.5435897,103.459292 48.5179487,126.537168 46.3461538,149.615044 C46.3461538,150.397345 46.1487179,151.179646 46.7410256,151.766372 C47.1358974,151.961947 47.5307692,152.157522 47.925641,152.157522 C52.0717949,152.744248 56.4153846,153.135398 60.5615385,153.135398 C61.1538462,153.135398 61.9435897,153.135398 62.5358974,152.939823 C63.7205128,152.353097 63.9179487,150.984071 64.1153846,149.615044 C65.8923077,138.467257 63.7205128,127.515044 64.7076923,116.171681 C65.1025641,112.455752 64.5102564,108.348673 64.3128205,104.632743 C64.1153846,99.3522124 62.9307692,94.2672566 61.7461538,89.1823009 C57.9948718,73.9274336 57.7974359,58.6725664 53.6512821,43.4176991 C52.8615385,40.2884956 51.874359,36.9637168 49.3076923,35.0079646 C48.9128205,34.6168142 48.3205128,34.2256637 47.7282051,34.2256637 C47.1358974,34.2256637 46.5435897,34.4212389 45.9512821,34.8123894 C42.9897436,36.5725664 40.6205128,36.9637168 40.6205128,40.679646 C40.6205128,45.1778761 41.4102564,49.8716814 41.8051282,54.3699115 C42.7923077,62.9752212 44.3717949,71.9716814 44.3717949,80.5769912 Z" id="Path" fill="#F2F2F2"></path>
                                            <path d="M52.6641026,38.5283186 C54.6384615,39.3106195 55.8230769,41.2663717 56.8102564,43.2221239 C60.5615385,51.4362832 63.325641,60.2371681 68.2615385,67.8646018 C69.8410256,70.2115044 71.6179487,72.5584071 71.025641,75.2964602 C70.6307692,77.6433628 68.2615385,79.4035398 65.8923077,79.4035398 C63.1282051,79.4035398 61.1538462,77.0566372 59.574359,74.9053097 C57.0076923,70.7982301 55.625641,65.9088496 54.0461538,61.2150442 C52.0717949,55.7389381 49.7025641,50.4584071 47.1358974,45.3734513 C46.3461538,43.8088496 45.1615385,41.8530973 46.3461538,40.0929204 C47.5307692,38.5283186 50.8871795,37.9415929 52.6641026,38.5283186 Z" id="Path" fill="#F2F2F2"></path>
                                            <path d="M57.7974359,67.4734513 C57.4025641,67.0823009 56.8102564,66.8867257 56.2179487,67.2778761 C56.0205128,67.4734513 56.0205128,67.4734513 55.8230769,67.6690265 C55.2307692,68.060177 54.6384615,67.8646018 53.8487179,67.4734513 C53.0589744,67.0823009 52.2692308,66.8867257 51.4794872,66.6911504 C50.6897436,66.6911504 49.7025641,66.8867257 49.3076923,67.4734513 C48.5179487,68.4513274 48.5179487,69.820354 48.9128205,70.9938053 C49.1102564,71.7761062 49.5051282,72.5584071 50.2948718,72.9495575 C50.6897436,73.340708 51.4794872,73.5362832 52.0717949,73.7318584 C53.8487179,74.3185841 55.4282051,74.7097345 57.2051282,75.100885 C58.1923077,75.2964602 59.1794872,75.4920354 60.1666667,75.100885 C64.5102564,73.7318584 59.574359,68.6469027 57.7974359,67.4734513 Z" id="Path" fill="#E2D6CF"></path>
                                            <path d="M15.7974359,71.4734513 C15.4025641,71.0823009 14.8102564,70.8867257 14.2179487,71.2778761 C14.0205128,71.4734513 14.0205128,71.4734513 13.8230769,71.6690265 C13.2307692,72.060177 12.6384615,71.8646018 11.8487179,71.4734513 C11.0589744,71.0823009 10.2692308,70.8867257 9.47948718,70.6911504 C8.68974359,70.6911504 7.7025641,70.8867257 7.30769231,71.4734513 C6.51794872,72.4513274 6.51794872,73.820354 6.91282051,74.9938053 C7.11025641,75.7761062 7.50512821,76.5584071 8.29487179,76.9495575 C8.68974359,77.340708 9.47948718,77.5362832 10.0717949,77.7318584 C11.8487179,78.3185841 13.4282051,78.7097345 15.2051282,79.100885 C16.1923077,79.2964602 17.1794872,79.4920354 18.1666667,79.100885 C22.5102564,77.7318584 17.574359,72.6469027 15.7974359,71.4734513 Z" id="Path-Copy" fill="#E2D6CF" transform="translate(13.280596, 75.008933) scale(-1, 1) translate(-13.280596, -75.008933) "></path>
                                            <g transform="translate(37.461538, 33.247788)" fill="#4BB950" id="Path">
                                                <path d="M5.33076923,10.1699115 C4.73846154,10.7566372 3.94871795,11.3433628 3.15897436,11.1477876 C2.76410256,11.1477876 2.36923077,10.7566372 1.97435897,10.3654867 C1.57948718,9.97433628 1.18461538,9.38761062 0.987179487,8.80088496 C0.78974359,8.40973451 0.592307692,8.01858407 0.592307692,7.43185841 C0.592307692,6.64955752 1.18461538,6.06283186 1.77692308,5.47610619 C3.55384615,3.7159292 5.52820513,2.34690265 7.5025641,1.36902655 C8.09487179,0.977876106 8.88461538,0.782300885 9.47692308,0.977876106 C10.4641026,1.17345133 11.0564103,2.34690265 11.2538462,3.52035398 C11.4512821,4.30265487 11.0564103,4.49823009 10.4641026,4.88938053 C9.87179487,5.47610619 9.27948718,6.06283186 8.48974359,6.64955752 C7.7,7.82300885 6.51538462,8.99646018 5.33076923,10.1699115 Z"></path>
                                            </g>
                                            <g transform="translate(25.615385, 36.203540)" fill="#4BB950" id="Path">
                                                <path d="M7.30512821,2.12920354 C7.7,2.7159292 8.09487179,3.30265487 8.48974359,3.88938053 C8.68717949,4.28053097 8.88461538,4.67168142 8.88461538,5.06283186 C8.88461538,5.64955752 8.68717949,6.23628319 8.48974359,6.82300885 C8.29230769,7.80088496 8.09487179,8.97433628 7.30512821,9.36548673 C6.51538462,9.75663717 5.72564103,9.1699115 5.13333333,8.77876106 C4.14615385,8.1920354 3.15897436,7.60530973 2.17179487,6.82300885 C1.77692308,6.62743363 1.38205128,6.23628319 0.987179487,6.04070796 C0.592307692,5.4539823 0.394871795,4.86725664 0.197435897,4.28053097 C-3.21750959e-12,2.91150442 0.78974359,0.760176991 2.17179487,0.56460177 C3.94871795,-0.0221238938 6.12051282,0.955752212 7.30512821,2.12920354 Z"></path>
                                            </g>
                                        </g>
                                    </g>
                                </g>
                                <g id="Group-10" transform="translate(11.000000, 25.000000)" fill="#272826">
                                    <path d="M25.467473,20.1921695 C24.4024189,24.1833812 23.4704967,28.0415525 23.0711014,32.0327642 C22.5385744,36.8222182 21.4735203,43.6072781 16.0151184,45.2037628 C13.0862197,46.0020051 10.8229799,42.542955 8.95913533,40.8134299 C6.69589549,38.8178241 5.20515324,37.3260097 5.07202148,34 C4.93888973,30.0087882 4.96518267,26.9772294 2.30254757,23.78426 C2.16941581,23.6512196 1.24382137,23.9839192 1.37695313,24.25 C3.90645647,27.1768886 4.43265565,30.0371583 4.43265565,33.7622893 C4.43265565,35.6248547 4.69891916,37.2213394 5.89710496,38.6847837 C7.62781778,40.8134299 10.0241894,42.6759954 11.8880339,44.5385609 C13.0862197,45.7359244 14.2844055,46.2680859 16.0151184,45.8689648 C20.009071,44.8046416 22.0060473,40.2812684 22.8048379,36.6891778 C23.4704967,33.8953296 23.4704967,31.1014814 24.0030237,28.4406736 C24.4024189,25.7798658 25.2012095,23.2520984 26,20.5912906 C26,20.0591291 25.467473,19.7930483 25.467473,20.1921695 Z" id="Path" stroke="#272826" stroke-width="0.7"></path>
                                    <circle id="Oval" fill-rule="nonzero" cx="3.5" cy="25.5" r="3.5"></circle>
                                    <path d="M37.8651685,0.923452769 C37.8651685,0.923452769 38,0.791530945 38,0.791530945 C38,0.791530945 38,0.791530945 38,0.659609121 C38,0.527687296 38,0.395765472 38,0.395765472 C38,0.263843648 37.8651685,0.263843648 37.8651685,0.131921824 C37.7303371,0 37.5955056,0 37.4606742,0 C37.4606742,0 37.4606742,0 37.4606742,0 C37.4606742,0 37.4606742,0 37.4606742,0 C37.3258427,0 37.1910112,0.263843648 37.1910112,0.395765472 C37.1910112,0.395765472 37.1910112,0.395765472 37.1910112,0.527687296 C37.0561798,0.659609121 37.1910112,1.05537459 37.3258427,1.05537459 C37.5955056,3.03420195 37.7303371,5.14495114 37.0561798,6.99185668 C36.247191,9.23452769 33.9550562,11.0814332 32.0674157,12.4006515 C29.7752809,13.9837134 26.5393258,15.0390879 26,17.9413681 C26,17.9413681 26.1348315,18.0732899 26.1348315,17.9413681 C26.8089888,15.3029316 29.3707865,14.3794788 31.5280899,13.1921824 C33.1460674,12.2687296 34.6292135,10.9495114 35.9775281,9.63029316 C38.1348315,7.1237785 38.1348315,4.22149837 37.8651685,0.923452769 Z" id="Path" stroke="#272826" stroke-width="0.7"></path>
                                    <path d="M26.8651685,0.923452769 C26.8651685,0.923452769 27,0.791530945 27,0.791530945 C27,0.791530945 27,0.791530945 27,0.659609121 C27,0.527687296 27,0.395765472 27,0.395765472 C27,0.263843648 26.8651685,0.263843648 26.8651685,0.131921824 C26.7303371,0 26.5955056,0 26.4606742,0 C26.4606742,0 26.4606742,0 26.4606742,0 C26.4606742,0 26.4606742,0 26.4606742,0 C26.3258427,0 26.1910112,0.263843648 26.1910112,0.395765472 C26.1910112,0.395765472 26.1910112,0.395765472 26.1910112,0.527687296 C26.0561798,0.659609121 26.1910112,1.05537459 26.3258427,1.05537459 C26.5955056,3.03420195 26.7303371,5.14495114 26.0561798,6.99185668 C25.247191,9.23452769 22.9550562,11.0814332 21.0674157,12.4006515 C18.7752809,13.9837134 15.5393258,15.0390879 15,17.9413681 C15,17.9413681 15.1348315,18.0732899 15.1348315,17.9413681 C15.8089888,15.3029316 18.3707865,14.3794788 20.5280899,13.1921824 C22.1460674,12.2687296 23.6292135,10.9495114 24.9775281,9.63029316 C27.1348315,7.1237785 27.1348315,4.22149837 26.8651685,0.923452769 Z" id="Path-Copy-2" stroke="#272826" stroke-width="0.7" transform="translate(21.000000, 9.000000) scale(-1, 1) translate(-21.000000, -9.000000) "></path>
                                    <path d="M27.1382426,17.3772984 C26.989147,17.1257661 26.3927647,17 26.0945735,17 C25.9454779,17 25.9454779,17.3772984 25.7963823,17.6288307 C25.6472868,18.1318953 25.4981912,18.6349599 25.4981912,19.1380245 C25.3490956,19.5153229 25.2,20.1441536 25.2,20.5214521 C25.2,20.8987505 25.9454779,21.1502828 26.2436691,20.8987505 C26.3927647,20.7729844 26.5418603,20.3956859 26.5418603,20.1441536 C26.6909558,19.5153229 26.8400514,18.8864922 26.989147,18.3834276 C27.1382426,18.0061292 27.2873382,17.6288307 27.1382426,17.3772984 Z" id="Path" stroke="#272826" stroke-width="0.7"></path>
                                </g>
                            </g>
                        </g>
                    </g>
                </g>
            </g>
        </g>
    </g>
</svg>