<?xml version="1.0" encoding="UTF-8"?>
<svg width="85px" height="85px" viewBox="0 0 85 85" version="1.1" xmlns="http://www.w3.org/2000/svg" xmlns:xlink="http://www.w3.org/1999/xlink">
    <!-- Generator: Sketch 52.2 (67145) - http://www.bohemiancoding.com/sketch -->
    <title>AeWr7CoOJv</title>
    <desc>Created with Sketch.</desc>
    <g id="Page-1" stroke="none" stroke-width="1" fill="none" fill-rule="evenodd">
        <g id="Artboard-Copy-40" transform="translate(-783.000000, -1111.000000)">
            <g id="Group-26" transform="translate(392.000000, 1111.000000)">
                <g id="Group-23" transform="translate(391.000000, 0.000000)">
                    <g id="AeWr7CoOJv">
                        <g id="Group" transform="translate(42.500000, 42.500000) scale(-1, 1) rotate(-180.000000) translate(-42.500000, -42.500000) ">
                            <path d="M42.2675781,84.3385214 C42.1679687,83.9085603 41.8359375,82.3540856 41.5371094,80.8988327 C40.6074219,76.3346304 40.0761719,74.614786 39.578125,74.2509728 C39.3125,74.0525292 38.3164062,73.7879377 37.3867187,73.688716 C35.2285156,73.4241245 31.2441406,72.0680934 28.1894531,70.5466926 C25.4335937,69.1575875 22.1464844,66.7101167 22.1464844,66.0486381 C22.1464844,65.5194553 24.3046875,63.733463 25.3007812,63.4027237 C25.6660156,63.3035019 26.7949219,62.6750973 27.7910156,62.0466926 C28.7871094,61.4182879 29.8164062,60.8891051 30.1152344,60.8891051 C30.3808594,60.8891051 31.4433594,61.3190661 32.4394531,61.8151751 C39.9433594,65.5856031 44.8242187,65.651751 53.0585937,62.0136187 C55.3496094,61.0214008 55.6484375,60.9552529 56.8105469,61.2859922 C57.5078125,61.5175097 58.1386719,61.881323 58.2382812,62.1128405 C58.3378906,62.344358 58.5703125,62.5428016 58.7363281,62.5428016 C58.9355469,62.5428016 59.7324219,63.0058366 60.5625,63.5350195 C61.359375,64.0972763 62.1230469,64.5272374 62.2890625,64.5272374 C62.421875,64.5272374 62.8535156,64.8910506 63.2851562,65.3210117 L64.015625,66.0817121 L62.7871094,67.1731518 C61.3261719,68.4299611 58.6367187,70.1828794 57.0097656,70.9105058 C53.0585937,72.6634241 52.328125,72.8949416 46.75,74.0525292 C45.3886719,74.3171206 45.2558594,74.5486381 44.5585937,77.7568093 C43.03125,84.7023346 42.5996094,85.92607 42.2675781,84.3385214 Z" id="Path" fill="#D3D3D3"></path>
                            <path d="M66.0078125,66.3132296 C65.5097656,65.9494163 65.3769531,65.651751 65.5761719,65.4533074 C65.9746094,65.0564202 66.5058594,65.3210117 66.9707031,66.2140078 C67.4023437,66.9747082 67.0371094,67.0077821 66.0078125,66.3132296 Z" id="Path" fill="#000000"></path>
                            <path d="M18.8261719,66.2801556 C18.8261719,65.8171206 20.5195312,64.4280156 20.7519531,64.692607 C20.8847656,64.8249027 20.7851562,65.0233463 20.5859375,65.0894942 C20.3535156,65.188716 20.1542969,65.4533074 20.1542969,65.6848249 C20.1542969,65.9163424 19.921875,66.2140078 19.6230469,66.3132296 C18.9589844,66.577821 18.8261719,66.577821 18.8261719,66.2801556 Z" id="Path" fill="#000000"></path>
                            <path d="M63.1191406,63.733463 C62.8535156,63.0389105 63.21875,62.5428016 64.015625,62.5428016 C64.5136719,62.5428016 64.6796875,62.7412451 64.5800781,63.270428 C64.4472656,64.1634241 63.4179688,64.4941634 63.1191406,63.733463 Z" id="Path" fill="#000000"></path>
                            <path d="M21.3828125,63.6673152 C21.2832031,63.5680934 21.2832031,63.270428 21.3828125,63.0058366 C21.515625,62.6420233 21.6816406,62.6089494 22.0136719,62.9066148 C22.2792969,63.1050584 22.4785156,63.4027237 22.4785156,63.5680934 C22.4785156,63.8988327 21.6816406,63.9649805 21.3828125,63.6673152 Z" id="Path" fill="#000000"></path>
                            <path d="M65.4101562,62.7081712 C65.0117187,62.2451362 64.6132812,61.6167315 64.4804687,61.2859922 C64.3808594,60.9883268 64.0820312,60.42607 63.8164062,60.0953307 C63.4179687,59.5992218 63.2519531,59.5330739 62.8535156,59.8638132 C62.5878906,60.0953307 62.1894531,60.1945525 61.9902344,60.0622568 C61.4589844,59.7315175 61.5917969,58.9046693 62.1894531,58.9046693 C62.4882812,58.9046693 62.6542969,58.8054475 62.5878906,58.6400778 C62.5546875,58.5077821 62.1894531,57.6809339 61.8574219,56.8210117 L61.2265625,55.233463 L62.421875,52.8521401 C64.8789062,47.8910506 65.1445312,46.9319066 65.1445312,42.2023346 C65.1445312,38.0680934 65.1113281,37.770428 64.015625,35.0914397 C63.3847656,33.536965 62.5214844,31.7178988 62.0898437,31.0564202 C61.1601562,29.5350195 61.1269531,28.344358 61.9902344,26.7237354 C62.7871094,25.2684825 62.7871094,25.1692607 62.15625,25.1692607 C61.890625,25.1692607 61.6582031,24.9377432 61.6582031,24.6400778 C61.6582031,24.2431907 61.8574219,24.1439689 62.4550781,24.3093385 C63.0859375,24.4747082 63.4179687,24.3093385 63.9492187,23.6478599 C64.3476562,23.151751 64.6464844,22.5894942 64.6464844,22.3910506 C64.6464844,22.192607 65.0449219,21.7626459 65.5097656,21.3988327 C66.3730469,20.8035019 66.3730469,20.8035019 67.4355469,21.8287938 C68.8300781,23.151751 71.3867187,27.4182879 72.5820312,30.3618677 C73.5449219,32.7101167 74.0761719,34.5622568 74.640625,37.7373541 C74.8398437,38.729572 75.0390625,39.5894942 75.1054687,39.655642 C75.171875,39.7217899 76.765625,40.151751 78.6582031,40.5817121 C83.9375,41.8054475 84.9003906,42.1031128 84.9003906,42.4007782 C84.9003906,42.5661479 84.8007812,42.6984436 84.7011719,42.6984436 C84.1699219,42.6984436 76.6328125,44.3521401 75.8691406,44.6498054 C75.171875,44.9143969 74.9394531,45.2782101 74.7734375,46.2373541 C73.7773437,52.3891051 70.6230469,59.4669261 67.4023437,62.6750973 C66.3730469,63.733463 66.3066406,63.733463 65.4101562,62.7081712 Z" id="Path" fill="#D3D3D3"></path>
                            <path d="M18.0957031,62.311284 C15.3398438,59.3015564 12.484375,53.1498054 11.5214844,48.0894942 C11.2890625,46.9649805 10.8574219,45.8404669 10.5585938,45.5758755 C10.2597656,45.311284 9.19726563,44.9474708 8.20117188,44.7490272 C0.896484375,43.2607004 -1.09570312,42.5992218 0.59765625,42.2354086 C1.02929688,42.1361868 2.58984375,41.8054475 4.05078125,41.5077821 C8.06835938,40.6809339 10.2265625,40.118677 10.6914063,39.7217899 C10.9238281,39.5233463 11.1894531,38.5972763 11.2890625,37.6381323 C11.7871094,33.6031128 14.7089844,26.5914397 17.53125,22.7217899 C19.0253906,20.7042802 19.921875,20.7373541 21.0507813,22.9533074 C21.515625,23.8132296 22.0136719,24.5077821 22.1796875,24.5077821 C22.3457031,24.5077821 22.4785156,24.7723735 22.4785156,25.1031128 C22.4785156,25.4338521 22.9433594,26.1614786 23.4746094,26.7568093 C24.7695313,28.1789883 24.7363281,29.0058366 23.3417969,31.9163424 C21.1835938,36.381323 20.71875,38.1673152 20.71875,42.3677043 C20.71875,46.4027237 21.1835938,48.3540856 23.0429688,52.1245136 C24.4375,54.9027237 24.5039063,55.6303502 23.5078125,57.118677 C23.0429688,57.8132296 22.3457031,59.0038911 21.9804688,59.7315175 C21.6152344,60.459144 21.1171875,61.1867704 20.9179688,61.3190661 C20.6855469,61.4513619 20.4863281,61.7821012 20.4863281,62.0466926 C20.4863281,62.4435798 19.5566406,63.2042802 19.0917969,63.2042802 C18.9921875,63.2042802 18.5605469,62.807393 18.0957031,62.311284 Z" id="Path" fill="#D3D3D3"></path>
                            <path d="M25.1347656,62.0797665 C25.1347656,61.7821012 25.3671875,61.385214 25.6660156,61.1536965 C25.9316406,60.922179 26.4296875,60.459144 26.6953125,60.1614786 C27.09375,59.7645914 27.3925781,59.6984436 27.8574219,59.9299611 C28.4882812,60.2607004 28.6875,60.8891051 28.1230469,60.8891051 C27.9238281,60.8891051 27.1933594,61.2529183 26.4628906,61.7159533 C25.4335937,62.344358 25.1347656,62.4435798 25.1347656,62.0797665 Z" id="Path" fill="#000000"></path>
                            <path d="M59.9980469,61.881323 C59.7324219,61.7490272 59.1015625,61.4513619 58.6035156,61.1867704 C57.5742187,60.7237354 57.4082031,60.2937743 58.1386719,60.0291829 C58.6699219,59.8307393 60.1972656,60.7898833 60.4960937,61.5175097 C60.7285156,62.1128405 60.6289062,62.1789883 59.9980469,61.881323 Z" id="Path" fill="#000000"></path>
                            <path d="M23.1425781,59.8968872 C23.1425781,59.7315175 23.4746094,58.9708171 23.8398437,58.2431907 C24.3046875,57.3501946 24.6699219,56.9863813 24.8691406,57.1848249 C25.3339844,57.6478599 24.6035156,59.7645914 23.9394531,60.0291829 C23.2421875,60.2937743 23.1425781,60.2937743 23.1425781,59.8968872 Z" id="Path" fill="#000000"></path>
                            <g id="Group-20" transform="translate(24.902344, 24.474708)" fill-rule="nonzero">
                                <path d="M13.015625,34.5953307 C12.1191406,34.1653696 10.7578125,33.6361868 10.0273437,33.4046693 C7.3046875,32.6439689 3.81835937,29.3365759 2.05859375,25.8638132 C0.796875,23.3171206 0.232421875,20.8035019 0.232421875,17.6614786 C0.265625,6.44941634 11.0566406,-2.08365759 21.9804687,0.529182879 C28.2558594,2.01750973 33.6347656,7.24319066 35.2949219,13.4941634 C36.2246094,16.9669261 35.7929687,22.3249027 34.3984375,24.8715953 C31.7089844,29.7003891 29.3183594,32.0817121 25.1347656,34.0661479 C22.7773437,35.1906615 22.4453125,35.2237354 18.6601562,35.3229572 C15.0410156,35.3891051 14.5429687,35.3229572 13.015625,34.5953307 Z" id="Path" fill="#D3D3D3"></path>
                                <path d="M21.9472656,28.1459144 C22.4785156,27.9474708 22.84375,27.9474708 22.9765625,28.1459144 C23.2753906,28.6089494 24.6367187,27.6167315 25.0683594,26.6575875 C25.5,25.7315175 25.1347656,25.3346304 24.1054687,25.6653696 C23.6074219,25.8307393 23.4414062,25.7645914 23.5410156,25.4669261 C23.640625,25.2023346 24.1386719,24.9708171 24.703125,24.9046693 C26.0644531,24.7723735 26.3300781,24.0116732 25.3007812,23.3171206 C23.9394531,22.4241245 22.4453125,22.9202335 21.2167969,24.6400778 C19.9550781,26.3929961 19.7558594,28.4766537 20.8515625,28.4766537 C20.984375,28.4766537 21.4824219,28.344358 21.9472656,28.1459144 Z" id="Path" fill="#C4C4C4"></path>
                                <path d="M12.3183594,26.7568093 C12.9824219,25.4669261 13.015625,25.5 12.0195312,25.5 C11.5214844,25.5 11.1894531,25.6984436 11.1894531,25.963035 C11.1894531,26.2276265 11.0234375,26.4922179 10.7910156,26.5583658 C10.2597656,26.7568093 10.7246094,27.8151751 11.3222656,27.8151751 C11.5878906,27.8151751 12.0527344,27.3521401 12.3183594,26.7568093 Z" id="Path" fill="#C4C4C4"></path>
                                <path d="M29.1191406,25.5992218 C29.1191406,24.9377432 28.5546875,24.8385214 28.0234375,25.4338521 C27.5253906,25.9961089 27.359375,26.5583658 27.4257813,27.4844358 C27.4589844,28.0466926 29.0859375,26.2607004 29.1191406,25.5992218 Z" id="Path" fill="#C4C4C4"></path>
                                <path d="M16.2695312,27.0875486 C16.5683594,26.8560311 16.8339844,26.1284047 16.9003906,25.5 C17,24.5077821 17.265625,24.1770428 18.9257812,23.0525292 C20.5859375,21.8949416 20.8183594,21.5972763 20.8183594,20.6381323 C20.8183594,19.844358 20.4863281,19.1828794 19.5898437,18.1906615 C18.3613281,16.8346304 18.328125,16.7354086 18.2285156,13.8910506 C18.1289062,11.5097276 17.9628906,10.881323 17.4316406,10.4182879 C16.9667969,9.95525292 16.6679687,9.88910506 16.2363281,10.1536965 C15.5390625,10.6167315 14.2109375,14.7509728 13.9121094,17.3968872 L13.6796875,19.381323 L12.3515625,19.5466926 C10.7246094,19.7782101 10.1933594,20.0758755 10.1933594,20.8365759 C10.1933594,21.5642023 10.8242187,22.192607 11.5878906,22.192607 C11.9199219,22.192607 12.3183594,22.5233463 12.484375,22.9533074 C12.6503906,23.3832685 13.015625,23.9124514 13.3144531,24.1439689 C13.5800781,24.3754864 13.9121094,25.1031128 14.0449219,25.7976654 C14.1777344,26.459144 14.34375,27.0875486 14.4101562,27.2529183 C14.6425781,27.6167315 15.6386719,27.5175097 16.2695312,27.0875486 Z" id="Path" fill="#C4C4C4"></path>
                                <path d="M25.0351562,13.9241245 C24.8691406,13.2626459 25.4003906,11.344358 25.9980469,10.5836576 C26.5957031,9.78988327 26.1640625,7.11089494 25.3007812,6.31712062 C23.8730469,4.96108949 20.2871094,4.56420233 16.8339844,5.32490272 C13.9785156,5.95330739 13.1816406,7.04474708 15.3398437,7.44163424 C16.734375,7.70622568 17.7636719,7.24319066 18.1621094,6.11867704 C18.5605469,5.12645914 19.65625,5.06031128 20.1542969,5.98638132 C20.5859375,6.78015564 20.3535156,7.24319066 19.2910156,7.64007782 C18.59375,7.90466926 18.5605469,8.03696498 18.8925781,9.02918288 C19.0917969,9.62451362 19.5234375,10.4182879 19.8554687,10.8151751 C20.2207031,11.1789883 20.4863281,11.8735409 20.4863281,12.3365759 C20.4863281,13.4280156 21.4160156,14.4533074 21.9140625,13.9571984 C22.4453125,13.4280156 24.1386719,13.5272374 24.3378906,14.0894942 C24.6367187,14.8171206 25.234375,14.6848249 25.0351562,13.9241245 Z" id="Path" fill="#C4C4C4"></path>
                                <path d="M11.6875,11.9396887 C12.3183594,11.2451362 12.1523438,10.385214 11.3222656,10.0544747 C10.5253906,9.75680934 9.79492188,10.6828794 10.0605469,11.7081712 C10.2929688,12.766537 10.8574219,12.8326848 11.6875,11.9396887 Z" id="Path" fill="#C4C4C4"></path>
                            </g>
                            <path d="M60.0976563,26.6245136 C59.765625,25.8968872 59.765625,25.7976654 60.1972656,25.963035 C60.4960938,26.0622568 60.7949219,26.1614786 60.8613281,26.1614786 C60.9277344,26.1614786 60.9941406,26.459144 60.9941406,26.8229572 C60.9941406,27.7490272 60.5625,27.6498054 60.0976563,26.6245136 Z" id="Path" fill="#000000"></path>
                            <path d="M24.4707031,26.7237354 C24.4707031,26.459144 24.171875,25.9961089 23.8066406,25.6653696 C23.0761719,25.0038911 22.9101562,24.1770428 23.5742187,24.1770428 C24.1054687,24.1770428 25.5664062,26.42607 25.3007812,26.8229572 C25.0019531,27.3190661 24.4707031,27.2198444 24.4707031,26.7237354 Z" id="Path" fill="#000000"></path>
                            <path d="M27.1269531,24.0116732 C26.8945312,23.7470817 26.4628906,23.5155642 26.1308594,23.5155642 C25.7988281,23.5155642 25.4667969,23.2840467 25.3339844,23.0194553 C25.1015625,22.3910506 26.3300781,22.3249027 26.6953125,22.9533074 C26.828125,23.2178988 27.2265625,23.4824903 27.5585937,23.614786 C27.8574219,23.7140078 28.1230469,23.9785992 28.1230469,24.1770428 C28.1230469,24.6731518 27.5917969,24.57393 27.1269531,24.0116732 Z" id="Path" fill="#000000"></path>
                            <path d="M57.6738281,24.3093385 C57.6738281,24.0116732 59.0019531,22.8210117 59.9648437,22.2587549 C60.6289062,21.8618677 60.6953125,21.8949416 60.5957031,22.4241245 C60.4960937,22.9863813 57.6738281,24.8054475 57.6738281,24.3093385 Z" id="Path" fill="#000000"></path>
                            <path d="M28.953125,23.1848249 C28.8203125,22.9863813 28.3886719,22.655642 28.0234375,22.4902724 C26.8945312,21.9941634 25.765625,21.2996109 25.3671875,20.9027237 C25.1679687,20.7042802 24.8359375,20.5389105 24.6035156,20.5389105 C24.0390625,20.5389105 22.1464844,18.8190661 22.1464844,18.3229572 C22.1464844,17.7607004 25.4335937,15.3793774 28.2558594,13.9241245 C30.8789062,12.5680934 32.9042969,11.8404669 36.65625,10.9143969 C38.0507812,10.5836576 39.3789062,10.1206226 39.578125,9.88910506 C39.8105469,9.65758755 40.1425781,8.73151751 40.3417969,7.80544747 C42.0019531,-0.36381323 42.4335937,-1.28988327 42.9980469,1.91828794 C43.4296875,4.20038911 44.2265625,7.73929961 44.6582031,9.12840467 C44.890625,9.95525292 45.15625,10.1536965 46.4179687,10.385214 C51.53125,11.311284 54.6855469,12.3365759 58.3378906,14.3210117 C62.9199219,16.7354086 64.7792969,18.8190661 62.9199219,19.4143969 C62.4882812,19.5466926 61.625,20.0758755 60.9609375,20.5719844 C60.296875,21.1011673 59.5996094,21.5311284 59.4003906,21.5311284 C59.234375,21.5311284 59.0019531,21.7626459 58.8691406,22.0272374 C58.7695312,22.2918288 58.4375,22.5233463 58.1054687,22.5233463 C57.7734375,22.5233463 57.2089844,22.7548638 56.8769531,23.0194553 C56.0136719,23.6809339 55.515625,23.6478599 53.8886719,22.8871595 C48.2773437,20.2743191 47.3144531,20.0428016 42.5664062,20.0758755 C39.2128906,20.0758755 38.0175781,20.2081712 37.2539062,20.6381323 C36.7226562,20.9357977 36.0917969,21.2003891 35.8925781,21.2003891 C35.6933594,21.2003891 34.5976562,21.6634241 33.4355469,22.2256809 C30.9785156,23.4163424 29.3183594,23.7801556 28.953125,23.1848249 Z" id="Path" fill="#D3D3D3"></path>
                            <path d="M21.4824219,21.5311284 C21.4824219,20.9027237 22.1464844,20.6381323 22.578125,21.1011673 C22.84375,21.3326848 22.2128906,22.192607 21.78125,22.192607 C21.6152344,22.192607 21.4824219,21.8949416 21.4824219,21.5311284 Z" id="Path" fill="#000000"></path>
                            <path d="M62.8535156,21.2996109 C62.6210938,20.770428 63.1191406,20.2081712 63.8496094,20.2081712 C64.3144531,20.2081712 64.7128906,21.1342412 64.4472656,21.5642023 C64.1484375,22.0603113 63.0859375,21.8949416 62.8535156,21.2996109 Z" id="Path" fill="#000000"></path>
                            <path d="M19.8222656,19.0836576 C19.8222656,18.8190661 19.5898437,18.5214008 19.2910156,18.422179 C18.9921875,18.2898833 18.8261719,18.1245136 18.9257812,18.0252918 C19.0253906,17.8929961 19.4902344,18.1245136 19.9550781,18.4883268 C20.4199219,18.8190661 20.6855469,19.2159533 20.5859375,19.348249 C20.2207031,19.7120623 19.8222656,19.5797665 19.8222656,19.0836576 Z" id="Path" fill="#000000"></path>
                            <path d="M64.9785156,19.381323 C64.9785156,18.9844358 66.1738281,17.8929961 66.5722656,17.8929961 C66.9707031,17.8929961 66.9707031,17.9922179 66.6386719,18.422179 C66.140625,18.9513619 64.9785156,19.6789883 64.9785156,19.381323 Z" id="Path" fill="#000000"></path>
                            <path d="M24.2670023,54.9742332 L15.1738281,69.8127445 L30.1160065,61.2130616 C28.2591048,59.8181162 27.0413995,58.798229 26.4628906,58.1534001 C25.8843817,57.5085712 25.1524189,56.4488489 24.2670023,54.9742332 Z" id="Path-3" fill="#C4C4C4" fill-rule="nonzero"></path>
                            <path d="M64.4383269,54.9450809 L55.37847,69.8427185 L70.2637501,61.2074563 C68.414255,59.8073204 67.201421,58.7836194 66.6252482,58.1363533 C66.0490754,57.4890871 65.3201016,56.4253296 64.4383269,54.9450809 Z" id="Path-3-Copy" fill="#C4C4C4" fill-rule="nonzero" transform="translate(62.821110, 62.393900) rotate(268.000000) translate(-62.821110, -62.393900) "></path>
                            <path d="M64.4409291,14.6250319 L55.3498197,29.4623797 L70.2907557,20.8646837 C68.4336727,19.4694797 67.2158342,18.4494224 66.6372402,17.8045119 C66.0586462,17.1596014 65.3265425,16.0997748 64.4409291,14.6250319 Z" id="Path-3-Copy-2" fill="#C4C4C4" fill-rule="nonzero" transform="translate(62.820288, 22.043706) rotate(178.000000) translate(-62.820288, -22.043706) "></path>
                            <path d="M24.2627369,14.5931765 L15.2007392,29.4918308 L30.0873973,20.8546731 C28.2380649,19.4548079 27.025352,18.4312859 26.4492584,17.7841071 C25.8731648,17.1369282 25.1443243,16.0732847 24.2627369,14.5931765 Z" id="Path-3-Copy-3" fill="#C4C4C4" fill-rule="nonzero" transform="translate(22.644068, 22.042504) rotate(86.000000) translate(-22.644068, -22.042504) "></path>
                        </g>
                    </g>
                </g>
            </g>
        </g>
    </g>
</svg>