<?xml version="1.0" encoding="UTF-8"?>
<svg width="66px" height="85px" viewBox="0 0 66 85" version="1.1" xmlns="http://www.w3.org/2000/svg" xmlns:xlink="http://www.w3.org/1999/xlink">
    <!-- Generator: Sketch 52.2 (67145) - http://www.bohemiancoding.com/sketch -->
    <title>Ramaiah_Institutions_Logo</title>
    <desc>Created with Sketch.</desc>
    <g id="Page-1" stroke="none" stroke-width="1" fill="none" fill-rule="evenodd">
        <g id="Artboard-Copy-40" transform="translate(-597.000000, -1115.000000)">
            <g id="Group-26" transform="translate(392.000000, 1111.000000)">
                <g id="Group-24" transform="translate(177.000000, 4.000000)">
                    <g id="Ramaiah_Institutions_Logo" transform="translate(28.000000, 0.000000)">
                        <path d="M0,36.5127021 C0,24.3418014 0,12.1709007 0,0 C21.801027,0 43.5038511,0 65.304878,0 C65.304878,28.3660508 65.304878,56.7321016 65.304878,85 C43.5038511,85 21.801027,85 0,85 C0,73.1235566 0,61.2471132 0,49.4688222 C0.0982028241,49.7632794 0.196405648,49.9595843 0.196405648,50.2540416 C0.785622593,57.3210162 3.82991014,63.3083141 8.34724005,68.5103926 C14.8286264,75.9699769 22.9794608,80.8775982 32.0141207,84.5092379 C32.6033376,84.7055427 33.487163,84.6073903 34.1745828,84.4110855 C36.7278562,83.2332564 39.2811297,82.0554273 41.7362003,80.6812933 C48.6103979,76.8533487 54.6007702,72.1420323 59.0198973,65.4676674 C59.216303,65.1732102 59.4127086,64.7806005 59.6091142,64.4861432 C50.9672657,69.1974596 43.012837,74.7921478 34.3709884,79.3071594 C35.0584082,76.7551963 36.4332478,74.595843 38.2991014,72.7309469 C40.754172,70.1789838 43.7984596,68.2159353 46.9409499,66.6454965 C51.8510911,64.0935335 56.8594352,61.6397229 61.8677792,59.0877598 C62.2605905,58.891455 62.7516046,58.6951501 62.8498074,58.4006928 C63.4390244,57.0265589 63.8318357,55.6524249 64.3228498,54.278291 C62.4569961,54.8672055 60.7875481,55.5542725 59.216303,56.2413395 C53.5205392,58.9896074 47.7265725,61.6397229 42.1290116,64.682448 C36.5314506,67.7251732 32.406932,72.2401848 30.148267,78.3256351 C30.0500642,78.52194 29.9518614,78.6200924 29.7554557,78.9145497 C28.9698331,78.52194 28.1842105,78.1293303 27.3985879,77.7367206 C26.5147625,77.3441109 26.3183569,76.9515012 26.6129653,75.9699769 C28.0860077,71.7494226 30.4428755,68.2159353 33.8799743,65.2713626 C37.8080873,61.8360277 42.3254172,59.3822171 46.9409499,57.2228637 C52.4403081,54.6709007 58.0378691,52.2170901 63.5372272,49.7632794 C63.9300385,49.5669746 64.5192555,49.1743649 64.5192555,48.7817552 C64.6174583,47.5057737 64.5192555,46.2297921 64.5192555,44.8556582 C63.63543,45.2482679 62.7516046,45.5427252 61.8677792,46.0334873 C54.1097561,49.7632794 46.2535302,53.1986143 38.5937099,57.1247113 C31.3267009,60.8545035 25.6309371,66.4491917 22.2920411,74.1050808 C22.1938383,74.3013857 22.0956354,74.3995381 21.9974326,74.4976905 C21.801027,74.3995381 21.7028241,74.3995381 21.6046213,74.3013857 C20.8189987,73.8106236 20.1315789,73.221709 19.2477535,72.7309469 C18.4621309,72.2401848 18.3639281,71.7494226 18.7567394,70.9642032 C21.0154044,65.5658199 24.7471117,61.3452656 29.3626444,57.8117783 C34.3709884,53.9838337 39.8703466,51.1374134 45.5661104,48.4872979 C51.5564827,45.73903 57.6450578,43.0889145 63.63543,40.4387991 C64.0282413,40.2424942 64.6174583,39.948037 64.6174583,39.6535797 C64.7156611,38.2794457 64.6174583,36.8071594 64.6174583,35.2367206 C64.224647,35.4330254 64.0282413,35.4330254 63.8318357,35.5311778 C58.1360719,38.0831409 52.3421053,40.6351039 46.6463415,43.187067 C40.0667522,46.1316397 33.5853659,49.2725173 27.6931964,53.3949192 C22.1938383,57.3210162 17.4801027,62.0323326 14.9268293,68.4122402 C14.9268293,68.5103926 14.7304236,68.608545 14.534018,68.7066975 C13.8465982,68.0196305 13.1591784,67.3325635 12.4717587,66.6454965 C11.7843389,66.056582 11.6861361,65.369515 12.0789474,64.5842956 C12.6681643,63.3083141 13.1591784,62.0323326 13.944801,60.756351 C16.3998716,56.5357968 20.0333761,53.3949192 23.9614891,50.5484988 C30.737484,45.73903 38.2008986,42.3036952 45.6643132,38.8683603 C51.6546855,36.2182448 57.6450578,33.4699769 63.5372272,30.721709 C63.9300385,30.5254042 64.5192555,30.1327945 64.5192555,29.7401848 C64.6174583,28.2678984 64.5192555,26.8937644 64.5192555,25.3233256 C64.1264442,25.4214781 63.8318357,25.4214781 63.63543,25.5196305 C55.28819,29.2494226 46.9409499,32.8810624 38.5937099,36.7090069 C31.2284981,40.1443418 24.0596919,43.9722864 17.6765083,49.1743649 C13.7483954,52.3152425 10.3112965,55.8487298 8.44544288,60.756351 C8.44544288,60.8545035 8.24903723,60.8545035 8.1508344,60.9526559 C7.85622593,60.4618938 7.65982028,60.0692841 7.36521181,59.6766744 C6.0885751,57.9099307 6.18677792,56.2413395 7.26700899,54.278291 C9.91848524,49.4688222 13.8465982,45.9353349 18.3639281,42.9907621 C27.3003851,37.1016166 36.8260591,32.5866051 46.6463415,28.4642032 C52.1456996,26.108545 57.6450578,23.7528868 63.1444159,21.3972286 C63.5372272,21.2009238 64.1264442,20.9064665 64.224647,20.6120092 C64.3228498,19.1397229 64.3228498,17.6674365 64.3228498,15.9988453 C47.1373556,24.243649 29.1662388,30.3290993 13.3555841,41.5184758 C13.3555841,39.5554273 13.3555841,37.886836 13.3555841,36.2182448 C13.4537869,31.408776 15.7124519,28.0715935 20.2297818,26.2066975 C20.4261874,26.108545 20.6225931,26.0103926 20.9172015,25.9122402 C28.3806162,22.6732102 35.8440308,19.5323326 43.3074454,16.2933025 C43.7002567,16.0969977 44.1912709,15.8025404 44.1912709,15.5080831 C44.2894737,14.1339492 44.1912709,12.8579677 44.1912709,11.2875289 C40.8523748,12.7598152 37.8080873,14.0357968 34.6655969,15.4099307 C33.9781772,15.704388 33.5853659,15.704388 33.1925546,15.017321 C32.0141207,12.9561201 30.148267,11.8764434 27.8896021,11.3856813 C25.5327343,10.8949192 23.0776637,10.9930716 20.8189987,11.778291 C16.9890886,13.0542725 13.1591784,14.330254 9.52567394,16.0969977 C3.63350449,18.943418 1.27663671,24.4399538 0.196405648,30.5254042 C0.392811297,32.6847575 0.196405648,34.647806 0,36.5127021 Z M0.589216945,12.5635104 C14.7304236,5.69284065 29.3626444,4.12240185 44.682285,5.79099307 C44.682285,5.20207852 44.682285,4.61316397 44.682285,4.12240185 C44.682285,1.1778291 44.682285,1.1778291 41.7362003,0.981524249 C34.1745828,0.3926097 26.7111682,0.58891455 19.2477535,1.86489607 C13.1591784,2.94457275 7.26700899,4.61316397 1.57124519,7.0669746 C1.17843389,7.26327945 0.687419769,7.65588915 0.589216945,8.04849885 C0.491014121,9.61893764 0.589216945,10.9930716 0.589216945,12.5635104 Z M63.5372272,9.42263279 C63.5372272,8.73556582 63.4390244,8.2448037 63.5372272,7.852194 C63.7336329,6.57621247 63.1444159,6.2817552 62.0641849,6.37990762 C60.9839538,6.47806005 59.9037227,6.37990762 58.627086,6.37990762 C59.6091142,4.80946882 60.3947368,3.5334873 61.2785623,2.15935335 C60.3947368,1.5704388 59.6091142,1.07967667 58.7252888,0.490762125 C57.7432606,1.9630485 56.8594352,3.33718245 55.8774069,4.90762125 C54.7971759,3.33718245 53.9133504,1.9630485 52.9313222,0.490762125 C52.0474968,1.07967667 51.1636714,1.5704388 50.3780488,2.15935335 C51.2618742,3.5334873 52.0474968,4.80946882 53.029525,6.2817552 C51.4582798,6.2817552 50.279846,6.2817552 49.0032092,6.2817552 C48.7086008,6.2817552 48.1193838,6.6743649 48.1193838,6.87066975 C48.021181,7.65588915 48.1193838,8.44110855 48.1193838,9.42263279 C49.7888318,9.42263279 51.360077,9.42263279 53.029525,9.42263279 C52.0474968,10.8949192 51.2618742,12.1709007 50.4762516,13.4468822 C51.360077,14.0357968 52.2439024,14.5265589 53.1277279,15.017321 C54.1097561,13.5450346 54.9935815,12.1709007 55.9756098,10.6004619 C57.0558408,12.1709007 57.9396662,13.5450346 58.9216945,15.017321 C59.8055199,14.4284065 60.6893453,13.9376443 61.4749679,13.3487298 C60.5911425,11.9745958 59.8055199,10.6986143 58.9216945,9.22632794 C60.3947368,9.42263279 61.8677792,9.42263279 63.5372272,9.42263279 Z" id="Shape" fill="#FFFFFF" fill-rule="nonzero"></path>
                        <path d="M0,36.6041658 C0.294854801,34.6400945 0.393139734,32.6760232 0.786279468,30.8101555 C1.7691288,24.6233311 4.12796721,19.2221351 10.1233482,16.3742318 C13.7598907,14.6065676 17.5930031,13.3299213 21.4261155,12.053275 C23.686669,11.2676465 26.1437923,11.2676465 28.5026307,11.6604607 C30.7631842,12.1514786 32.6305979,13.2317177 33.8100171,15.2939926 C34.2031569,16.0796211 34.6945815,15.9814175 35.2842911,15.6868068 C38.3311241,14.3119569 41.4762419,13.0353106 44.8179297,11.5622572 C44.8179297,13.0353106 44.9162146,14.4101605 44.8179297,15.7850104 C44.8179297,16.0796211 44.2282201,16.3742318 43.9333653,16.5706389 C36.4637103,19.8113565 28.9940554,22.9538705 21.5244004,26.1945881 C21.3278306,26.2927916 21.1312607,26.3909952 20.8364059,26.4891988 C16.4135839,28.3550665 14.0547455,31.6939876 13.9564606,36.5059622 C13.9564606,38.1754228 13.9564606,39.8448833 13.9564606,41.8089546 C29.6820499,30.6137484 47.6681928,24.5251275 64.9663411,16.2760282 C64.9663411,17.9454888 65.064626,19.4185422 64.8680561,20.8915957 C64.8680561,21.1862064 64.1800616,21.480817 63.7869219,21.6772242 C58.2829656,24.0341097 52.7790093,26.4891988 47.275053,28.7478807 C37.4465597,32.8724304 27.9129211,37.4879978 18.9689922,43.282008 C14.4478852,46.2281149 10.5164879,49.7634432 7.86279468,54.5754178 C6.78166041,56.5394891 6.68337548,58.2089496 7.96107961,59.9766138 C8.25593442,60.369428 8.45250428,60.8604458 8.74735908,61.2532601 C8.94392895,61.1550565 9.04221388,61.1550565 9.04221388,61.056853 C10.9096276,56.2448784 14.3496003,52.7095501 18.2809976,49.4688325 C24.6695183,44.3622472 31.8443185,40.4341047 39.2156885,36.99698 C47.4716229,33.167041 55.9241272,29.5335092 64.2783465,25.8017738 C64.4749164,25.7035703 64.6714863,25.7035703 65.1629109,25.6053667 C65.1629109,27.1766237 65.2611959,28.6496771 65.1629109,30.024527 C65.1629109,30.4173413 64.5732013,30.8101555 64.1800616,31.0065627 C58.1846806,33.7562624 52.1892997,36.4077586 46.2922037,39.1574584 C38.8225487,42.5945831 31.2546089,46.0317078 24.5712334,50.8436824 C20.639836,53.5933822 17.1015784,56.8340997 14.5461702,61.056853 C13.8581756,62.2352957 13.366751,63.6101456 12.6787564,64.8867919 C12.2856167,65.6724204 12.3839016,66.3598454 13.0718962,66.9490667 C13.7598907,67.6364917 14.4478852,68.3239166 15.1358798,69.0113416 C15.3324496,68.8149344 15.4307346,68.8149344 15.5290195,68.7167309 C18.0844278,62.3334993 22.8021046,57.6197282 28.3060609,53.6915857 C34.2031569,49.4688325 40.6899625,46.4245221 47.275053,43.4784152 C52.9755792,40.9251225 58.7743902,38.3718299 64.4749164,35.8185372 C64.6714863,35.7203337 64.8680561,35.7203337 65.2611959,35.5239266 C65.2611959,37.0951836 65.3594808,38.4700335 65.2611959,39.9430869 C65.2611959,40.2376976 64.6714863,40.6305118 64.2783465,40.7287154 C58.2829656,43.3802116 52.1892997,46.0317078 46.1939188,48.7814076 C40.4933926,51.3347002 34.9894363,54.2808071 29.9769047,58.1107461 C25.3575128,61.6460743 21.6226854,65.8688275 19.3621319,71.2700235 C18.9689922,72.1538556 19.0672771,72.6448734 19.8535566,73.0376876 C20.639836,73.5287055 21.4261155,74.1179268 22.212395,74.6089447 C22.3106799,74.7071482 22.4089648,74.7071482 22.6055347,74.8053518 C22.7038196,74.7071482 22.9003895,74.5107411 22.9003895,74.4125375 C26.2420772,66.7526596 31.9426034,61.1550565 39.2156885,57.4233211 C46.8819133,53.4951786 54.744708,49.9598503 62.5092177,46.3263185 C63.3937821,45.9335042 64.1800616,45.54069 65.1629109,45.1478757 C65.1629109,46.5227256 65.2611959,47.7993719 65.1629109,49.0760183 C65.1629109,49.4688325 64.5732013,49.8616468 64.1800616,50.0580539 C58.6761053,52.6113465 53.0738641,54.968232 47.5699078,57.5215247 C42.9505159,59.6820031 38.429409,62.2352957 34.4980117,65.5742169 C31.1563239,68.5203237 28.6992006,72.055652 27.2249266,76.2784052 C26.9300718,77.2604409 27.1266417,77.7514587 28.0112061,78.0460694 C28.7974855,78.3406801 29.583765,78.8316979 30.3700445,79.2245121 C30.5666143,79.028105 30.6648993,78.8316979 30.7631842,78.6352907 C33.0237377,72.5466698 37.1517049,68.0293059 42.7539461,64.9849955 C48.3561873,61.940685 54.1549984,59.2891888 59.8555245,56.5394891 C61.4280834,55.7538605 63.0989273,55.0664356 64.9663411,54.5754178 C64.4749164,55.9502677 63.9834917,57.3251176 63.4920671,58.6999674 C63.3937821,58.9945781 62.8040725,59.2891888 62.5092177,59.3873924 C57.4966861,61.940685 52.4841545,64.3957741 47.5699078,66.9490667 C44.42479,68.6185273 41.4762419,70.484395 38.9208337,73.0376876 C37.1517049,74.9035553 35.7757158,76.9658302 34.9894363,79.6173264 C43.6385105,75.0017589 51.5995901,69.4041558 60.2486642,64.7885884 C60.0520944,65.083199 59.8555245,65.4760133 59.6589546,65.770624 C55.2361326,72.3502627 49.2407517,77.1622373 42.3608063,80.9921763 C39.903683,82.3670261 37.3482747,83.5454689 34.7928665,84.7239117 C34.2031569,85.0185223 33.3185925,85.1167259 32.6305979,84.8221152 C23.588384,81.1885834 15.4307346,76.2784052 8.94392895,68.8149344 C4.42282201,63.511942 1.37598907,57.5215247 0.786279468,50.5490717 C0.786279468,50.254461 0.687994535,50.0580539 0.589709601,49.7634432 C0,45.2460793 0,40.9251225 0,36.6041658 Z M30.1734746,17.7490816 C30.1734746,17.6508781 30.2717595,17.454471 30.2717595,17.3562674 C29.4854801,16.767046 28.6992006,15.9814175 27.7163513,15.6868068 C26.635217,15.3921961 25.2592279,15.195789 24.0798087,15.4903997 C19.5587018,16.4724353 15.2341647,17.9454888 11.4993372,20.8915957 C6.58509055,24.7215346 4.81596174,30.1227306 4.61939188,36.0149444 C4.42282201,40.9251225 4.61939188,45.9335042 4.61939188,50.8436824 C4.61939188,51.1382931 4.71767681,51.4329038 4.71767681,51.7275145 C5.99538094,49.9598503 7.27308508,48.2903898 8.45250428,46.5227256 C8.84564402,46.0317078 9.04221388,45.3442829 9.14049882,44.7550615 C9.23878375,41.710751 9.33706868,38.6664406 9.33706868,35.7203337 C9.43535362,30.1227306 12.0890468,25.9981809 17.1998634,23.5430919 C19.263847,22.5610562 21.4261155,21.5790206 23.4900991,20.6951885 C25.7506526,19.7131529 27.9129211,18.7311173 30.1734746,17.7490816 Z" id="Shape" fill="#D3D3D3" fill-rule="nonzero"></path>
                        <path d="M0.0440773011,12.4390244 C0.0440773011,10.921626 -0.0550966264,9.59390246 0.0440773011,8.17134149 C0.0440773011,7.7919919 0.639120866,7.41264231 1.03581658,7.22296752 C6.68873044,4.75719518 12.73834,3.14495942 18.8871235,2.19658544 C26.424342,0.963699271 33.9615605,0.774024476 41.5979529,1.34304886 C44.5731707,1.53272366 44.5731707,1.53272366 44.5731707,4.37784559 C44.5731707,4.85203258 44.5731707,5.32621956 44.5731707,5.99008135 C29.102038,4.28300819 14.2259489,5.89524395 0.0440773011,12.4390244 Z" id="Path" fill="#D3D3D3"></path>
                        <path d="M64.2682927,9.76351351 C62.6208111,9.76351351 61.1671509,9.76351351 59.4227586,9.76351351 C60.2949547,11.2343441 61.1671509,12.5090639 61.9424363,13.8818392 C61.0702402,14.372116 60.2949547,14.9604483 59.4227586,15.5487805 C58.4536518,14.0779499 57.5814556,12.7051747 56.5154381,11.1362887 C55.5463313,12.7051747 54.6741352,14.0779499 53.7050284,15.5487805 C52.8328322,14.9604483 52.0575468,14.4701714 51.08844,13.9798945 C51.9606361,12.6071193 52.7359216,11.4304548 53.6081177,9.95962426 C51.9606361,9.95962426 50.4100652,9.95962426 48.7625836,9.95962426 C48.7625836,8.97907053 48.6656729,8.19462755 48.7625836,7.41018457 C48.7625836,7.21407383 49.3440477,6.82185234 49.6347797,6.82185234 C50.8946186,6.72379697 52.0575468,6.82185234 53.6081177,6.82185234 C52.6390109,5.25296638 51.8637254,4.07630191 50.9915293,2.7035267 C51.7668147,2.21324984 52.6390109,1.6249176 53.511207,1.03658537 C54.4803138,2.50741595 55.35251,3.88019117 56.4185275,5.44907713 C57.3876343,3.88019117 58.3567411,2.50741595 59.2289372,1.03658537 C60.1011334,1.6249176 60.8764188,2.11519446 61.748615,2.7035267 C60.8764188,4.07630191 60.1011334,5.35102175 59.1320266,6.91990771 C60.4887761,6.91990771 61.5547936,7.01796309 62.5239004,6.91990771 C63.5899179,6.82185234 64.2682927,7.11601846 63.9775606,8.3907383 C64.171382,8.58684904 64.2682927,9.07712591 64.2682927,9.76351351 Z" id="Path" fill="#D3D3D3"></path>
                        <path d="M30.8996554,18.003869 C28.7226942,18.9843153 26.4467802,19.8667171 24.269819,20.8471634 C22.0928578,21.8276098 20.0148494,22.7100115 17.936841,23.6904579 C12.7912963,26.1415737 10.218524,30.1614038 10.0206184,35.8479927 C9.92166561,38.8873764 9.92166561,41.9267601 9.82271283,44.8680992 C9.82271283,45.456367 9.52585449,46.1426794 9.13004336,46.6329026 C7.94260997,48.397706 6.65622381,50.0644649 5.36983764,51.8292683 C5.36983764,51.5351344 5.27088486,51.2410005 5.27088486,50.9468666 C5.27088486,46.0446348 5.07297929,41.0443584 5.27088486,36.1421266 C5.5677432,30.2594484 7.34889328,24.8669935 12.1975796,21.0432527 C15.9577853,18.1999583 20.3117077,16.6312441 24.8635357,15.6507977 C26.0509691,15.4547085 27.3373553,15.5527531 28.5247886,15.846887 C29.4153637,16.1410209 30.2069859,16.925378 31.097561,17.5136458 C30.9986082,17.8077797 30.8996554,17.9058244 30.8996554,18.003869 Z" id="Path" fill="#FFFFFF"></path>
                    </g>
                </g>
            </g>
        </g>
    </g>
</svg>