<?xml version="1.0" encoding="UTF-8"?>
<svg width="85px" height="85px" viewBox="0 0 85 85" version="1.1" xmlns="http://www.w3.org/2000/svg" xmlns:xlink="http://www.w3.org/1999/xlink">
    <!-- Generator: Sketch 52.2 (67145) - http://www.bohemiancoding.com/sketch -->
    <title>rvce</title>
    <desc>Created with Sketch.</desc>
    <g id="Page-1" stroke="none" stroke-width="1" fill="none" fill-rule="evenodd">
        <g id="Artboard-Copy-40" transform="translate(-392.000000, -1115.000000)">
            <g id="Group-26" transform="translate(392.000000, 1111.000000)">
                <g id="Group-25" transform="translate(0.000000, 4.000000)">
                    <g id="rvce">
                        <circle id="Oval" fill="#D3D3D3" cx="42.5" cy="42.5" r="29.9074074"></circle>
                        <path d="M23.0864198,20.7641246 C31.4281709,22.5535512 38.0742615,21.2288842 43.0246914,16.7901235 L42.7720367,71.3580247 C30.2189893,62.8302205 23.657117,53.7355703 23.0864198,44.0740741 L23.0864198,20.7641246 Z" id="Path-25" fill="#F1EFEF"></path>
                        <path d="M43.0246914,16.7901235 C47.9727518,21.0507142 54.4805737,22.2765516 62.5481572,20.4676358 L62.962963,44.5836716 C61.0378389,55.2591362 54.3917484,64.1839206 43.0246914,71.3580247 L43.0246914,16.7901235 Z" id="Path-26" fill="#E1E1E1"></path>
                        <g id="Group" transform="translate(42.500000, 42.500000) scale(-1, 1) rotate(-180.000000) translate(-42.500000, -42.500000) ">
                            <path d="M40.045267,84.9708038 C37.561311,84.8345546 33.4798304,84.1727731 31.2783635,83.5304557 C29.7879899,83.1022441 29.4373138,82.9951912 29.0379326,82.84921 C28.7944075,82.7616213 28.3852854,82.61564 28.1125372,82.5377834 C27.615746,82.3820701 26.8949118,82.0998397 26.3591565,81.8662698 C26.2033005,81.7981452 25.8039193,81.6229677 25.4824662,81.4769865 C22.51146,80.1631555 18.6832455,77.8955805 16.5207426,76.1827341 C13.9198946,74.1098008 10.9683704,71.1999084 9.26369471,69.0101901 C9.18576667,68.9031372 8.94224158,68.6014426 8.72793949,68.3386764 C8.51363741,68.0759102 8.2506303,67.7255553 8.13373825,67.569842 C7.11093284,66.0808335 6.7602567,65.535837 6.05890442,64.348523 C5.62055925,63.5991527 5.22117809,62.917907 5.17247307,62.8400504 C5.12376805,62.7621937 4.90946596,62.3437142 4.68542287,61.9155026 C4.47112079,61.487291 4.2470777,61.0688115 4.19837268,60.9909549 C4.02303461,60.6892604 3.51650241,59.5311427 3.51650241,59.4046256 C3.51650241,59.336501 3.47753839,59.2391802 3.42883337,59.1807877 C3.29245932,59.0542707 2.57162503,57.2149073 2.18198487,56.0275933 C1.63648865,54.3342111 1.19814348,52.6019006 0.691611277,50.1883444 C0.136374055,47.4828257 -0.165597066,41.9452714 0.116892047,39.5317151 C0.17533807,39.0548431 0.253266101,38.2373483 0.301971121,37.7312801 C0.633165253,34.2471949 1.81182672,29.4979391 3.08789824,26.5685826 C3.16582627,26.3934051 3.28271831,26.1014426 3.36064634,25.9359973 C3.43857438,25.7608198 3.57494843,25.4201969 3.67235847,25.1768949 C3.76976851,24.9335929 3.90614256,24.6708267 3.97432959,24.5832379 C4.04251662,24.5053813 4.10096264,24.3885963 4.10096264,24.3399359 C4.10096264,24.1842226 5.14325006,22.1988779 5.82512033,21.0407602 C6.53621361,19.8534463 8.08503323,17.5080147 8.47467339,17.0408747 C8.61104744,16.8754294 8.94224158,16.4569499 9.21498969,16.116327 C9.47799679,15.7757041 9.72152189,15.4740096 9.7507449,15.4448134 C9.77996791,15.4156171 10.042975,15.1139226 10.3352051,14.7635677 C11.0755214,13.8876803 11.4749026,13.4497367 12.7704561,12.1845661 C13.9491176,11.0167163 14.2121247,10.7831463 14.913477,10.2089535 C15.1570021,10.0143119 15.4200092,9.79047401 15.5076782,9.70288528 C15.5953472,9.62502862 15.8875774,9.38172659 16.1700665,9.16762079 C16.4428146,8.953515 16.8519367,8.63235631 17.0662388,8.45717884 C17.446138,8.1652164 19.1897777,6.94870621 19.5696768,6.73460041 C19.6573459,6.67620792 19.920353,6.51076254 20.1443961,6.36478131 C20.3781802,6.21880009 20.5924822,6.10201511 20.6314463,6.10201511 C20.6606693,6.10201511 20.7678203,6.04362262 20.8457483,5.96576597 C21.3522805,5.5278223 25.7357323,3.36730021 27.1579189,2.85149989 C27.3624799,2.78337531 27.9274582,2.5790016 28.4047674,2.41355622 C32.2134999,1.04133272 35.8955994,0.360087016 41.4090076,0.00973208152 C42.392849,-0.0486604076 47.1367179,0.204373712 48.0328902,0.360087016 C48.3251203,0.408747424 49.1433647,0.544996565 49.8349759,0.661781543 C50.5363282,0.76883444 51.3448315,0.924547744 51.6370617,0.992672315 C51.9292918,1.07052897 52.523493,1.21651019 52.9520972,1.32356309 C54.8321109,1.78097092 56.8484987,2.41355622 58.0076782,2.92935654 C58.3193903,3.06560568 58.6213614,3.18239066 58.6603255,3.18239066 C58.9330736,3.18239066 63.3554893,5.39157316 64.2029567,5.95603389 C64.3880358,6.08255095 64.7679349,6.30638883 65.030942,6.45237005 C66.2096035,7.12388367 68.0701352,8.49610717 70.3397891,10.3743989 C71.1775155,11.0653767 73.6809535,13.5470575 74.5673848,14.568926 C75.4245932,15.5518663 77.52865,18.3060453 77.9864772,19.0456835 C78.1325923,19.2889856 78.3955994,19.7074651 78.5709374,19.9702313 C79.3891818,21.2256698 81.5419436,25.3618044 81.5419436,25.663499 C81.5419436,25.7608198 81.6101306,25.8873368 81.6880587,25.9554614 C81.7659867,26.023586 81.8341737,26.140371 81.8341737,26.2182276 C81.8341737,26.2960843 81.9023608,26.500458 81.9802888,26.6659034 C82.1751089,27.094115 82.613454,28.2814289 82.7011231,28.6317838 C82.7400871,28.7972292 82.8277561,29.011335 82.8764612,29.1183879 C83.1199862,29.5855278 83.8700435,32.4467598 84.2012377,34.1790703 C84.8246619,37.3906572 84.980518,39.1132356 84.990259,42.5 C85,45.9256927 84.7856979,47.9986261 84.1038276,51.3561942 C83.9187486,52.290474 83.7336695,53.0982368 83.7044465,53.1468972 C83.6752235,53.1955576 83.6167774,53.3999313 83.5778134,53.5848409 C83.5388494,53.7794825 83.3829934,54.3731395 83.2173963,54.9084039 C82.7693101,56.3974124 82.603713,56.8450882 81.9315838,58.4606137 C80.9672244,60.767117 80.1684621,62.3923746 79.2430667,63.9203114 C79.0579876,64.222006 78.9118726,64.4945042 78.9118726,64.5237005 C78.9118726,64.5528967 78.7852395,64.7670025 78.6293835,65.0005725 C77.8793262,66.139226 77.392276,66.8691321 77.2559019,67.0637738 C76.9636718,67.4822533 75.9603484,68.8252805 75.9019024,68.8739409 C75.8629383,68.9031372 75.7363053,69.0588505 75.6096722,69.2145638 C74.4797158,70.6938402 71.8788678,73.3506984 70.008595,74.9467598 C68.7617465,76.0075567 66.5213156,77.7009389 65.8004813,78.1194184 C65.5764382,78.2556675 65.021201,78.5865583 64.5828558,78.8493245 C63.2093743,79.6765514 62.7612881,79.9198534 61.3780656,80.6010992 C59.4688288,81.5548431 57.6472611,82.3334097 56.7510887,82.5961759 C56.5952326,82.6448363 56.1276645,82.7908175 55.7282833,82.9367987 C53.3904424,83.7348294 50.4389182,84.3674147 47.0587898,84.7858942 C45.8996104,84.9318754 41.4479716,85.0486604 40.045267,84.9708038 Z M45.5976392,84.0559881 C46.8737107,83.9683994 48.9095806,83.7348294 49.7375659,83.569384 C52.445565,83.0438516 53.6339675,82.7421571 55.6795783,82.0609114 C57.2186569,81.535379 57.7251891,81.3602015 57.9492322,81.2434165 C58.0369012,81.1947561 58.3583543,81.058507 58.6505845,80.941722 C59.3811598,80.6497596 60.3747421,80.2020838 60.8423103,79.9587818 C62.2255329,79.2386077 63.3067843,78.6546828 63.8815036,78.3043279 C65.089388,77.5646897 66.9888838,76.2995191 67.446711,75.9102359 C67.6902361,75.7058621 68.2162503,75.2873826 68.6058904,74.9856881 C70.5053862,73.5161438 73.0867522,70.9566064 74.8303919,68.8252805 C77.3630529,65.7304786 79.5742608,61.9933593 81.1035984,58.2659721 C81.3568645,57.6528509 81.5906486,57.0786581 81.6296127,57.0008015 C81.6977997,56.8742844 82.408893,54.674834 82.7693101,53.477788 C82.8472381,53.2247538 83.0420582,52.3877948 83.1979143,51.6286925 C83.9771946,47.9207694 84.2109787,45.4974811 84.1427917,41.8187543 C84.0746046,38.5974353 83.8992666,36.767804 83.3927344,34.3737119 C83.2855833,33.8968399 83.1394683,33.1474697 83.0517992,32.7289902 C82.9641302,32.3007786 82.8764612,31.9212274 82.8374971,31.872567 C82.8082741,31.8239066 82.7303461,31.5514083 82.6621591,31.27891 C82.2530369,29.6633845 81.0354114,26.3058163 80.7529223,26.0138539 C80.7042173,25.9554614 80.6652533,25.8581406 80.6652533,25.7802839 C80.6652533,25.6051065 79.0092826,22.3059308 78.4540454,21.3813831 C76.3012835,17.7999771 73.4471694,14.3158919 70.3884942,11.5519808 C68.2552143,9.62502862 65.4108412,7.56182734 63.2775613,6.39397756 C62.9561082,6.21880009 62.449576,5.94630181 62.1573459,5.78085642 C61.3975476,5.36237692 59.6344259,4.50595374 58.8454045,4.17506297 C58.6603255,4.09720632 58.4265414,3.99015342 58.3388723,3.9512251 C58.2414623,3.90256469 57.8907862,3.77604763 57.559592,3.65926265 C57.2186569,3.54247767 56.9069448,3.41596061 56.8484987,3.37703229 C56.7608297,3.3186398 55.4847582,2.90016029 53.7313775,2.36489581 C53.3027733,2.23837875 52.7767591,2.10212961 52.562457,2.06320128 C52.3481549,2.02427296 51.9292918,1.93668422 51.6370617,1.85882757 C49.5914508,1.35275933 46.6399267,1.0024044 43.3766904,0.875887337 C40.045267,0.749370277 35.1845061,1.32356309 31.9115288,2.22864667 C31.5413706,2.32596748 31.0543204,2.46221662 30.8400183,2.52060911 C30.070479,2.72498283 27.528077,3.59113808 27.430667,3.67872681 C27.381962,3.72738722 27.2845519,3.76631555 27.2163649,3.76631555 C27.1481779,3.76631555 26.8072427,3.90256469 26.4760486,4.05827799 C26.1351135,4.22372338 25.8234013,4.35024044 25.7844373,4.35024044 C25.7454733,4.35024044 25.024639,4.69086329 24.1869127,5.1093428 C22.8134311,5.7905885 22.2874169,6.08255095 21.6834747,6.47183421 C21.5763236,6.5302267 21.3815036,6.64701168 21.2451295,6.70540417 C20.4755902,7.08495535 16.3259225,9.9559194 16.0823974,10.2868102 C16.0531744,10.3257385 15.7317213,10.6079689 15.3518221,10.9193955 C14.5433188,11.6006412 11.9229888,14.208839 10.9975934,15.2501717 C10.120903,16.2428441 8.70845748,18.1406 7.62720605,19.7561255 C7.13041485,20.4957637 6.73103369,21.1088848 6.73103369,21.128349 C6.73103369,21.1478131 6.45828558,21.6344172 6.12709145,22.2183421 C5.79589732,22.802267 5.44522118,23.4543165 5.34781114,23.6684223 C5.2504011,23.8825281 5.12376805,24.1258301 5.07506303,24.2036867 C4.93868898,24.4177925 4.04251662,26.4031372 3.76976851,27.0746508 C3.2534953,28.3787497 2.47421499,30.8506984 2.12353885,32.2910465 C1.58778364,34.4710327 1.45140958,35.2495993 1.07151043,38.1692237 C0.905913362,39.4830547 0.837726335,44.4756125 0.97410039,45.7602473 C1.04228742,46.3539043 1.13969746,47.2492558 1.18840248,47.755324 C1.39296356,49.6141516 1.80208572,51.696817 2.38654595,53.7892146 C2.95152418,55.7940234 4.04251662,58.8109686 4.30552372,59.0834669 C4.35422874,59.1418594 4.39319276,59.2489123 4.39319276,59.3267689 C4.39319276,59.5019464 5.4939262,61.7500572 5.90304836,62.4021067 C6.06864543,62.674605 6.39009856,63.2390657 6.62388265,63.6575452 C6.85766674,64.0857568 7.12067385,64.5431646 7.20834288,64.6794138 C7.30575292,64.8156629 7.56876003,65.2146783 7.80254412,65.5650332 C8.66949347,66.8594 9.06887463,67.4238608 9.70203988,68.2121594 C10.062457,68.6598351 10.5105432,69.2145638 10.7053633,69.4578658 C11.3385285,70.2461644 15.2349301,74.0708725 16.0629154,74.7131898 C18.6832455,76.756927 18.7319505,76.7861232 20.7970433,78.0512938 C23.1154022,79.4819098 25.5993582,80.69842 27.9664222,81.5743073 C28.1515013,81.6424319 28.4826954,81.7689489 28.6969975,81.8468056 C29.2230117,82.0414472 30.7718313,82.5280513 31.6874857,82.7908175 C33.6162044,83.326082 37.7074261,83.9975956 39.6069218,84.0851843 C41.1265185,84.1533089 44.4579418,84.1435768 45.5976392,84.0559881 Z" id="Shape" fill="#D3D3D3" fill-rule="nonzero"></path>
                            <g id="V" transform="translate(44.375000, 34.375000)" fill="#C4C4C4">
                                <path d="M0.287502865,18.6453801 C0.268020857,18.625916 0.248538849,18.509131 0.248538849,18.392346 C0.248538849,18.2560969 0.3751719,18.1003836 0.618696997,17.9446703 C1.02781916,17.6819041 1.35901329,17.078515 1.74865345,15.9106652 C1.8752865,15.5116499 2.18699862,14.6162984 2.43052372,13.9155885 C2.68378982,13.2246107 2.98576094,12.3487234 3.122135,11.9691722 C3.24876805,11.5993531 3.44358813,11.0446245 3.56048017,10.752662 C3.66763122,10.4606996 3.85271029,9.93516716 3.96960234,9.58481223 C4.15468141,9.00088734 4.42742952,8.26124914 4.6319906,7.78437715 C4.67095462,7.67732425 4.73914165,7.50214678 4.75862365,7.39509389 C4.78784667,7.28804099 4.90473871,6.95715022 5.02163076,6.66518777 C5.13852281,6.37322533 5.26515586,6.00340623 5.31386088,5.83796084 C5.35282489,5.68224754 5.59634999,4.98153767 5.84961609,4.2808278 C6.10288219,3.58985001 6.3658893,2.84047973 6.42433532,2.62637394 C6.48278134,2.41226815 6.58993239,2.13976986 6.65811941,2.02298489 C6.89190351,1.60450538 6.80423447,1.29307877 6.32692528,0.874599267 C6.01521316,0.592368903 5.89832111,0.436655599 5.94702613,0.319870621 C6.02495416,0.115496909 6.23925625,0.066836501 6.72630644,0.164157316 C7.24257965,0.261478131 10.0285068,0.25174605 10.535039,0.154425235 C11.3143193,0.00844401191 11.5091394,0.436655599 10.8662331,0.864867186 C10.4960749,1.10816922 10.4765929,1.14709755 10.4765929,1.60450538 C10.4765929,1.88673575 10.583744,2.39280398 10.729859,2.80155141 C10.8662331,3.18110259 11.1876862,4.11538241 11.4409523,4.86475269 C11.6942184,5.61412297 12.2202326,7.15179185 12.6001318,8.27098122 C13.3209661,10.3828429 14.1781744,12.8450595 14.4314405,13.5263052 C14.5191096,13.740411 14.6165196,14.0518376 14.6554836,14.217283 C14.7041886,14.3924605 14.7723757,14.57737 14.8113397,14.6454946 C14.8503037,14.7136192 14.9184907,14.8985287 14.9671957,15.0737062 C15.2399438,16.1831635 15.8341451,17.5456549 16.1458572,17.7889569 C16.2724903,17.8765457 16.4770513,18.0419911 16.6134254,18.149044 C16.8082455,18.2950252 16.8374685,18.3631498 16.7497994,18.4993989 C16.6621304,18.6551122 16.4283463,18.6745764 14.2950665,18.6745764 C11.8500745,18.6843084 11.8403335,18.6843084 11.8403335,18.2852931 C11.8403335,18.2074365 11.9961895,18.0711873 12.1812686,17.9933307 C12.8436569,17.7208324 12.8339159,17.6429757 11.8403335,14.7914758 C11.4604343,13.7014827 11.2266502,13.0007728 11.1584632,12.7477387 C11.1097582,12.5920254 10.9831251,12.2124742 10.8662331,11.9205118 C10.749341,11.6285493 10.612967,11.2198019 10.564262,11.0154282 C10.515557,10.8110545 10.4376289,10.5774845 10.3889239,10.4801637 C10.2622909,10.2271296 10.0772118,9.68213304 9.97980174,9.24418937 C9.92135572,9.03981566 9.85316869,8.81597779 9.80446367,8.7575853 C9.76549966,8.70892489 9.64860761,8.39749828 9.56093857,8.07633959 C9.46352854,7.7551809 9.31741348,7.3367014 9.24922645,7.15179185 C9.18103942,6.9668823 9.06414738,6.52893863 9.00570135,6.19804786 C8.88880931,5.60439089 8.71347124,5.37082093 8.52839216,5.55573048 C8.47968714,5.60439089 8.3725361,5.9644779 8.29460807,6.35376116 C8.20693903,6.73331234 8.09978799,7.13232768 8.05108297,7.21991642 C8.00237795,7.31723723 7.8757449,7.67732425 7.76859386,8.02767918 C7.65170181,8.37803412 7.47636374,8.90356652 7.35947169,9.19552897 C7.25232065,9.48749141 7.00879555,10.1882013 6.82371648,10.752662 C6.6288964,11.3171227 6.43407632,11.9107797 6.3756303,12.066493 C6.04443617,12.9521124 5.66453702,13.9934452 5.45997593,14.5968342 C5.33334288,14.9763854 5.13852281,15.521382 5.02163076,15.8133444 C4.46639354,17.2828887 4.41768852,17.4775303 4.57354458,17.7111003 C4.65147261,17.8278853 4.85603369,17.9835986 5.02163076,18.0517232 C5.26515586,18.149044 5.31386088,18.2269006 5.29437887,18.4215422 L5.26515586,18.6745764 L2.80068187,18.6745764 C1.43694132,18.6843084 0.306984873,18.6648443 0.287502865,18.6453801 Z" id="Path"></path>
                            </g>
                            <g id="R" transform="translate(25.000000, 34.375000)">
                                <path d="M5.93742837,18.8302897 C11.4898006,18.752433 11.2560165,18.7816293 12.590534,18.1198477 C14.1393537,17.3510133 14.938116,15.9690577 14.938116,14.0615697 C14.947857,13.1662182 14.7335549,12.2416705 14.3926198,11.6090852 C13.8958286,10.7040016 12.434678,9.60427639 11.5482466,9.47775933 C11.1099014,9.40963476 11.0806784,9.16633272 11.4508366,8.59213991 C12.0450378,7.67732425 12.2203759,7.3367014 12.7074261,6.12992329 C12.8827642,5.7017117 13.0775842,5.22483971 13.1457713,5.05939432 C13.3795554,4.52412984 13.5646344,3.99859744 13.8763466,3.0156572 C14.2172817,1.94512823 14.5387348,1.50718457 15.3180151,1.04977673 C15.8148063,0.757814289 15.9998854,0.475583925 15.8050653,0.280942294 C15.7076553,0.183621479 15.4251662,0.173889398 14.3633967,0.25174605 C12.9801742,0.349066865 11.4995416,0.310138539 10.9832684,0.154425235 C10.7592253,0.0863006641 10.6228512,0.0960327456 10.5059592,0.183621479 C10.2721751,0.358798947 10.3793262,0.57290474 10.8566353,0.874599267 C11.0709374,1.01084841 11.2462755,1.14709755 11.2462755,1.18602588 C11.2462755,1.21522212 11.1391245,1.46825624 11.0124914,1.74075452 C10.8761174,2.02298489 10.7494843,2.37333982 10.7105203,2.52905313 C10.3890672,3.98886535 9.40522576,6.56786696 8.58698143,8.11526792 L8.05122622,9.13713648 L6.14198946,9.14686856 C4.92436397,9.14686856 4.19378868,9.11767232 4.13534265,9.04954774 C4.09637864,9.00088734 4.08663763,8.7575853 4.13534265,8.51428326 C4.17430667,8.27098122 4.21327069,6.54840279 4.22301169,4.67011106 C4.22301169,2.80155141 4.22301169,1.20549004 4.22301169,1.14709755 C4.23275269,1.07897298 4.40809076,0.932991756 4.62239285,0.82593886 C5.30426312,0.475583925 5.07047903,0.00844401191 4.29119872,0.154425235 C3.68725647,0.271210213 1.45656658,0.261478131 0.959775384,0.134961072 C0.579876232,0.0376402565 0.492207197,0.047372338 0.355833142,0.183621479 C0.151272061,0.37826311 0.277905111,0.611833066 0.687027275,0.82593886 C0.842883337,0.903795512 0.998739399,1.02058049 1.03770342,1.0692409 C1.15459546,1.21522212 1.13511345,17.7013682 1.01822141,17.9933307 C0.969516388,18.1393119 0.823401329,18.2658289 0.677286271,18.3047573 C0.394797158,18.3728818 0.19997708,18.6745764 0.277905111,18.8984142 C0.326610131,19.0054671 0.404538162,19.0249313 0.609099244,18.9762709 C0.755214302,18.9373426 3.15150126,18.869218 5.93742837,18.8302897 Z" id="Path" fill="#C4C4C4"></path>
                                <path d="M4.12560165,15.9885219 C4.11586065,15.9203973 4.12560165,15.8230765 4.13534265,15.764684 C4.15482466,15.7160236 4.17430667,14.7233513 4.17430667,13.5749657 L4.18404767,11.4825681 L6.76541371,11.5117644 C10.2234701,11.5506927 10.9637864,11.6869418 11.5677286,12.3973838 C11.9086638,12.8061312 12.0840018,13.8766602 11.9184048,14.4605851 C11.5287646,15.8036123 10.9637864,15.9885219 6.84334174,16.0663785 C4.68083887,16.1053068 4.13534265,16.0858427 4.12560165,15.9885219 Z" id="Path" fill="#F1EFEF"></path>
                            </g>
                            <g id="rsst" transform="translate(4.375000, 46.250000)" fill="#D3D3D3" fill-rule="nonzero">
                                <path d="M64.1627034,23.7917907 C63.9971063,23.6166132 63.9971063,23.587417 64.1529624,23.353847 C64.3380415,23.0716167 64.4744155,23.0521525 64.7763867,23.2662583 C65.0393938,23.4511678 65.0588758,23.7528624 64.8056097,23.8891115 C64.5231206,24.0350927 64.3575235,24.0058965 64.1627034,23.7917907 Z" id="Shape"></path>
                                <path d="M12.8568359,23.2954545 C12.4477137,22.99376 12.1944476,22.5071559 12.1944476,22.0302839 C12.1944476,21.1057362 13.2562171,19.9962789 14.1426484,19.9962789 C14.4835835,19.9962789 14.6004756,20.0644035 15.0680438,20.5120792 C15.564835,20.9889512 15.603799,21.0570758 15.603799,21.4755553 C15.603799,22.0108198 15.535612,22.2346577 15.3602739,22.2346577 C15.1167488,22.2346577 14.9219287,21.9329631 14.9219287,21.5728761 C14.9219287,21.3685024 14.8537417,21.1154683 14.7758137,20.9986833 C14.4933245,20.599668 13.7530083,20.5315434 13.5289652,20.8916304 C13.4412961,21.0181475 13.5776702,21.1933249 14.2205764,21.8161782 C14.6589216,22.2443897 15.0193388,22.633673 15.0193388,22.6920655 C15.0193388,22.8185826 14.7758137,23.0229563 14.3082455,23.2857225 C13.8309363,23.5582207 13.207512,23.5582207 12.8568359,23.2954545 Z M14.0549794,22.8185826 C14.1523894,22.7601901 14.2400584,22.6726013 14.2400584,22.6142088 C14.2400584,22.5071559 13.226994,21.5339478 13.051656,21.4658232 C12.9055409,21.4171628 12.7789079,21.6604649 12.7789079,22.0205519 C12.7789079,22.6434051 13.5094832,23.1008129 14.0549794,22.8185826 Z" id="Shape"></path>
                                <path d="M63.2860131,22.750458 C63.188603,22.5947447 62.9937829,22.3709068 62.8574089,22.2346577 C62.7210348,22.0984085 62.3216537,21.6896611 61.9807185,21.3393062 C61.3572943,20.6969888 61.3572943,20.6872567 61.5228914,20.4439547 C61.7469344,20.0935997 61.8930495,20.122796 62.2437256,20.6094 C62.4093227,20.8332379 62.8671499,21.3490382 63.2665311,21.7675177 C64.0555524,22.5752805 64.1529624,22.7407259 63.9873653,22.9061713 C63.7925453,23.1008129 63.4613511,23.0229563 63.2860131,22.750458 Z" id="Shape"></path>
                                <path d="M65.2926599,22.3514426 C65.1173218,22.156801 64.9712067,22.0886764 64.7081996,22.0886764 C64.3770055,22.0886764 64.3575235,22.0692123 64.3575235,21.7675177 C64.3575235,21.5047515 64.2308904,21.319842 63.5100562,20.599668 C62.9937829,20.0838676 62.6528478,19.6556561 62.6528478,19.5388711 C62.6528478,19.2371766 63.032747,18.808965 63.2762721,18.8478933 C63.4516101,18.8770895 63.4808331,18.9452141 63.4808331,19.3150332 C63.4808331,19.7237806 63.5197972,19.7919052 64.1432214,20.3855622 C64.5133796,20.7359171 64.8543147,21.0376116 64.9030197,21.0570758 C64.9614657,21.0668079 65.0783578,21.0181475 65.1757678,20.9305587 C65.4290339,20.7067209 65.58489,20.9208267 65.506962,21.3879666 C65.4679979,21.6215365 65.4874799,21.7480536 65.555667,21.7480536 C65.623854,21.7480536 65.740746,21.8551065 65.8186741,21.9816235 C65.9550481,22.1762652 65.9550481,22.2541218 65.8478971,22.4195672 C65.6823,22.6920655 65.575149,22.6726013 65.2926599,22.3514426 Z" id="Shape"></path>
                                <path d="M8.8825063,21.4463591 C8.8825063,21.3393062 8.93282289,21.2809137 8.98313947,21.3101099 C9.04351937,21.3393062 9.08377263,21.436627 9.08377263,21.5144836 C9.08377263,21.5923403 9.04351937,21.6507328 8.98313947,21.6507328 C8.93282289,21.6507328 8.8825063,21.563144 8.8825063,21.4463591 Z" id="Shape"></path>
                                <path d="M66.6953644,21.0084154 C66.5395084,20.8721662 66.2277962,20.5899359 66.0134942,20.3952943 C65.7991921,20.2006526 65.1952498,19.7140485 64.6789766,19.3247653 C63.5100562,18.4488779 63.4808331,18.4099496 63.6269482,18.1569155 C63.7730633,17.8649531 64.0360704,17.9038814 64.4257105,18.2737005 C65.7699691,19.5096748 66.1303862,19.6556561 66.6564004,19.1301237 C66.9778535,18.808965 67.0168176,18.45861 66.7635515,18.2445042 C66.3641703,17.9038814 65.3121419,17.1155828 65.1368038,17.018262 C64.7666457,16.8138883 65.0101708,16.1521067 65.3900699,16.3272842 C65.614113,16.4343371 67.2408606,17.8844172 67.4551627,18.1666476 C67.6012778,18.3612892 67.6305008,18.5072704 67.5817958,18.7700366 C67.5038678,19.1593199 67.0460406,19.6751202 66.7148464,19.7237806 C66.3641703,19.772441 66.4713213,20.0254752 66.9875945,20.366098 C67.3674937,20.6288642 67.4746447,20.7553813 67.4746447,20.9500229 C67.4746447,21.319842 67.0850046,21.3490382 66.6953644,21.0084154 Z" id="Shape"></path>
                                <path d="M10.1975418,20.5704717 C9.35981549,19.8308335 9.34033349,18.935482 10.1293548,18.1179872 C11.2008652,17.0085299 12.3503037,17.1642432 13.061397,18.5267346 C13.217253,18.7992329 13.032174,19.5875315 12.7983899,19.6848523 C12.5646058,19.772441 12.3892677,19.4220861 12.4477137,19.0230708 C12.5646058,18.3126288 11.6489514,17.6995077 11.0839732,18.1179872 C10.9475991,18.215308 10.8404481,18.3126288 10.8404481,18.3418251 C10.8404481,18.3710213 11.1716422,18.7408404 11.5710234,19.1593199 C12.0678146,19.6848523 12.2918577,19.9962789 12.2723757,20.1325281 C12.2334116,20.4244905 11.4443903,20.8527021 10.9573401,20.8624342 C10.626146,20.8721662 10.4702899,20.8137738 10.1975418,20.5704717 Z M11.2593113,20.1909205 C11.4054263,20.1422601 11.5125774,20.0254752 11.5125774,19.9281543 C11.5125774,19.7043165 10.4800309,18.6045913 10.3533979,18.6824479 C10.1878008,18.7797687 10.1196138,19.4026219 10.2365058,19.6848523 C10.3339159,19.9184223 10.7527791,20.2785093 10.9475991,20.2882414 C10.9865631,20.2882414 11.1229372,20.249313 11.2593113,20.1909205 Z" id="Shape"></path>
                                <path d="M8.52208916,18.5656629 C8.44416113,18.5364667 8.39545611,18.3418251 8.39545611,18.0887909 C8.39545611,17.738436 8.3662331,17.6605793 8.21037703,17.6605793 C7.99607495,17.6605793 7.77203186,17.4172773 7.84021889,17.2518319 C7.85970089,17.1837074 8.14219001,16.9501374 8.45390213,16.7360316 C9.16499542,16.2591596 9.72997364,15.8406801 10.0611678,15.5389856 C10.4021029,15.237291 10.7722611,15.2762194 10.8112251,15.6168422 C10.8307071,15.8212159 10.743038,15.9185368 10.3241749,16.191035 C9.03836237,17.027994 8.72665024,17.4367415 9.03836237,17.9038814 C9.18447742,18.1374513 9.15525441,18.5364667 8.97991634,18.5364667 C8.93121132,18.5364667 8.84354229,18.5559308 8.76561426,18.575395 C8.69742723,18.6045913 8.58053518,18.5948592 8.52208916,18.5656629 Z" id="Shape"></path>
                                <path d="M69.0332054,18.1861117 C68.8383853,17.9914701 68.8773493,17.6703114 69.1013924,17.5243302 C69.3546585,17.3686169 69.8027447,17.5632585 69.8417087,17.855221 C69.9098957,18.2737005 69.3546585,18.4975384 69.0332054,18.1861117 Z" id="Shape"></path>
                                <path d="M67.9227309,17.2226357 C67.7960979,17.0863865 67.2895657,16.7068354 66.8025155,16.3856767 C65.9063431,15.7822876 65.701782,15.5584497 65.7991921,15.2859515 C65.9160841,14.9842569 66.3057243,15.1399702 67.1337096,15.7920197 C67.5915368,16.1521067 68.137033,16.5316579 68.3318531,16.6387108 C68.6922702,16.8236203 68.8773493,17.1545111 68.7409752,17.3588848 C68.6240832,17.5535264 68.166256,17.4659377 67.9227309,17.2226357 Z" id="Shape"></path>
                                <path d="M6.1258022,16.6192466 C6.08683818,16.5900504 6.05761517,16.4343371 6.05761517,16.2786238 C6.05761517,16.0547859 6.1160612,15.9769292 6.34984529,15.8990726 C6.58362938,15.8114839 6.64207541,15.7336272 6.64207541,15.5195214 C6.64207541,15.1691665 6.85637749,14.9745248 7.03171556,15.1788986 C7.16808962,15.3346119 7.47980174,15.3735402 7.55772977,15.237291 C7.67462182,15.0621136 9.25266445,14.0597092 9.42800252,14.0597092 C9.66178661,14.0597092 10.0124628,14.3030112 10.1488368,14.5463133 C10.2267648,14.6922945 10.2072828,14.7798832 10.0416858,14.9453286 C9.8663477,15.1205061 9.81764268,15.1302381 9.68126862,15.0037211 C9.59359959,14.9258644 9.46696654,14.8382757 9.41826152,14.8090795 C9.35981549,14.7798832 8.94095233,15.0134532 8.49286615,15.3151477 C7.71358584,15.8406801 7.66488082,15.8990726 7.69410383,16.181303 C7.73306784,16.5608541 7.49928375,16.6971033 7.23627664,16.4538012 C7.01223355,16.2494275 6.97326954,16.2591596 6.73948545,16.4927296 C6.54466537,16.6873712 6.25243525,16.7457637 6.1258022,16.6192466 Z" id="Shape"></path>
                                <path d="M70.8645141,15.6557706 C70.659953,15.5681818 70.718399,15.2664873 71.0203702,14.8188115 C71.5561254,14.0110488 71.6145714,14.0889054 69.8222267,13.203286 C68.9357953,12.7653423 68.166256,12.4052553 68.117551,12.4052553 C68.059105,12.4052553 67.9714359,12.3176666 67.9129899,12.2008816 C67.8253209,12.0354362 67.8350619,11.9575796 67.9714359,11.8115984 C68.166256,11.5974926 68.5169322,11.6266888 68.7896803,11.8699908 C68.8676083,11.9381154 69.4423275,12.2592741 70.0560108,12.5707007 C70.669694,12.8918594 71.3028593,13.2227502 71.4489743,13.320071 C71.5950894,13.4173918 71.7314634,13.4855164 71.7509455,13.4660522 C71.7704275,13.446588 71.8775785,13.2130181 71.9944705,12.9405198 C72.3159237,12.1911495 72.3451467,12.1619533 72.6763408,12.132757 C72.9393479,12.1035608 72.9783119,12.132757 72.9783119,12.3273987 C72.9783119,12.4539157 72.8321969,12.8042707 72.6471178,13.1059652 C72.4620387,13.4076597 72.1503266,14.0013167 71.9555065,14.4197962 C71.7606865,14.8382757 71.5463844,15.2859515 71.4684563,15.4222006 C71.3418233,15.6655026 71.0982982,15.7530914 70.8645141,15.6557706 Z" id="Shape"></path>
                                <path d="M6.20373023,14.3808679 C5.73616204,14.2640829 5.27833486,13.6120334 5.27833486,13.0378406 C5.27833486,12.8529311 5.22962984,12.6972178 5.17118382,12.6972178 C5.1127378,12.6972178 4.8692127,12.8334669 4.6256876,12.9891802 C4.10941439,13.3395351 3.83666628,13.3589993 3.72951524,13.0670369 C3.6126232,12.7653423 3.70029223,12.6972178 4.79128467,12.2008816 C5.29781687,11.9770437 5.78486706,11.7240096 5.8725361,11.655885 C5.95046413,11.5877605 6.05761517,11.529368 6.09657919,11.529368 C6.1355432,11.529368 6.50570135,11.3347264 6.93430552,11.0914243 C7.3629097,10.8481223 7.75254985,10.6534807 7.81099587,10.6534807 C7.8694419,10.6534807 7.96685194,10.7605335 8.02529796,10.8967827 C8.17141302,11.2179414 8.06426198,11.3152622 7.22653564,11.6850813 C6.22321224,12.1132929 5.89201811,12.366327 5.83357208,12.726414 C5.77512606,13.1448935 5.92124112,13.5147126 6.19398923,13.6704259 C6.44725533,13.796943 6.71026243,13.6898901 8.03503896,12.9113236 C8.52208916,12.6290932 8.63898121,12.5901649 8.84354229,12.6874857 C8.97017534,12.7458782 9.07732638,12.8723952 9.07732638,12.9794481 C9.07732638,13.1351614 8.78509626,13.3103389 7.76229085,13.8066751 C7.04145657,14.1667621 6.43751433,14.4392604 6.41803232,14.4392604 C6.40829131,14.4295283 6.31088127,14.4100641 6.20373023,14.3808679 Z" id="Shape"></path>
                                <path d="M70.9327011,11.4709755 C70.582025,11.2860659 69.9683417,11.0135677 69.5689606,10.8578544 C68.7701983,10.5464278 68.5851192,10.3712503 68.7507163,10.098752 C68.8870903,9.87491413 69.1695794,9.8359858 69.4715505,10.0111633 C69.8904137,10.2447332 70.4748739,10.5366957 70.8645141,10.692409 C71.3028593,10.8675864 71.4781973,10.809194 71.8386145,10.3517861 C72.0139526,10.1182162 72.1211036,10.0598237 72.2769597,10.1084841 C72.7153048,10.2544653 72.6178948,10.7702656 72.1211036,10.9551752 C71.9457655,11.0232997 71.8970605,11.1108885 71.9068015,11.3152622 C71.9555065,11.9381154 71.8580965,11.9575796 70.9327011,11.4709755 Z" id="Shape"></path>
                                <path d="M4.54775957,10.9454431 C4.21656544,10.809194 3.80744327,10.3031257 3.71977424,9.9430387 C3.55417717,9.18393634 3.94381733,8.51242272 4.55750057,8.51242272 C5.02506876,8.51242272 5.21988884,8.62920769 5.57056498,9.14500801 C5.89201811,9.60241585 6.24269425,9.97223494 6.35958629,9.97223494 C6.52518336,9.97223494 6.73948545,9.65107625 6.73948545,9.40777422 C6.73948545,9.02822304 6.39855031,8.51242272 6.14528421,8.51242272 C5.66797502,8.51242272 5.34652189,8.03555072 5.72642104,7.8895695 C6.20373023,7.70465995 6.66155741,7.92849782 7.03171556,8.53188688 C7.45057873,9.21313259 7.44083773,9.77759331 6.99275155,10.2252691 C6.41803232,10.7994619 5.93098212,10.6534807 5.27833486,9.69000458 C4.90817671,9.1547401 4.67439262,9.00875887 4.45034953,9.19366842 C4.1191554,9.47589879 4.44060853,10.3128578 4.90817671,10.3809824 C5.16144281,10.4199107 5.32703988,10.6729448 5.24911185,10.8870506 C5.18092482,11.052496 4.8692127,11.0816922 4.54775957,10.9454431 Z" id="Shape"></path>
                                <path d="M72.0529166,9.39804213 C71.8386145,9.30072132 71.3710463,9.12554385 71.0203702,9.00875887 C70.669694,8.8919739 70.2410898,8.6778681 70.0657518,8.53188688 C69.7735217,8.28858484 69.7345576,8.21072819 69.7442986,7.79224868 C69.7540397,7.26671628 69.9488597,6.90662926 70.2605719,6.80930845 C70.4553919,6.74118388 70.4748739,6.65359515 70.3384999,6.19618731 C70.2605719,5.91395695 70.591766,5.84583238 71.0398522,6.05993817 C71.2736363,6.17672315 71.9262835,6.42002519 72.4912617,6.60493474 C73.4945851,6.93582551 73.7965563,7.14019922 73.6894052,7.40296542 C73.6017362,7.6268033 73.173132,7.55867873 72.2964417,7.19859171 C71.8483555,7.01368216 71.3515643,6.85796886 71.2054492,6.85796886 C70.8645141,6.85796886 70.4846149,7.21805587 70.4066869,7.60733913 C70.3677229,7.86037325 70.3969459,7.95769407 70.611248,8.12313946 C70.747622,8.23019235 70.9327011,8.31778109 71.0203702,8.31778109 C71.1080392,8.31778109 71.4392333,8.42483398 71.7606865,8.55135104 C72.0821396,8.6778681 72.4717797,8.82384932 72.6373768,8.86277765 C72.9588299,8.96009847 73.065981,9.22286467 72.8809019,9.43697046 C72.7250458,9.62188001 72.5302258,9.62188001 72.0529166,9.39804213 Z" id="Shape"></path>
                                <path d="M3.28142906,7.56841081 C2.8625659,7.34457293 2.66774582,7.06234257 2.55085377,6.50761392 C2.42422072,5.90422487 2.48266674,5.61226242 2.81386088,5.26190749 C3.07686798,4.97967712 3.30091107,4.96021296 3.46650814,5.22297916 C3.54443617,5.34949622 3.51521316,5.45654912 3.33987509,5.69985116 C3.06712698,6.05993817 3.10609099,6.58547057 3.41780312,6.89689718 C3.58340018,7.06234257 3.65158721,7.07207465 3.8756303,6.96502175 C4.09967339,6.86770094 4.1288964,6.80930845 4.07045038,6.53681017 C4.03148636,6.3616327 3.98278134,5.98208152 3.94381733,5.68038699 C3.89511231,5.17431875 3.90485331,5.11592627 4.20682443,4.78503549 C4.47957254,4.4638768 4.56724158,4.42494848 4.97636374,4.42494848 C5.35626289,4.42494848 5.48289594,4.47360888 5.67771602,4.69744676 C5.8822771,4.93101672 5.91150011,5.04780169 5.91150011,5.69985116 C5.90175911,6.41029311 5.91150011,6.44922143 6.17450722,6.59520266 C6.3790683,6.71198763 6.44725533,6.82877261 6.44725533,7.05261049 C6.44725533,7.29591253 6.40829131,7.34457293 6.21347124,7.34457293 C6.08683818,7.34457293 5.93098212,7.27644836 5.8627951,7.19859171 C5.73616204,7.04287841 5.30755787,7.09153881 4.8692127,7.30564461 C4.72309764,7.38350126 4.52827756,7.44189375 4.43086752,7.44189375 C4.33345748,7.44189375 4.1288964,7.51001832 3.97304034,7.58787497 C3.64184621,7.76305244 3.64184621,7.76305244 3.28142906,7.56841081 Z M5.19066583,6.55627433 C5.44393193,6.38109686 5.47315494,6.30324021 5.47315494,5.8361003 C5.47315494,5.38842455 5.43419092,5.28137165 5.23937085,5.15485459 C4.97636374,4.97967712 4.56724158,5.07699794 4.46983154,5.33976414 C4.41138551,5.48574536 4.46983154,6.37136478 4.55750057,6.64386306 C4.60620559,6.81904053 4.8692127,6.78984429 5.19066583,6.55627433 Z" id="Shape"></path>
                                <path d="M72.8029739,5.69011907 C72.5010028,5.56360202 72.3938517,5.22297916 72.3938517,4.38602015 C72.3938517,3.82155942 72.3548877,3.64638196 72.2087726,3.51013281 C71.9944705,3.31549118 71.7801685,3.38361575 71.5658664,3.71450653 C71.3126003,4.09405771 71.3418233,4.55146554 71.6437944,4.90182047 C71.9262835,5.24244332 71.8970605,5.49547744 71.5756074,5.49547744 C71.2151902,5.49547744 70.737881,4.86289215 70.737881,4.37628807 C70.737881,3.94807648 71.1859672,3.13058163 71.5269024,2.94567209 C71.8970605,2.73156629 72.1211036,2.72183421 72.4912617,2.91647584 C72.8321969,3.09165331 72.9783119,3.52959698 72.9783119,4.38602015 C72.9783119,4.79476757 73.027017,5.01860545 73.124427,5.10619418 C73.3484701,5.29110373 73.6407002,5.12565835 73.7673333,4.74610717 C73.8647433,4.43468056 73.8550023,4.34709183 73.6504412,3.96754065 C73.4751031,3.65611404 73.4458801,3.52959698 73.5335492,3.44200824 C73.7381102,3.23763453 74.1082684,3.43227616 74.3420525,3.87995191 C74.5563546,4.26923517 74.5660956,4.33735974 74.4492035,4.726643 C74.2738655,5.3105679 73.7770743,5.78743989 73.3582111,5.77770781 C73.173132,5.77770781 72.9296069,5.73877948 72.8029739,5.69011907 Z" id="Shape"></path>
                                <path d="M1.32348728,4.24003893 C0.826696081,4.02593313 0.612393995,3.47120449 0.290940866,1.57344859 C0.154566812,0.804614152 0.203271831,0.726757499 0.836437085,0.726757499 C1.04099817,0.726757499 1.49882535,0.658632929 1.85924249,0.580776277 C2.20991863,0.502919624 2.89178891,0.34720632 3.35935709,0.240153423 C4.70361563,-0.0615411037 4.97636374,-0.0128806961 4.84973069,0.483455461 C4.81076667,0.629436684 4.70361563,0.736489581 4.56724158,0.765685826 C4.45034953,0.785149989 4.03148636,0.863006641 3.64184621,0.931131211 L2.92101192,1.05764827 L2.96971694,1.34961072 C3.24246505,3.08192123 3.3788391,3.25709869 4.28475246,3.06245706 C5.1127378,2.8872796 5.31729888,2.94567209 5.35626289,3.34468743 C5.39522691,3.74370277 5.26859386,3.89941608 5.02506876,3.76316693 C4.89843571,3.70477444 4.65491061,3.70477444 4.29449347,3.77289902 C3.83666628,3.85075567 3.69055123,3.84102359 3.41780312,3.70477444 L3.09634999,3.54906114 L2.74567385,3.88968399 C2.3755157,4.24977101 1.73260944,4.4152164 1.32348728,4.24003893 Z M2.44370273,3.3057591 L2.68722782,3.07218915 L2.52163076,2.17683765 C2.43396172,1.69023357 2.34629269,1.26202198 2.31706968,1.24255782 C2.21965964,1.145237 0.972811139,1.34961072 0.92410612,1.47612778 C0.846178088,1.69023357 1.25530025,3.25709869 1.44037933,3.47120449 C1.66442242,3.71450653 2.1125086,3.64638196 2.44370273,3.3057591 Z" id="Shape"></path>
                                <path d="M74.2641245,2.94567209 C74.1959374,2.87754752 74.1472324,2.75103046 74.1472324,2.65370964 C74.1472324,2.46880009 73.8744843,2.38121136 72.7834919,2.18656973 C71.7996505,2.01139226 71.5366434,1.87514312 71.4684563,1.47612778 C71.3905283,1.06738035 71.5463844,0.726757499 71.8191325,0.726757499 C72.0139526,0.726757499 72.0431756,0.775417907 72.1405856,1.22309366 C72.1892906,1.45666361 72.2574777,1.48585986 72.7153048,1.54425235 C73.007535,1.58318067 73.4361391,1.67076941 73.6699232,1.73889398 C74.1959374,1.89460728 74.3420525,1.85567896 74.3420525,1.54425235 C74.3420525,1.33014655 74.3810165,1.30095031 74.6050596,1.33014655 C74.8193617,1.34961072 74.8875487,1.41773529 74.9265127,1.65130524 C74.9654767,1.89460728 75.0239228,1.95299977 75.2869299,1.97246393 C75.67657,2.01139226 75.8421671,2.20603389 75.7642391,2.52719258 C75.715534,2.71210213 75.637606,2.77049462 75.4330449,2.77049462 C75.2869299,2.77049462 75.1115918,2.72183421 75.0531458,2.66344172 C74.9849587,2.59531715 74.8680667,2.63424548 74.6635056,2.80942294 C74.4394625,2.99433249 74.3420525,3.02352874 74.2641245,2.94567209 Z" id="Shape"></path>
                                <path d="M34.6084976,34.4094916 C34.5013466,34.3413671 34.4916055,34.2051179 34.5403106,33.7963705 C34.5792746,33.5141401 34.6669436,32.4922716 34.7253896,31.5385276 C34.8227997,30.0592512 34.8715047,29.7770208 35.0176198,29.6894321 C35.2611449,29.5337188 35.524152,29.7380925 35.514411,30.0787154 C35.514411,30.2344287 35.4754469,30.7599611 35.4267419,31.2562972 L35.3488139,32.1516487 L35.650785,32.4436112 C36.0209432,32.8134303 36.4787703,32.8523586 36.6833314,32.5311999 C36.7710005,32.3852187 36.8489285,31.8791504 36.8878925,31.1200481 C36.9463385,30.1079116 36.9853025,29.9230021 37.1314176,29.8743417 C37.4918347,29.7575567 37.6866548,29.9716625 37.6282088,30.4096061 C37.6184678,30.4874628 37.5697628,31.0227273 37.5307988,31.5969201 C37.4333887,32.8134303 37.2775327,33.1248569 36.6541084,33.3194985 C36.3229143,33.4168193 36.2060222,33.4070872 35.9722381,33.2805702 C35.8163821,33.2027135 35.650785,33.0956606 35.621562,33.0372681 C35.592339,32.9886077 35.4949289,32.9399473 35.4170009,32.9399473 C35.3098499,32.9399473 35.2806269,33.0956606 35.2806269,33.621193 C35.2806269,34.1856538 35.2514039,34.3121708 35.0955478,34.3997596 C34.8617637,34.5165445 34.7838357,34.5165445 34.6084976,34.4094916 Z" id="Shape"></path>
                                <path d="M39.0698774,33.2708381 C38.5341222,32.9886077 38.2905971,32.4338791 38.6023092,32.2295054 C38.7386832,32.1419166 38.8360933,32.2003091 39.1185824,32.4922716 C39.4400355,32.8328944 39.4984815,32.8620907 39.8296757,32.7939661 C40.3069849,32.7063774 40.4628409,32.5701282 40.4238769,32.2684337 C40.3946539,32.0445958 40.3362079,32.0153996 39.7127836,31.9180788 C38.7971293,31.7818296 38.3782661,31.5287955 38.2808561,31.0616556 C38.193187,30.6529082 38.3003381,30.3122853 38.5925682,30.0203229 C38.8360933,29.7770208 39.6251146,29.7575567 40.1121648,29.9813946 C40.4141359,30.1273758 40.4628409,30.1273758 40.618697,30.0008587 C40.8524811,29.7867529 41.0473012,29.7380925 41.2518623,29.8451454 C41.4759053,29.9619304 41.4661643,30.1468399 41.2226392,30.3609457 C41.0473012,30.5263911 41.0278192,30.6237119 41.0765242,31.5482597 C41.0960062,32.1516487 41.0765242,32.6479849 41.0180782,32.784234 C40.7745531,33.3097664 39.6640786,33.5919968 39.0698774,33.2708381 Z M40.511546,31.3244218 C40.540769,31.2368331 40.501805,31.0324594 40.4238769,30.867014 C40.3069849,30.6237119 40.1803518,30.5263911 39.8296757,30.4388024 C39.2354744,30.273357 38.8847983,30.4193382 38.8847983,30.7988894 C38.8847983,31.1492443 39.0991004,31.3146897 39.6543376,31.3925464 C40.3849129,31.4898672 40.4433589,31.4898672 40.511546,31.3244218 Z" id="Shape"></path>
                                <path d="M27.4878237,32.7647699 C27.4878237,32.5603962 27.5267878,32.3560224 27.5754928,32.307362 C27.6241978,32.2489695 27.7508309,31.8791504 27.8677229,31.4801351 C27.9846149,31.0811198 28.140471,30.5361232 28.218399,30.273357 C28.2963271,30.0203229 28.3645141,29.7186283 28.3645141,29.6213075 C28.3645141,29.5239867 28.4034781,29.3488093 28.4521831,29.2222922 C28.5008882,29.0957751 28.5690752,28.8719373 28.6080392,28.725956 C28.6567442,28.4923861 28.7054492,28.4534578 28.9294923,28.482654 C29.1340534,28.5021182 29.2022404,28.5702427 29.2217224,28.7746164 C29.2412044,28.9205977 29.1827584,29.1444355 29.1048304,29.2612205 C28.8710463,29.5823792 28.9002693,30.1857683 29.1437944,30.2636249 C29.2899095,30.3122853 29.4652475,30.1857683 29.9328157,29.6894321 C30.4685709,29.1152393 30.565981,29.0471147 30.9069161,29.0471147 C31.4329303,29.0471147 31.4134483,29.319613 30.8776931,29.7478246 C30.4685709,30.0592512 29.9425567,30.516659 29.6698086,30.7794252 C29.5139526,30.9351385 29.5236936,30.9643348 30.0302258,31.6358484 C30.4296069,32.1613808 30.4977939,32.424147 30.2737509,32.5117357 C29.9328157,32.6479849 29.4457655,32.0932562 29.0950894,31.1687085 C28.8126003,30.4193382 28.6470032,30.5653194 28.4132191,31.7720975 C28.3742551,31.9570071 28.2865861,32.3462904 28.198917,32.6285207 C28.072284,33.0956606 28.03332,33.134589 27.7703129,33.134589 C27.5073058,33.134589 27.4878237,33.1053927 27.4878237,32.7647699 Z" id="Shape"></path>
                                <path d="M42.3038907,32.9691436 C42.2551857,32.8718228 42.1869986,32.4922716 42.1577756,32.1127204 C42.1188116,31.7429013 42.0408836,31.0421914 41.9824375,30.5750515 C41.8947685,29.8548775 41.8947685,29.6991642 42.0116606,29.6213075 C42.4305237,29.3585413 42.6058618,29.5921113 42.6545668,30.516659 C42.7032718,31.5774559 42.8299049,32.0251317 43.122135,32.2197733 C43.4533291,32.4338791 43.9403793,32.3560224 44.1644224,32.06406 C44.3202785,31.8499542 44.3300195,31.7526334 44.2520915,31.3341539 C44.1936454,31.0616556 44.1351994,30.516659 44.1254584,30.1176437 L44.0962354,29.3877376 L44.3884655,29.3877376 C44.6806956,29.3877376 44.6806956,29.3877376 44.7391416,30.0689833 C44.7683647,30.4485345 44.8268107,31.0811198 44.8657747,31.4801351 C44.9242207,32.1127204 44.9144797,32.2489695 44.7488826,32.5117357 C44.4956165,32.9107511 43.4825521,33.2124456 43.3169551,32.9399473 C43.229286,32.7939661 42.8201639,32.8231624 42.6837898,32.9886077 C42.5279338,33.1832494 42.4207827,33.1735173 42.3038907,32.9691436 Z" id="Shape"></path>
                                <path d="M31.7641245,32.7161095 C31.1699232,32.3170941 31.0140672,31.6455805 31.4134483,31.2465651 C31.5985274,31.0616556 31.7933475,31.0129952 32.4654767,30.9546027 C33.3519081,30.876746 33.5272462,30.7891573 33.5272462,30.4582665 C33.5272462,30.156572 33.3129441,30.0008587 32.8161529,29.9521983 C32.4362537,29.9035379 32.3485847,29.9424662 32.0368726,30.2149645 C31.3842253,30.7891573 31.1114772,30.2928212 31.7446424,29.6797 C32.0563546,29.3780055 32.1537646,29.3390772 32.6213328,29.3390772 C33.5564692,29.3390772 34.3649725,30.0884474 34.1409294,30.7599611 C33.9948143,31.2076368 33.6246562,31.4022785 32.8258939,31.470403 C32.0368726,31.5385276 31.8712755,31.6066522 31.8712755,31.8596863 C31.8712755,32.29763 32.6115918,32.4922716 33.040196,32.1711129 C33.6733612,31.703973 34.0240374,32.180845 33.4200951,32.6869132 C33.020714,33.0275361 32.2511747,33.0470002 31.7641245,32.7161095 Z" id="Shape"></path>
                                <path d="M25.8318531,32.5117357 C25.685738,32.3268262 25.9000401,31.8402221 26.1533062,31.7915617 C26.5234644,31.7137051 26.7767305,32.2489695 26.4942413,32.5311999 C26.3383853,32.6869132 25.9779681,32.6771811 25.8318531,32.5117357 Z" id="Shape"></path>
                                <path d="M46.5022634,32.2003091 C46.1515872,32.0153996 45.9567671,31.7331692 46.0346952,31.5190634 C46.1028822,31.343886 46.4827813,31.343886 46.7165654,31.5287955 C47.1451696,31.8499542 47.9439319,31.5969201 47.9439319,31.1492443 C47.9439319,30.7696932 47.7588529,30.6918365 47.0672416,30.8086215 C46.7263064,30.8572819 46.3269253,30.876746 46.1905512,30.8475498 C45.586609,30.6918365 45.1969688,29.9521983 45.4599759,29.4461301 C45.732724,28.9011335 46.6873424,28.5897069 47.1743926,28.8816693 C47.3497307,28.9789902 47.3984357,28.9692581 47.4373997,28.8622052 C47.5250688,28.6091711 47.8465219,28.365869 48.090047,28.365869 C48.4309821,28.365869 48.4894281,28.5897069 48.245903,28.9400618 C48.080306,29.1638997 48.060824,29.2806847 48.129011,29.4558621 C48.3140901,29.8938058 48.6258022,31.0324594 48.6258022,31.227101 C48.6258022,31.9570071 47.2620617,32.5798603 46.5022634,32.2003091 Z M47.6419608,30.1760362 C47.7880759,30.0008587 47.6322198,29.5823792 47.3692127,29.4461301 C47.0769826,29.2806847 46.3756303,29.319613 46.1710692,29.5045226 C45.9567671,29.6991642 45.9470261,29.9035379 46.1613282,30.1371079 C46.3561483,30.3609457 47.4666227,30.390142 47.6419608,30.1760362 Z" id="Shape"></path>
                                <path d="M23.5329762,31.6845088 C22.7244728,31.4801351 22.1302716,30.9643348 21.9744155,30.3414816 C21.8770055,29.9813946 22.2081996,29.2514884 22.5588758,29.0373826 C22.8900699,28.8330089 23.045926,28.8330089 24.4388895,29.0471147 C25.1889468,29.1638997 25.2668749,29.1638997 25.4422129,28.9984543 C25.8902991,28.599439 25.60781,27.9571216 24.8382707,27.6359629 C24.2830335,27.412125 23.9323573,27.4510534 23.5621992,27.7819441 C23.1823,28.1128349 23.08489,28.1322991 22.8803289,27.9279253 C22.6757678,27.7235516 22.7829189,27.4218571 23.162818,27.1298947 C24.0005444,26.4973094 25.4811769,26.8865926 26.1533062,27.8987291 C26.3773493,28.249084 26.3676083,28.6772956 26.1143422,29.1541676 C25.8123711,29.7575567 25.2084288,29.9521983 24.3609615,29.7283604 C24.1466594,29.6797 23.8057243,29.5823792 23.5816812,29.5239867 C23.2602281,29.4461301 23.143336,29.4558621 22.9485159,29.5823792 C22.4809477,29.8840737 22.5199118,30.3512136 23.045926,30.750229 C23.5524582,31.1395123 24.0005444,31.1687085 24.3707025,30.8572819 C24.7116376,30.5750515 24.9746447,30.5361232 25.1499828,30.750229 C25.539623,31.2173689 24.3707025,31.8888825 23.5329762,31.6845088 Z" id="Shape"></path>
                                <path d="M52.5611678,31.4412068 C52.2104916,31.2854935 51.7916285,30.7794252 51.6942184,30.3998741 C51.5870674,29.9911266 51.8598155,29.6115755 52.7657289,28.8914014 C53.6619012,28.1809595 53.8080163,27.9279253 53.5547502,27.5386421 C53.3501891,27.2369476 53.038477,27.1590909 52.5611678,27.285608 C51.9280025,27.4705175 51.3727653,28.0739066 51.4993983,28.4631898 C51.5286214,28.5702427 51.5286214,28.7454202 51.4993983,28.8622052 C51.4506933,29.0179185 51.3630243,29.0471147 51.1292402,29.0276506 L50.8175281,28.9984543 L50.8175281,28.4145294 C50.8175281,27.6846233 51.1000172,27.2661438 51.8598155,26.8865926 C52.6001318,26.5167735 53.16511,26.458381 53.5742322,26.7114152 C53.8956853,26.9157889 54.2366204,27.3731967 54.3340305,27.76248 C54.4411815,28.1517632 54.1099874,28.6772956 53.4475991,29.1833639 C52.4540167,29.9327341 52.4053117,29.9813946 52.4442757,30.273357 C52.5222038,30.9448706 53.3794121,31.0616556 54.0320594,30.4874628 C54.3242895,30.2344287 54.3729945,30.1371079 54.3729945,29.7672888 C54.3729945,29.3974697 54.4022175,29.3390772 54.6067786,29.2806847 C54.9574547,29.1930959 55.0548648,29.3001488 55.0548648,29.7283604 C55.0548648,30.2636249 54.9282317,30.5458553 54.4801455,30.9740669 C53.9054263,31.5287955 53.174851,31.703973 52.5611678,31.4412068 Z" id="Shape"></path>
                                <path d="M26.3189033,31.3341539 C26.2117522,31.1979047 26.2020112,31.1200481 26.3091623,30.867014 C26.3773493,30.6918365 26.6208744,30.0105908 26.8546585,29.3390772 C27.2637807,28.1712274 27.2832627,28.122567 27.5462698,28.122567 C27.9164279,28.122567 27.9553919,28.3561369 27.6826438,28.9887222 C27.3709317,29.7088963 27.3319677,29.796485 27.0689606,30.6529082 C26.8156945,31.470403 26.6013924,31.6650447 26.3189033,31.3341539 Z" id="Shape"></path>
                                <path d="M55.707512,28.239352 C55.512692,28.0933707 55.4542459,27.9765858 55.4932099,27.8500687 C55.571138,27.6651591 56.0776702,27.6164987 56.1848212,27.7916762 C56.3699003,28.0933707 57.2952957,27.5581063 57.2952957,27.1493588 C57.2952957,26.7600756 56.8569505,26.5654339 56.6231664,26.8379322 C56.5647204,26.9157889 56.2530083,27.052038 55.9315551,27.1493588 C55.2399438,27.3634646 54.9866777,27.2758759 54.6067786,26.7114152 C54.2853255,26.2442752 54.3145485,26.0009732 54.7431526,25.5532975 C55.0451238,25.2418708 55.2009798,25.1542821 55.59062,25.1056217 C55.9900011,25.0472292 56.1068932,24.9791046 56.2724903,24.7260705 C56.3991233,24.5314289 56.5647204,24.4146439 56.7400584,24.3951798 C56.9738425,24.3659835 57.0030656,24.3951798 57.0030656,24.6384818 C57.0030656,24.7941951 56.9641015,24.9596405 56.9153965,25.018033 C56.8569505,25.0666934 57.0420296,25.4462446 57.4024467,26.0204374 C58.181727,27.2758759 58.162245,27.5386421 57.2465906,28.1322991 C56.6134254,28.5313144 56.1166342,28.5702427 55.707512,28.239352 Z M56.0387062,26.5459698 C56.7400584,26.331864 56.8374685,26.2442752 56.6816124,25.9328486 C56.4867923,25.5532975 56.1166342,25.4754408 55.571138,25.6992787 C55.0451238,25.9133845 54.9184907,26.2053469 55.2107208,26.5265056 C55.4152819,26.7503435 55.3957999,26.7503435 56.0387062,26.5459698 Z" id="Shape"></path>
                                <path d="M18.3799851,27.5970346 C17.6688918,27.2661438 17.2792517,26.691951 17.4058847,26.1274903 C17.5227768,25.6116899 18.03905,25.8452599 18.03905,26.3999886 C18.03905,26.6432906 18.5650642,27.1006984 18.8572943,27.1006984 C18.9741863,27.1006984 19.1203014,27.052038 19.1884884,26.9839134 C19.3346035,26.8379322 19.3443445,26.4194527 19.2079704,26.4194527 C19.1495244,26.4194527 18.8865173,26.215079 18.6235102,25.971777 C17.9318989,25.3197275 17.8637119,24.8136593 18.3897261,24.2394665 C18.6235102,23.9961644 18.7014382,23.9669682 19.1300424,24.0058965 C19.6365746,24.0545569 19.9872507,24.307591 20.2502579,24.7941951 C20.3574089,25.0083009 20.4450779,25.0666934 20.649639,25.0472292 C21.0003152,25.0083009 21.3217683,25.1250859 21.3899553,25.3197275 C21.4678833,25.5241012 21.2828043,25.738207 21.0197972,25.738207 C20.747049,25.738207 20.600934,25.8452599 20.4743009,26.1274903 C20.2405168,26.6627548 19.6170926,27.5483742 19.3930495,27.6554271 C19.0715964,27.8208725 18.8378123,27.8111404 18.3799851,27.5970346 Z M19.8898407,25.9425807 C20.0554378,25.621422 19.9969917,25.2710671 19.7242436,24.9791046 C19.4027905,24.6482139 19.0813374,24.541161 18.8572943,24.7066064 C18.5845462,24.9109801 18.6624742,25.2905313 19.0715964,25.7187428 C19.4904595,26.1566865 19.7339846,26.2248111 19.8898407,25.9425807 Z" id="Shape"></path>
                                <path d="M58.9902303,26.3999886 C58.7272232,25.8939203 57.5972668,24.4049118 57.4316697,24.3367873 C57.3342597,24.2978589 57.2952957,24.190806 57.3147777,24.0156286 C57.3342597,23.8015228 57.4024467,23.7333982 57.6070078,23.7139341 C57.8310509,23.6847378 57.9187199,23.7723265 58.2693961,24.2783948 C58.9999713,25.3586558 59.2142734,25.5435654 59.6721006,25.5435654 C60.1201868,25.5435654 60.4124169,25.3294596 60.4124169,25.018033 C60.4124169,24.8623197 59.4967625,23.6555416 59.0194534,23.1786696 C58.8148923,22.9742959 58.8343743,22.633673 59.0681584,22.4974239 C59.2824605,22.3611747 59.4480575,22.5071559 60.0227768,23.353847 C60.2760429,23.7236661 60.578014,24.1129494 60.685165,24.2102702 C60.9773951,24.4730364 61.4547043,24.4535722 61.7469344,24.1518777 L62.0002006,23.9085757 L61.7761575,23.5290245 C61.6495244,23.3246508 61.2891073,22.8380467 60.9773951,22.4487635 C60.3929349,21.7091253 60.3344889,21.5728761 60.529309,21.3782345 C60.714388,21.1933249 60.9773951,21.2419853 61.1040282,21.4852874 C61.1624742,21.6020724 61.5131504,22.0984085 61.8833085,22.5850126 C62.4482867,23.3343829 62.5554378,23.5387566 62.5554378,23.8599153 C62.5554378,24.4827685 62.0489056,24.9596405 61.3865173,24.9596405 C61.1332512,24.9596405 61.0650642,25.018033 60.9384311,25.3294596 C60.743611,25.7771353 60.3442299,26.1177582 59.9935537,26.1274903 C59.7987337,26.1274903 59.7013236,26.1956148 59.6428776,26.3610602 C59.5649496,26.5459698 59.3603885,26.7114152 59.1850504,26.7114152 C59.1655684,26.7114152 59.0778994,26.5654339 58.9902303,26.3999886 Z" id="Shape"></path>
                                <path d="M16.3051513,26.2540073 C16.0616262,26.1566865 15.9739571,25.738207 16.1492952,25.4073162 C16.2272232,25.2418708 16.3928203,24.8428555 16.4999713,24.5216968 C16.6168634,24.2005381 16.7727195,23.8404511 16.8506475,23.7236661 C16.9285755,23.5971491 16.9675395,23.4317037 16.9285755,23.353847 C16.8701295,23.1981337 16.4025613,23.4998283 15.1751948,24.4633043 C14.7660727,24.7941951 14.4251375,24.8428555 14.2400584,24.6190176 C14.0647204,24.4049118 14.1718714,24.2297344 14.6491806,23.9961644 C14.8829647,23.8891115 15.555094,23.470632 16.1395542,23.0910808 C17.1915826,22.390371 17.2110646,22.3709068 17.2402876,21.9816235 C17.2597697,21.7188573 17.2208056,21.5436799 17.1136546,21.4560911 C16.8896115,21.2711816 16.9285755,20.9013625 17.1818416,20.8137738 C17.3474387,20.7651134 17.4545897,20.8235058 17.6688918,21.0570758 C18.029309,21.4658232 18.019568,21.8064461 17.6104458,23.0424204 C17.3474387,23.8501832 16.7824605,25.6506183 16.6168634,26.2053469 C16.5778994,26.331864 16.5194534,26.3415961 16.3051513,26.2540073 Z" id="Shape"></path>
                            </g>
                            <path d="M6.7505157,36.3201282 C6.40958056,36.0281658 6.11735045,35.3663842 6.20501948,35.0646897 C6.31217052,34.7046027 6.7407747,34.2082665 7.07196883,34.0720174 C8.10451524,33.6438058 9.20524868,34.8116556 8.72793949,35.8335242 C8.46493239,36.3687886 8.15322026,36.5634303 7.54927802,36.5634303 C7.14989686,36.5634303 6.97455879,36.5147699 6.7505157,36.3201282 Z" id="Shape" fill="#D3D3D3" fill-rule="nonzero"></path>
                            <path d="M76.7505157,36.3201282 C76.4095806,36.0281658 76.1173504,35.3663842 76.2050195,35.0646897 C76.3121705,34.7046027 76.7407747,34.2082665 77.0719688,34.0720174 C78.1045152,33.6438058 79.2052487,34.8116556 78.7279395,35.8335242 C78.4649324,36.3687886 78.1532203,36.5634303 77.549278,36.5634303 C77.1498969,36.5634303 76.9745588,36.5147699 76.7505157,36.3201282 Z" id="Shape" fill="#D3D3D3" fill-rule="nonzero"></path>
                            <g id="institutions" transform="translate(7.500000, 3.125000)" fill="#D3D3D3" fill-rule="nonzero">
                                <path d="M5.4944992,23.1516201 C5.32890213,23.0932276 5.33864314,22.9472464 5.51398121,22.7623368 C5.81595233,22.4703744 5.48475819,22.1978761 3.56578043,21.1857396 C3.19562228,20.9813659 2.68909008,20.6991356 2.45530598,20.5531543 C2.21178088,20.397441 1.89032776,20.2222636 1.72473069,20.154139 C1.44224158,20.0276219 1.40327756,20.037354 1.11104744,20.3195844 C0.57529223,20.8353847 0.39995416,20.4169052 0.877263351,19.7551237 C1.03311941,19.5507499 1.2571625,19.1420025 1.37405455,18.8597722 C1.65654366,18.2174548 1.90980976,18.1882585 1.90980976,18.8111117 C1.90980976,19.0446817 1.96825579,19.2782517 2.05592482,19.3561083 C2.13385285,19.433965 2.65986706,19.7356595 3.22484529,20.037354 C4.2573917,20.5726185 4.61780885,20.7672601 5.54320422,21.2927925 L6.05947742,21.584755 L6.31274353,21.3317209 C6.7413477,20.9035093 7.08228283,21.0689547 6.77057071,21.5458267 C6.67316067,21.6918079 6.43937658,22.1102874 6.2445565,22.4898386 C5.92310337,23.1321559 5.76724731,23.2684051 5.4944992,23.1516201 Z" id="Shape"></path>
                                <path d="M63.9015586,22.7136764 C63.3950264,22.1005553 63.2294293,21.70154 63.2294293,21.0884188 C63.2294293,20.6212789 63.2781343,20.4850298 63.5119184,20.1930673 C63.6775155,19.9984257 63.9697456,19.794052 64.1937887,19.7161953 C64.5834288,19.5896783 64.6321339,19.5994104 65.6451983,20.0081578 C66.9407518,20.5239581 67.612881,20.6115468 67.9538162,20.3001202 C68.3531973,19.9303011 68.4408664,19.5799462 68.2460463,19.1614667 C67.8856292,18.4120964 67.7687371,18.363436 66.4926656,18.4704889 C66.0056154,18.5191493 66.0835434,18.2369189 66.6582627,17.9157602 C67.486248,17.4486203 67.437543,17.4486203 67.9830392,17.9936169 C68.7330965,18.7721834 68.9181756,19.1906629 68.8499885,20.0276219 C68.7818015,20.7867243 68.6649095,20.9813659 68.0804492,21.2830605 C67.495989,21.584755 67.0771258,21.5166304 65.3042631,20.8256526 C64.973069,20.6991356 64.6029108,20.5920827 64.4762778,20.5920827 C63.8138895,20.5920827 63.5606234,21.5750229 64.0866376,22.0810911 C64.3301627,22.3146611 64.4080908,22.3341253 64.8464359,22.2854649 C65.6257163,22.188144 65.6744213,22.5482311 64.934105,22.9277822 C64.3983498,23.2002805 64.2911987,23.1808163 63.9015586,22.7136764 Z" id="Shape"></path>
                                <path d="M7.48166399,19.9400332 C7.36477195,19.8329803 7.40373596,19.5215537 7.56933303,19.2782517 C7.79337612,18.9376288 7.67648407,18.6456664 7.15046986,18.2563831 C6.90694476,18.0714736 6.63419665,17.8573678 6.56600963,17.7892432 C6.2445565,17.4680845 4.27687371,15.8233627 4.20868668,15.8233627 C4.16972267,15.8233627 4.05283062,15.8914873 3.94567958,15.9693439 C3.69241348,16.1542535 3.32225533,16.1542535 3.32225533,15.9693439 C3.32225533,15.8817552 3.5073344,15.6092569 3.7411185,15.3562228 C3.97490259,15.1031887 4.26713271,14.7528338 4.38402475,14.5873884 C4.60806784,14.2564976 4.73470089,14.2078372 4.96848499,14.3538184 C5.08537703,14.4316751 5.06589503,14.4997996 4.90029796,14.8014942 C4.78340591,14.9961358 4.68599587,15.2102416 4.68599587,15.2783662 C4.68599587,15.3464907 4.95874398,15.6384532 5.28993812,15.9304156 C5.63087325,16.2223781 6.27377951,16.816035 6.73160669,17.2539787 C7.54011002,18.0422773 7.86156314,18.2369189 7.76415311,17.8962961 C7.62777905,17.3804958 7.39399496,16.2418422 7.26736191,15.3854191 C7.02383681,13.8185539 6.81927573,12.6799004 6.72186569,12.3782059 C6.62445565,12.0765113 6.7413477,11.8332093 6.97513179,11.8332093 C7.04331882,11.8332093 7.31606693,12.0278509 7.56933303,12.271153 C8.03690121,12.6993646 10.4818932,14.7722979 10.8228283,15.025332 C10.9592024,15.1226529 11.0371304,15.1226529 11.2709145,14.9961358 C11.9917488,14.6263167 12.0599358,14.9864037 11.4170296,15.7065777 C11.1442815,16.0082723 10.8325693,16.3586272 10.7254183,16.4754122 C10.6182672,16.6116613 10.4818932,16.6700538 10.3844832,16.6408576 C10.1994041,16.5630009 10.1896631,16.1737177 10.3844832,16.0180044 C10.6669723,15.7844344 10.5208572,15.5411324 9.58572083,14.7236375 C9.05970662,14.2662297 8.47524639,13.7406973 8.29990832,13.5460556 C7.71544809,12.9426666 7.58881504,13.108112 7.84208114,14.1494447 C7.97845519,14.6847092 8.23172129,16.1542535 8.33887234,16.9425521 C8.35835434,17.1566579 8.42654137,17.5556732 8.48498739,17.8184394 C8.66032546,18.6262022 8.63110245,18.7819155 8.2609443,19.2879837 C7.68622507,20.0568182 7.63752006,20.0957465 7.48166399,19.9400332 Z" id="Shape"></path>
                                <path d="M61.2909695,18.723523 C61.1253725,18.4899531 60.8331423,18.1979906 60.6480633,18.0617415 C60.2194591,17.7503149 60.1999771,17.4778166 60.5896172,17.4778166 C60.7552143,17.4778166 60.9110704,17.5167449 60.9402934,17.5751374 C60.9695164,17.6237978 61.0864084,17.7113865 61.1838185,17.769779 C61.3396745,17.8573678 61.4857896,17.7600469 62.1286959,17.1566579 C62.547559,16.7576425 63.0833142,16.2710385 63.3268393,16.0569327 C64.1450837,15.3367586 64.1450837,15.3367586 64.0476736,15.2394378 C63.9794866,15.1713133 63.6093284,15.1713133 62.9274582,15.2394378 C60.7357323,15.4632757 58.5927114,15.6092569 58.4855604,15.5411324 C58.1348843,15.3464907 57.384827,14.5971204 57.384827,14.4414071 C57.384827,14.1591768 57.6575751,14.1202485 57.9692872,14.3538184 C58.4271144,14.6847092 58.6316755,14.6165846 59.2745817,13.945071 C59.6057758,13.6141802 60.2973871,12.9523987 60.8234013,12.4755267 C61.4857896,11.8624055 61.7682787,11.5412469 61.7682787,11.3855335 C61.7682787,11.2590165 61.7293147,11.1324994 61.6708687,11.1033032 C61.5247536,11.0157144 61.5539766,10.6653595 61.7195737,10.606967 C61.8169837,10.5680387 62.1092138,10.8016087 62.567041,11.2979448 C62.9566812,11.7164243 63.2878753,12.1057076 63.3073573,12.1738322 C63.3560623,12.3782059 63.0540912,12.4171342 62.8203071,12.2224926 C62.596264,12.0473151 62.420926,11.9889226 62.1968829,12.0181188 C62.1384369,12.0181188 61.7000917,12.39767 61.2227825,12.8550779 C60.7454733,13.3124857 60.1512721,13.8477502 59.898006,14.0423918 C59.6447399,14.2467655 59.4401788,14.4900676 59.4304378,14.5971204 C59.4304378,14.7625658 59.4791428,14.7722979 59.898006,14.7139054 C60.1512721,14.6749771 61.3201925,14.5873884 62.498854,14.5095317 C63.6775155,14.4316751 64.7782489,14.3440863 64.943846,14.305158 C65.1581481,14.2662297 65.2945221,14.2954259 65.4016732,14.4122109 C65.5964932,14.5971204 65.5088242,14.8404225 65.1581481,15.0642604 C65.031515,15.1518491 64.4275728,15.6968457 63.8138895,16.2807706 C63.2002063,16.8646954 62.479372,17.5459411 62.2066239,17.7892432 L61.7195737,18.2369189 L61.8949118,18.597006 C62.2066239,19.2587875 61.7780197,19.3463762 61.2909695,18.723523 Z" id="Shape"></path>
                                <path d="M12.8879212,13.2832894 C12.0501948,12.7674891 11.9430438,12.2516888 12.3716479,10.957322 C12.7807701,9.74081177 12.7710291,9.32233226 12.3424249,8.87465651 C11.8748567,8.36858828 11.4267706,8.37832036 10.9007564,8.91358484 C10.4818932,9.33206435 10.4916342,9.24447561 10.6864543,10.3539329 C10.7351593,10.6166991 10.7156773,10.6653595 10.5500802,10.6653595 C10.3552601,10.6653595 9.84872794,10.1106309 9.72209489,9.75054385 C9.57597983,9.35152851 10.5500802,8.29073162 11.3391015,7.9890371 C12.0307128,7.7262709 12.605432,7.84305587 13.1314463,8.37832036 C13.5405684,8.78706778 13.5503094,8.79679986 13.5503094,9.46831349 C13.5503094,9.84786467 13.4918634,10.3247367 13.4139354,10.5291104 C13.3457483,10.7432162 13.2288563,11.200624 13.1606693,11.5509789 C13.0535182,12.1154397 13.0535182,12.2127605 13.1996333,12.4268663 C13.2873023,12.5631154 13.4723814,12.7382929 13.6087554,12.8064174 C13.8230575,12.9232024 13.8912446,12.9232024 14.2029567,12.757757 C14.3880358,12.6507041 14.6120788,12.4657946 14.6900069,12.3490096 C14.8361219,12.1349038 14.8263809,12.0667793 14.6510429,11.3758015 C14.6120788,11.2200882 14.6510429,11.1324994 14.7776759,11.083839 C14.991978,11.0059824 15.5959202,11.677496 15.5959202,12.0083868 C15.5959202,12.271153 14.7874169,13.0594516 14.2516617,13.3222178 C13.8230575,13.5265915 13.2483383,13.5071273 12.8879212,13.2832894 Z" id="Shape"></path>
                                <path d="M54.6476049,12.3295455 C53.7806555,12.154368 52.8552601,11.317409 52.572771,10.4707179 C52.377951,9.86732883 52.3682099,8.64108656 52.56303,8.38805244 C52.6409581,8.28099954 52.7091451,8.10582207 52.7091451,7.99876918 C52.7091451,7.73600298 53.5760944,6.82118731 54.0534036,6.57788528 C54.6768279,6.25672659 55.4561082,6.13994161 56.0697914,6.28592283 C56.6542517,6.42217197 56.8003667,6.51949279 57.501719,7.16181017 C58.3589273,7.95984085 58.5829704,9.31260018 58.0569562,10.5485745 C57.8134311,11.1130353 57.1802659,11.7845489 56.6055466,12.0667793 C56.1282375,12.3100813 55.1931011,12.4365984 54.6476049,12.3295455 Z M55.7580793,11.5509789 C56.3035755,11.2979448 57.0828558,10.4609858 57.423791,9.75054385 C57.9498052,8.6702828 57.618611,7.59975384 56.5958056,7.0936856 C56.0600504,6.8309194 55.6704103,6.82118731 55.115173,7.05475727 C54.2579647,7.42457637 53.2936053,8.56322991 53.0987852,9.44884932 C52.9137062,10.2760763 53.3715333,11.1422315 54.2190007,11.5801752 C54.6183818,11.7845489 55.2612881,11.7748168 55.7580793,11.5509789 Z" id="Shape"></path>
                                <path d="M17.0668118,10.4512537 C16.6382077,10.0133101 16.5700206,9.6726872 16.8914738,9.61429471 C16.9986248,9.59483055 17.1837039,9.6726872 17.3103369,9.79920426 C17.592826,10.0619705 18.0409122,10.0814346 18.5571854,9.83813259 C18.9370846,9.65322304 18.9663076,9.5656343 18.7812285,9.20554729 C18.7033005,9.06929815 18.3234013,8.36858828 17.9337612,7.64841424 C17.544121,6.92824021 17.1155168,6.12047744 16.9694018,5.84797916 C16.7258767,5.38083925 16.6966537,5.36137509 16.3070135,5.36137509 C15.7420353,5.36137509 15.6056612,5.20566178 15.9465964,4.9331635 C16.0927114,4.8261106 16.2680495,4.72878979 16.3459775,4.72878979 C16.5407976,4.72878979 17.1934449,4.37843485 17.3395599,4.20325738 C17.417488,4.11566865 17.573344,4.04754408 17.6999771,4.04754408 C18.0116892,4.04754408 18.0019482,4.3005782 17.6804951,4.64120105 L17.427229,4.90396725 L17.9142792,5.80905084 C18.1870273,6.31511907 18.6643365,7.22020266 18.9760486,7.82359171 C19.2877607,8.42698076 19.5897318,8.97197733 19.6579189,9.03036982 C19.8429979,9.17635104 20.2034151,9.04983398 20.5540912,8.72867529 C20.8170983,8.48537325 20.8560623,8.38805244 20.8365803,7.99876918 C20.8170983,7.46350469 20.9437314,7.28832723 21.2262205,7.44404053 C21.3723355,7.52189718 21.4405226,7.68734257 21.4892276,8.07662583 C21.5281916,8.36858828 21.5379326,8.66055072 21.5184506,8.71894321 C21.4794866,8.84546027 19.920926,9.69215136 19.7358469,9.69215136 C19.6774009,9.69215136 19.4046528,9.84786467 19.1416457,10.0327742 C18.8786386,10.2176838 18.6351135,10.3733971 18.5864084,10.3733971 C18.5474444,10.3733971 18.3428833,10.48045 18.1285813,10.6166991 C17.9142792,10.7529482 17.6804951,10.8600011 17.612308,10.8600011 C17.53438,10.8600011 17.2908549,10.6750916 17.0668118,10.4512537 Z" id="Shape"></path>
                                <path d="M48.5789594,8.91358484 C48.1600963,8.69947905 47.7314921,8.52430158 47.6340821,8.52430158 C47.449003,8.52430158 47.2931469,8.20314289 47.400298,8.0376975 C47.439262,7.97930501 47.624341,7.96957293 47.8386431,7.99876918 C48.1795783,8.05716167 48.2380243,8.0376975 48.3159523,7.83332379 C48.3646573,7.70680673 48.6179234,7.142346 48.8906716,6.57788528 C49.884254,4.46602359 50.1764841,3.84317037 50.1764841,3.7750458 C50.1764841,3.73611747 50.04011,3.59013625 49.8647719,3.43442294 C49.5628008,3.18138883 49.5530598,3.16192466 49.7186569,3.0354076 C49.932959,2.86996222 50.059592,2.90889054 50.6537933,3.28844172 C50.8973184,3.43442294 51.1798075,3.56094 51.2966995,3.56094 C51.5791886,3.56094 51.9493468,3.84317037 51.9103828,4.02807992 C51.8811598,4.15459698 51.7642677,4.1935253 51.4135916,4.1935253 L50.9460234,4.1935253 L50.2836351,5.60467712 C49.923218,6.38324365 49.4848728,7.31752347 49.3095347,7.67761049 C48.9783406,8.38805244 48.9783406,8.43671285 49.4459088,8.83572819 C49.6212468,8.98170941 49.6212468,9.01090566 49.4946138,9.1471548 C49.3582397,9.28340394 49.2705707,9.26393978 48.5789594,8.91358484 Z" id="Shape"></path>
                                <path d="M23.2620903,7.96957293 C23.1354573,7.85278796 23.1939033,7.74573506 23.4763924,7.59975384 C23.6322485,7.52189718 23.7881045,7.37591596 23.8173275,7.28832723 C23.8465505,7.19100641 23.6906945,6.60708152 23.4763924,5.99396038 C23.2523493,5.38083925 22.9698602,4.52441608 22.8334861,4.09620449 C22.463328,2.92835471 22.3854,2.80183765 21.9567958,2.76290932 C21.7035297,2.74344516 21.5768966,2.68505267 21.5574146,2.56826769 C21.5379326,2.44175063 21.6645657,2.36389398 22.0931698,2.247109 C22.404882,2.15952027 22.8237451,2.00380696 23.0185652,1.89675406 C23.2523493,1.77996909 23.4763924,1.73130868 23.6322485,1.770237 C23.9537016,1.84809366 23.9439606,1.90648615 23.5250974,2.23737692 C23.3010543,2.41255439 23.1939033,2.56826769 23.2231263,2.67532059 C23.2523493,2.76290932 23.5056154,3.46361919 23.7783635,4.24218571 C24.0511116,5.02075223 24.3141187,5.78958667 24.3530827,5.94529998 C24.4017878,6.11074536 24.5186798,6.41243989 24.6160898,6.62654568 C24.7914279,6.9866327 24.8401329,7.01582894 25.1908091,7.01582894 C25.5025212,7.01582894 25.5804492,7.05475727 25.5804492,7.19100641 C25.5804492,7.37591596 25.015471,7.63868216 24.6063488,7.64841424 C24.4991978,7.64841424 24.2848957,7.73600298 24.1192986,7.84305587 C23.8368095,8.0376975 23.3887234,8.09608999 23.2620903,7.96957293 Z" id="Shape"></path>
                                <path d="M44.8189319,7.56082551 C44.7410039,7.5121651 44.4974788,7.44404053 44.2929177,7.41484429 C44.0883566,7.37591596 43.8253495,7.28832723 43.7084575,7.21047057 C43.5915654,7.142346 43.1532203,7.00609686 42.7246161,6.91850813 C42.2960119,6.82118731 41.8089617,6.68493817 41.6336237,6.6168136 C41.4680266,6.53895695 41.2634655,6.48056446 41.1855375,6.48056446 C40.9712354,6.48056446 40.9127894,6.20806618 40.9614944,5.55601672 C41.0101994,4.9331635 41.0394224,4.87477101 41.2634655,4.96235974 C41.4290626,5.02075223 41.4485446,5.05968056 41.5946596,5.65333753 C41.6823287,5.9842283 41.7602567,6.07181704 42.1693789,6.26645867 C42.9096952,6.6168136 42.9194362,6.6168136 43.3577813,4.87477101 C43.6207884,3.84317037 44.0104286,2.47094687 44.1273207,2.17898443 C44.2636947,1.81889741 44.1857667,1.65345203 43.8350905,1.52693497 C43.6500115,1.4588104 43.5526014,1.36148958 43.5526014,1.23497252 C43.5526014,0.97220632 43.6792345,0.981938402 44.5851478,1.27390085 C44.99427,1.41014999 45.4520972,1.51720289 45.5982122,1.51720289 C45.9294064,1.51720289 46.0073344,1.59505954 45.8904424,1.81889741 C45.8319963,1.92595031 45.6566583,2.00380696 45.4326152,2.02327112 C45.023493,2.05246737 45.013752,2.08166361 44.7215219,3.12299634 C44.4585148,4.07674033 43.9714646,5.74092627 43.8448315,6.14967369 C43.6987165,6.60708152 43.7181985,6.67520609 44.0883566,6.8309194 C44.6728169,7.07422143 44.965047,7.01582894 45.3741691,6.57788528 C45.7832913,6.14967369 45.9488884,6.10101328 46.0365574,6.37351156 C46.0755214,6.50002862 45.9683704,6.74333066 45.7248453,7.10341768 C45.3546871,7.64841424 45.1501261,7.74573506 44.8189319,7.56082551 Z" id="Shape"></path>
                                <path d="M27.1487509,6.23726242 C27.0123768,5.92583581 26.8954848,5.64360545 26.8954848,5.59494504 C26.8954848,5.54628463 27.0221178,5.50735631 27.1877149,5.50735631 C27.411758,5.50735631 27.509168,5.57548088 27.6260601,5.79931875 C27.8013981,6.13020953 28.0351822,6.20806618 28.7073115,6.16913785 L29.1846207,6.13994161 L29.1651387,5.79931875 C29.1456567,5.33217884 28.9605776,4.15459698 28.8923906,4.05727616 C28.8729085,4.00861575 28.7949805,3.6679929 28.7462755,3.30790589 C28.6878295,2.93808679 28.5806784,2.33469773 28.5124914,1.95514655 L28.3955994,1.27390085 L27.9669952,1.22524044 C27.499427,1.16684795 27.392276,1.04033089 27.6260601,0.797028853 C27.7429521,0.689975956 27.9669952,0.641315548 28.3955994,0.641315548 C28.7754985,0.641315548 29.0677286,0.592655141 29.1943617,0.495334326 C29.2917717,0.417477673 29.5060738,0.349353103 29.6521889,0.349353103 C29.895714,0.349353103 29.924937,0.378549347 29.895714,0.612119304 C29.876232,0.787296771 29.7983039,0.894349668 29.6716709,0.913813831 C29.1846207,1.01113465 29.1748797,1.10845546 29.4768508,2.49041104 C29.5450378,2.84076597 29.6814119,3.56094 29.7690809,4.09620449 C30.080793,6.03288871 30.012606,5.84797916 30.4606922,5.83824708 C30.9672244,5.828515 31.4347926,5.50735631 31.5224616,5.11807305 C31.6003896,4.75798603 31.8244327,4.52441608 32.0095118,4.59254065 C32.2432959,4.68012938 32.2043319,5.61440921 31.9608068,5.91610373 C31.8049507,6.12047744 31.6588357,6.17886993 31.1133394,6.22753034 C30.7431813,6.26645867 30.012606,6.39297573 29.4768508,6.50002862 C28.9410956,6.6168136 28.2592253,6.7238665 27.9572542,6.74333066 L27.402017,6.79199107 L27.1487509,6.23726242 Z" id="Shape"></path>
                                <path d="M35.4383452,6.12047744 C35.3896402,6.08154912 34.980518,6.02315663 34.5129498,5.99396038 C33.8115975,5.95503206 33.6654825,5.91610373 33.6362595,5.77985459 C33.6070364,5.65333753 33.6654825,5.60467712 33.8505615,5.60467712 C34.3083887,5.60467712 34.3668347,5.42949966 34.4350218,3.88209869 C34.5421728,1.57559537 34.5811368,1.3517575 34.922072,0.894349668 C35.3896402,0.290960614 35.8669493,0.0573906572 36.6851937,0.0573906572 C37.7469631,0.0573906572 38.4483154,0.475870163 38.8964016,1.36148958 C39.0717396,1.71184452 39.0912216,1.90648615 39.0717396,3.55120792 C39.0425166,5.69226586 39.0327756,5.60467712 39.2081137,5.60467712 C39.3931928,5.60467712 39.8607609,5.99396038 39.8023149,6.10101328 C39.7633509,6.14967369 39.2665597,6.18860202 38.6820995,6.18860202 C37.8443731,6.18860202 37.62033,6.15940577 37.571625,6.04262079 C37.513179,5.86744332 37.7567041,5.60467712 37.9904882,5.60467712 C38.3509053,5.60467712 38.3898694,5.42949966 38.3898694,3.59986833 C38.3898694,2.6169281 38.3509053,1.71184452 38.2924593,1.57559537 C38.2437543,1.43934623 38.0684162,1.18631211 37.9125602,1.02086673 C37.6495531,0.748368445 37.542402,0.709440119 36.9482008,0.660779711 C36.2858125,0.621851385 36.2663305,0.621851385 35.8864314,0.962474239 C35.5454962,1.27390085 35.4967912,1.38095374 35.3896402,2.02327112 C35.2435251,2.95755095 35.1948201,5.37110717 35.3214531,5.49762423 C35.3798992,5.54628463 35.5552372,5.60467712 35.7110933,5.62414129 C35.9448774,5.64360545 36.0033234,5.70199794 36.0033234,5.89663957 C36.0033234,6.08154912 35.9448774,6.14967369 35.7597983,6.16913785 C35.6234242,6.18860202 35.4773092,6.15940577 35.4383452,6.12047744 Z" id="Shape"></path>
                            </g>
                        </g>
                    </g>
                </g>
            </g>
        </g>
    </g>
</svg>