<?xml version="1.0" encoding="UTF-8"?>
<svg width="122px" height="81px" viewBox="0 0 122 81" version="1.1" xmlns="http://www.w3.org/2000/svg" xmlns:xlink="http://www.w3.org/1999/xlink">
    <!-- Generator: Sketch 46.2 (44496) - http://www.bohemiancoding.com/sketch -->
    <title>path24_10_</title>
    <desc>Created with Sketch.</desc>
    <defs></defs>
    <g id="Page-1" stroke="none" stroke-width="1" fill="none" fill-rule="evenodd">
        <g id="safari" transform="translate(-180.000000, -423.000000)" fill-rule="nonzero" fill="#000000">
            <path d="M237.603,424.004 C236.351,424.427 230.556,426.281 220.095,429.602 C217.074,430.56 214.19,431.489 213.688,431.663 C213.184,431.839 206.747,433.901 199.384,436.248 C192.02,438.595 184.683,440.935 183.078,441.448 C181.473,441.96 180.163,442.442 180.165,442.516 C180.169,442.656 180.673,442.973 186.339,446.408 C190.773,449.095 197.073,452.917 204.304,457.304 C207.578,459.29 211.903,461.914 213.916,463.134 C215.93,464.355 222.449,468.309 228.402,471.921 L239.225,478.489 L247.74,473.296 C252.424,470.44 258.367,466.815 260.947,465.241 C263.527,463.667 267.029,461.533 268.729,460.499 C270.428,459.464 273.466,457.608 275.481,456.375 C277.494,455.142 281.048,452.979 283.377,451.57 C285.705,450.16 289.002,448.154 290.7,447.109 C292.399,446.065 294.84,444.584 296.123,443.817 C297.407,443.049 298.385,442.356 298.297,442.274 C298.211,442.193 296.903,441.741 295.393,441.272 C293.883,440.802 291.771,440.135 290.701,439.788 C289.631,439.442 287.366,438.725 285.666,438.195 C283.967,437.664 281.032,436.733 279.143,436.126 C275.483,434.948 268.803,432.83 265.411,431.776 C264.278,431.423 260.056,430.088 256.028,428.809 C252,427.531 247.881,426.226 246.873,425.912 C245.866,425.598 243.785,424.936 242.248,424.441 C239.069,423.419 239.277,423.439 237.603,424.004 M249.749,431.405 C255.216,433.086 265.697,436.303 273.039,438.555 C284.749,442.147 286.338,442.687 285.97,442.956 C285.739,443.124 282.306,445.172 278.341,447.508 C274.375,449.845 267.218,454.076 262.436,456.911 C257.652,459.745 253.379,462.272 252.938,462.526 C252.497,462.779 250.284,464.085 248.018,465.429 C245.752,466.772 242.892,468.461 241.662,469.18 L239.426,470.49 L219.12,458.539 C207.951,451.966 198.441,446.371 197.988,446.108 C193.204,443.318 192.541,442.888 192.802,442.749 C192.961,442.665 195.511,441.856 198.469,440.953 C201.427,440.049 204.106,439.22 204.42,439.11 C204.734,439 206.227,438.532 207.738,438.071 C209.248,437.608 212.235,436.683 214.376,436.014 C216.515,435.344 219.656,434.368 221.356,433.843 C223.055,433.318 226.043,432.393 227.993,431.785 C229.944,431.178 232.777,430.303 234.288,429.843 C235.798,429.382 237.446,428.865 237.949,428.695 C239.381,428.208 239.273,428.184 249.749,431.405 M298.186,445.513 C298.099,445.954 297.924,447.602 297.795,449.175 C297.667,450.749 297.509,452.396 297.446,452.837 C297.383,453.276 296.919,457.757 296.413,462.793 C295.908,467.827 295.345,473.441 295.162,475.266 C294.469,482.169 294.333,480.956 296.21,484.566 C297.119,486.31 297.924,487.809 297.999,487.896 C298.279,488.216 301.685,481.437 301.685,480.559 C301.685,479.856 301.41,476.806 300.196,464.051 C299.719,459.038 299.321,454.771 298.927,450.435 C298.386,444.483 298.386,444.486 298.186,445.513 M201.108,459.303 C201.026,459.557 200.623,462.044 200.413,463.594 C200.37,463.908 200.123,465.505 199.864,467.141 C197.462,482.309 197.527,481.495 198.614,482.957 C205.137,491.721 222.525,501.388 235.199,503.298 C243.945,504.615 256.258,501.748 263.26,496.762 C263.599,496.52 263.937,496.321 264.01,496.321 C264.149,496.321 268.493,493.462 270.412,492.11 C273.055,490.245 277.223,486.543 279.658,483.898 C281.217,482.204 281.361,481.687 280.866,479.544 C280.744,479.017 280.276,476.474 279.825,473.893 C279.375,471.313 278.86,468.377 278.678,467.37 C278.498,466.363 278.096,464.11 277.784,462.365 C277.472,460.62 277.166,459.139 277.104,459.078 C276.952,458.926 276.676,459.088 263.922,466.792 C242.345,479.825 239.121,481.75 238.878,481.744 C238.743,481.741 237.552,481.07 236.229,480.251 C234.908,479.434 232.384,477.889 230.622,476.821 C227.119,474.697 222.395,471.816 209.74,464.083 C200.887,458.674 201.247,458.873 201.108,459.303 M208.979,468.955 C219.644,475.938 229.644,481.739 237.744,485.646 L239.573,486.529 L242.307,485.137 C246.867,482.815 256.408,477.398 259.917,475.138 C260.547,474.733 262.71,473.397 264.723,472.168 C266.737,470.94 269.448,469.271 270.747,468.459 C272.045,467.647 273.136,467.019 273.173,467.062 C273.482,467.441 275.895,480.308 275.779,480.969 C275.489,482.648 262.888,492.336 256.713,495.626 C241.965,503.483 217.801,497.756 203.92,483.114 L202.621,481.744 L202.848,480.736 C203.051,479.831 204.876,467.273 204.876,466.775 C204.876,466.339 205.453,466.645 208.979,468.955" id="path24_10_"></path>
        </g>
    </g>
</svg>