<?xml version="1.0" encoding="UTF-8"?>
<svg width="30px" height="15px" viewBox="0 0 30 15" version="1.1" xmlns="http://www.w3.org/2000/svg" xmlns:xlink="http://www.w3.org/1999/xlink">
<g id="Page-1" stroke="none" stroke-width="1" fill="none" fill-rule="evenodd">
    <g id="arrow-right-2" transform="translate(0.000000, 1.000000)" fill-rule="nonzero" fill="#55708D">
    <path d="M29.7708288,6.42924086 L23.7760636,0.236176195 C23.4715675,-0.0787253983 22.9831052,-0.0787253983 22.6786092,0.236176195 C22.3741132,0.551077788 22.3741132,1.05623243 22.6786092,1.37113402 L27.347548,6.19962512 L0.780271029,6.19962512 C0.34890168,6.19962512 0,6.56044986 0,7.00656045 C0,7.45267104 0.34890168,7.81349578 0.780271029,7.81349578 L27.347548,7.81349578 L22.6786092,12.628866 C22.3741132,12.9437676 22.3741132,13.4489222 22.6786092,13.7638238 C22.8308572,13.9212746 23.0275109,14 23.2305082,14 C23.4335055,14 23.6301592,13.9212746 23.7824072,13.7638238 L29.7771724,7.56419869 C30.0753248,7.25585754 30.0753248,6.74414246 29.7708288,6.42924086 Z" id="Shape"></path>
    </g>
</g>
</svg>
