<?xml version="1.0" encoding="UTF-8"?>
<svg width="372px" height="91px" viewBox="0 0 372 91" version="1.1" xmlns="http://www.w3.org/2000/svg" xmlns:xlink="http://www.w3.org/1999/xlink">
    <!-- Generator: Sketch 46.2 (44496) - http://www.bohemiancoding.com/sketch -->
    <title>avatar-top</title>
    <desc>Created with Sketch.</desc>
    <defs></defs>
    <g id="Page-1" stroke="none" stroke-width="1" fill="none" fill-rule="evenodd">
        <g id="Artboard" transform="translate(-127.000000, -48.000000)">
            <g id="avatar-top" transform="translate(126.000000, 48.000000)">
                <g id="text-document" transform="translate(344.000000, 52.000000)" fill-rule="nonzero" fill="#496480">
                    <path d="M22.1528704,0 L2.40563331,0 C1.07971273,0 0,1.07398451 0,2.39170607 L0,36.6079624 C0,37.927673 1.07971273,39 2.40563331,39 L26.5941999,39 C27.9212878,39 29,37.927673 29,36.6079624 L29,7.39531862 L22.1528704,0 Z M22.7206575,3.5788986 L25.7218421,6.82107376 L22.7206575,6.82107376 L22.7206575,3.5788986 Z M26.9795615,36.6080453 C26.9795615,36.818715 26.8060571,36.9916763 26.5931161,36.9916763 L2.40563331,36.9916763 C2.19302578,36.9916763 2.02052187,36.818715 2.02052187,36.6080453 L2.02052187,2.39170607 C2.02052187,2.18053911 2.19302578,2.00940107 2.40563331,2.00940107 L20.6991352,2.00940107 L20.6991352,7.82569142 C20.6991352,8.37946597 21.1529481,8.82840296 21.7103966,8.82840296 L26.9795615,8.82840296 L26.9795615,36.6080453 Z M5.58474113,10.6818322 L22.7422518,10.6818322 C23.1602132,10.6818322 23.499218,11.0188043 23.499218,11.4342595 C23.499218,11.8497147 23.1602132,12.1866868 22.7422518,12.1866868 L5.58474113,12.1866868 C5.16686313,12.1866868 4.82777497,11.8497147 4.82777497,11.4342595 C4.82777497,11.0188871 5.16686313,10.6818322 5.58474113,10.6818322 Z M23.499218,16.4905809 C23.499218,16.9059532 23.1602132,17.2430082 22.7422518,17.2430082 L5.58474113,17.2430082 C5.16686313,17.2430082 4.82777497,16.9060361 4.82777497,16.4905809 C4.82777497,16.0751256 5.16686313,15.7381536 5.58474113,15.7381536 L22.7422518,15.7381536 C23.1602132,15.7381536 23.499218,16.0752085 23.499218,16.4905809 Z M23.499218,21.3813169 C23.499218,21.7967721 23.1602132,22.1337442 22.7422518,22.1337442 L5.58474113,22.1337442 C5.16686313,22.1337442 4.82777497,21.7967721 4.82777497,21.3813169 C4.82777497,20.9658617 5.16686313,20.6288896 5.58474113,20.6288896 L22.7422518,20.6288896 C23.1602132,20.6288896 23.499218,20.9658617 23.499218,21.3813169 Z M23.499218,26.3553428 C23.499218,26.770798 23.1602132,27.1077701 22.7422518,27.1077701 L5.58474113,27.1077701 C5.16686313,27.1077701 4.82777497,26.770798 4.82777497,26.3553428 C4.82777497,25.9398876 5.16686313,25.6029155 5.58474113,25.6029155 L22.7422518,25.6029155 C23.1602132,25.6029155 23.499218,25.9398876 23.499218,26.3553428 Z" id="Shape"></path>
                </g>
                <g id="clock" transform="translate(222.000000, 2.000000)" stroke="#496480" stroke-width="2">
                    <circle id="Oval-2" cx="18" cy="18" r="18"></circle>
                    <path d="M17,17 L17,6" id="Line" stroke-linecap="square"></path>
                    <path d="M6,19 L17,19" id="Line" stroke-linecap="square"></path>
                </g>
                <path d="M160.51653,0.0234018343 L113.265597,16.9409578 C112.38892,17.2568048 112.239486,18.4214907 113.006579,18.9347421 L120.069812,23.7119282 L152.128319,6.96216603 L124.991161,27.0381922 L124.991161,35.1712529 C124.991161,35.7239852 125.618783,36.0595727 126.087008,35.7535959 L132.064356,31.8252485 L137.952043,35.8029469 C138.490004,36.1681451 139.22721,36.0102216 139.575889,35.4574893 L160.944907,0.546523459 C161.124227,0.260287099 160.835322,-0.0950407979 160.51653,0.0234018343 Z" id="Shape" fill="#496480" fill-rule="nonzero"></path>
                <path d="M38.9071402,82.464449 C38.9071402,81.7381237 38.3141484,81.1493717 37.5828828,81.1493717 L35.3138411,81.1493717 L35.3137112,77.1096711 C35.3137112,73.0228652 33.055326,69.2663127 28.9544166,66.5317521 C28.4442071,66.1915614 28.127373,65.4571056 28.127373,64.6150173 C28.127373,63.7729291 28.4442071,63.0383442 28.9546765,62.6980244 C33.055326,59.9635929 35.3137112,56.2071694 35.3139711,52.1202344 L35.3139711,48.0804048 L37.5828828,48.0804048 C38.3141484,48.0804048 38.9071402,47.4915238 38.9071402,46.7653276 C38.9071402,46.0391313 38.3141484,45.4501212 37.5828828,45.4501212 L10.9616701,45.4501212 C10.2304045,45.4501212 9.63741269,46.0390022 9.63741269,46.7651985 C9.63741269,47.4913947 10.2304045,48.0802758 10.9616701,48.0802758 L13.2305818,48.0802758 L13.2305818,52.1201055 C13.2305818,56.2070404 15.488967,59.9634638 19.5900064,62.6980244 C20.1000859,63.0382152 20.41692,63.7725419 20.41692,64.6148883 C20.41692,65.4571056 20.1000859,66.1915614 19.5898764,66.5318812 C15.488967,69.2663127 13.2305818,73.0227361 13.2305818,77.1096711 L13.2305818,81.1493717 L10.9616701,81.1493717 C10.2304045,81.1493717 9.63741269,81.7382528 9.63741269,82.464449 C9.63741269,83.1907743 10.2304045,83.7795263 10.9616701,83.7795263 L37.5828828,83.7795263 C38.3141484,83.7795263 38.9071402,83.1906453 38.9071402,82.464449 Z" id="Shape" fill="#496480" fill-rule="nonzero" transform="translate(24.272276, 64.614824) rotate(-41.000000) translate(-24.272276, -64.614824) "></path>
            </g>
        </g>
    </g>
</svg>