<?xml version="1.0" encoding="UTF-8"?>
<svg width="22px" height="22px" viewBox="0 0 22 22" version="1.1" xmlns="http://www.w3.org/2000/svg" xmlns:xlink="http://www.w3.org/1999/xlink">
    <!-- Generator: Sketch 46.2 (44496) - http://www.bohemiancoding.com/sketch -->
    <title>phone (1)</title>
    <desc>Created with Sketch.</desc>
    <defs></defs>
    <g id="Page-1" stroke="none" stroke-width="1" fill="none" fill-rule="evenodd">
        <g id="phone-(1)" fill-rule="nonzero" fill="#FFFFFF">
            <path d="M21.9895137,17.3622581 C22.0361315,17.7196402 21.9272933,18.0303741 21.6634556,18.2944599 L18.5659037,21.3706115 C18.4261645,21.5259784 18.2437653,21.6581546 18.0186299,21.7667972 C17.7934945,21.8755922 17.5722789,21.9455073 17.3549829,21.9765426 C17.3394563,21.9765426 17.2927625,21.980541 17.2150915,21.9883094 C17.1375728,21.9960397 17.0366501,22 16.9124374,22 C16.6173564,22 16.1398761,21.9495057 15.4799966,21.8484791 C14.8201171,21.7474525 14.0127732,21.4988273 13.0579649,21.1027177 C12.1029282,20.706532 11.0199876,20.1121772 9.80895266,19.3198818 C8.59791776,18.5276245 7.30917387,17.4399796 5.94283515,16.0571756 C4.8559748,14.9851436 3.95543338,13.9597216 3.24121087,12.9809478 C2.52698835,12.0020979 1.95250503,11.0970853 1.51776089,10.2658721 C1.0829787,9.43465881 0.756920596,8.68112904 0.539548528,8.00528275 C0.322176459,7.32943647 0.174673984,6.74681036 0.0970411021,6.25740442 C0.0194082204,5.76799849 -0.0116449323,5.38346526 0.00388164408,5.10380473 C0.0194082204,4.82414419 0.0271715086,4.66877723 0.0271715086,4.63770384 C0.0582246613,4.42019009 0.128094255,4.19879217 0.236780289,3.97351007 C0.345466324,3.74822798 0.477442222,3.56567179 0.632707986,3.42584153 L3.73025997,0.326270622 C3.94763203,0.108756874 4.19605726,0 4.47553563,0 C4.67738112,0 4.85593675,0.058262611 5.01120251,0.174787833 C5.16646828,0.291313055 5.29844418,0.435027496 5.40713021,0.605931155 L7.89914571,5.33685517 C8.0388849,5.58544231 8.07770134,5.85733449 8.01559503,6.15253172 C7.95348873,6.44772895 7.82151283,6.69631609 7.61966734,6.89829314 L6.47846398,8.04024032 C6.44741082,8.07131371 6.42023932,8.12180798 6.39694945,8.19172311 C6.37365959,8.26163824 6.36201465,8.31990085 6.36201465,8.36651094 C6.42412096,8.69278156 6.56386015,9.06566227 6.78123222,9.48515307 C6.96755113,9.85803378 7.25479279,10.3124821 7.6429572,10.8484982 C8.03112161,11.3845142 8.58231507,12.0020598 9.29653758,12.7012111 C9.99523352,13.4159753 10.6162966,13.971336 11.1597267,14.367598 C11.7030427,14.7636314 12.1573473,15.0550587 12.5222219,15.241499 C12.8870964,15.4279394 13.1665748,15.5405804 13.3606189,15.5793079 L13.6516661,15.6376086 C13.6827193,15.6376086 13.7332948,15.625918 13.8030883,15.6026511 C13.8729579,15.5793079 13.9234193,15.5521568 13.9545105,15.5210453 L15.2819947,14.1693528 C15.5616253,13.9208037 15.8875312,13.7965101 16.2602071,13.7965101 C16.524235,13.7965101 16.7337296,13.8430821 16.8889954,13.9363404 L21.407153,16.5931155 C21.7333252,16.7952448 21.9273694,17.0515242 21.9895137,17.3622581 Z" id="Shape"></path>
        </g>
    </g>
</svg>