<?xml version="1.0" encoding="UTF-8"?>
<svg width="22px" height="22px" viewBox="0 0 22 22" version="1.1" xmlns="http://www.w3.org/2000/svg" xmlns:xlink="http://www.w3.org/1999/xlink">
    <!-- Generator: Sketch 46.2 (44496) - http://www.bohemiancoding.com/sketch -->
    <title>whatsapp (1)</title>
    <desc>Created with Sketch.</desc>
    <defs></defs>
    <g id="Page-1" stroke="none" stroke-width="1" fill="none" fill-rule="evenodd">
        <g id="whatsapp-(1)" fill-rule="nonzero" fill="#FFFFFF">
            <path d="M0,22 L1.89655172,16.3103448 C0.948275862,14.7172414 0.379310345,12.8206897 0.379310345,10.8103448 C0.379310345,4.85517241 5.23448276,0 11.1896552,0 C17.1448276,0 22,4.85517241 22,10.8103448 C22,16.7655172 17.1448276,21.6206897 11.1896552,21.6206897 C9.36896552,21.6206897 7.66206897,21.1655172 6.14482759,20.3689655 L0,22 Z M18.8917947,14.8281088 C18.3853363,13.8593401 16.4763775,12.7743192 16.4763775,12.7743192 C16.0478357,12.5418147 15.5413773,12.503064 15.3076272,12.9293222 C15.3076272,12.9293222 14.6842937,13.6655864 14.5284604,13.7818386 C13.8272102,14.2468476 13.1649184,14.2468476 12.5026266,13.5880849 L10.9442929,12.038055 L9.38595915,10.4880251 C8.72366733,9.82926245 8.68470899,9.17049975 9.19116744,8.47298631 C9.30804247,8.31798333 10.048251,7.69797138 10.048251,7.69797138 C10.4767927,7.4654669 10.4378344,6.92295644 10.2040843,6.53544897 C10.2040843,6.53544897 9.11325075,4.63666238 8.13929219,4.13290267 C7.71075042,3.90039819 7.20429197,3.97789968 6.89262523,4.32665641 L6.19137507,5.02416985 C4.00970789,7.19421167 5.10054148,9.63550872 7.24325031,11.8055505 L9.23012578,13.7818386 L11.2170012,15.7581267 C13.3986684,17.9281685 15.853044,18.9744387 18.0347112,16.8043969 L18.7359614,16.1068834 C19.0086698,15.719376 19.0865864,15.2156163 18.8917947,14.8281088 Z" id="Combined-Shape"></path>
        </g>
    </g>
</svg>