<?xml version="1.0" encoding="UTF-8"?>
<svg width="399px" height="361px" viewBox="0 0 399 361" version="1.1" xmlns="http://www.w3.org/2000/svg" xmlns:xlink="http://www.w3.org/1999/xlink">
    <!-- Generator: Sketch 46.2 (44496) - http://www.bohemiancoding.com/sketch -->
    <title>avatar-middle-light-2</title>
    <desc>Created with Sketch.</desc>
    <defs></defs>
    <g id="Page-1" stroke="none" stroke-width="1" fill="none" fill-rule="evenodd">
        <g id="Artboard" fill-rule="nonzero">
            <g id="avatar-middle-light-2">
                <path d="M41.326,176.689 L38.018,190.184 L38.018,190.184 C28.619,196.538 16.542,197.273 6.355,192.232 L2.417,190.289 L10.083,171.753 L10.083,171.753 C16.437,180.47 28.199,183.305 37.861,178.474 L41.326,176.689 Z" id="Shape" fill="#3C5268" opacity="0.25"></path>
                <path d="M329.129,290 L317,311.266 L317,311.266 C321.306,330.8 335.799,346.447 354.912,352.276 L362.316,354.534 L375.075,321.557 L375.075,321.557 C356.382,324.918 337.951,314.311 331.44,296.457 L329.129,290 Z" id="Shape" fill="#708B9E"></path>
                <path d="M344.905999,30.0000005 C370.110999,35.0930005 387.963999,57.5680005 387.281999,83.2970005 L387.175999,86.7630005 L371.422999,107.032 L370.477999,100.101 C367.641999,78.5720005 348.632999,62.9240005 326.999999,64.2890005 L344.905999,30.0000005 Z" id="Shape" fill="#3C5268" opacity="0.25" transform="translate(357.150445, 68.516000) rotate(97.000000) translate(-357.150445, -68.516000) "></path>
                <path d="M54.505,290.498 L77.032,302.103 L75.457,304.782 C64.745,322.74 44.634,332.927 23.84,331.037 L23.84,331.037 L0,310.766 L6.249,311.921 C25.205,315.387 44.371,306.881 54.505,290.498 L54.505,290.498 Z" id="Shape" fill="#3C5268" opacity="0.25"></path>
                <path d="M327,169.579 L329.521,196.726 L329.521,196.726 C345.955,211.744 369.165,216.785 390.326,209.906 L398.519,207.227 L389.067,169 L389.067,169 C374.154,184.018 350.577,186.118 333.249,173.936 L327,169.579 Z" id="Shape" fill="#3C5268" opacity="0.25"></path>
                <g id="Group" transform="translate(39.000000, 0.000000)">
                    <path d="M0.698,184.337 C0.908,184.81 1.801,186.07 2.693,187.067 C3.586,188.065 5.266,189.903 6.526,191.058 C7.734,192.266 8.889,193.368 8.994,193.63 C9.152,193.84 9.677,194.943 10.202,196.046 C10.727,197.149 11.672,198.881 12.355,199.879 C13.038,200.876 14.928,202.662 16.556,203.764 C18.184,204.867 21.229,206.915 23.33,208.227 C25.43,209.593 27.268,210.643 27.373,210.59 C27.478,210.537 28.633,210.065 30.261,209.382 C30.419,209.224 30.576,209.119 30.786,208.962 C32.676,207.439 34.514,205.391 34.934,204.446 C35.354,203.5 35.564,201.873 35.459,200.77 C35.354,199.877 35.091,198.145 34.724,196.569 C34.566,196.201 34.461,195.834 34.304,195.519 C33.779,194.259 33.306,192.631 33.201,191.843 C33.096,191.055 33.254,189.375 33.464,188.114 C33.727,186.854 34.042,185.226 34.252,184.543 C34.41,183.86 34.252,182.863 33.884,182.285 C33.516,181.76 32.624,181.444 31.941,181.602 C31.258,181.76 30.261,182.285 29.736,182.81 C29.211,183.282 28.686,184.332 28.528,185.173 C28.37,185.961 28.265,187.22 28.265,187.956 C28.318,188.691 28.002,189.689 27.582,190.161 C27.162,190.633 26.164,191.264 25.324,191.526 C24.484,191.788 22.646,191.894 21.333,191.736 C19.968,191.578 17.972,191.053 16.87,190.528 C15.767,190.055 14.56,189.215 14.192,188.69 C13.824,188.165 12.879,186.38 12.197,184.647 C11.462,182.914 10.254,180.499 9.414,179.186 C8.626,177.873 7.471,176.718 6.894,176.666 C6.316,176.561 5.581,176.613 5.214,176.771 C4.846,176.929 4.531,177.349 4.426,177.716 C4.321,178.084 4.426,178.714 4.584,179.134 C4.742,179.554 4.847,179.922 4.794,179.974 C4.741,180.027 4.531,180.237 4.374,180.394 C4.216,180.552 4.006,181.077 4.006,181.549 C3.953,182.022 3.848,182.442 3.796,182.442 C3.743,182.442 3.271,182.337 2.798,182.127 C2.325,181.917 1.643,181.864 1.328,182.022 C0.96,182.127 0.593,182.494 0.488,182.81 C0.435,183.182 0.488,183.865 0.698,184.337 Z" id="Shape" fill="#FECC8B"></path>
                    <path d="M31.416,220.779 C33.359,222.354 35.354,223.877 37.402,225.242 L37.455,225.295 C41.866,228.288 46.434,230.756 51.212,232.804 C57.251,235.376 63.499,237.162 69.853,238.159 C75.051,238.947 80.302,239.209 85.501,238.947 C91.645,238.58 97.736,237.477 103.669,235.587 C108.605,234.012 113.436,231.858 118.057,229.128 C122.678,226.449 127.036,223.194 131.184,219.361 L125.46,212.85 C122.467,215.265 119.316,217.366 115.956,219.098 C111.283,221.566 106.347,223.299 101.253,224.454 C95.739,225.662 90.121,226.082 84.502,225.767 C79.251,225.452 74,224.454 69.012,222.774 C65.021,221.461 61.241,219.676 57.617,217.523 C55.884,216.473 54.204,215.318 52.576,214.057 C50.056,212.114 47.64,209.909 45.435,207.493 C45.382,207.44 45.33,207.388 45.277,207.283 L44.909,206.915 L31.416,220.779 Z" id="Shape" fill="#F0F1F2"></path>
                    <path d="M22.542,214.268 C26.113,219.519 30.366,224.298 35.197,228.499 L36.142,229.339 C37.14,227.764 38.242,226.241 39.398,224.718 C43.336,219.73 48.062,215.476 53.366,212.063 C53.471,212.01 53.576,211.905 53.681,211.853 L53.734,211.853 L53.629,211.748 C51.266,209.228 48.798,206.865 46.173,204.712 C43.548,202.507 40.765,200.511 37.876,198.62 C37.771,198.725 37.718,198.778 37.613,198.883 C36.878,199.513 36.195,200.143 35.513,200.826 C33.15,203.031 30.892,205.237 28.687,207.495 C26.587,209.648 24.644,211.853 22.753,214.006 C22.7,214.11 22.647,214.215 22.542,214.268 Z" id="Shape" fill="#C3D2D8"></path>
                    <path d="M321.636,184.337 C321.427,184.81 320.533,186.07 319.641,187.067 C318.748,188.065 317.068,189.903 315.807,191.058 C314.6,192.266 313.444,193.368 313.34,193.63 C313.182,193.84 312.657,194.943 312.132,196.046 C311.607,197.149 310.662,198.881 309.979,199.879 C309.296,200.876 307.406,202.662 305.778,203.764 C304.15,204.867 301.105,206.915 299.004,208.227 C296.904,209.593 295.066,210.643 294.961,210.59 C294.855,210.537 293.701,210.065 292.073,209.382 C291.915,209.224 291.758,209.119 291.548,208.962 C289.658,207.439 287.82,205.391 287.4,204.446 C286.979,203.5 286.77,201.873 286.875,200.77 C286.979,199.877 287.242,198.145 287.61,196.569 C287.767,196.201 287.873,195.834 288.03,195.519 C288.555,194.259 289.028,192.631 289.134,191.843 C289.238,191.055 289.08,189.375 288.871,188.114 C288.608,186.854 288.292,185.226 288.083,184.543 C287.925,183.86 288.083,182.863 288.45,182.285 C288.817,181.76 289.71,181.444 290.392,181.602 C291.075,181.76 292.073,182.285 292.598,182.81 C293.123,183.282 293.648,184.332 293.805,185.173 C293.963,185.961 294.068,187.22 294.068,187.956 C294.016,188.691 294.331,189.689 294.751,190.161 C295.172,190.633 296.168,191.264 297.009,191.526 C297.849,191.789 299.687,191.894 301,191.736 C302.365,191.578 304.361,191.053 305.463,190.528 C306.566,190.055 307.773,189.215 308.141,188.69 C308.509,188.165 309.454,186.38 310.137,184.647 C310.871,182.914 312.079,180.499 312.92,179.186 C313.708,177.873 314.863,176.718 315.441,176.666 C316.019,176.561 316.754,176.613 317.121,176.771 C317.489,176.929 317.804,177.349 317.909,177.716 C318.015,178.084 317.909,178.714 317.752,179.134 C317.594,179.554 317.489,179.922 317.542,179.974 C317.594,180.027 317.805,180.237 317.962,180.394 C318.12,180.552 318.33,181.077 318.33,181.549 C318.382,182.022 318.487,182.442 318.54,182.442 C318.592,182.442 319.065,182.337 319.537,182.127 C320.01,181.917 320.693,181.864 321.008,182.022 C321.375,182.127 321.743,182.494 321.848,182.81 C321.898,183.182 321.846,183.865 321.636,184.337 Z" id="Shape" fill="#FECC8B"></path>
                    <path d="M290.918,220.779 C288.976,222.354 286.98,223.877 284.933,225.242 L284.879,225.295 C280.469,228.288 275.9,230.756 271.122,232.804 C265.083,235.376 258.835,237.162 252.481,238.159 C247.283,238.947 242.032,239.209 236.833,238.947 C230.69,238.58 224.599,237.477 218.665,235.587 C213.729,234.012 208.898,231.858 204.277,229.128 C199.657,226.449 195.298,223.194 191.15,219.361 L196.874,212.85 C199.868,215.265 203.018,217.366 206.378,219.098 C211.051,221.566 215.988,223.299 221.081,224.454 C226.595,225.662 232.214,226.082 237.832,225.767 C243.083,225.452 248.334,224.454 253.322,222.774 C257.313,221.461 261.094,219.676 264.717,217.523 C266.449,216.473 268.13,215.318 269.758,214.057 C272.278,212.114 274.694,209.909 276.899,207.493 C276.952,207.44 277.003,207.388 277.057,207.283 L277.424,206.915 L290.918,220.779 Z" id="Shape" fill="#C3D2D8"></path>
                    <path d="M299.792,214.268 C296.222,219.519 291.968,224.298 287.137,228.499 L286.191,229.339 C285.194,227.764 284.091,226.241 282.936,224.718 C278.998,219.73 274.272,215.476 268.968,212.063 C268.862,212.01 268.758,211.905 268.653,211.853 L268.599,211.853 L268.705,211.748 C271.068,209.227 273.536,206.864 276.162,204.711 C278.787,202.506 281.571,200.51 284.459,198.619 C284.563,198.724 284.616,198.777 284.722,198.882 C285.457,199.512 286.139,200.142 286.822,200.825 C289.185,203.03 291.442,205.236 293.648,207.494 C295.748,209.647 297.691,211.852 299.581,214.005 C299.635,214.11 299.687,214.215 299.792,214.268 Z" id="Shape" fill="#98A8B3"></path>
                    <path d="M214.937,300.803 C214.937,300.855 214.937,300.855 214.937,300.907 C214.885,301.537 214.779,302.167 214.674,302.745 C214.621,302.955 214.621,303.166 214.57,303.375 C214.516,303.585 214.516,303.795 214.464,304.005 C214.412,304.215 214.411,304.425 214.36,304.635 C214.307,304.845 214.307,305.003 214.254,305.213 C214.254,305.266 214.254,305.266 214.254,305.318 C214.202,305.476 214.202,305.686 214.15,305.843 C214.046,306.421 213.887,306.998 213.729,307.576 C213.729,307.629 213.729,307.629 213.677,307.681 C213.414,308.679 213.152,309.624 212.837,310.569 C212.784,310.674 212.784,310.779 212.733,310.884 C212.679,311.094 212.575,311.305 212.523,311.514 C212.471,311.619 212.471,311.724 212.417,311.83 C212.154,312.513 211.892,313.247 211.629,313.93 C211.576,314.088 211.472,314.297 211.42,314.455 C211.21,314.98 210.947,315.452 210.737,315.977 C210.107,317.29 209.424,318.602 208.637,319.81 C208.164,320.598 207.639,321.385 207.114,322.12 C206.432,323.013 205.749,323.905 205.066,324.745 C204.488,325.428 203.911,326.005 203.282,326.635 C203.124,326.793 202.966,326.951 202.809,327.056 C201.444,328.369 199.973,329.471 198.45,330.469 C198.293,330.573 198.135,330.679 197.925,330.784 C197.558,330.994 197.243,331.204 196.875,331.362 C196.508,331.572 196.193,331.73 195.825,331.887 C195.143,332.255 194.408,332.517 193.672,332.78 L193.672,332.78 C193.672,332.833 193.672,332.938 193.672,332.99 L128.087,332.99 C122.048,330.89 116.587,326.321 112.597,319.81 C111.074,317.343 109.814,314.664 108.816,311.829 C108.658,311.408 108.501,310.988 108.396,310.569 C107.398,307.523 106.716,304.268 106.296,300.96 C106.296,300.907 106.296,300.907 106.296,300.855 L214.938,300.855 L214.938,300.803 L214.937,300.803 Z" id="Shape" fill="#212D36"></path>
                    <path d="M214.937,300.803 C214.937,300.855 214.937,300.855 214.937,300.907 C210.578,301.8 206.063,302.64 201.389,303.323 C200.655,303.428 199.919,303.533 199.184,303.638 C191.623,304.688 183.746,305.423 175.555,305.843 C173.875,305.948 172.194,306.001 170.514,306.053 C167.258,306.157 163.95,306.211 160.59,306.211 C157.229,306.211 153.921,306.158 150.666,306.053 C148.986,306 147.305,305.948 145.625,305.843 C133.338,305.213 121.68,303.848 110.969,301.852 L110.969,301.852 C109.394,301.536 107.818,301.222 106.243,300.906 C106.243,300.853 106.243,300.853 106.243,300.802 L106.296,299.909 C106.454,297.861 106.611,295.813 106.769,293.817 C106.979,291.454 107.242,289.039 107.504,286.676 C107.557,286.361 107.557,285.993 107.609,285.678 C108.029,281.95 108.554,278.274 109.079,274.599 C109.499,271.869 109.919,269.138 110.444,266.408 C111.389,261.262 112.387,256.169 113.595,251.075 C115.118,244.406 116.903,237.79 118.846,231.226 C119.529,228.968 120.211,226.763 120.946,224.504 C121.891,221.563 122.889,218.623 123.939,215.682 C125.304,211.797 126.775,207.963 128.35,204.13 L192.78,204.13 C193.568,206.125 194.355,208.173 195.143,210.169 C195.51,211.167 195.877,212.112 196.246,213.11 C196.561,214.002 196.876,214.843 197.191,215.735 C198.189,218.518 199.134,221.353 200.079,224.189 C200.867,226.552 201.602,228.862 202.285,231.225 C202.915,233.378 203.545,235.478 204.123,237.631 C204.333,238.366 204.543,239.049 204.701,239.784 L204.701,239.784 C205.699,243.512 206.643,247.293 207.537,251.074 C208.692,256.167 209.742,261.26 210.688,266.407 C211.843,272.813 212.788,279.219 213.524,285.677 C213.577,285.993 213.628,286.36 213.628,286.675 C213.891,289.038 214.153,291.401 214.363,293.816 C214.573,295.864 214.73,297.859 214.836,299.908 L214.937,300.803 Z" id="Shape" fill="#F0F1F2"></path>
                    <path d="M214.937,300.803 C214.937,300.855 214.937,300.855 214.937,300.907 C211.209,301.695 207.323,302.43 203.332,303.007 C203.017,298.649 202.597,294.29 202.124,289.985 C202.071,289.617 202.02,289.25 202.02,288.882 C201.18,281.74 200.13,274.651 198.869,267.616 C197.871,261.945 196.716,256.273 195.403,250.655 C194.457,246.507 193.407,242.306 192.305,238.21 L192.305,238.21 C192.095,237.422 191.884,236.635 191.674,235.847 C191.044,233.484 190.361,231.121 189.627,228.758 C188.839,226.133 188.052,223.56 187.211,220.987 C186.214,217.889 185.111,214.738 184.008,211.64 C183.641,210.695 183.326,209.698 182.958,208.752 C182.538,207.649 182.17,206.599 181.751,205.497 L181.226,204.184 L192.883,204.184 C193.671,206.179 194.458,208.227 195.246,210.223 C195.613,211.22 195.981,212.165 196.349,213.164 C196.664,214.057 196.98,214.897 197.295,215.789 C198.293,218.572 199.237,221.408 200.183,224.243 C200.971,226.606 201.706,228.916 202.388,231.279 C203.019,233.432 203.648,235.532 204.226,237.685 C204.436,238.42 204.647,239.103 204.804,239.838 L204.804,239.838 C205.802,243.567 206.747,247.347 207.64,251.128 C208.796,256.221 209.846,261.315 210.791,266.461 C211.947,272.867 212.891,279.273 213.627,285.732 C213.68,286.047 213.731,286.415 213.731,286.73 C214.256,291.14 214.624,295.552 214.939,299.962 L214.939,300.803 L214.937,300.803 Z" id="Shape" fill="#C3D2D8"></path>
                    <path d="M214.937,300.803 C214.937,300.855 214.937,300.855 214.937,300.907 C214.937,301.117 214.885,301.328 214.885,301.537 C214.832,301.957 214.779,302.378 214.727,302.745 C214.675,303.166 214.623,303.586 214.517,303.953 C214.464,304.111 214.464,304.32 214.413,304.478 C214.361,304.636 214.361,304.793 214.309,304.95 C214.255,305.108 214.255,305.318 214.203,305.475 C214.15,305.685 214.099,305.895 214.046,306.105 C211.315,306.525 208.532,306.893 205.697,307.26 C204.594,307.418 203.544,307.523 202.441,307.68 C193.987,308.678 185.218,309.36 176.134,309.728 C171.829,309.886 167.417,309.991 163.007,310.043 C162.219,310.043 161.432,310.043 160.644,310.043 C155.393,310.043 150.247,309.938 145.154,309.728 C131.764,309.203 119.004,307.943 107.19,306.157 C106.822,304.424 106.507,302.691 106.297,300.906 C106.297,300.854 106.297,300.854 106.297,300.802 L106.35,299.909 C106.508,297.861 106.665,295.813 106.823,293.817 C119.268,296.233 132.973,297.808 147.465,298.438 C151.77,298.596 156.182,298.701 160.645,298.701 C160.96,298.701 161.275,298.701 161.538,298.701 L161.538,298.701 C165.686,298.701 169.729,298.596 173.772,298.438 C183.382,298.017 192.623,297.178 201.445,295.97 C201.865,295.917 202.337,295.865 202.758,295.76 L202.758,295.76 C206.749,295.182 210.634,294.552 214.467,293.817 C214.677,295.865 214.835,297.86 214.94,299.909 L214.937,300.803 L214.937,300.803 Z" id="Shape" fill="#1C262E"></path>
                    <path d="M171.564,299.281 C171.354,298.598 170.986,298.021 170.618,297.496 C169.62,296.131 168.098,295.291 166.417,295.291 L154.813,295.291 C154.76,295.291 154.708,295.291 154.655,295.291 C154.602,295.291 154.551,295.291 154.497,295.291 C154.444,295.291 154.392,295.291 154.339,295.291 C154.287,295.291 154.234,295.291 154.234,295.291 L154.181,295.291 C154.128,295.291 154.076,295.291 154.076,295.291 C154.023,295.291 154.023,295.291 153.971,295.291 C153.918,295.291 153.866,295.291 153.813,295.344 C153.655,295.396 153.498,295.396 153.34,295.449 C153.287,295.449 153.236,295.501 153.236,295.501 C153.183,295.501 153.131,295.554 153.078,295.554 C152.974,295.607 152.868,295.607 152.815,295.658 C152.71,295.711 152.657,295.763 152.552,295.816 L152.552,295.816 C152.448,295.868 152.394,295.92 152.289,295.974 C152.185,296.026 152.131,296.079 152.026,296.132 L152.026,296.132 C151.973,296.184 151.868,296.237 151.816,296.29 C151.816,296.29 151.816,296.29 151.763,296.29 C151.71,296.342 151.605,296.395 151.553,296.5 C151.5,296.552 151.448,296.605 151.395,296.658 L151.395,296.658 C151.342,296.71 151.342,296.71 151.29,296.763 C151.132,296.921 151.027,297.026 150.87,297.183 C150.817,297.235 150.765,297.341 150.712,297.393 L150.712,297.393 C150.554,297.603 150.397,297.813 150.292,298.023 C150.082,298.391 149.872,298.758 149.767,299.178 C149.504,299.913 149.347,300.753 149.347,301.594 L149.347,306.687 C149.347,307.842 149.61,308.892 150.082,309.838 C151.027,311.781 152.865,313.094 154.965,313.094 L166.57,313.094 C166.674,313.094 166.78,313.094 166.833,313.094 C166.886,313.094 166.99,313.094 167.043,313.094 C167.096,313.094 167.147,313.094 167.252,313.094 C167.306,313.094 167.306,313.094 167.358,313.094 C167.41,313.094 167.515,313.094 167.568,313.042 C167.621,313.042 167.672,313.042 167.725,312.989 C167.778,312.989 167.831,312.989 167.831,312.937 C167.884,312.937 167.936,312.937 167.936,312.885 C167.989,312.885 167.989,312.885 168.04,312.832 C168.094,312.832 168.146,312.779 168.25,312.779 C168.303,312.779 168.408,312.726 168.46,312.726 C168.513,312.674 168.618,312.674 168.67,312.622 C168.723,312.569 168.827,312.569 168.88,312.517 C168.933,312.464 169.037,312.464 169.089,312.412 C169.143,312.359 169.247,312.307 169.299,312.307 C169.352,312.255 169.457,312.202 169.509,312.149 C169.561,312.096 169.613,312.096 169.667,312.044 C170.297,311.572 170.874,310.941 171.295,310.206 C171.348,310.154 171.348,310.101 171.399,310.048 C171.45,309.995 171.452,309.943 171.505,309.89 C171.662,309.574 171.768,309.312 171.872,308.945 C171.925,308.84 171.925,308.787 171.925,308.682 C171.925,308.577 171.978,308.524 171.978,308.419 C171.978,308.314 172.032,308.261 172.032,308.156 C172.139,307.684 172.192,307.211 172.192,306.686 L172.192,301.593 C171.984,300.803 171.827,300.016 171.564,299.281 Z M168.151,305.897 C168.151,307.84 166.786,309.363 165.105,309.363 L156.073,309.363 C154.393,309.363 153.027,307.788 153.027,305.897 L153.027,302.484 C153.027,302.012 153.08,301.592 153.237,301.171 C153.237,301.118 153.29,301.013 153.342,300.961 L153.342,300.908 C153.395,300.855 153.395,300.804 153.447,300.698 C153.447,300.698 153.447,300.698 153.447,300.645 C153.5,300.593 153.5,300.541 153.552,300.435 C153.605,300.382 153.605,300.33 153.657,300.277 C153.71,300.172 153.762,300.119 153.867,300.014 C153.92,299.961 153.92,299.909 153.972,299.909 C153.972,299.909 153.972,299.856 154.025,299.856 C154.078,299.804 154.129,299.752 154.183,299.698 L154.183,299.698 C154.236,299.646 154.288,299.593 154.341,299.54 C154.551,299.382 154.761,299.277 154.971,299.172 L154.971,299.172 C155.024,299.172 155.076,299.12 155.076,299.12 C155.18,299.067 155.339,299.015 155.443,299.015 C155.496,299.015 155.496,299.015 155.548,299.015 C155.653,299.015 155.758,298.963 155.864,298.963 C155.917,298.963 155.969,298.963 156.022,298.963 L165.054,298.963 C165.421,298.963 165.789,299.067 166.157,299.173 C167.313,299.698 168.1,300.958 168.1,302.429 L168.1,305.895 L168.151,305.897 L168.151,305.897 Z" id="Shape" fill="#98A8B3"></path>
                    <path d="M214.937,300.803 C214.937,300.855 214.937,300.855 214.937,300.907 C214.937,301.117 214.885,301.328 214.885,301.537 C214.832,301.957 214.779,302.378 214.727,302.745 C214.675,303.166 214.623,303.586 214.517,303.953 C214.464,304.111 214.464,304.32 214.413,304.478 C214.361,304.636 214.361,304.793 214.309,304.95 C214.255,305.108 214.255,305.318 214.203,305.475 C214.15,305.685 214.099,305.895 214.046,306.105 C211.315,306.525 208.532,306.893 205.697,307.26 C204.594,307.418 203.544,307.523 202.441,307.68 C203.072,303.899 203.176,300.066 202.809,296.233 L202.757,295.708 L202.757,295.708 C206.748,295.13 210.633,294.5 214.466,293.765 C214.676,295.813 214.834,297.808 214.939,299.856 L214.937,300.803 L214.937,300.803 Z" id="Shape" fill="#161E23"></path>
                    <path d="M167.678,224.402 C167.678,228.445 166.628,232.436 164.58,235.954 L156.231,235.954 C154.184,232.436 153.133,228.445 153.133,224.402 C153.133,223.772 153.186,223.142 153.238,222.511 L153.238,222.353 L160.431,219.78 L167.625,222.353 L167.625,222.511 C167.678,223.142 167.678,223.772 167.678,224.402 Z" id="Shape" fill="#EB4C36"></path>
                    <path d="M160.59,219.781 L168.571,236.006 L168.571,236.006 C178.023,231.07 186.162,224.034 192.463,215.422 L195.299,211.484 L160.59,219.781 Z" id="Shape" fill="#C3D2D8"></path>
                    <path d="M160.432,219.781 L152.451,236.006 L152.451,236.006 C142.999,231.07 134.86,224.034 128.559,215.422 L125.723,211.484 L160.432,219.781 Z" id="Shape" fill="#C3D2D8"></path>
                    <path d="M169.044,277.069 C169.044,281.427 167.469,285.68 164.581,288.989 L160.433,293.767 L156.285,288.989 C153.397,285.68 151.822,281.428 151.822,277.069 C151.822,276.386 151.875,275.756 151.927,275.074 L152.399,270.978 L152.609,269.14 L156.285,235.901 L160.486,235.008 L164.687,235.901 L168.363,269.14 L168.572,270.978 L169.045,275.074 C169.044,275.756 169.044,276.439 169.044,277.069 Z" id="Shape" fill="#EB4C36"></path>
                    <path d="M243.24,310.15 C243.24,317.869 238.252,325.115 230.27,327.425 L179.283,342.128 L174.715,343.441 L173.612,343.757 L160.432,347.538 L140.899,360.35 L146.15,343.442 L160.433,333.518 L215.043,295.501 C224.128,289.2 236.73,292.508 241.508,302.537 C242.663,304.952 243.24,307.577 243.24,310.15 Z" id="Shape" fill="#29333D"></path>
                    <path d="M179.966,360.297 L160.432,347.485 L146.149,343.389 L145.624,343.231 L142.001,342.181 L90.594,327.373 C82.613,325.063 77.624,317.816 77.624,310.097 C77.624,307.525 78.202,304.899 79.357,302.379 C84.135,292.402 96.685,289.042 105.822,295.343 L160.432,333.36 L174.557,343.179 L174.767,343.284 L179.966,360.297 Z" id="Shape" fill="#29333D"></path>
                    <g transform="translate(66.000000, 0.000000)">
                        <path d="M56.888,69.551 L56.888,40.566 L48.329,36.365 C38.457,31.534 26.59,33.582 18.871,41.458 L18.871,41.458 C14.198,46.236 11.572,52.643 11.572,59.311 L11.572,59.311 C11.572,80.525 13.62,101.686 17.768,122.48 L20.236,134.925 L56.888,69.551 Z" id="Shape" fill="#292B2A"></path>
                        <path d="M131.556,69.551 L131.556,40.566 L140.115,36.365 C150.039,31.534 161.906,33.582 169.626,41.458 L169.626,41.458 C174.299,46.236 176.925,52.643 176.925,59.311 L176.925,59.311 C176.925,80.525 174.877,101.686 170.728,122.48 L168.261,134.925 L131.556,69.551 Z" id="Shape" fill="#0E0E0E"></path>
                        <path d="M168.838,138.496 C168.838,144.745 168.47,150.993 167.682,157.189 C167.367,159.709 166.948,162.23 166.423,164.698 C166.16,165.906 165.898,167.113 165.582,168.321 C164.585,172.05 163.377,175.672 161.96,179.19 C159.124,186.121 155.343,192.58 150.827,198.303 C142.531,208.805 131.819,216.524 119.952,220.62 C111.603,223.508 102.991,224.978 94.379,224.978 C85.767,224.978 77.103,223.56 68.807,220.62 C62.873,218.572 57.202,215.632 52.056,211.851 C46.858,208.07 42.132,203.555 37.983,198.304 C33.415,192.58 29.686,186.122 26.851,179.191 C24.015,172.26 22.073,164.856 21.075,157.242 C20.97,156.454 20.865,155.667 20.812,154.932 C19.027,155.72 17.031,156.192 14.931,156.192 C6.95,156.192 0.438,149.681 0.438,141.647 C0.438,133.613 6.949,127.102 14.931,127.102 C16.821,127.102 18.607,127.47 20.287,128.1 C20.655,122.534 21.39,117.02 22.387,111.507 L29.791,71.127 L30.736,65.929 L31.156,63.671 L157.651,63.671 L160.172,77.481 L160.645,80.211 L166.368,111.559 C168.05,120.433 168.838,129.465 168.838,138.496 Z" id="Shape" fill="#FECC8B"></path>
                        <path d="M188.529,141.594 C188.529,149.628 182.018,156.139 174.036,156.139 C171.882,156.139 169.782,155.666 167.944,154.774 C167.84,155.562 167.787,156.402 167.681,157.189 C166.736,164.855 164.793,172.259 161.905,179.138 C159.071,186.069 155.289,192.528 150.774,198.251 C142.477,208.753 131.766,216.472 119.898,220.568 C111.55,223.456 102.938,224.927 94.326,224.927 C91.07,224.927 87.815,224.717 84.612,224.297 C89.967,223.614 95.271,222.354 100.469,220.568 C112.337,216.472 122.996,208.753 131.345,198.251 C135.913,192.528 139.642,186.069 142.476,179.138 C145.312,172.207 147.255,164.803 148.252,157.189 C149.04,150.993 149.408,144.744 149.408,138.496 C149.408,129.464 148.62,120.433 146.993,111.506 L138.224,63.617 L157.653,63.617 L166.423,111.506 C167.42,117.02 168.103,122.586 168.523,128.152 C170.255,127.417 172.093,127.049 174.089,127.049 C182.07,127.102 188.529,133.561 188.529,141.594 Z" id="Shape" fill="#E4B380"></path>
                        <ellipse id="Oval" fill="#F5846B" opacity="0.5" cx="131.924" cy="150.836" rx="13.6" ry="4.778"></ellipse>
                        <ellipse id="Oval" fill="#F5846B" opacity="0.5" cx="56.888" cy="150.836" rx="13.6" ry="4.778"></ellipse>
                        <path d="M171.989,148.788 L171.411,144.115 C170.99,140.439 172.145,136.816 174.614,134.086 L174.614,134.086 C175.874,132.668 178.132,132.773 179.34,134.244 L181.44,136.922 L178.919,135.347 C177.869,134.664 176.452,134.769 175.506,135.662 L175.506,135.662 C173.458,137.552 172.251,140.23 172.145,143.066 L171.989,148.788 Z" id="Shape" fill="#80644A"></path>
                        <path d="M15.93,148.788 L16.508,144.115 C16.928,140.439 15.773,136.816 13.305,134.086 L13.305,134.086 C12.045,132.668 9.787,132.773 8.579,134.244 L6.479,136.922 L8.999,135.347 C10.049,134.664 11.467,134.769 12.412,135.662 L12.412,135.662 C14.46,137.552 15.668,140.23 15.773,143.066 L15.93,148.788 Z" id="Shape" fill="#80644A"></path>
                        <path d="M160.647,80.158 C145.576,88.665 128.458,93.495 110.238,93.495 C79.677,93.495 50.482,86.564 30.528,65.927 L30.948,63.669 L157.654,63.669 L160.175,77.479 L160.647,80.158 Z" id="Shape" fill="#E4B380"></path>
                        <path d="M104.356,86.669 C103.883,86.669 103.411,86.669 102.886,86.669 C109.607,87.404 116.328,87.719 123.102,87.719 C128.143,87.719 133.183,87.509 138.224,87.141 C120.056,89.556 101.677,89.241 83.72,86.143 C78.364,85.25 73.008,84.043 67.757,82.677 C67.757,82.677 67.757,82.677 67.704,82.677 C66.706,82.414 65.709,82.152 64.711,81.837 L60.353,80.577 C72.43,88.611 85.978,94.334 100.365,97.38 L106.141,98.588 L96.269,97.223 C74.005,94.072 53.106,84.516 36.199,69.655 L30.475,64.614 L30.475,64.614 C26.379,61.148 22.546,57.263 19.133,52.799 C18.818,52.431 20.446,43.977 20.131,43.61 C40.031,17.303 70.382,0.5 104.355,0.5 C138.381,0.5 168.731,17.303 188.528,43.61 C173.615,63.406 152.716,77.846 128.772,83.727 C120.949,85.672 112.758,86.669 104.356,86.669 Z" id="Shape" fill="#292B2A"></path>
                        <path d="M67.757,82.679 C65.289,82.049 62.821,81.366 60.406,80.631 L64.764,81.891 C65.762,82.154 66.76,82.416 67.757,82.679 Z" id="Shape" fill="#292B2A"></path>
                        <path d="M104.356,86.669 C103.883,86.669 103.411,86.669 102.886,86.669 C109.607,87.404 116.328,87.719 123.102,87.719 C128.143,87.719 133.183,87.509 138.224,87.141 C120.056,89.556 101.677,89.241 83.72,86.143 L85.4,85.723 C95.167,83.413 104.881,79.894 114.438,75.536 C138.697,64.562 156.655,45.08 166.79,21.714 C174.929,27.91 182.28,35.261 188.529,43.558 C173.616,63.354 152.717,77.794 128.773,83.675 L128.773,83.675 C128.72,83.675 128.72,83.675 128.668,83.728 C128.458,83.781 128.247,83.833 128.037,83.886 C127.774,83.939 127.565,83.991 127.303,84.044 C127.145,84.097 126.935,84.149 126.778,84.149 C126.568,84.202 126.41,84.254 126.199,84.254 C126.042,84.307 125.832,84.307 125.674,84.359 C125.517,84.412 125.307,84.412 125.149,84.464 C125.096,84.464 124.992,84.517 124.94,84.517 C124.782,84.57 124.572,84.57 124.415,84.622 C123.994,84.727 123.522,84.78 123.102,84.885 C122.839,84.938 122.577,84.99 122.367,85.043 C122.157,85.096 121.894,85.148 121.684,85.148 C121.421,85.201 121.106,85.253 120.844,85.306 C120.634,85.359 120.423,85.359 120.214,85.411 C120.16,85.411 120.108,85.411 120.056,85.411 C119.793,85.464 119.583,85.464 119.321,85.516 C118.533,85.621 117.798,85.726 117.011,85.831 C116.748,85.884 116.486,85.884 116.223,85.936 C115.96,85.989 115.698,85.989 115.435,86.041 C115.226,86.041 115.015,86.094 114.805,86.094 C114.49,86.147 114.175,86.147 113.913,86.199 C113.755,86.199 113.597,86.252 113.44,86.252 C112.547,86.305 111.707,86.41 110.815,86.462 C110.657,86.462 110.5,86.462 110.342,86.515 C110.184,86.515 110.079,86.515 109.921,86.515 C109.081,86.568 108.241,86.62 107.349,86.62 C107.139,86.62 106.981,86.62 106.77,86.62 C105.932,86.669 105.144,86.669 104.356,86.669 Z" id="Shape" fill="#0E0E0E"></path>
                        <path d="M116.959,85.934 C117.747,85.829 118.482,85.724 119.269,85.619 C118.481,85.724 117.746,85.829 116.959,85.934 Z" id="Shape" fill="#0E0E0E"></path>
                        <path d="M166.686,114.657 L155.922,114.657 C153.926,113.029 151.459,112.137 148.886,112.137 L127.305,112.137 C123.524,112.137 119.796,112.662 116.224,113.66 C112.654,114.658 109.189,116.18 105.985,118.123 C104.305,119.173 102.467,119.961 100.525,120.486 C98.634,121.011 96.639,121.326 94.643,121.326 C92.648,121.326 90.652,121.063 88.762,120.486 C86.872,119.961 85.034,119.173 83.302,118.123 C80.098,116.18 76.633,114.657 73.063,113.66 C69.492,112.662 65.764,112.137 61.983,112.137 L40.4,112.137 C37.827,112.137 35.359,113.03 33.364,114.657 L22.6,114.657 C20.552,114.657 18.924,116.337 18.924,118.333 L18.924,121.904 C18.924,123.269 19.659,124.477 20.814,125.16 L23.912,126.893 L24.962,136.502 C25.54,142.068 27.798,147.266 31.316,151.572 C33.574,154.25 36.357,156.403 39.455,157.821 C42.553,159.239 45.966,160.026 49.432,160.026 L61.877,160.026 C68.388,160.026 74.584,157.243 78.943,152.412 C80.676,150.522 82.147,148.474 83.459,146.268 C84.772,144.063 85.874,141.805 86.767,139.389 L91.335,126.892 L98.004,126.892 L102.572,139.389 C103.465,141.804 104.568,144.062 105.881,146.268 C107.194,148.473 108.717,150.521 110.397,152.412 C114.756,157.243 120.951,160.026 127.463,160.026 L139.908,160.026 C143.426,160.026 146.839,159.238 149.937,157.821 C153.035,156.351 155.818,154.25 158.023,151.572 C161.593,147.319 163.799,142.068 164.377,136.502 L165.427,126.893 L168.525,125.16 C169.68,124.477 170.415,123.27 170.415,121.904 L170.415,118.333 C170.361,116.337 168.733,114.657 166.686,114.657 Z M78.942,145.165 C76.264,149.523 72.378,154.092 70.278,155.299 C68.178,156.507 61.142,157.504 54.578,157.504 C48.067,157.504 40.453,155.929 37.722,153.986 C34.991,152.043 31.893,148.578 30.843,146.215 C29.793,143.852 28.953,138.391 28.953,134.033 C28.953,129.675 31.316,124.004 34.256,121.431 C37.144,118.858 45.808,116.758 53.475,116.758 C61.142,116.758 71.118,118.543 75.634,120.749 C80.15,122.902 83.826,127.523 83.826,131.041 C83.773,134.401 81.62,140.807 78.942,145.165 Z M158.441,146.163 C157.391,148.473 154.293,151.992 151.562,153.934 C148.832,155.877 141.218,157.452 134.706,157.452 C128.142,157.452 121.106,156.454 119.006,155.247 C116.906,154.039 113.02,149.471 110.342,145.113 C107.664,140.755 105.512,134.349 105.512,130.883 C105.512,127.417 109.188,122.797 113.703,120.591 C118.219,118.438 128.196,116.6 135.862,116.6 C143.528,116.6 152.192,118.7 155.08,121.273 C157.968,123.846 160.385,129.517 160.385,133.875 C160.331,138.339 159.491,143.852 158.441,146.163 Z" id="Shape" fill="#161E23"></path>
                        <circle id="Oval" fill="#AAC7D3" cx="24.332" cy="120.381" r="2.31"></circle>
                        <circle id="Oval" fill="#AAC7D3" cx="164.532" cy="120.381" r="2.31"></circle>
                        <path d="M108.295,154.669 L108.295,154.669 C108.19,154.827 108.085,154.932 107.98,155.089 C107.455,155.719 106.877,156.297 106.3,156.822 C106.09,156.98 105.932,157.137 105.721,157.295 C105.617,157.4 105.512,157.453 105.406,157.558 C104.566,158.241 103.674,158.871 102.728,159.396 C98.37,161.916 93.066,161.916 88.708,159.396 C87.71,158.818 86.817,158.188 85.925,157.453 C85.662,157.243 85.4,156.98 85.084,156.77 C84.979,156.665 84.874,156.612 84.769,156.507 C84.296,156.034 83.824,155.562 83.351,155.037 C83.246,154.932 83.141,154.827 83.036,154.669 L83.036,154.616 L83.561,154.931 L83.928,155.141 C84.874,155.719 85.871,156.191 86.921,156.611 C88.549,157.294 90.282,157.766 92.067,158.029 C93.275,158.239 94.483,158.292 95.69,158.292 C97.738,158.292 99.786,158.029 101.781,157.504 L101.835,157.504 C101.992,157.451 102.098,157.451 102.255,157.399 C104.093,156.874 105.826,156.139 107.453,155.194 L107.768,155.036 L108.295,154.669 Z" id="Shape" fill="#80644A"></path>
                        <path d="M141.848,128.362 C141.06,128.362 140.325,128.94 140.22,129.727 C139.589,133.403 136.334,136.186 132.501,136.186 C128.616,136.186 125.412,133.403 124.783,129.727 C124.625,128.939 123.943,128.362 123.155,128.362 L123.155,128.362 C122.105,128.362 121.317,129.307 121.527,130.357 C122.472,135.608 127.041,139.546 132.554,139.546 C138.068,139.546 142.635,135.555 143.581,130.357 C143.633,129.307 142.898,128.362 141.848,128.362 L141.848,128.362 Z" id="Shape" fill="#80644A"></path>
                        <path d="M67.022,128.362 C66.234,128.362 65.499,128.94 65.394,129.727 C64.764,133.403 61.508,136.186 57.675,136.186 C53.789,136.186 50.586,133.403 49.956,129.727 C49.798,128.939 49.116,128.362 48.328,128.362 L48.328,128.362 C47.278,128.362 46.49,129.307 46.7,130.357 C47.645,135.608 52.214,139.546 57.727,139.546 C63.24,139.546 67.809,135.555 68.754,130.357 C68.807,129.307 68.072,128.362 67.022,128.362 L67.022,128.362 Z" id="Shape" fill="#80644A"></path>
                        <path d="M120.319,179.979 L118.902,180.714 C111.866,184.442 103.989,186.385 96.06,186.385 C88.079,186.385 80.254,184.442 73.218,180.714 L71.8,179.979 L73.953,180.609 C81.147,182.709 88.551,183.812 96.06,183.812 C103.516,183.812 110.972,182.762 118.167,180.609 L120.319,179.979 Z" id="Shape" fill="#80644A"></path>
                        <path d="M97.898,196.782 C97.11,198.252 95.01,198.252 94.222,196.782 L97.898,196.782 Z" id="Shape" fill="#80644A"></path>
                    </g>
                </g>
                <path d="M60.639,46.925 L76.549,67.824 L73.871,69.609 C55.808,81.634 32.493,82.211 13.853,71.132 L13.853,71.132 L0.568,41.569 L5.871,45.455 C22.097,57.165 43.836,57.742 60.639,46.925 L60.639,46.925 Z" id="Shape" fill="#3C5268" opacity="0.25"></path>
            </g>
        </g>
    </g>
</svg>