<?xml version="1.0" encoding="UTF-8"?>
<svg width="540px" height="257px" viewBox="0 0 540 257" version="1.1" xmlns="http://www.w3.org/2000/svg" xmlns:xlink="http://www.w3.org/1999/xlink">
    <!-- Generator: Sketch 46.2 (44496) - http://www.bohemiancoding.com/sketch -->
    <title>list-of-exam</title>
    <desc>Created with Sketch.</desc>
    <defs></defs>
    <g id="Page-1" stroke="none" stroke-width="1" fill="none" fill-rule="evenodd">
        <g id="list-of-exam">
            <circle id="Oval-3" fill="#5DC451" cx="117.5" cy="52.5" r="52.5"></circle>
            <circle id="Oval-4" fill="#E55959" cx="134" cy="183" r="65"></circle>
            <circle id="Oval-5" fill="#7DDAEA" cx="270.5" cy="81.5" r="66.5"></circle>
            <circle id="Oval-8" fill="#8F62D7" cx="396.5" cy="182.5" r="66.5"></circle>
            <circle id="Oval-6" fill="#3EA7DC" cx="265" cy="220" r="37"></circle>
            <circle id="Oval-7" fill="#5CCA9D" cx="382" cy="53" r="37"></circle>
            <circle id="Oval-9" fill="#E9AC63" cx="490" cy="84" r="50"></circle>
            <circle id="Oval-2" fill="#98B1EC" cx="32.5" cy="114.5" r="32.5"></circle>
            <g id="IIT" transform="translate(103.000000, 162.000000)" fill="#FFFFFF">
                <path d="M5.096,10.952 L2.036,10.484 L2.036,8.252 L13.556,8.252 L13.556,10.484 L10.388,10.952 L10.388,32.48 L13.556,32.876 L13.556,35 L2.036,35 L2.036,32.84 L5.096,32.48 L5.096,10.952 Z M19.892,10.952 L16.832,10.484 L16.832,8.252 L28.352,8.252 L28.352,10.484 L25.184,10.952 L25.184,32.48 L28.352,32.876 L28.352,35 L16.832,35 L16.832,32.84 L19.892,32.48 L19.892,10.952 Z M40.124,10.628 L34.976,10.808 L33.572,18.656 L30.548,18.656 L31.16,8.252 L54.38,8.252 L54.812,18.656 L51.968,18.656 L50.564,10.808 L45.488,10.628 L45.488,32.48 L50.528,32.84 L50.528,35 L35.516,35 L35.516,32.84 L40.124,32.48 L40.124,10.628 Z"></path>
            </g>
            <g id="AIIMS" transform="translate(339.000000, 162.000000)" fill="#FFFFFF">
                <path d="M10.466,8.108 L15.974,8.108 L24.29,32.48 L26.378,32.84 L26.378,35 L15.758,35 L15.758,32.84 L18.458,32.48 L17.054,27.8 L7.73,27.8 L6.326,32.516 L9.242,32.84 L9.242,35 L0.062,35 L0.026,32.84 L2.186,32.48 L10.466,8.108 Z M12.95,14.192 L12.302,11.384 L11.618,14.228 L8.414,25.28 L16.334,25.28 L12.95,14.192 Z M30.626,10.952 L27.566,10.484 L27.566,8.252 L39.086,8.252 L39.086,10.484 L35.918,10.952 L35.918,32.48 L39.086,32.876 L39.086,35 L27.566,35 L27.566,32.84 L30.626,32.48 L30.626,10.952 Z M45.422,10.952 L42.362,10.484 L42.362,8.252 L53.882,8.252 L53.882,10.484 L50.714,10.952 L50.714,32.48 L53.882,32.876 L53.882,35 L42.362,35 L42.362,32.84 L45.422,32.48 L45.422,10.952 Z M61.262,10.952 L57.374,10.484 L57.374,8.252 L68.606,8.252 L72.89,23.732 L73.898,27.944 L74.762,23.732 L79.01,8.252 L90.134,8.252 L90.134,10.484 L86.21,10.952 L89.09,32.444 L92.006,32.84 L92.006,35 L80.522,35 L80.522,32.84 L83.69,32.48 L82.106,16.712 L81.422,10.124 L80.09,15.668 L74.87,33.884 L71.054,33.884 L65.726,16.604 L63.89,10.124 L63.35,16.712 L61.982,32.48 L65.618,32.84 L65.618,35 L55.61,35 L55.61,32.84 L58.634,32.48 L61.262,10.952 Z M99.314,35.072 C98.2819948,34.8559989 97.1300064,34.5680018 95.858,34.208 C95.0179958,33.9679988 94.4540014,33.8360001 94.166,33.812 L94.49,27.152 L97.406,27.152 L98.198,31.796 C98.5100016,32.1320017 99.067996,32.4319987 99.872,32.696 C100.676004,32.9600013 101.593995,33.092 102.626,33.092 C104.234008,33.092 105.439996,32.7380035 106.244,32.03 C107.048004,31.3219965 107.45,30.3320064 107.45,29.06 C107.45,28.2199958 107.210002,27.4940031 106.73,26.882 C106.249998,26.2699969 105.590004,25.7180025 104.75,25.226 C103.909996,24.7339975 102.758007,24.1640032 101.294,23.516 C99.30199,22.6039954 97.6520065,21.5180063 96.344,20.258 C95.0359935,18.9979937 94.382,17.2880108 94.382,15.128 C94.382,13.7839933 94.7299965,12.5660055 95.426,11.474 C96.1220035,10.3819945 97.1599931,9.51800318 98.54,8.882 C99.9200069,8.24599682 101.60599,7.928 103.598,7.928 C104.774006,7.928 105.811995,8.01199916 106.712,8.18 C107.612004,8.34800084 108.589995,8.57599856 109.646,8.864 C110.270003,9.03200084 110.737998,9.13999976 111.05,9.188 L110.834,15.488 L107.954,15.488 L107.198,11.06 C106.981999,10.8439989 106.550003,10.634001 105.902,10.43 C105.253997,10.225999 104.534004,10.124 103.742,10.124 C102.301993,10.124 101.216004,10.4539967 100.484,11.114 C99.7519963,11.7740033 99.386,12.6559945 99.386,13.76 C99.386,14.6480044 99.6559973,15.4159968 100.196,16.064 C100.736003,16.7120032 101.389996,17.2579978 102.158,17.702 C102.926004,18.1460022 104.137992,18.7759959 105.794,19.592 C107.138007,20.2400032 108.289995,20.8759969 109.25,21.5 C110.210005,22.1240031 111.037997,22.933995 111.734,23.93 C112.430003,24.926005 112.778,26.0959933 112.778,27.44 C112.778,28.7600066 112.448003,30.019994 111.788,31.22 C111.127997,32.420006 110.048007,33.415996 108.548,34.208 C107.047992,35.000004 105.134012,35.396 102.806,35.396 C101.509994,35.396 100.346005,35.2880011 99.314,35.072 Z"></path>
            </g>
            <g id="NIT" transform="translate(357.000000, 39.000000)" fill="#FFFFFF">
                <path d="M3.736,7.968 L1.84,7.656 L1.84,6.168 L7.288,6.168 L14.44,16.968 L15.784,19.704 L15.784,7.968 L13.72,7.656 L13.72,6.168 L19.672,6.168 L19.672,7.656 L17.824,7.968 L17.824,24 L14.92,24 L7.456,12.648 L5.776,9.48 L5.776,22.32 L8.2,22.56 L8.2,24 L1.84,24 L1.84,22.56 L3.736,22.32 L3.736,7.968 Z M23.296,7.968 L21.256,7.656 L21.256,6.168 L28.936,6.168 L28.936,7.656 L26.824,7.968 L26.824,22.32 L28.936,22.584 L28.936,24 L21.256,24 L21.256,22.56 L23.296,22.32 L23.296,7.968 Z M36.784,7.752 L33.352,7.872 L32.416,13.104 L30.4,13.104 L30.808,6.168 L46.288,6.168 L46.576,13.104 L44.68,13.104 L43.744,7.872 L40.36,7.752 L40.36,22.32 L43.72,22.56 L43.72,24 L33.712,24 L33.712,22.56 L36.784,22.32 L36.784,7.752 Z"></path>
            </g>
            <g id="CLAT" transform="translate(246.000000, 212.000000)" font-size="14" font-family="Merriweather-Bold, Merriweather" fill="#FFFFFF" font-weight="bold">
                <text>
                    <tspan x="0.186" y="14">CLAT</tspan>
                </text>
            </g>
            <g id="BITS" transform="translate(7.000000, 105.000000)" fill="#FFFFFF">
                <path d="M2.59666668,6.64 L1.03666668,6.38 L1.03666668,5.14 L4.01666668,5.14 C4.47000228,5.14 5.05666308,5.1133336 5.77666668,5.06 C5.95000088,5.0466666 6.15666548,5.0333334 6.39666668,5.02 C6.63666788,5.0066666 6.91666508,5 7.23666668,5 C9.25001008,5 10.659996,5.2833305 11.4666667,5.85 C12.2733374,6.4166695 12.6766667,7.2599944 12.6766667,8.38 C12.6766667,9.3666716 12.380003,10.1899967 11.7866667,10.85 C11.1933304,11.5100033 10.4166715,11.9133326 9.45666668,12.06 C10.7766733,12.0466666 11.8133296,12.3466636 12.5666667,12.96 C13.3200038,13.5733364 13.6966667,14.4266612 13.6966667,15.52 C13.6966667,16.9066736 13.2100049,18.0199958 12.2366667,18.86 C11.2633285,19.7000042 9.63667808,20.12 7.35666668,20.12 C6.75666368,20.12 6.20333588,20.1000002 5.69666668,20.06 C5.56333268,20.06 5.33666828,20.0500001 5.01666668,20.03 C4.69666508,20.0099999 4.37000168,20 4.03666668,20 L1.01666668,20 L1.01666668,18.8 L2.59666668,18.6 L2.59666668,6.64 Z M6.39666668,11.64 L7.33666668,11.64 C8.15000408,11.64 8.75666468,11.3866692 9.15666668,10.88 C9.55666868,10.3733308 9.75666668,9.6600046 9.75666668,8.74 C9.75666668,7.8599956 9.55000208,7.220002 9.13666668,6.82 C8.72333128,6.419998 8.03667148,6.22 7.07666668,6.22 C6.82333208,6.22 6.29667068,6.2466664 5.49666668,6.3 L5.49666668,11.62 C5.64333408,11.6333334 5.94333108,11.64 6.39666668,11.64 Z M7.25666668,18.86 C8.39000568,18.86 9.20999748,18.593336 9.71666668,18.06 C10.2233359,17.526664 10.4766667,16.7533384 10.4766667,15.74 C10.4766667,14.7666618 10.246669,14.0700021 9.78666668,13.65 C9.32666438,13.2299979 8.59667168,13.02 7.59666668,13.02 C6.47666108,13.02 5.77666808,13.0333332 5.49666668,13.06 L5.49666668,18.68 C5.80333488,18.8000006 6.38999568,18.86 7.25666668,18.86 Z M16.9566667,6.64 L15.2566667,6.38 L15.2566667,5.14 L21.6566667,5.14 L21.6566667,6.38 L19.8966667,6.64 L19.8966667,18.6 L21.6566667,18.82 L21.6566667,20 L15.2566667,20 L15.2566667,18.8 L16.9566667,18.6 L16.9566667,6.64 Z M28.1966667,6.46 L25.3366667,6.56 L24.5566667,10.92 L22.8766667,10.92 L23.2166667,5.14 L36.1166667,5.14 L36.3566667,10.92 L34.7766667,10.92 L33.9966667,6.56 L31.1766667,6.46 L31.1766667,18.6 L33.9766667,18.8 L33.9766667,20 L25.6366667,20 L25.6366667,18.8 L28.1966667,18.6 L28.1966667,6.46 Z M40.7966667,20.04 C40.2233305,19.9199994 39.5833369,19.760001 38.8766667,19.56 C38.4099977,19.426666 38.0966675,19.3533334 37.9366667,19.34 L38.1166667,15.64 L39.7366667,15.64 L40.1766667,18.22 C40.3500009,18.4066676 40.6599978,18.5733326 41.1066667,18.72 C41.5533356,18.8666674 42.0633305,18.94 42.6366667,18.94 C43.5300045,18.94 44.1999978,18.7433353 44.6466667,18.35 C45.0933356,17.9566647 45.3166667,17.4066702 45.3166667,16.7 C45.3166667,16.233331 45.1833347,15.8300017 44.9166667,15.49 C44.6499987,15.1499983 44.2833357,14.8433347 43.8166667,14.57 C43.3499977,14.2966653 42.7100041,13.9800018 41.8966667,13.62 C40.7899945,13.1133308 39.873337,12.5100035 39.1466667,11.81 C38.4199964,11.1099965 38.0566667,10.160006 38.0566667,8.96 C38.0566667,8.2133296 38.2499981,7.5366697 38.6366667,6.93 C39.0233353,6.3233303 39.5999962,5.8433351 40.3666667,5.49 C41.1333372,5.1366649 42.0699945,4.96 43.1766667,4.96 C43.8300033,4.96 44.4066642,5.0066662 44.9066667,5.1 C45.4066692,5.1933338 45.9499971,5.3199992 46.5366667,5.48 C46.8833351,5.5733338 47.1433325,5.6333332 47.3166667,5.66 L47.1966667,9.16 L45.5966667,9.16 L45.1766667,6.7 C45.0566661,6.5799994 44.8166685,6.4633339 44.4566667,6.35 C44.0966649,6.2366661 43.6966689,6.18 43.2566667,6.18 C42.4566627,6.18 41.8533354,6.3633315 41.4466667,6.73 C41.039998,7.0966685 40.8366667,7.5866636 40.8366667,8.2 C40.8366667,8.6933358 40.9866652,9.1199982 41.2866667,9.48 C41.5866682,9.8400018 41.9499979,10.1433321 42.3766667,10.39 C42.8033355,10.6366679 43.4766621,10.9866644 44.3966667,11.44 C45.1433371,11.8000018 45.7833307,12.1533316 46.3166667,12.5 C46.8500027,12.8466684 47.3099981,13.2966639 47.6966667,13.85 C48.0833353,14.4033361 48.2766667,15.0533296 48.2766667,15.8 C48.2766667,16.533337 48.0933352,17.23333 47.7266667,17.9 C47.3599982,18.56667 46.7600042,19.1199978 45.9266667,19.56 C45.0933292,20.0000022 44.0300065,20.22 42.7366667,20.22 C42.0166631,20.22 41.3700029,20.1600006 40.7966667,20.04 Z"></path>
            </g>
            <g id="AIPMT" transform="translate(448.000000, 68.000000)" fill="#FFFFFF">
                <path d="M6.836,6.072 L10.508,6.072 L16.052,22.32 L17.444,22.56 L17.444,24 L10.364,24 L10.364,22.56 L12.164,22.32 L11.228,19.2 L5.012,19.2 L4.076,22.344 L6.02,22.56 L6.02,24 L-0.1,24 L-0.124,22.56 L1.316,22.32 L6.836,6.072 Z M8.492,10.128 L8.06,8.256 L7.604,10.152 L5.468,17.52 L10.748,17.52 L8.492,10.128 Z M20.276,7.968 L18.236,7.656 L18.236,6.168 L25.916,6.168 L25.916,7.656 L23.804,7.968 L23.804,22.32 L25.916,22.584 L25.916,24 L18.236,24 L18.236,22.56 L20.276,22.32 L20.276,7.968 Z M29.852,7.968 L28.052,7.656 L28.052,6.168 L31.676,6.168 C32.0120017,6.168 32.5319965,6.15200016 33.236,6.12 C34.1640046,6.05599968 35.0039962,6.024 35.756,6.024 C37.4200083,6.024 38.7359952,6.22799796 39.704,6.636 C40.6720048,7.04400204 41.359998,7.6279962 41.768,8.388 C42.176002,9.1480038 42.38,10.1119942 42.38,11.28 C42.38,13.2960101 41.7520063,14.8639944 40.496,15.984 C39.2399937,17.1040056 37.5000111,17.664 35.276,17.664 C34.3959956,17.664 33.7640019,17.6400002 33.38,17.592 L33.38,22.32 L36.596,22.56 L36.596,24 L27.956,24 L27.956,22.56 L29.852,22.32 L29.852,7.968 Z M35.228,16.176 C36.3000054,16.176 37.1599968,15.8040037 37.808,15.06 C38.4560032,14.3159963 38.78,13.0800086 38.78,11.352 C38.78,10.0079933 38.4880029,9.02800308 37.904,8.412 C37.3199971,7.79599692 36.428006,7.488 35.228,7.488 C34.7799978,7.488 34.3160024,7.51999968 33.836,7.584 C33.6119989,7.61600016 33.4520005,7.632 33.356,7.632 L33.356,16.056 C33.7240018,16.1360004 34.3479956,16.176 35.228,16.176 Z M46.7,7.968 L44.108,7.656 L44.108,6.168 L51.596,6.168 L54.452,16.488 L55.124,19.296 L55.7,16.488 L58.532,6.168 L65.948,6.168 L65.948,7.656 L63.332,7.968 L65.252,22.296 L67.196,22.56 L67.196,24 L59.54,24 L59.54,22.56 L61.652,22.32 L60.596,11.808 L60.14,7.416 L59.252,11.112 L55.772,23.256 L53.228,23.256 L49.676,11.736 L48.452,7.416 L48.092,11.808 L47.18,22.32 L49.604,22.56 L49.604,24 L42.932,24 L42.932,22.56 L44.948,22.32 L46.7,7.968 Z M74.036,7.752 L70.604,7.872 L69.668,13.104 L67.652,13.104 L68.06,6.168 L83.54,6.168 L83.828,13.104 L81.932,13.104 L80.996,7.872 L77.612,7.752 L77.612,22.32 L80.972,22.56 L80.972,24 L70.964,24 L70.964,22.56 L74.036,22.32 L74.036,7.752 Z"></path>
            </g>
            <g id="COMEDK" transform="translate(215.000000, 70.000000)" fill="#FFFFFF">
                <path d="M3.06,21.828 C1.6199928,20.2039919 0.9,17.9840141 0.9,15.168 C0.9,13.3119907 1.2799962,11.6920069 2.04,10.308 C2.8000038,8.92399308 3.84399336,7.85600376 5.172,7.104 C6.50000664,6.35199624 8.0039916,5.976 9.684,5.976 C10.3880035,5.976 11.0679967,6.01999956 11.724,6.108 C12.3800033,6.19600044 13.1559955,6.31199928 14.052,6.456 C14.7240034,6.56800056 15.0919997,6.624 15.156,6.624 L14.892,11.568 L12.684,11.568 L11.94,8.136 C11.7639991,7.95999912 11.4600022,7.81600056 11.028,7.704 C10.5959978,7.59199944 10.0440034,7.536 9.372,7.536 C8.0119932,7.536 6.92000412,8.16399372 6.096,9.42 C5.27199588,10.6760063 4.86,12.4959881 4.86,14.88 C4.86,17.1840115 5.25199608,19.0639927 6.036,20.52 C6.82000392,21.9760073 7.96399248,22.704 9.468,22.704 C10.1880036,22.704 10.743998,22.6360007 11.136,22.5 C11.528002,22.3639993 11.8599986,22.1680013 12.132,21.912 L13.188,19.44 L15.204,19.632 L14.724,23.352 C14.3879983,23.3840002 14.0560016,23.4439996 13.728,23.532 C13.3999984,23.6200004 13.1960004,23.6719999 13.116,23.688 C12.4759968,23.8640009 11.8800028,24.0039995 11.328,24.108 C10.7759972,24.2120005 10.100004,24.264 9.3,24.264 C6.5799864,24.264 4.5000072,23.4520081 3.06,21.828 Z M18.66,21.816 C17.3639935,20.1839918 16.716,17.9600141 16.716,15.144 C16.716,13.3039908 17.0559966,11.688007 17.736,10.296 C18.4160034,8.90399304 19.3719938,7.83200376 20.604,7.08 C21.8360062,6.32799624 23.251992,5.952 24.852,5.952 C27.4920132,5.952 29.4719934,6.7319922 30.792,8.292 C32.1120066,9.8520078 32.772,12.031986 32.772,14.832 C32.772,16.6880093 32.4240035,18.3319928 31.728,19.764 C31.0319965,21.1960072 30.0600062,22.3039961 28.812,23.088 C27.5639938,23.8720039 26.1320081,24.264 24.516,24.264 C21.907987,24.264 19.9560065,23.4480082 18.66,21.816 Z M21.684,9.36 C20.9479963,10.6560065 20.58,12.5759873 20.58,15.12 C20.58,17.6320126 20.9359964,19.5399935 21.648,20.844 C22.3600036,22.1480065 23.3799934,22.8 24.708,22.8 C26.0040065,22.8 27.0199963,22.1160068 27.756,20.748 C28.4920037,19.3799932 28.86,17.4080129 28.86,14.832 C28.86,12.3359875 28.5080035,10.4760061 27.804,9.252 C27.0999965,8.02799388 26.0840066,7.416 24.756,7.416 C23.4439934,7.416 22.4200037,8.06399352 21.684,9.36 Z M37.308,7.968 L34.716,7.656 L34.716,6.168 L42.204,6.168 L45.06,16.488 L45.732,19.296 L46.308,16.488 L49.14,6.168 L56.556,6.168 L56.556,7.656 L53.94,7.968 L55.86,22.296 L57.804,22.56 L57.804,24 L50.148,24 L50.148,22.56 L52.26,22.32 L51.204,11.808 L50.748,7.416 L49.86,11.112 L46.38,23.256 L43.836,23.256 L40.284,11.736 L39.06,7.416 L38.7,11.808 L37.788,22.32 L40.212,22.56 L40.212,24 L33.54,24 L33.54,22.56 L35.556,22.32 L37.308,7.968 Z M60.708,7.968 L58.788,7.656 L58.788,6.168 L71.58,6.168 L71.892,10.2 L70.212,10.2 L69.42,7.824 L64.236,7.608 L64.236,14.064 L67.572,13.992 L67.956,12.024 L69.492,12.024 L69.492,17.832 L67.956,17.832 L67.572,15.768 L64.236,15.696 L64.236,22.464 L70.044,22.176 L71.436,19.104 L73.236,19.608 L72.612,24 L58.812,24 L58.812,22.56 L60.708,22.32 L60.708,7.968 Z M76.428,7.968 L74.628,7.656 L74.628,6.168 L78.132,6.168 C78.6600026,6.168 79.3719955,6.13600032 80.268,6.072 C80.476001,6.05599992 80.7919979,6.04000008 81.216,6.024 C81.6400021,6.00799992 82.0199983,6 82.356,6 C85.3000147,6 87.5039927,6.73599264 88.968,8.208 C90.4320073,9.68000736 91.164,11.7679865 91.164,14.472 C91.164,16.3600094 90.8000036,18.0399926 90.072,19.512 C89.3439964,20.9840074 88.3080067,22.1319959 86.964,22.956 C85.6199933,23.7800041 84.052009,24.192 82.26,24.192 C81.7959977,24.192 81.068005,24.1600003 80.076,24.096 C79.1479954,24.0319997 78.5160017,24 78.18,24 L74.532,24 L74.532,22.56 L76.428,22.32 L76.428,7.968 Z M82.188,22.608 C83.788008,22.5759998 85.0439954,21.9320063 85.956,20.676 C86.8680046,19.4199937 87.324,17.5360126 87.324,15.024 C87.324,12.6399881 86.8760045,10.7960065 85.98,9.492 C85.0839955,8.18799348 83.6920094,7.536 81.804,7.536 C81.403998,7.536 81.0240018,7.55999976 80.664,7.608 C80.3039982,7.65600024 80.0520007,7.68799992 79.908,7.704 L79.908,22.392 C80.4520027,22.5360007 81.2119951,22.608 82.188,22.608 Z M104.604,23.076 C104.219998,22.4599969 103.684003,21.4800067 102.996,20.136 C102.403997,18.9839942 101.908002,18.0560035 101.508,17.352 C101.107998,16.6479965 100.724002,16.0640023 100.356,15.6 L98.22,18.048 L98.22,22.32 L100.284,22.584 L100.284,24 L92.82,24 L92.82,22.56 L94.716,22.32 L94.716,7.968 L92.844,7.656 L92.844,6.168 L100.068,6.168 L100.068,7.656 L98.22,7.968 L98.22,15.792 L104.532,7.968 L102.564,7.656 L102.564,6.168 L109.044,6.168 L109.044,7.656 L107.052,7.968 L102.396,13.2 C102.956003,13.7120026 103.547997,14.4359953 104.172,15.372 C104.796003,16.3080047 105.555996,17.5279925 106.452,19.032 C107.108003,20.1360055 107.603998,20.9399975 107.94,21.444 C108.276002,21.9480025 108.531999,22.2399996 108.708,22.32 L109.836,22.584 L109.836,24 L105.54,24 C105.299999,24 104.988002,23.6920031 104.604,23.076 Z"></path>
            </g>
            <g id="NEET" transform="translate(83.000000, 39.000000)" fill="#FFFFFF">
                <path d="M3.112,7.968 L1.216,7.656 L1.216,6.168 L6.664,6.168 L13.816,16.968 L15.16,19.704 L15.16,7.968 L13.096,7.656 L13.096,6.168 L19.048,6.168 L19.048,7.656 L17.2,7.968 L17.2,24 L14.296,24 L6.832,12.648 L5.152,9.48 L5.152,22.32 L7.576,22.56 L7.576,24 L1.216,24 L1.216,22.56 L3.112,22.32 L3.112,7.968 Z M22.36,7.968 L20.44,7.656 L20.44,6.168 L33.232,6.168 L33.544,10.2 L31.864,10.2 L31.072,7.824 L25.888,7.608 L25.888,14.064 L29.224,13.992 L29.608,12.024 L31.144,12.024 L31.144,17.832 L29.608,17.832 L29.224,15.768 L25.888,15.696 L25.888,22.464 L31.696,22.176 L33.088,19.104 L34.888,19.608 L34.264,24 L20.464,24 L20.464,22.56 L22.36,22.32 L22.36,7.968 Z M38.08,7.968 L36.16,7.656 L36.16,6.168 L48.952,6.168 L49.264,10.2 L47.584,10.2 L46.792,7.824 L41.608,7.608 L41.608,14.064 L44.944,13.992 L45.328,12.024 L46.864,12.024 L46.864,17.832 L45.328,17.832 L44.944,15.768 L41.608,15.696 L41.608,22.464 L47.416,22.176 L48.808,19.104 L50.608,19.608 L49.984,24 L36.184,24 L36.184,22.56 L38.08,22.32 L38.08,7.968 Z M57.736,7.752 L54.304,7.872 L53.368,13.104 L51.352,13.104 L51.76,6.168 L67.24,6.168 L67.528,13.104 L65.632,13.104 L64.696,7.872 L61.312,7.752 L61.312,22.32 L64.672,22.56 L64.672,24 L54.664,24 L54.664,22.56 L57.736,22.32 L57.736,7.752 Z"></path>
            </g>
        </g>
    </g>
</svg>