<?xml version="1.0" encoding="UTF-8"?>
<svg width="558px" height="231px" viewBox="0 0 558 231" version="1.1" xmlns="http://www.w3.org/2000/svg" xmlns:xlink="http://www.w3.org/1999/xlink">
    <!-- Generator: Sketch 46.2 (44496) - http://www.bohemiancoding.com/sketch -->
    <title>Group 7</title>
    <desc>Created with Sketch.</desc>
    <defs>
        <rect id="path-1" x="0" y="0" width="91" height="38" rx="19"></rect>
        <filter x="-3.8%" y="-6.6%" width="107.7%" height="118.4%" filterUnits="objectBoundingBox" id="filter-2">
            <feOffset dx="0" dy="1" in="SourceAlpha" result="shadowOffsetOuter1"></feOffset>
            <feGaussianBlur stdDeviation="1" in="shadowOffsetOuter1" result="shadowBlurOuter1"></feGaussianBlur>
            <feColorMatrix values="0 0 0 0 0.509803922   0 0 0 0 0.505882353   0 0 0 0 0.505882353  0 0 0 1 0" type="matrix" in="shadowBlurOuter1"></feColorMatrix>
        </filter>
        <rect id="path-3" x="0" y="0" width="170" height="38" rx="19"></rect>
        <filter x="-2.1%" y="-6.6%" width="104.1%" height="118.4%" filterUnits="objectBoundingBox" id="filter-4">
            <feOffset dx="0" dy="1" in="SourceAlpha" result="shadowOffsetOuter1"></feOffset>
            <feGaussianBlur stdDeviation="1" in="shadowOffsetOuter1" result="shadowBlurOuter1"></feGaussianBlur>
            <feColorMatrix values="0 0 0 0 0.509803922   0 0 0 0 0.505882353   0 0 0 0 0.505882353  0 0 0 1 0" type="matrix" in="shadowBlurOuter1"></feColorMatrix>
        </filter>
        <rect id="path-5" x="0" y="0" width="154" height="38" rx="19"></rect>
        <filter x="-2.3%" y="-6.6%" width="104.5%" height="118.4%" filterUnits="objectBoundingBox" id="filter-6">
            <feOffset dx="0" dy="1" in="SourceAlpha" result="shadowOffsetOuter1"></feOffset>
            <feGaussianBlur stdDeviation="1" in="shadowOffsetOuter1" result="shadowBlurOuter1"></feGaussianBlur>
            <feColorMatrix values="0 0 0 0 0.509803922   0 0 0 0 0.505882353   0 0 0 0 0.505882353  0 0 0 1 0" type="matrix" in="shadowBlurOuter1"></feColorMatrix>
        </filter>
        <rect id="path-7" x="0" y="0" width="293" height="38" rx="19"></rect>
        <filter x="-1.2%" y="-6.6%" width="102.4%" height="118.4%" filterUnits="objectBoundingBox" id="filter-8">
            <feOffset dx="0" dy="1" in="SourceAlpha" result="shadowOffsetOuter1"></feOffset>
            <feGaussianBlur stdDeviation="1" in="shadowOffsetOuter1" result="shadowBlurOuter1"></feGaussianBlur>
            <feColorMatrix values="0 0 0 0 0.509803922   0 0 0 0 0.505882353   0 0 0 0 0.505882353  0 0 0 1 0" type="matrix" in="shadowBlurOuter1"></feColorMatrix>
        </filter>
        <rect id="path-9" x="0" y="0" width="195" height="38" rx="19"></rect>
        <filter x="-1.8%" y="-6.6%" width="103.6%" height="118.4%" filterUnits="objectBoundingBox" id="filter-10">
            <feOffset dx="0" dy="1" in="SourceAlpha" result="shadowOffsetOuter1"></feOffset>
            <feGaussianBlur stdDeviation="1" in="shadowOffsetOuter1" result="shadowBlurOuter1"></feGaussianBlur>
            <feColorMatrix values="0 0 0 0 0.509803922   0 0 0 0 0.505882353   0 0 0 0 0.505882353  0 0 0 0.988705842 0" type="matrix" in="shadowBlurOuter1"></feColorMatrix>
        </filter>
    </defs>
    <g id="Page-1" stroke="none" stroke-width="1" fill="none" fill-rule="evenodd">
        <g id="Artboard-2" transform="translate(-21.000000, -32.000000)">
            <g id="Group-7" transform="translate(23.000000, 33.000000)">
                <g id="Group-6" transform="translate(92.000000, 37.000000)" stroke="#979797" stroke-linecap="square" stroke-dasharray="1,3">
                    <path d="M149.5,0.5 L149.5,57.5350769" id="Line"></path>
                    <path d="M0.5,62.5 L120.5,76.5" id="Line-2"></path>
                    <path d="M51.5,157.5 L104.5,125.5" id="Line-3"></path>
                    <path d="M195.5,126.5 L238.5,153.5" id="Line-4"></path>
                    <path d="M290.5,61.5 L184.5,75.5" id="Line-5"></path>
                </g>
                <g id="Group" transform="translate(0.000000, 79.000000)">
                    <g id="Rectangle">
                        <use fill="black" fill-opacity="1" filter="url(#filter-2)" xlink:href="#path-1"></use>
                        <use fill="#FFFFFF" fill-rule="evenodd" xlink:href="#path-1"></use>
                    </g>
                    <path d="M32.92,28 L31.384,28 L29.248,22.312 C28.9759986,21.5439962 28.6000024,21.0280013 28.12,20.764 C27.6399976,20.4999987 26.9440046,20.368 26.032,20.368 L21.256,20.368 L21.256,28 L19.768,28 L19.768,10.912 L26.368,10.912 C28.1440089,10.912 29.5199951,11.315996 30.496,12.124 C31.4720049,12.932004 31.96,14.0879925 31.96,15.592 C31.96,16.6960055 31.6680029,17.6239962 31.084,18.376 C30.4999971,19.1280038 29.6640054,19.6559985 28.576,19.96 C29.0720025,20.0400004 29.4959982,20.2479983 29.848,20.584 C30.2000018,20.9200017 30.4959988,21.4159967 30.736,22.072 L32.92,28 Z M26.272,19.072 C29.072014,19.072 30.472,17.9040117 30.472,15.568 C30.472,13.3119887 29.072014,12.184 26.272,12.184 L21.232,12.184 L21.232,19.072 L26.272,19.072 Z M45.854,15.976 L45.854,28 L44.39,28 L44.39,25.696 C44.0379982,26.496004 43.5060036,27.1079979 42.794,27.532 C42.0819964,27.9560021 41.230005,28.168 40.238,28.168 C39.1659946,28.168 38.226004,27.9160025 37.418,27.412 C36.609996,26.9079975 35.9860022,26.1880047 35.546,25.252 C35.1059978,24.3159953 34.886,23.2240062 34.886,21.976 C34.886,20.7279938 35.1099978,19.6280048 35.558,18.676 C36.0060022,17.7239952 36.633996,16.9880026 37.442,16.468 C38.250004,15.9479974 39.1819947,15.688 40.238,15.688 C41.2140049,15.688 42.0579964,15.8959979 42.77,16.312 C43.4820036,16.7280021 44.0219982,17.335996 44.39,18.136 L44.39,15.976 L45.854,15.976 Z M43.358,25.576 C44.0460034,24.7119957 44.39,23.4960078 44.39,21.928 C44.39,20.3439921 44.0460034,19.1200043 43.358,18.256 C42.6699966,17.3919957 41.6940063,16.96 40.43,16.96 C39.1659937,16.96 38.1820035,17.4039956 37.478,18.292 C36.7739965,19.1800044 36.422,20.4079922 36.422,21.976 C36.422,23.5280078 36.7739965,24.7319957 37.478,25.588 C38.1820035,26.4440043 39.1739936,26.872 40.454,26.872 C41.7020062,26.872 42.6699966,26.4400043 43.358,25.576 Z M59.364,20.344 L59.364,28 L57.9,28 L57.9,20.44 C57.9,19.239994 57.6560024,18.3600028 57.168,17.8 C56.6799976,17.2399972 55.9160052,16.96 54.876,16.96 C53.675994,16.96 52.7080037,17.3279963 51.972,18.064 C51.2359963,18.8000037 50.868,19.7919938 50.868,21.04 L50.868,28 L49.428,28 L49.428,19.312 C49.428,18.0639938 49.3640006,16.9520049 49.236,15.976 L50.628,15.976 L50.82,18.184 C51.1880018,17.3679959 51.7399963,16.7480021 52.476,16.324 C53.2120037,15.8999979 54.0599952,15.688 55.02,15.688 C57.9160145,15.688 59.364,17.2399845 59.364,20.344 Z M72.946,28 L70.954,28 L64.33,22.144 L64.33,28 L62.89,28 L62.89,10.336 L64.33,10.336 L64.33,21.568 L70.378,15.976 L72.274,15.976 L65.986,21.76 L72.946,28 Z" id="Rank" fill="#5B5B5B"></path>
                </g>
                <g id="Group-2" transform="translate(384.000000, 79.000000)">
                    <g id="Rectangle">
                        <use fill="black" fill-opacity="1" filter="url(#filter-4)" xlink:href="#path-3"></use>
                        <use fill="#FFFFFF" fill-rule="evenodd" xlink:href="#path-3"></use>
                    </g>
                    <path d="M34.968,10.912 L36.216,10.912 L36.216,28 L34.824,28 L34.824,14.32 L28.824,28 L27.72,28 L21.672,14.44 L21.696,28 L20.304,28 L20.304,10.912 L21.528,10.912 L28.296,26.224 L34.968,10.912 Z M52.688,10.912 L54.176,10.912 L54.176,28 L52.688,28 L52.688,19.984 L41.792,19.984 L41.792,28 L40.304,28 L40.304,10.912 L41.792,10.912 L41.792,18.664 L52.688,18.664 L52.688,10.912 Z M71.416,28 L69.88,28 L67.744,22.312 C67.4719987,21.5439962 67.0960024,21.0280013 66.616,20.764 C66.1359976,20.4999987 65.4400046,20.368 64.528,20.368 L59.752,20.368 L59.752,28 L58.264,28 L58.264,10.912 L64.864,10.912 C66.6400089,10.912 68.0159951,11.315996 68.992,12.124 C69.9680049,12.932004 70.456,14.0879925 70.456,15.592 C70.456,16.6960055 70.1640029,17.6239962 69.58,18.376 C68.9959971,19.1280038 68.1600055,19.6559985 67.072,19.96 C67.5680025,20.0400004 67.9919983,20.2479983 68.344,20.584 C68.6960018,20.9200017 68.9919988,21.4159967 69.232,22.072 L71.416,28 Z M64.768,19.072 C67.568014,19.072 68.968,17.9040117 68.968,15.568 C68.968,13.3119887 67.568014,12.184 64.768,12.184 L59.728,12.184 L59.728,19.072 L64.768,19.072 Z M74.448,10.912 L79.944,10.912 C82.6640136,10.912 84.7599927,11.6479926 86.232,13.12 C87.7040074,14.5920074 88.44,16.6959863 88.44,19.432 C88.44,22.1680137 87.7000074,24.2799926 86.22,25.768 C84.7399926,27.2560074 82.6480135,28 79.944,28 L74.448,28 L74.448,10.912 Z M79.872,26.704 C82.1920116,26.704 83.9359942,26.0920061 85.104,24.868 C86.2720059,23.6439939 86.856,21.832012 86.856,19.432 C86.856,14.6159759 84.5280233,12.208 79.872,12.208 L75.936,12.208 L75.936,26.704 L79.872,26.704 Z M99.388,27.652 C98.3559948,27.2919982 97.440004,26.7280038 96.64,25.96 L97.264,24.784 C98.1120042,25.5360038 98.9719956,26.0719984 99.844,26.392 C100.716004,26.7120016 101.751994,26.872 102.952,26.872 C104.392007,26.872 105.511996,26.576003 106.312,25.984 C107.112004,25.391997 107.512,24.5600054 107.512,23.488 C107.512,22.8639969 107.316002,22.356002 106.924,21.964 C106.531998,21.571998 106.036003,21.2640011 105.436,21.04 C104.835997,20.8159989 104.040005,20.5920011 103.048,20.368 C101.735993,20.0799986 100.668004,19.7800016 99.844,19.468 C99.0199959,19.1559984 98.3280028,18.6880031 97.768,18.064 C97.2079972,17.4399969 96.928,16.6080052 96.928,15.568 C96.928,14.6079952 97.1759975,13.7600037 97.672,13.024 C98.1680025,12.2879963 98.8759954,11.720002 99.796,11.32 C100.716005,10.919998 101.783994,10.72 103,10.72 C104.168006,10.72 105.247995,10.9079981 106.24,11.284 C107.232005,11.6600019 108.087996,12.2159963 108.808,12.952 L108.184,14.128 C107.383996,13.4079964 106.568004,12.8800017 105.736,12.544 C104.903996,12.2079983 103.992005,12.04 103,12.04 C101.559993,12.04 100.436004,12.3519969 99.628,12.976 C98.819996,13.6000031 98.416,14.4559946 98.416,15.544 C98.416,16.4880047 98.7679965,17.1919977 99.472,17.656 C100.176004,18.1200023 101.207993,18.5119984 102.568,18.832 L103.264,19 C104.544006,19.3040015 105.559996,19.5999986 106.312,19.888 C107.064004,20.1760014 107.703997,20.6079971 108.232,21.184 C108.760003,21.7600029 109.024,22.5279952 109.024,23.488 C109.024,24.4160046 108.776002,25.2359964 108.28,25.948 C107.783998,26.6600036 107.076005,27.211998 106.156,27.604 C105.235995,27.996002 104.168006,28.192 102.952,28.192 C101.607993,28.192 100.420005,28.0120018 99.388,27.652 Z M113.712,27.4 C112.863996,26.8879974 112.208002,26.1640047 111.744,25.228 C111.279998,24.2919953 111.048,23.2080062 111.048,21.976 C111.048,20.7279938 111.279998,19.6280048 111.744,18.676 C112.208002,17.7239952 112.871996,16.9880026 113.736,16.468 C114.600004,15.9479974 115.599994,15.688 116.736,15.688 C117.552004,15.688 118.331996,15.8279986 119.076,16.108 C119.820004,16.3880014 120.431998,16.7759975 120.912,17.272 L120.336,18.424 C119.711997,17.9119974 119.116003,17.5400012 118.548,17.308 C117.979997,17.0759988 117.392003,16.96 116.784,16.96 C115.487994,16.96 114.464004,17.4039956 113.712,18.292 C112.959996,19.1800044 112.584,20.4079922 112.584,21.976 C112.584,23.5120077 112.955996,24.7119957 113.7,25.576 C114.444004,26.4400043 115.471993,26.872 116.784,26.872 C117.392003,26.872 117.979997,26.7560012 118.548,26.524 C119.116003,26.2919988 119.711997,25.9280025 120.336,25.432 L120.912,26.56 C120.399997,27.0560025 119.764004,27.4479986 119.004,27.736 C118.243996,28.0240014 117.472004,28.168 116.688,28.168 C115.551994,28.168 114.560004,27.9120026 113.712,27.4 Z M125.108,27.4 C124.267996,26.8879974 123.620002,26.1600047 123.164,25.216 C122.707998,24.2719953 122.48,23.1760062 122.48,21.928 C122.48,20.6799938 122.707998,19.5840047 123.164,18.64 C123.620002,17.6959953 124.267996,16.9680026 125.108,16.456 C125.948004,15.9439974 126.919994,15.688 128.024,15.688 C129.112005,15.688 130.071996,15.9439974 130.904,16.456 C131.736004,16.9680026 132.379998,17.6959953 132.836,18.64 C133.292002,19.5840047 133.52,20.6799938 133.52,21.928 C133.52,23.1760062 133.292002,24.2719953 132.836,25.216 C132.379998,26.1600047 131.736004,26.8879974 130.904,27.4 C130.071996,27.9120026 129.112005,28.168 128.024,28.168 C126.919994,28.168 125.948004,27.9120026 125.108,27.4 Z M130.964,25.588 C131.660003,24.7319957 132.008,23.5120079 132.008,21.928 C132.008,20.3599922 131.656004,19.1400044 130.952,18.268 C130.247996,17.3959956 129.272006,16.96 128.024,16.96 C126.759994,16.96 125.776004,17.3959956 125.072,18.268 C124.367996,19.1400044 124.016,20.3599922 124.016,21.928 C124.016,23.528008 124.359997,24.7519958 125.048,25.6 C125.736003,26.4480042 126.719994,26.872 128,26.872 C129.280006,26.872 130.267997,26.4440043 130.964,25.588 Z M142.648,15.784 L142.576,17.104 C142.271998,17.0399997 141.904002,17.008 141.472,17.008 C140.255994,17.008 139.348003,17.3959961 138.748,18.172 C138.147997,18.9480039 137.848,19.8719946 137.848,20.944 L137.848,28 L136.408,28 L136.408,19.312 C136.408,18.0639938 136.344001,16.9520049 136.216,15.976 L137.608,15.976 L137.8,18.208 C138.104001,17.3919959 138.595997,16.7680022 139.276,16.336 C139.956003,15.9039978 140.727996,15.688 141.592,15.688 C141.992002,15.688 142.343998,15.7199997 142.648,15.784 Z M144.984,21.808 L144.984,21.88 C144.984,23.4960081 145.355996,24.7319957 146.1,25.588 C146.844004,26.4440043 147.927993,26.872 149.352,26.872 C150.792007,26.872 152.111994,26.376005 153.312,25.384 L153.888,26.536 C153.359997,27.0320025 152.688004,27.4279985 151.872,27.724 C151.055996,28.0200015 150.216004,28.168 149.352,28.168 C147.527991,28.168 146.088005,27.6160055 145.032,26.512 C143.975995,25.4079945 143.448,23.8880097 143.448,21.952 C143.448,20.7199938 143.683998,19.6280048 144.156,18.676 C144.628002,17.7239952 145.287996,16.9880026 146.136,16.468 C146.984004,15.9479974 147.959994,15.688 149.064,15.688 C150.648008,15.688 151.883996,16.1999949 152.772,17.224 C153.660004,18.2480051 154.104,19.6719909 154.104,21.496 L154.104,21.808 L144.984,21.808 Z M146.376,17.884 C145.687997,18.5480033 145.256001,19.479994 145.08,20.68 L152.712,20.68 C152.615999,19.4479938 152.256003,18.5080032 151.632,17.86 C151.007997,17.2119968 150.152005,16.888 149.064,16.888 C147.959994,16.888 147.064003,17.2199967 146.376,17.884 Z" id="MHRD-Score" fill="#5B5B5B"></path>
                </g>
                <g id="Group-3" transform="translate(0.000000, 189.000000)">
                    <g id="Rectangle">
                        <use fill="black" fill-opacity="1" filter="url(#filter-6)" xlink:href="#path-5"></use>
                        <use fill="#FFFFFF" fill-rule="evenodd" xlink:href="#path-5"></use>
                    </g>
                    <path d="M21.308,9.912 L27.884,9.912 C29.5960086,9.912 30.9399952,10.3279958 31.916,11.16 C32.8920049,11.9920042 33.38,13.1359927 33.38,14.592 C33.38,16.0640074 32.888005,17.2199958 31.904,18.06 C30.9199951,18.9000042 29.5800085,19.32 27.884,19.32 L22.796,19.32 L22.796,27 L21.308,27 L21.308,9.912 Z M27.788,18.024 C29.1320068,18.024 30.1479966,17.728003 30.836,17.136 C31.5240035,16.543997 31.868,15.6960055 31.868,14.592 C31.868,13.5039946 31.5240035,12.664003 30.836,12.072 C30.1479966,11.479997 29.1320068,11.184 27.788,11.184 L22.796,11.184 L22.796,18.024 L27.788,18.024 Z M36.22,27 L36.22,9.336 L37.66,9.336 L37.66,27 L36.22,27 Z M51.564,14.976 L51.564,27 L50.1,27 L50.1,24.696 C49.7479983,25.496004 49.2160036,26.1079979 48.504,26.532 C47.7919965,26.9560021 46.940005,27.168 45.948,27.168 C44.8759947,27.168 43.9360041,26.9160025 43.128,26.412 C42.319996,25.9079975 41.6960022,25.1880047 41.256,24.252 C40.8159978,23.3159953 40.596,22.2240062 40.596,20.976 C40.596,19.7279938 40.8199978,18.6280048 41.268,17.676 C41.7160023,16.7239952 42.343996,15.9880026 43.152,15.468 C43.9600041,14.9479974 44.8919947,14.688 45.948,14.688 C46.9240049,14.688 47.7679965,14.8959979 48.48,15.312 C49.1920036,15.7280021 49.7319982,16.335996 50.1,17.136 L50.1,14.976 L51.564,14.976 Z M49.068,24.576 C49.7560035,23.7119957 50.1,22.4960078 50.1,20.928 C50.1,19.3439921 49.7560035,18.1200043 49.068,17.256 C48.3799966,16.3919957 47.4040063,15.96 46.14,15.96 C44.8759937,15.96 43.8920035,16.4039956 43.188,17.292 C42.4839965,18.1800044 42.132,19.4079922 42.132,20.976 C42.132,22.5280078 42.4839965,23.7319957 43.188,24.588 C43.8920035,25.4440043 44.8839936,25.872 46.164,25.872 C47.4120063,25.872 48.3799966,25.4400043 49.068,24.576 Z M57.116,26.4 C56.2679958,25.8879974 55.6120023,25.1640047 55.148,24.228 C54.6839977,23.2919953 54.452,22.2080062 54.452,20.976 C54.452,19.7279938 54.6839977,18.6280048 55.148,17.676 C55.6120023,16.7239952 56.2759957,15.9880026 57.14,15.468 C58.0040043,14.9479974 59.0039943,14.688 60.14,14.688 C60.9560041,14.688 61.7359963,14.8279986 62.48,15.108 C63.2240037,15.3880014 63.8359976,15.7759975 64.316,16.272 L63.74,17.424 C63.1159969,16.9119974 62.5200029,16.5400012 61.952,16.308 C61.3839972,16.0759988 60.7960031,15.96 60.188,15.96 C58.8919935,15.96 57.8680038,16.4039956 57.116,17.292 C56.3639963,18.1800044 55.988,19.4079922 55.988,20.976 C55.988,22.5120077 56.3599963,23.7119957 57.104,24.576 C57.8480037,25.4400043 58.8759935,25.872 60.188,25.872 C60.7960031,25.872 61.3839972,25.7560012 61.952,25.524 C62.5200029,25.2919988 63.1159969,24.9280025 63.74,24.432 L64.316,25.56 C63.8039975,26.0560025 63.1680038,26.4479986 62.408,26.736 C61.6479962,27.0240014 60.8760039,27.168 60.092,27.168 C58.9559943,27.168 57.9640043,26.9120026 57.116,26.4 Z M67.42,20.808 L67.42,20.88 C67.42,22.4960081 67.7919963,23.7319957 68.536,24.588 C69.2800037,25.4440043 70.3639929,25.872 71.788,25.872 C73.2280072,25.872 74.547994,25.376005 75.748,24.384 L76.324,25.536 C75.7959974,26.0320025 75.1240041,26.4279985 74.308,26.724 C73.4919959,27.0200015 72.6520043,27.168 71.788,27.168 C69.9639909,27.168 68.5240053,26.6160055 67.468,25.512 C66.4119947,24.4079945 65.884,22.8880097 65.884,20.952 C65.884,19.7199938 66.1199976,18.6280048 66.592,17.676 C67.0640024,16.7239952 67.7239958,15.9880026 68.572,15.468 C69.4200042,14.9479974 70.3959945,14.688 71.5,14.688 C73.0840079,14.688 74.3199956,15.1999949 75.208,16.224 C76.0960044,17.2480051 76.54,18.6719909 76.54,20.496 L76.54,20.808 L67.42,20.808 Z M68.812,16.884 C68.1239966,17.5480033 67.6920009,18.479994 67.516,19.68 L75.148,19.68 C75.0519995,18.4479938 74.6920031,17.5080032 74.068,16.86 C73.4439969,16.2119968 72.5880054,15.888 71.5,15.888 C70.3959945,15.888 69.5000034,16.2199967 68.812,16.884 Z M96.3,19.344 L96.3,27 L94.836,27 L94.836,19.44 C94.836,18.2239939 94.6200022,17.3400028 94.188,16.788 C93.7559978,16.2359972 93.0680047,15.96 92.124,15.96 C91.0199945,15.96 90.1520032,16.3279963 89.52,17.064 C88.8879968,17.8000037 88.572,18.7999937 88.572,20.064 L88.572,27 L87.108,27 L87.108,19.44 C87.108,18.2239939 86.8880022,17.3400028 86.448,16.788 C86.0079978,16.2359972 85.3160047,15.96 84.372,15.96 C83.2839946,15.96 82.4160032,16.3279963 81.768,17.064 C81.1199968,17.8000037 80.796,18.7999937 80.796,20.064 L80.796,27 L79.356,27 L79.356,18.312 C79.356,17.0639938 79.2920006,15.9520049 79.164,14.976 L80.556,14.976 L80.748,17.136 C81.0840017,16.335996 81.5839967,15.7280021 82.248,15.312 C82.9120033,14.8959979 83.6839956,14.688 84.564,14.688 C86.5000097,14.688 87.7399973,15.4719922 88.284,17.04 C88.6200017,16.3039963 89.1439964,15.7280021 89.856,15.312 C90.5680036,14.8959979 91.3879954,14.688 92.316,14.688 C94.9720133,14.688 96.3,16.2399845 96.3,19.344 Z M100.652,20.808 L100.652,20.88 C100.652,22.4960081 101.023996,23.7319957 101.768,24.588 C102.512004,25.4440043 103.595993,25.872 105.02,25.872 C106.460007,25.872 107.779994,25.376005 108.98,24.384 L109.556,25.536 C109.027997,26.0320025 108.356004,26.4279985 107.54,26.724 C106.723996,27.0200015 105.884004,27.168 105.02,27.168 C103.195991,27.168 101.756005,26.6160055 100.7,25.512 C99.6439947,24.4079945 99.116,22.8880097 99.116,20.952 C99.116,19.7199938 99.3519976,18.6280048 99.824,17.676 C100.296002,16.7239952 100.955996,15.9880026 101.804,15.468 C102.652004,14.9479974 103.627994,14.688 104.732,14.688 C106.316008,14.688 107.551996,15.1999949 108.44,16.224 C109.328004,17.2480051 109.772,18.6719909 109.772,20.496 L109.772,20.808 L100.652,20.808 Z M102.044,16.884 C101.355997,17.5480033 100.924001,18.479994 100.748,19.68 L108.38,19.68 C108.284,18.4479938 107.924003,17.5080032 107.3,16.86 C106.675997,16.2119968 105.820005,15.888 104.732,15.888 C103.627994,15.888 102.732003,16.2199967 102.044,16.884 Z M122.524,19.344 L122.524,27 L121.06,27 L121.06,19.44 C121.06,18.239994 120.816002,17.3600028 120.328,16.8 C119.839998,16.2399972 119.076005,15.96 118.036,15.96 C116.835994,15.96 115.868004,16.3279963 115.132,17.064 C114.395996,17.8000037 114.028,18.7919938 114.028,20.04 L114.028,27 L112.588,27 L112.588,18.312 C112.588,17.0639938 112.524001,15.9520049 112.396,14.976 L113.788,14.976 L113.98,17.184 C114.348002,16.3679959 114.899996,15.7480021 115.636,15.324 C116.372004,14.8999979 117.219995,14.688 118.18,14.688 C121.076014,14.688 122.524,16.2399845 122.524,19.344 Z M128.172,16.152 L128.172,23.304 C128.172,24.2640048 128.355998,24.9279982 128.724,25.296 C129.092002,25.6640018 129.635996,25.848 130.356,25.848 C130.804002,25.848 131.235998,25.7760007 131.652,25.632 L131.652,26.952 C131.139997,27.0800006 130.620003,27.144 130.092,27.144 C129.035995,27.144 128.208003,26.848003 127.608,26.256 C127.007997,25.663997 126.708,24.7760059 126.708,23.592 L126.708,16.152 L124.332,16.152 L124.332,14.976 L126.708,14.976 L126.708,11.784 L128.172,11.232 L128.172,14.976 L131.724,14.976 L131.724,16.152 L128.172,16.152 Z" id="Placement" fill="#5B5B5B"></path>
                </g>
                <g id="Group-4" transform="translate(112.000000, 0.000000)">
                    <g id="Rectangle">
                        <use fill="black" fill-opacity="1" filter="url(#filter-8)" xlink:href="#path-7"></use>
                        <use fill="#FFFFFF" fill-rule="evenodd" xlink:href="#path-7"></use>
                    </g>
                    <path d="M34.4520001,9.912 L35.7000001,9.912 L35.7000001,27 L34.3080001,27 L34.3080001,13.32 L28.3080001,27 L27.2040001,27 L21.1560001,13.44 L21.1800001,27 L19.7880001,27 L19.7880001,9.912 L21.0120001,9.912 L27.7800001,25.224 L34.4520001,9.912 Z M49.7720001,14.976 L49.7720001,27 L48.3080001,27 L48.3080001,24.696 C47.9559983,25.496004 47.4240036,26.1079979 46.7120001,26.532 C45.9999965,26.9560021 45.148005,27.168 44.1560001,27.168 C43.0839947,27.168 42.1440041,26.9160025 41.3360001,26.412 C40.527996,25.9079975 39.9040023,25.1880047 39.4640001,24.252 C39.0239979,23.3159953 38.8040001,22.2240062 38.8040001,20.976 C38.8040001,19.7279938 39.0279978,18.6280048 39.4760001,17.676 C39.9240023,16.7239952 40.551996,15.9880026 41.3600001,15.468 C42.1680041,14.9479974 43.0999948,14.688 44.1560001,14.688 C45.132005,14.688 45.9759965,14.8959979 46.6880001,15.312 C47.4000036,15.7280021 47.9399982,16.335996 48.3080001,17.136 L48.3080001,14.976 L49.7720001,14.976 Z M47.2760001,24.576 C47.9640035,23.7119957 48.3080001,22.4960078 48.3080001,20.928 C48.3080001,19.3439921 47.9640035,18.1200043 47.2760001,17.256 C46.5879966,16.3919957 45.6120064,15.96 44.3480001,15.96 C43.0839938,15.96 42.1000036,16.4039956 41.3960001,17.292 C40.6919966,18.1800044 40.3400001,19.4079922 40.3400001,20.976 C40.3400001,22.5280078 40.6919966,23.7319957 41.3960001,24.588 C42.1000036,25.4440043 43.0919937,25.872 44.3720001,25.872 C45.6200063,25.872 46.5879966,25.4400043 47.2760001,24.576 Z M63.3640001,19.344 L63.3640001,27 L61.9000001,27 L61.9000001,19.44 C61.9000001,18.239994 61.6560025,17.3600028 61.1680001,16.8 C60.6799976,16.2399972 59.9160053,15.96 58.8760001,15.96 C57.6759941,15.96 56.7080038,16.3279963 55.9720001,17.064 C55.2359964,17.8000037 54.8680001,18.7919938 54.8680001,20.04 L54.8680001,27 L53.4280001,27 L53.4280001,18.312 C53.4280001,17.0639938 53.3640007,15.9520049 53.2360001,14.976 L54.6280001,14.976 L54.8200001,17.184 C55.1880019,16.3679959 55.7399964,15.7480021 56.4760001,15.324 C57.2120038,14.8999979 58.0599953,14.688 59.0200001,14.688 C61.9160146,14.688 63.3640001,16.2399845 63.3640001,19.344 Z M77.1720001,14.976 L77.1720001,27 L75.7080001,27 L75.7080001,24.696 C75.3559983,25.496004 74.8240036,26.1079979 74.1120001,26.532 C73.3999965,26.9560021 72.548005,27.168 71.5560001,27.168 C70.4839947,27.168 69.5440041,26.9160025 68.7360001,26.412 C67.927996,25.9079975 67.3040023,25.1880047 66.8640001,24.252 C66.4239979,23.3159953 66.2040001,22.2240062 66.2040001,20.976 C66.2040001,19.7279938 66.4279978,18.6280048 66.8760001,17.676 C67.3240023,16.7239952 67.951996,15.9880026 68.7600001,15.468 C69.5680041,14.9479974 70.4999948,14.688 71.5560001,14.688 C72.5320049,14.688 73.3759965,14.8959979 74.0880001,15.312 C74.8000036,15.7280021 75.3399982,16.335996 75.7080001,17.136 L75.7080001,14.976 L77.1720001,14.976 Z M74.6760001,24.576 C75.3640035,23.7119957 75.7080001,22.4960078 75.7080001,20.928 C75.7080001,19.3439921 75.3640035,18.1200043 74.6760001,17.256 C73.9879966,16.3919957 73.0120064,15.96 71.7480001,15.96 C70.4839937,15.96 69.5000036,16.4039956 68.7960001,17.292 C68.0919965,18.1800044 67.7400001,19.4079922 67.7400001,20.976 C67.7400001,22.5280078 68.0919965,23.7319957 68.7960001,24.588 C69.5000036,25.4440043 70.4919937,25.872 71.7720001,25.872 C73.0200063,25.872 73.9879966,25.4400043 74.6760001,24.576 Z M91.1240001,14.976 L91.1240001,27.048 C91.1240001,28.7920087 90.6920044,30.1119955 89.8280001,31.008 C88.9639957,31.9040045 87.6920085,32.352 86.0120001,32.352 C84.2199911,32.352 82.6600067,31.9200043 81.3320001,31.056 L81.6200001,29.784 C82.404004,30.2480023 83.1239968,30.575999 83.7800001,30.768 C84.4360033,30.960001 85.1879958,31.056 86.0360001,31.056 C87.2360061,31.056 88.143997,30.7280033 88.7600001,30.072 C89.3760031,29.4159967 89.6840001,28.4560063 89.6840001,27.192 L89.6840001,24.096 C89.3159982,24.9120041 88.7720037,25.5399978 88.0520001,25.98 C87.3319965,26.4200022 86.4680051,26.64 85.4600001,26.64 C84.4039948,26.64 83.4680041,26.3880025 82.6520001,25.884 C81.835996,25.3799975 81.2000023,24.6760045 80.7440001,23.772 C80.2879978,22.8679955 80.0600001,21.8320058 80.0600001,20.664 C80.0600001,19.4799941 80.2879978,18.4360045 80.7440001,17.532 C81.2000023,16.6279955 81.835996,15.9280025 82.6520001,15.432 C83.4680041,14.9359975 84.4039948,14.688 85.4600001,14.688 C86.4680051,14.688 87.3279965,14.8959979 88.0400001,15.312 C88.7520036,15.7280021 89.2919982,16.335996 89.6600001,17.136 L89.6600001,14.976 L91.1240001,14.976 Z M88.5920001,24.072 C89.3040036,23.2399958 89.6600001,22.1040072 89.6600001,20.664 C89.6600001,19.2079927 89.3040036,18.0600042 88.5920001,17.22 C87.8799965,16.3799958 86.9000063,15.96 85.6520001,15.96 C84.3879937,15.96 83.3960037,16.3799958 82.6760001,17.22 C81.9559965,18.0600042 81.5960001,19.2079927 81.5960001,20.664 C81.5960001,22.1200073 81.9559965,23.2599959 82.6760001,24.084 C83.3960037,24.9080041 84.3879937,25.32 85.6520001,25.32 C86.9000063,25.32 87.8799965,24.9040042 88.5920001,24.072 Z M95.548,20.808 L95.548,20.88 C95.548,22.4960081 95.9199963,23.7319957 96.664,24.588 C97.4080038,25.4440043 98.4919929,25.872 99.916,25.872 C101.356007,25.872 102.675994,25.376005 103.876,24.384 L104.452,25.536 C103.923997,26.0320025 103.252004,26.4279985 102.436,26.724 C101.619996,27.0200015 100.780004,27.168 99.916,27.168 C98.0919909,27.168 96.6520053,26.6160055 95.596,25.512 C94.5399948,24.4079945 94.012,22.8880097 94.012,20.952 C94.012,19.7199938 94.2479977,18.6280048 94.72,17.676 C95.1920024,16.7239952 95.8519958,15.9880026 96.7,15.468 C97.5480043,14.9479974 98.5239945,14.688 99.628,14.688 C101.212008,14.688 102.447996,15.1999949 103.336,16.224 C104.224004,17.2480051 104.668,18.6719909 104.668,20.496 L104.668,20.808 L95.548,20.808 Z M96.94,16.884 C96.2519966,17.5480033 95.8200009,18.479994 95.644,19.68 L103.276,19.68 C103.18,18.4479938 102.820003,17.5080032 102.196,16.86 C101.571997,16.2119968 100.716005,15.888 99.628,15.888 C98.5239945,15.888 97.6280035,16.2199967 96.94,16.884 Z M124.428,19.344 L124.428,27 L122.964,27 L122.964,19.44 C122.964,18.2239939 122.748002,17.3400028 122.316,16.788 C121.883998,16.2359972 121.196005,15.96 120.252,15.96 C119.147995,15.96 118.280003,16.3279963 117.648,17.064 C117.015997,17.8000037 116.7,18.7999937 116.7,20.064 L116.7,27 L115.236,27 L115.236,19.44 C115.236,18.2239939 115.016002,17.3400028 114.576,16.788 C114.135998,16.2359972 113.444005,15.96 112.5,15.96 C111.411995,15.96 110.544003,16.3279963 109.896,17.064 C109.247997,17.8000037 108.924,18.7999937 108.924,20.064 L108.924,27 L107.484,27 L107.484,18.312 C107.484,17.0639938 107.420001,15.9520049 107.292,14.976 L108.684,14.976 L108.876,17.136 C109.212002,16.335996 109.711997,15.7280021 110.376,15.312 C111.040003,14.8959979 111.811996,14.688 112.692,14.688 C114.62801,14.688 115.867997,15.4719922 116.412,17.04 C116.748002,16.3039963 117.271996,15.7280021 117.984,15.312 C118.696004,14.8959979 119.515995,14.688 120.444,14.688 C123.100013,14.688 124.428,16.2399845 124.428,19.344 Z M128.78,20.808 L128.78,20.88 C128.78,22.4960081 129.151996,23.7319957 129.896,24.588 C130.640004,25.4440043 131.723993,25.872 133.148,25.872 C134.588007,25.872 135.907994,25.376005 137.108,24.384 L137.684,25.536 C137.155997,26.0320025 136.484004,26.4279985 135.668,26.724 C134.851996,27.0200015 134.012004,27.168 133.148,27.168 C131.323991,27.168 129.884005,26.6160055 128.828,25.512 C127.771995,24.4079945 127.244,22.8880097 127.244,20.952 C127.244,19.7199938 127.479998,18.6280048 127.952,17.676 C128.424002,16.7239952 129.083996,15.9880026 129.932,15.468 C130.780004,14.9479974 131.755995,14.688 132.86,14.688 C134.444008,14.688 135.679996,15.1999949 136.568,16.224 C137.456004,17.2480051 137.9,18.6719909 137.9,20.496 L137.9,20.808 L128.78,20.808 Z M130.172,16.884 C129.483997,17.5480033 129.052001,18.479994 128.876,19.68 L136.508,19.68 C136.412,18.4479938 136.052003,17.5080032 135.428,16.86 C134.803997,16.2119968 133.948005,15.888 132.86,15.888 C131.755995,15.888 130.860003,16.2199967 130.172,16.884 Z M150.652,19.344 L150.652,27 L149.188,27 L149.188,19.44 C149.188,18.239994 148.944002,17.3600028 148.456,16.8 C147.967998,16.2399972 147.204005,15.96 146.164,15.96 C144.963994,15.96 143.996004,16.3279963 143.26,17.064 C142.523996,17.8000037 142.156,18.7919938 142.156,20.04 L142.156,27 L140.716,27 L140.716,18.312 C140.716,17.0639938 140.652001,15.9520049 140.524,14.976 L141.916,14.976 L142.108,17.184 C142.476002,16.3679959 143.027996,15.7480021 143.764,15.324 C144.500004,14.8999979 145.347995,14.688 146.308,14.688 C149.204014,14.688 150.652,16.2399845 150.652,19.344 Z M156.3,16.152 L156.3,23.304 C156.3,24.2640048 156.483998,24.9279982 156.852,25.296 C157.220002,25.6640018 157.763996,25.848 158.484,25.848 C158.932002,25.848 159.363998,25.7760007 159.78,25.632 L159.78,26.952 C159.267997,27.0800006 158.748003,27.144 158.22,27.144 C157.163995,27.144 156.336003,26.848003 155.736,26.256 C155.135997,25.663997 154.836,24.7760059 154.836,23.592 L154.836,16.152 L152.46,16.152 L152.46,14.976 L154.836,14.976 L154.836,11.784 L156.3,11.232 L156.3,14.976 L159.852,14.976 L159.852,16.152 L156.3,16.152 Z M162.164,28.296 L160.724,28.296 L166.844,9.048 L168.308,9.048 L162.164,28.296 Z M181.66,9.912 L183.052,9.912 L183.052,27 L181.9,27 L171.052,12.432 L171.052,27 L169.66,27 L169.66,9.912 L170.836,9.912 L181.66,24.48 L181.66,9.912 Z M200.292,27 L198.756,27 L196.62,21.312 C196.347999,20.5439962 195.972002,20.0280013 195.492,19.764 C195.011998,19.4999987 194.316005,19.368 193.404,19.368 L188.628,19.368 L188.628,27 L187.14,27 L187.14,9.912 L193.74,9.912 C195.516009,9.912 196.891995,10.315996 197.868,11.124 C198.844005,11.932004 199.332,13.0879925 199.332,14.592 C199.332,15.6960055 199.040003,16.6239962 198.456,17.376 C197.871997,18.1280038 197.036005,18.6559985 195.948,18.96 C196.444002,19.0400004 196.867998,19.2479983 197.22,19.584 C197.572002,19.9200017 197.867999,20.4159967 198.108,21.072 L200.292,27 Z M193.644,18.072 C196.444014,18.072 197.844,16.9040117 197.844,14.568 C197.844,12.3119887 196.444014,11.184 193.644,11.184 L188.604,11.184 L188.604,18.072 L193.644,18.072 Z M203.324,27 L203.324,9.912 L204.812,9.912 L204.812,27 L203.324,27 Z M224.844,14.976 C224.731999,16.0000051 224.676,17.111994 224.676,18.312 L224.676,32.184 L223.212,32.184 L223.212,24.696 C222.859998,25.496004 222.328004,26.1079979 221.616,26.532 C220.903996,26.9560021 220.052005,27.168 219.06,27.168 C217.987995,27.168 217.048004,26.9160025 216.24,26.412 C215.431996,25.9079975 214.808002,25.1880047 214.368,24.252 C213.927998,23.3159953 213.708,22.2240062 213.708,20.976 C213.708,19.7279938 213.931998,18.6280048 214.38,17.676 C214.828002,16.7239952 215.455996,15.9880026 216.264,15.468 C217.072004,14.9479974 218.003995,14.688 219.06,14.688 C220.084005,14.688 220.955996,14.9119978 221.676,15.36 C222.396004,15.8080022 222.931998,16.4479958 223.284,17.28 L223.5,14.976 L224.844,14.976 Z M222.18,24.576 C222.868003,23.7119957 223.212,22.4960078 223.212,20.928 C223.212,19.3439921 222.868003,18.1200043 222.18,17.256 C221.491997,16.3919957 220.516006,15.96 219.252,15.96 C217.987994,15.96 217.004003,16.4039956 216.3,17.292 C215.595996,18.1800044 215.244,19.4079922 215.244,20.976 C215.244,22.5280078 215.595996,23.7319957 216.3,24.588 C217.004003,25.4440043 217.995994,25.872 219.276,25.872 C220.524006,25.872 221.491997,25.4400043 222.18,24.576 Z M238.004,14.976 L238.004,27 L236.588,27 L236.588,24.816 C236.203998,25.5840038 235.660003,26.167998 234.956,26.568 C234.251996,26.968002 233.444005,27.168 232.532,27.168 C231.123993,27.168 230.060004,26.7760039 229.34,25.992 C228.619996,25.2079961 228.26,24.0480077 228.26,22.512 L228.26,14.976 L229.7,14.976 L229.7,22.416 C229.7,23.6000059 229.939998,24.4719972 230.42,25.032 C230.900002,25.5920028 231.643995,25.872 232.652,25.872 C233.836006,25.872 234.779996,25.5000037 235.484,24.756 C236.188003,24.0119963 236.54,23.0240062 236.54,21.792 L236.54,14.976 L238.004,14.976 Z M243.52,26.4 C242.679996,25.8879974 242.032002,25.1600047 241.576,24.216 C241.119998,23.2719953 240.892,22.1760062 240.892,20.928 C240.892,19.6799938 241.119998,18.5840047 241.576,17.64 C242.032002,16.6959953 242.679996,15.9680026 243.52,15.456 C244.360004,14.9439974 245.331994,14.688 246.436,14.688 C247.524005,14.688 248.483996,14.9439974 249.316,15.456 C250.148004,15.9680026 250.791998,16.6959953 251.248,17.64 C251.704002,18.5840047 251.932,19.6799938 251.932,20.928 C251.932,22.1760062 251.704002,23.2719953 251.248,24.216 C250.791998,25.1600047 250.148004,25.8879974 249.316,26.4 C248.483996,26.9120026 247.524005,27.168 246.436,27.168 C245.331994,27.168 244.360004,26.9120026 243.52,26.4 Z M249.376,24.588 C250.072003,23.7319957 250.42,22.5120079 250.42,20.928 C250.42,19.3599922 250.068003,18.1400044 249.364,17.268 C248.659996,16.3959956 247.684006,15.96 246.436,15.96 C245.171994,15.96 244.188003,16.3959956 243.484,17.268 C242.779996,18.1400044 242.428,19.3599922 242.428,20.928 C242.428,22.528008 242.771996,23.7519958 243.46,24.6 C244.148003,25.4480042 245.131994,25.872 246.412,25.872 C247.692006,25.872 248.679996,25.4440043 249.376,24.588 Z M256.86,16.152 L256.86,23.304 C256.86,24.2640048 257.043998,24.9279982 257.412,25.296 C257.780002,25.6640018 258.323996,25.848 259.044,25.848 C259.492002,25.848 259.923998,25.7760007 260.34,25.632 L260.34,26.952 C259.827997,27.0800006 259.308003,27.144 258.78,27.144 C257.723995,27.144 256.896003,26.848003 256.296,26.256 C255.695997,25.663997 255.396,24.7760059 255.396,23.592 L255.396,16.152 L253.02,16.152 L253.02,14.976 L255.396,14.976 L255.396,11.784 L256.86,11.232 L256.86,14.976 L260.412,14.976 L260.412,16.152 L256.86,16.152 Z M272.78,14.976 L272.78,27 L271.316,27 L271.316,24.696 C270.963998,25.496004 270.432003,26.1079979 269.72,26.532 C269.007996,26.9560021 268.156005,27.168 267.164,27.168 C266.091995,27.168 265.152004,26.9160025 264.344,26.412 C263.535996,25.9079975 262.912002,25.1880047 262.472,24.252 C262.031998,23.3159953 261.812,22.2240062 261.812,20.976 C261.812,19.7279938 262.035998,18.6280048 262.484,17.676 C262.932002,16.7239952 263.559996,15.9880026 264.368,15.468 C265.176004,14.9479974 266.107995,14.688 267.164,14.688 C268.140005,14.688 268.983996,14.8959979 269.696,15.312 C270.408003,15.7280021 270.947998,16.335996 271.316,17.136 L271.316,14.976 L272.78,14.976 Z M270.284,24.576 C270.972003,23.7119957 271.316,22.4960078 271.316,20.928 C271.316,19.3439921 270.972003,18.1200043 270.284,17.256 C269.595996,16.3919957 268.620006,15.96 267.356,15.96 C266.091994,15.96 265.108003,16.4039956 264.404,17.292 C263.699996,18.1800044 263.348,19.4079922 263.348,20.976 C263.348,22.5280078 263.699996,23.7319957 264.404,24.588 C265.108003,25.4440043 266.099994,25.872 267.38,25.872 C268.628006,25.872 269.595996,25.4400043 270.284,24.576 Z" id="Management/NRI-quota" fill="#5B5B5B"></path>
                </g>
                <g id="Group-5" transform="translate(321.000000, 189.000000)">
                    <g id="Rectangle">
                        <use fill="black" fill-opacity="1" filter="url(#filter-10)" xlink:href="#path-9"></use>
                        <use fill="#FFFFFF" fill-rule="evenodd" xlink:href="#path-9"></use>
                    </g>
                    <path d="M37.8280001,9.912 L39.0760001,9.912 L39.0760001,27 L37.6840001,27 L37.6840001,13.32 L31.6840001,27 L30.5800001,27 L24.5320001,13.44 L24.5560001,27 L23.1640001,27 L23.1640001,9.912 L24.3880001,9.912 L31.1560001,25.224 L37.8280001,9.912 Z M44.808,26.4 C43.9679958,25.8879974 43.3200023,25.1600047 42.864,24.216 C42.4079978,23.2719953 42.18,22.1760062 42.18,20.928 C42.18,19.6799938 42.4079978,18.5840047 42.864,17.64 C43.3200023,16.6959953 43.9679958,15.9680026 44.808,15.456 C45.6480042,14.9439974 46.6199945,14.688 47.724,14.688 C48.8120055,14.688 49.7719959,14.9439974 50.604,15.456 C51.4360042,15.9680026 52.0799978,16.6959953 52.536,17.64 C52.9920023,18.5840047 53.22,19.6799938 53.22,20.928 C53.22,22.1760062 52.9920023,23.2719953 52.536,24.216 C52.0799978,25.1600047 51.4360042,25.8879974 50.604,26.4 C49.7719959,26.9120026 48.8120055,27.168 47.724,27.168 C46.6199945,27.168 45.6480042,26.9120026 44.808,26.4 Z M50.664,24.588 C51.3600035,23.7319957 51.708,22.5120079 51.708,20.928 C51.708,19.3599922 51.3560036,18.1400044 50.652,17.268 C49.9479965,16.3959956 48.9720063,15.96 47.724,15.96 C46.4599937,15.96 45.4760036,16.3959956 44.772,17.268 C44.0679965,18.1400044 43.716,19.3599922 43.716,20.928 C43.716,22.528008 44.0599966,23.7519958 44.748,24.6 C45.4360035,25.4480042 46.4199936,25.872 47.7,25.872 C48.9800064,25.872 49.9679966,25.4440043 50.664,24.588 Z M66.308,9.336 L66.308,27 L64.844,27 L64.844,24.696 C64.4919983,25.496004 63.9600036,26.1079979 63.248,26.532 C62.5359965,26.9560021 61.684005,27.168 60.692,27.168 C59.6359948,27.168 58.7040041,26.9080026 57.896,26.388 C57.087996,25.8679974 56.4600023,25.1320048 56.012,24.18 C55.5639978,23.2279952 55.34,22.1280062 55.34,20.88 C55.34,19.6319938 55.5599978,18.5400047 56,17.604 C56.4400022,16.6679953 57.063996,15.9480025 57.872,15.444 C58.6800041,14.9399975 59.6199947,14.688 60.692,14.688 C61.6680049,14.688 62.5119965,14.8959979 63.224,15.312 C63.9360036,15.7280021 64.4759982,16.335996 64.844,17.136 L64.844,9.336 L66.308,9.336 Z M63.812,24.576 C64.5000035,23.7119957 64.844,22.4960078 64.844,20.928 C64.844,19.3599922 64.5000035,18.1400044 63.812,17.268 C63.1239966,16.3959956 62.1560063,15.96 60.908,15.96 C59.6279936,15.96 58.6360036,16.3919957 57.932,17.256 C57.2279965,18.1200043 56.876,19.3279922 56.876,20.88 C56.876,22.4480078 57.2279965,23.6719956 57.932,24.552 C58.6360036,25.4320044 59.6199937,25.872 60.884,25.872 C62.1480064,25.872 63.1239966,25.4400043 63.812,24.576 Z M70.732,20.808 L70.732,20.88 C70.732,22.4960081 71.1039963,23.7319957 71.848,24.588 C72.5920037,25.4440043 73.6759929,25.872 75.1,25.872 C76.5400072,25.872 77.859994,25.376005 79.06,24.384 L79.636,25.536 C79.1079974,26.0320025 78.4360041,26.4279985 77.62,26.724 C76.8039959,27.0200015 75.9640043,27.168 75.1,27.168 C73.2759909,27.168 71.8360053,26.6160055 70.78,25.512 C69.7239947,24.4079945 69.196,22.8880097 69.196,20.952 C69.196,19.7199938 69.4319977,18.6280048 69.904,17.676 C70.3760024,16.7239952 71.0359958,15.9880026 71.884,15.468 C72.7320043,14.9479974 73.7079945,14.688 74.812,14.688 C76.3960079,14.688 77.6319956,15.1999949 78.52,16.224 C79.4080045,17.2480051 79.852,18.6719909 79.852,20.496 L79.852,20.808 L70.732,20.808 Z M72.124,16.884 C71.4359966,17.5480033 71.0040009,18.479994 70.828,19.68 L78.46,19.68 C78.3639995,18.4479938 78.0040031,17.5080032 77.38,16.86 C76.7559969,16.2119968 75.9000055,15.888 74.812,15.888 C73.7079945,15.888 72.8120035,16.2199967 72.124,16.884 Z M90.32,26.4 C89.4799958,25.8879974 88.8320023,25.1600047 88.376,24.216 C87.9199977,23.2719953 87.692,22.1760062 87.692,20.928 C87.692,19.6799938 87.9199977,18.5840047 88.376,17.64 C88.8320023,16.6959953 89.4799958,15.9680026 90.32,15.456 C91.1600042,14.9439974 92.1319945,14.688 93.236,14.688 C94.3240054,14.688 95.2839958,14.9439974 96.116,15.456 C96.9480042,15.9680026 97.5919977,16.6959953 98.048,17.64 C98.5040023,18.5840047 98.732,19.6799938 98.732,20.928 C98.732,22.1760062 98.5040023,23.2719953 98.048,24.216 C97.5919977,25.1600047 96.9480042,25.8879974 96.116,26.4 C95.2839958,26.9120026 94.3240054,27.168 93.236,27.168 C92.1319945,27.168 91.1600042,26.9120026 90.32,26.4 Z M96.176,24.588 C96.8720035,23.7319957 97.22,22.5120079 97.22,20.928 C97.22,19.3599922 96.8680035,18.1400044 96.164,17.268 C95.4599965,16.3959956 94.4840062,15.96 93.236,15.96 C91.9719937,15.96 90.9880035,16.3959956 90.284,17.268 C89.5799965,18.1400044 89.228,19.3599922 89.228,20.928 C89.228,22.528008 89.5719966,23.7519958 90.26,24.6 C90.9480034,25.4480042 91.9319936,25.872 93.212,25.872 C94.4920064,25.872 95.4799965,25.4440043 96.176,24.588 Z M104.188,11.112 C103.819998,11.4800018 103.636,12.1359953 103.636,13.08 L103.636,14.976 L106.732,14.976 L106.732,16.152 L103.636,16.152 L103.636,27 L102.172,27 L102.172,16.152 L99.82,16.152 L99.82,14.976 L102.172,14.976 L102.172,12.816 C102.172,11.615994 102.467997,10.720003 103.06,10.128 C103.652003,9.53599704 104.467995,9.24 105.508,9.24 C105.988002,9.24 106.483997,9.30399936 106.996,9.432 L106.996,10.752 C106.563998,10.6239994 106.156002,10.56 105.772,10.56 C105.083997,10.56 104.556002,10.7439982 104.188,11.112 Z M115.076,27 L115.076,9.912 L125.612,9.912 L125.612,11.184 L116.54,11.184 L116.54,17.664 L125.132,17.664 L125.132,18.984 L116.54,18.984 L116.54,25.728 L125.612,25.728 L125.612,27 L115.076,27 Z M133.828,20.808 L138.772,27 L136.972,27 L132.916,21.936 L128.908,27 L127.084,27 L132.028,20.808 L127.348,14.976 L129.172,14.976 L132.916,19.68 L136.66,14.976 L138.484,14.976 L133.828,20.808 Z M150.876,14.976 L150.876,27 L149.412,27 L149.412,24.696 C149.059998,25.496004 148.528004,26.1079979 147.816,26.532 C147.103996,26.9560021 146.252005,27.168 145.26,27.168 C144.187995,27.168 143.248004,26.9160025 142.44,26.412 C141.631996,25.9079975 141.008002,25.1880047 140.568,24.252 C140.127998,23.3159953 139.908,22.2240062 139.908,20.976 C139.908,19.7279938 140.131998,18.6280048 140.58,17.676 C141.028002,16.7239952 141.655996,15.9880026 142.464,15.468 C143.272004,14.9479974 144.203995,14.688 145.26,14.688 C146.236005,14.688 147.079996,14.8959979 147.792,15.312 C148.504004,15.7280021 149.043998,16.335996 149.412,17.136 L149.412,14.976 L150.876,14.976 Z M148.38,24.576 C149.068003,23.7119957 149.412,22.4960078 149.412,20.928 C149.412,19.3439921 149.068003,18.1200043 148.38,17.256 C147.691997,16.3919957 146.716006,15.96 145.452,15.96 C144.187994,15.96 143.204003,16.4039956 142.5,17.292 C141.795996,18.1800044 141.444,19.4079922 141.444,20.976 C141.444,22.5280078 141.795996,23.7319957 142.5,24.588 C143.204003,25.4440043 144.195994,25.872 145.476,25.872 C146.724006,25.872 147.691997,25.4400043 148.38,24.576 Z M171.476,19.344 L171.476,27 L170.012,27 L170.012,19.44 C170.012,18.2239939 169.796002,17.3400028 169.364,16.788 C168.931998,16.2359972 168.244005,15.96 167.3,15.96 C166.195994,15.96 165.328003,16.3279963 164.696,17.064 C164.063997,17.8000037 163.748,18.7999937 163.748,20.064 L163.748,27 L162.284,27 L162.284,19.44 C162.284,18.2239939 162.064002,17.3400028 161.624,16.788 C161.183998,16.2359972 160.492005,15.96 159.548,15.96 C158.459995,15.96 157.592003,16.3279963 156.944,17.064 C156.295997,17.8000037 155.972,18.7999937 155.972,20.064 L155.972,27 L154.532,27 L154.532,18.312 C154.532,17.0639938 154.468001,15.9520049 154.34,14.976 L155.732,14.976 L155.924,17.136 C156.260002,16.335996 156.759997,15.7280021 157.424,15.312 C158.088003,14.8959979 158.859996,14.688 159.74,14.688 C161.67601,14.688 162.915997,15.4719922 163.46,17.04 C163.796002,16.3039963 164.319996,15.7280021 165.032,15.312 C165.744004,14.8959979 166.563995,14.688 167.492,14.688 C170.148013,14.688 171.476,16.2399845 171.476,19.344 Z" id="Mode-of-Exam" fill="#5B5B5B"></path>
                </g>
                <g id="Group-2" transform="translate(194.000000, 83.000000)">
                    <polygon id="Triangle" stroke="#868491" stroke-width="8" fill="#B4B6BC" points="47.5 0 84 34 11 34"></polygon>
                    <rect id="Rectangle" fill="#625E7A" x="0" y="75" width="94" height="6"></rect>
                    <rect id="Rectangle-2" fill="#B4B6BC" x="13" y="36" width="68" height="39"></rect>
                    <rect id="Rectangle-3" fill="#868491" x="13" y="36" width="6" height="39"></rect>
                    <rect id="Rectangle-3" fill="#868491" x="28" y="36" width="6" height="39"></rect>
                    <rect id="Rectangle-3" fill="#868491" x="43" y="36" width="6" height="39"></rect>
                    <rect id="Rectangle-3" fill="#868491" x="59" y="36" width="6" height="39"></rect>
                    <rect id="Rectangle-3" fill="#868491" x="75" y="36" width="6" height="39"></rect>
                </g>
            </g>
        </g>
    </g>
</svg>