<?xml version="1.0" encoding="UTF-8"?>
<svg width="479px" height="519px" viewBox="0 0 479 519" version="1.1" xmlns="http://www.w3.org/2000/svg" xmlns:xlink="http://www.w3.org/1999/xlink">
    <!-- Generator: Sketch 46.2 (44496) - http://www.bohemiancoding.com/sketch -->
    <title>Group 3</title>
    <desc>Created with Sketch.</desc>
    <defs></defs>
    <g id="Page-1" stroke="none" stroke-width="1" fill="none" fill-rule="evenodd">
        <g id="Artboard-2" transform="translate(-961.000000, -171.000000)">
            <g id="Group-3" transform="translate(961.000000, 171.000000)">
                <g id="clouds" transform="translate(0.000000, 265.000000)" fill-rule="nonzero" fill="#9ACFF7">
                    <path d="M34.3841055,25 C38.0379902,25 41,22.0457537 41,18.4015443 C41,15.2711134 38.8134668,12.6516657 35.8810059,11.9748805 C35.8210273,5.351267 30.4196777,0 23.7643047,0 C19.1950469,0 15.217166,2.52257015 13.1525117,6.24720469 C12.5242988,5.97605934 11.8318633,5.82511245 11.103873,5.82511245 C8.48131445,5.82511245 6.31688281,7.775522 5.98551953,10.3009673 C2.57299023,10.9758357 0,13.9773628 0,17.5790035 C0,21.677571 3.33133008,25 7.44061914,25 C8.58525586,25 33.5999004,25 34.3841055,25 Z" id="Shape"></path>
                </g>
                <path d="M479.029661,86.9194727 C423.009887,10.6398242 366.021662,-15.029586 308.064985,9.91124211 C271.180109,25.7841215 216.2878,62.8809071 185,94 C154.146662,124.686973 114.175412,174.168703 65.086249,242.445191 C35.401064,291.187531 20.3752297,329.301843 20.0087459,356.788125 C19.4590203,398.017549 44.7464,460.686272 117.859911,470.031608 C190.973422,479.376944 332.252913,474.979139 381.178496,441.445875 C413.795551,419.090365 446.412606,390.871115 479.029661,356.788125 L479.029661,86.9194727 Z" id="Path-2" fill="#E2EDE1"></path>
                <path d="M504,129.100753 C436.333333,75.0335843 374.688328,57.5872181 319.064985,76.7616542 C281.385419,89.750525 221,129.100753 188.780007,154.846 C158.252607,179.238787 120.688021,225.644176 76.086249,294.062168 C46.401064,339.61137 31.3752297,375.228791 31.0087459,400.91443 C30.4590203,439.44289 55.7464,498.00615 128.859911,506.739267 C201.973422,515.472385 312,528.5 385,506.739267 C433.666667,492.232112 473.333333,469.769436 504,439.351239 L504,129.100753 Z" id="Path-2" fill="#E7FAE6"></path>
                <g id="plant" transform="translate(391.000000, 339.000000)">
                    <ellipse id="Oval-3" fill="#4FD888" cx="15.5" cy="29.5" rx="15.5" ry="29.5"></ellipse>
                    <path d="M15.5,15.5 L15.5,86.5070419" id="Line-6" stroke="#267E4B" stroke-linecap="square"></path>
                    <path d="M15.5,25.5 L26.5,17.5" id="Line-7" stroke="#267E4B" stroke-linecap="square"></path>
                    <path d="M14.5,38.5 L5.5,29.5" id="Line-8" stroke="#267E4B" stroke-linecap="square"></path>
                </g>
                <g id="plant" transform="translate(21.000000, 347.000000)">
                    <ellipse id="Oval-3" fill="#4FD888" cx="15.5" cy="29.5" rx="15.5" ry="29.5"></ellipse>
                    <path d="M15.5,15.5 L15.5,86.5070419" id="Line-6" stroke="#31AD65" stroke-linecap="square"></path>
                    <path d="M15.5,25.5 L26.5,17.5" id="Line-7" stroke="#31AD65" stroke-linecap="square"></path>
                    <path d="M14.5,38.5 L5.5,29.5" id="Line-8" stroke="#31AD65" stroke-linecap="square"></path>
                </g>
                <g id="clouds" transform="translate(159.000000, 201.000000)" fill-rule="nonzero" fill="#9ACFF7">
                    <path d="M47.802293,35 C52.882084,35 57,30.8640552 57,25.762162 C57,21.3795588 53.9601855,17.712332 49.8833496,16.7648327 C49.7999648,7.49177379 42.2907715,0 33.0381797,0 C26.6857969,0 21.1555723,3.53159822 18.2851992,8.74608656 C17.4118301,8.36648308 16.4491758,8.15515743 15.4370918,8.15515743 C11.7910957,8.15515743 8.78200781,10.8857308 8.32133203,14.4213543 C3.57708398,15.36617 0,19.5683079 0,24.6106049 C0,30.3485995 4.63136133,35 10.3442754,35 C11.9355996,35 46.7120566,35 47.802293,35 Z" id="Shape"></path>
                </g>
                <g id="cloud-(1)" transform="translate(305.000000, 413.000000)" fill-rule="nonzero" fill="#5CBB65">
                    <path d="M62.9983572,22.9919202 C63.3176608,21.6135327 63.4871284,20.1765651 63.4871284,18.6993238 C63.4871284,8.37196161 55.2351817,0 45.0560101,0 C35.2489743,0 27.2321747,7.77122364 26.6589585,17.5748806 C24.6246254,15.606153 21.8715707,14.3951579 18.8383314,14.3951579 C13.5665029,14.3951579 9.13566111,18.0461568 7.86710799,22.9917738 C7.86710799,22.9917738 0,24.7925232 0,31.9958137 C0,39.1991042 2.73356741,41 3.91637627,41 L67.0837681,41 C68.2662882,41 71,39.1992506 71,31.9959601 C71,24.7926696 62.9983572,22.9919202 62.9983572,22.9919202 Z" id="Shape"></path>
                </g>
                <g id="Group-2" transform="translate(159.000000, 290.000000)">
                    <rect id="Rectangle-2" fill="#E7A66A" x="28" y="60" width="112" height="92"></rect>
                    <g id="Group">
                        <polygon id="Triangle" fill="#B67334" points="86.5 0 173 60 0 60"></polygon>
                        <polygon id="Triangle" fill="#E7A66A" points="87 12 139 48 35 48"></polygon>
                    </g>
                    <rect id="Rectangle-3" fill="#B67334" x="28" y="60" width="12" height="91"></rect>
                    <rect id="Rectangle-3" fill="#B67334" x="61" y="60" width="12" height="91"></rect>
                    <rect id="Rectangle-3" fill="#B67334" x="94" y="60" width="12" height="91"></rect>
                    <rect id="Rectangle-3" fill="#B67334" x="128" y="60" width="12" height="91"></rect>
                    <rect id="Rectangle-4" fill="#A25622" x="23" y="60" width="23" height="9"></rect>
                    <rect id="Rectangle-4" fill="#A25622" x="56" y="60" width="23" height="9"></rect>
                    <rect id="Rectangle-4" fill="#A25622" x="89" y="60" width="23" height="9"></rect>
                    <rect id="Rectangle-4" fill="#A25622" x="122" y="60" width="23" height="9"></rect>
                    <rect id="Rectangle-4" fill="#A25622" x="56" y="142" width="23" height="9"></rect>
                    <rect id="Rectangle-4" fill="#A25622" x="89" y="142" width="23" height="9"></rect>
                    <rect id="Rectangle-4" fill="#A25622" x="123" y="142" width="23" height="9"></rect>
                    <rect id="Rectangle-4" fill="#A25622" x="23" y="143" width="23" height="9"></rect>
                    <rect id="Rectangle" fill="#72460E" x="13" y="151" width="145" height="13"></rect>
                    <circle id="Oval" fill="#A25622" cx="87.5" cy="30.5" r="7.5"></circle>
                </g>
                <g id="triangle-bush" transform="translate(105.000000, 387.000000)">
                    <polygon id="Triangle-3" fill="#56D844" points="41 13 57 66 25 66"></polygon>
                    <polygon id="Triangle-3" fill="#3DAB2E" points="20.5 0 41 67 0 67"></polygon>
                    <polygon id="Triangle-3" fill="#4AB93B" points="55 22 69 67 41 67"></polygon>
                </g>
                <g id="cloud-(1)" transform="translate(359.000000, 413.000000)" fill-rule="nonzero" fill="#4CD186">
                    <path d="M62.9983572,22.9919202 C63.3176608,21.6135327 63.4871284,20.1765651 63.4871284,18.6993238 C63.4871284,8.37196161 55.2351817,0 45.0560101,0 C35.2489743,0 27.2321747,7.77122364 26.6589585,17.5748806 C24.6246254,15.606153 21.8715707,14.3951579 18.8383314,14.3951579 C13.5665029,14.3951579 9.13566111,18.0461568 7.86710799,22.9917738 C7.86710799,22.9917738 0,24.7925232 0,31.9958137 C0,39.1991042 2.73356741,41 3.91637627,41 L67.0837681,41 C68.2662882,41 71,39.1992506 71,31.9959601 C71,24.7926696 62.9983572,22.9919202 62.9983572,22.9919202 Z" id="Shape"></path>
                </g>
            </g>
        </g>
    </g>
</svg>